%TF.GenerationSoftware,KiCad,Pcbnew,7.0.1*%
%TF.CreationDate,2023-04-07T14:52:09-07:00*%
%TF.ProjectId,receive mcu prototype r1,72656365-6976-4652-906d-63752070726f,rev?*%
%TF.SameCoordinates,Original*%
%TF.FileFunction,Copper,L1,Top*%
%TF.FilePolarity,Positive*%
%FSLAX46Y46*%
G04 Gerber Fmt 4.6, Leading zero omitted, Abs format (unit mm)*
G04 Created by KiCad (PCBNEW 7.0.1) date 2023-04-07 14:52:09*
%MOMM*%
%LPD*%
G01*
G04 APERTURE LIST*
G04 Aperture macros list*
%AMRoundRect*
0 Rectangle with rounded corners*
0 $1 Rounding radius*
0 $2 $3 $4 $5 $6 $7 $8 $9 X,Y pos of 4 corners*
0 Add a 4 corners polygon primitive as box body*
4,1,4,$2,$3,$4,$5,$6,$7,$8,$9,$2,$3,0*
0 Add four circle primitives for the rounded corners*
1,1,$1+$1,$2,$3*
1,1,$1+$1,$4,$5*
1,1,$1+$1,$6,$7*
1,1,$1+$1,$8,$9*
0 Add four rect primitives between the rounded corners*
20,1,$1+$1,$2,$3,$4,$5,0*
20,1,$1+$1,$4,$5,$6,$7,0*
20,1,$1+$1,$6,$7,$8,$9,0*
20,1,$1+$1,$8,$9,$2,$3,0*%
G04 Aperture macros list end*
%TA.AperFunction,SMDPad,CuDef*%
%ADD10RoundRect,0.250000X-0.262500X-0.450000X0.262500X-0.450000X0.262500X0.450000X-0.262500X0.450000X0*%
%TD*%
%TA.AperFunction,SMDPad,CuDef*%
%ADD11RoundRect,0.250000X0.250000X0.475000X-0.250000X0.475000X-0.250000X-0.475000X0.250000X-0.475000X0*%
%TD*%
%TA.AperFunction,SMDPad,CuDef*%
%ADD12RoundRect,0.150000X-0.825000X-0.150000X0.825000X-0.150000X0.825000X0.150000X-0.825000X0.150000X0*%
%TD*%
%TA.AperFunction,ComponentPad*%
%ADD13RoundRect,0.250000X0.725000X-0.600000X0.725000X0.600000X-0.725000X0.600000X-0.725000X-0.600000X0*%
%TD*%
%TA.AperFunction,ComponentPad*%
%ADD14O,1.950000X1.700000*%
%TD*%
%TA.AperFunction,SMDPad,CuDef*%
%ADD15RoundRect,0.250000X-0.250000X-0.475000X0.250000X-0.475000X0.250000X0.475000X-0.250000X0.475000X0*%
%TD*%
%TA.AperFunction,ComponentPad*%
%ADD16R,1.508000X1.508000*%
%TD*%
%TA.AperFunction,ComponentPad*%
%ADD17C,1.508000*%
%TD*%
%TA.AperFunction,ComponentPad*%
%ADD18R,1.700000X1.700000*%
%TD*%
%TA.AperFunction,ComponentPad*%
%ADD19C,1.700000*%
%TD*%
%TA.AperFunction,SMDPad,CuDef*%
%ADD20RoundRect,0.250000X0.262500X0.450000X-0.262500X0.450000X-0.262500X-0.450000X0.262500X-0.450000X0*%
%TD*%
%TA.AperFunction,ComponentPad*%
%ADD21R,1.600000X1.600000*%
%TD*%
%TA.AperFunction,ComponentPad*%
%ADD22C,1.600000*%
%TD*%
%TA.AperFunction,ComponentPad*%
%ADD23RoundRect,0.250000X-0.600000X-0.750000X0.600000X-0.750000X0.600000X0.750000X-0.600000X0.750000X0*%
%TD*%
%TA.AperFunction,ComponentPad*%
%ADD24O,1.700000X2.000000*%
%TD*%
%TA.AperFunction,SMDPad,CuDef*%
%ADD25RoundRect,0.225000X0.225000X0.375000X-0.225000X0.375000X-0.225000X-0.375000X0.225000X-0.375000X0*%
%TD*%
%TA.AperFunction,SMDPad,CuDef*%
%ADD26RoundRect,0.150000X0.625000X-0.150000X0.625000X0.150000X-0.625000X0.150000X-0.625000X-0.150000X0*%
%TD*%
%TA.AperFunction,SMDPad,CuDef*%
%ADD27RoundRect,0.250000X0.650000X-0.350000X0.650000X0.350000X-0.650000X0.350000X-0.650000X-0.350000X0*%
%TD*%
%TA.AperFunction,SMDPad,CuDef*%
%ADD28RoundRect,0.150000X0.587500X0.150000X-0.587500X0.150000X-0.587500X-0.150000X0.587500X-0.150000X0*%
%TD*%
%TA.AperFunction,SMDPad,CuDef*%
%ADD29R,1.500000X0.900000*%
%TD*%
%TA.AperFunction,SMDPad,CuDef*%
%ADD30R,0.900000X1.500000*%
%TD*%
%TA.AperFunction,SMDPad,CuDef*%
%ADD31R,0.900000X0.900000*%
%TD*%
%TA.AperFunction,ComponentPad*%
%ADD32C,0.400000*%
%TD*%
%TA.AperFunction,ComponentPad*%
%ADD33O,1.700000X1.700000*%
%TD*%
%TA.AperFunction,SMDPad,CuDef*%
%ADD34R,0.700000X1.000000*%
%TD*%
%TA.AperFunction,SMDPad,CuDef*%
%ADD35R,0.700000X0.600000*%
%TD*%
%TA.AperFunction,SMDPad,CuDef*%
%ADD36RoundRect,0.150000X-0.587500X-0.150000X0.587500X-0.150000X0.587500X0.150000X-0.587500X0.150000X0*%
%TD*%
%TA.AperFunction,SMDPad,CuDef*%
%ADD37R,0.400000X1.350000*%
%TD*%
%TA.AperFunction,ComponentPad*%
%ADD38O,0.890000X1.550000*%
%TD*%
%TA.AperFunction,SMDPad,CuDef*%
%ADD39R,1.200000X1.550000*%
%TD*%
%TA.AperFunction,ComponentPad*%
%ADD40O,1.250000X0.950000*%
%TD*%
%TA.AperFunction,SMDPad,CuDef*%
%ADD41R,1.500000X1.550000*%
%TD*%
%TA.AperFunction,ViaPad*%
%ADD42C,0.800000*%
%TD*%
%TA.AperFunction,Conductor*%
%ADD43C,0.355600*%
%TD*%
%TA.AperFunction,Conductor*%
%ADD44C,0.250000*%
%TD*%
%TA.AperFunction,Conductor*%
%ADD45C,0.200000*%
%TD*%
G04 APERTURE END LIST*
D10*
%TO.P,R1,1*%
%TO.N,Net-(U3-TXD)*%
X103227500Y-57150000D03*
%TO.P,R1,2*%
%TO.N,/RX*%
X105052500Y-57150000D03*
%TD*%
D11*
%TO.P,C8,1*%
%TO.N,/GPIO0*%
X105090000Y-54610000D03*
%TO.P,C8,2*%
%TO.N,GND*%
X103190000Y-54610000D03*
%TD*%
D12*
%TO.P,U3,1,GND*%
%TO.N,GND*%
X94045000Y-60325000D03*
%TO.P,U3,2,TXD*%
%TO.N,Net-(U3-TXD)*%
X94045000Y-61595000D03*
%TO.P,U3,3,RXD*%
%TO.N,Net-(U3-RXD)*%
X94045000Y-62865000D03*
%TO.P,U3,4,V3*%
%TO.N,+3.3V*%
X94045000Y-64135000D03*
%TO.P,U3,5,UD+*%
%TO.N,/usb/D+*%
X94045000Y-65405000D03*
%TO.P,U3,6,UD-*%
%TO.N,/usb/D-*%
X94045000Y-66675000D03*
%TO.P,U3,7,NC*%
%TO.N,unconnected-(U3-NC-Pad7)*%
X94045000Y-67945000D03*
%TO.P,U3,8,NC*%
%TO.N,unconnected-(U3-NC-Pad8)*%
X94045000Y-69215000D03*
%TO.P,U3,9,~{CTS}*%
%TO.N,unconnected-(U3-~{CTS}-Pad9)*%
X98995000Y-69215000D03*
%TO.P,U3,10,~{DSR}*%
%TO.N,unconnected-(U3-~{DSR}-Pad10)*%
X98995000Y-67945000D03*
%TO.P,U3,11,~{RI}*%
%TO.N,unconnected-(U3-~{RI}-Pad11)*%
X98995000Y-66675000D03*
%TO.P,U3,12,~{DCD}*%
%TO.N,unconnected-(U3-~{DCD}-Pad12)*%
X98995000Y-65405000D03*
%TO.P,U3,13,~{DTR}*%
%TO.N,/usb/DTR*%
X98995000Y-64135000D03*
%TO.P,U3,14,~{RTS}*%
%TO.N,/usb/RTS*%
X98995000Y-62865000D03*
%TO.P,U3,15,R232*%
%TO.N,unconnected-(U3-R232-Pad15)*%
X98995000Y-61595000D03*
%TO.P,U3,16,VCC*%
%TO.N,+3.3V*%
X98995000Y-60325000D03*
%TD*%
D13*
%TO.P,J11,1,Pin_1*%
%TO.N,+3.3V*%
X78740000Y-46910000D03*
D14*
%TO.P,J11,2,Pin_2*%
%TO.N,/GPIO17{slash}TX1*%
X78740000Y-44410000D03*
%TO.P,J11,3,Pin_3*%
%TO.N,/GPIO18{slash}RX1*%
X78740000Y-41910000D03*
%TO.P,J11,4,Pin_4*%
%TO.N,GND*%
X78740000Y-39410000D03*
%TD*%
D10*
%TO.P,R5,1*%
%TO.N,/usb/RTS*%
X98147500Y-52070000D03*
%TO.P,R5,2*%
%TO.N,Net-(Q3-B)*%
X99972500Y-52070000D03*
%TD*%
D13*
%TO.P,J2,1,Pin_1*%
%TO.N,+3.3V*%
X78740000Y-77390000D03*
D14*
%TO.P,J2,2,Pin_2*%
%TO.N,/GPIO2*%
X78740000Y-74890000D03*
%TO.P,J2,3,Pin_3*%
%TO.N,GND*%
X78740000Y-72390000D03*
%TO.P,J2,4,Pin_4*%
%TO.N,/GPIO39*%
X78740000Y-69890000D03*
%TD*%
D11*
%TO.P,C3,1*%
%TO.N,+3.3V*%
X89850000Y-31750000D03*
%TO.P,C3,2*%
%TO.N,GND*%
X87950000Y-31750000D03*
%TD*%
D15*
%TO.P,C2,1*%
%TO.N,+3.3V*%
X98110000Y-72390000D03*
%TO.P,C2,2*%
%TO.N,GND*%
X100010000Y-72390000D03*
%TD*%
%TO.P,C7,1*%
%TO.N,/EN*%
X98110000Y-57150000D03*
%TO.P,C7,2*%
%TO.N,GND*%
X100010000Y-57150000D03*
%TD*%
D16*
%TO.P,PS1,1,VIN*%
%TO.N,VCC*%
X102870000Y-82980000D03*
D17*
%TO.P,PS1,2,GND*%
%TO.N,GND*%
X105410000Y-82980000D03*
%TO.P,PS1,3,+VO*%
%TO.N,+3.3V*%
X107950000Y-82980000D03*
%TD*%
D18*
%TO.P,TP1,1,1*%
%TO.N,GND*%
X78740000Y-86360000D03*
%TD*%
D15*
%TO.P,C9,1*%
%TO.N,/EN*%
X103190000Y-59690000D03*
%TO.P,C9,2*%
%TO.N,GND*%
X105090000Y-59690000D03*
%TD*%
D18*
%TO.P,SW3,1,1*%
%TO.N,/GPIO5*%
X121210000Y-81570000D03*
D19*
X127710000Y-81570000D03*
%TO.P,SW3,2,2*%
%TO.N,GND*%
X121210000Y-86070000D03*
X127710000Y-86070000D03*
%TD*%
D11*
%TO.P,C4,1*%
%TO.N,+3.3V*%
X89850000Y-34290000D03*
%TO.P,C4,2*%
%TO.N,GND*%
X87950000Y-34290000D03*
%TD*%
D18*
%TO.P,SW4,1,1*%
%TO.N,/GPIO6*%
X132640000Y-81570000D03*
D19*
X139140000Y-81570000D03*
%TO.P,SW4,2,2*%
%TO.N,GND*%
X132640000Y-86070000D03*
X139140000Y-86070000D03*
%TD*%
D20*
%TO.P,R4,1*%
%TO.N,/usb/DTR*%
X105052500Y-52070000D03*
%TO.P,R4,2*%
%TO.N,Net-(Q2-B)*%
X103227500Y-52070000D03*
%TD*%
D21*
%TO.P,U2,1,RST*%
%TO.N,/EN*%
X121519500Y-33020000D03*
D22*
%TO.P,U2,2,3v3*%
%TO.N,+3.3V*%
X121519500Y-35560000D03*
%TO.P,U2,3*%
%TO.N,N/C*%
X121519500Y-38100000D03*
%TO.P,U2,4,GND*%
%TO.N,GND*%
X121519500Y-40640000D03*
%TO.P,U2,5*%
%TO.N,N/C*%
X121519500Y-43180000D03*
%TO.P,U2,6*%
X121519500Y-45720000D03*
%TO.P,U2,7*%
X121519500Y-48260000D03*
%TO.P,U2,8*%
X121519500Y-50800000D03*
%TO.P,U2,9*%
X121519500Y-53340000D03*
%TO.P,U2,10*%
X121519500Y-55880000D03*
%TO.P,U2,11*%
X121519500Y-58420000D03*
%TO.P,U2,12*%
X121519500Y-60960000D03*
%TO.P,U2,13*%
X121519500Y-63500000D03*
%TO.P,U2,14*%
X121519500Y-66040000D03*
%TO.P,U2,15*%
X121519500Y-68580000D03*
%TO.P,U2,16*%
X121519500Y-71120000D03*
%TO.P,U2,17,SDA*%
%TO.N,/GPIO9*%
X141839500Y-71120000D03*
%TO.P,U2,18,SCL*%
%TO.N,/GPIO8*%
X141839500Y-68580000D03*
%TO.P,U2,19,A*%
%TO.N,/GPIO7*%
X141839500Y-66040000D03*
%TO.P,U2,20,B*%
%TO.N,/GPIO5*%
X141839500Y-63500000D03*
%TO.P,U2,21,C*%
%TO.N,/GPIO6*%
X141839500Y-60960000D03*
%TO.P,U2,22*%
%TO.N,N/C*%
X141839500Y-58420000D03*
%TO.P,U2,23*%
X141839500Y-55880000D03*
%TO.P,U2,24*%
X141839500Y-53340000D03*
%TO.P,U2,25*%
X141839500Y-50800000D03*
%TO.P,U2,26*%
X141839500Y-48260000D03*
%TO.P,U2,27*%
X141839500Y-45720000D03*
%TO.P,U2,28*%
X141839500Y-43180000D03*
%TD*%
D10*
%TO.P,R3,1*%
%TO.N,Net-(U3-RXD)*%
X108307500Y-57150000D03*
%TO.P,R3,2*%
%TO.N,/TX*%
X110132500Y-57150000D03*
%TD*%
D23*
%TO.P,J3,1,Pin_1*%
%TO.N,VCC*%
X105450000Y-90170000D03*
D24*
%TO.P,J3,2,Pin_2*%
%TO.N,GND*%
X107950000Y-90170000D03*
%TD*%
D25*
%TO.P,D2,1,K*%
%TO.N,VCC*%
X96646000Y-81280000D03*
%TO.P,D2,2,A*%
%TO.N,Net-(D1-VCC)*%
X93346000Y-81280000D03*
%TD*%
D13*
%TO.P,J1,1,Pin_1*%
%TO.N,+3.3V*%
X78740000Y-62150000D03*
D14*
%TO.P,J1,2,Pin_2*%
%TO.N,/GPIO2*%
X78740000Y-59650000D03*
%TO.P,J1,3,Pin_3*%
%TO.N,GND*%
X78740000Y-57150000D03*
%TO.P,J1,4,Pin_4*%
%TO.N,/GPIO1*%
X78740000Y-54650000D03*
%TD*%
D26*
%TO.P,J7,1,Pin_1*%
%TO.N,GND*%
X138970000Y-36425000D03*
%TO.P,J7,2,Pin_2*%
%TO.N,+3.3V*%
X138970000Y-35425000D03*
%TO.P,J7,3,Pin_3*%
%TO.N,/GPIO9*%
X138970000Y-34425000D03*
%TO.P,J7,4,Pin_4*%
%TO.N,/GPIO8*%
X138970000Y-33425000D03*
D27*
%TO.P,J7,MP*%
%TO.N,N/C*%
X142845000Y-37725000D03*
X142845000Y-32125000D03*
%TD*%
D28*
%TO.P,Q2,1,B*%
%TO.N,Net-(Q2-B)*%
X94917500Y-54290000D03*
%TO.P,Q2,2,E*%
%TO.N,/usb/RTS*%
X94917500Y-52390000D03*
%TO.P,Q2,3,C*%
%TO.N,/EN*%
X93042500Y-53340000D03*
%TD*%
D10*
%TO.P,R2,1*%
%TO.N,/EN*%
X98147500Y-54610000D03*
%TO.P,R2,2*%
%TO.N,+3.3V*%
X99972500Y-54610000D03*
%TD*%
D18*
%TO.P,SW2,1,1*%
%TO.N,/GPIO0*%
X103430000Y-70140000D03*
D19*
X109930000Y-70140000D03*
%TO.P,SW2,2,2*%
%TO.N,GND*%
X103430000Y-74640000D03*
X109930000Y-74640000D03*
%TD*%
D29*
%TO.P,U1,1,GND*%
%TO.N,GND*%
X92850000Y-30300000D03*
%TO.P,U1,2,3V3*%
%TO.N,+3.3V*%
X92850000Y-31570000D03*
%TO.P,U1,3,EN*%
%TO.N,/EN*%
X92850000Y-32840000D03*
%TO.P,U1,4,IO4*%
%TO.N,/GPIO4*%
X92850000Y-34110000D03*
%TO.P,U1,5,IO5*%
%TO.N,/GPIO5*%
X92850000Y-35380000D03*
%TO.P,U1,6,IO6*%
%TO.N,/GPIO6*%
X92850000Y-36650000D03*
%TO.P,U1,7,IO7*%
%TO.N,/GPIO7*%
X92850000Y-37920000D03*
%TO.P,U1,8,IO15*%
%TO.N,/GPIO15*%
X92850000Y-39190000D03*
%TO.P,U1,9,IO16*%
%TO.N,/GPIO16*%
X92850000Y-40460000D03*
%TO.P,U1,10,IO17*%
%TO.N,/GPIO17{slash}TX1*%
X92850000Y-41730000D03*
%TO.P,U1,11,IO18*%
%TO.N,/GPIO18{slash}RX1*%
X92850000Y-43000000D03*
%TO.P,U1,12,IO8*%
%TO.N,/GPIO8*%
X92850000Y-44270000D03*
%TO.P,U1,13,IO19*%
%TO.N,/GPIO19*%
X92850000Y-45540000D03*
%TO.P,U1,14,IO20*%
%TO.N,/GPIO20*%
X92850000Y-46810000D03*
D30*
%TO.P,U1,15,IO3*%
%TO.N,/GPIO3*%
X94615000Y-48060000D03*
%TO.P,U1,16,IO46*%
%TO.N,/GPIO46*%
X95885000Y-48060000D03*
%TO.P,U1,17,IO9*%
%TO.N,/GPIO9*%
X97155000Y-48060000D03*
%TO.P,U1,18,IO10*%
%TO.N,/GPIO10*%
X98425000Y-48060000D03*
%TO.P,U1,19,IO11*%
%TO.N,/GPIO11*%
X99695000Y-48060000D03*
%TO.P,U1,20,IO12*%
%TO.N,/GPIO12*%
X100965000Y-48060000D03*
%TO.P,U1,21,IO13*%
%TO.N,/GPIO13*%
X102235000Y-48060000D03*
%TO.P,U1,22,IO14*%
%TO.N,/GPIO14*%
X103505000Y-48060000D03*
%TO.P,U1,23,IO21*%
%TO.N,/GPIO21*%
X104775000Y-48060000D03*
%TO.P,U1,24,IO47*%
%TO.N,/GPIO47*%
X106045000Y-48060000D03*
%TO.P,U1,25,IO48*%
%TO.N,/GPIO48*%
X107315000Y-48060000D03*
%TO.P,U1,26,IO45*%
%TO.N,/GPIO45*%
X108585000Y-48060000D03*
D29*
%TO.P,U1,27,IO0*%
%TO.N,/GPIO0*%
X110350000Y-46810000D03*
%TO.P,U1,28,IO35*%
%TO.N,/GPIO35*%
X110350000Y-45540000D03*
%TO.P,U1,29,IO36*%
%TO.N,/GPIO36*%
X110350000Y-44270000D03*
%TO.P,U1,30,IO37*%
%TO.N,/GPIO37*%
X110350000Y-43000000D03*
%TO.P,U1,31,IO38*%
%TO.N,/GPIO38*%
X110350000Y-41730000D03*
%TO.P,U1,32,IO39*%
%TO.N,/GPIO39*%
X110350000Y-40460000D03*
%TO.P,U1,33,IO40*%
%TO.N,/GPIO40*%
X110350000Y-39190000D03*
%TO.P,U1,34,IO41*%
%TO.N,/GPIO41*%
X110350000Y-37920000D03*
%TO.P,U1,35,IO42*%
%TO.N,/GPIO42*%
X110350000Y-36650000D03*
%TO.P,U1,36,RXD0*%
%TO.N,/RX*%
X110350000Y-35380000D03*
%TO.P,U1,37,TXD0*%
%TO.N,/TX*%
X110350000Y-34110000D03*
%TO.P,U1,38,IO2*%
%TO.N,/GPIO2*%
X110350000Y-32840000D03*
%TO.P,U1,39,IO1*%
%TO.N,/GPIO1*%
X110350000Y-31570000D03*
%TO.P,U1,40,GND*%
%TO.N,GND*%
X110350000Y-30300000D03*
D31*
%TO.P,U1,41_1,GND*%
%TO.N,N/C*%
X100100000Y-38020000D03*
%TO.P,U1,41_2,GND*%
%TO.N,GND*%
X98700000Y-38020000D03*
%TO.P,U1,41_3,GND*%
X101500000Y-38020000D03*
%TO.P,U1,41_4,GND*%
X98700000Y-39420000D03*
%TO.P,U1,41_5,GND*%
X100100000Y-39420000D03*
%TO.P,U1,41_6,GND*%
X101500000Y-39420000D03*
%TO.P,U1,41_7,GND*%
X98700000Y-36620000D03*
%TO.P,U1,41_8,GND*%
X100100000Y-36620000D03*
%TO.P,U1,41_9,GND*%
X101500000Y-36620000D03*
D32*
%TO.P,U1,41_10*%
%TO.N,N/C*%
X100100000Y-37320000D03*
%TO.P,U1,41_11*%
X98700000Y-37320000D03*
%TO.P,U1,41_12*%
X101500000Y-37320000D03*
%TO.P,U1,41_13*%
X98700000Y-38720000D03*
%TO.P,U1,41_14*%
X100100000Y-38720000D03*
%TO.P,U1,41_15*%
X101500000Y-38720000D03*
%TO.P,U1,41_16*%
X99400000Y-36620000D03*
%TO.P,U1,41_17*%
X100800000Y-36620000D03*
%TO.P,U1,41_18*%
X99400000Y-38020000D03*
%TO.P,U1,41_19*%
X100800000Y-38020000D03*
%TO.P,U1,41_20*%
X99400000Y-39420000D03*
%TO.P,U1,41_21*%
X100800000Y-39420000D03*
%TD*%
D18*
%TO.P,J6,1,Pin_1*%
%TO.N,+3.3V*%
X87630000Y-38100000D03*
D33*
%TO.P,J6,2,Pin_2*%
%TO.N,GND*%
X87630000Y-40640000D03*
%TO.P,J6,3,Pin_3*%
%TO.N,/EN*%
X87630000Y-43180000D03*
%TO.P,J6,4,Pin_4*%
%TO.N,/RX*%
X87630000Y-45720000D03*
%TO.P,J6,5,Pin_5*%
%TO.N,/TX*%
X87630000Y-48260000D03*
%TO.P,J6,6,Pin_6*%
%TO.N,/GPIO0*%
X87630000Y-50800000D03*
%TO.P,J6,7,Pin_7*%
%TO.N,/GPIO1*%
X87630000Y-53340000D03*
%TO.P,J6,8,Pin_8*%
%TO.N,/GPIO2*%
X87630000Y-55880000D03*
%TO.P,J6,9,Pin_9*%
%TO.N,/GPIO3*%
X87630000Y-58420000D03*
%TO.P,J6,10,Pin_10*%
%TO.N,/GPIO4*%
X87630000Y-60960000D03*
%TO.P,J6,11,Pin_11*%
%TO.N,/GPIO5*%
X87630000Y-63500000D03*
%TO.P,J6,12,Pin_12*%
%TO.N,/GPIO6*%
X87630000Y-66040000D03*
%TO.P,J6,13,Pin_13*%
%TO.N,/GPIO7*%
X87630000Y-68580000D03*
%TO.P,J6,14,Pin_14*%
%TO.N,/GPIO8*%
X87630000Y-71120000D03*
%TO.P,J6,15,Pin_15*%
%TO.N,/GPIO9*%
X87630000Y-73660000D03*
%TO.P,J6,16,Pin_16*%
%TO.N,/GPIO10*%
X87630000Y-76200000D03*
%TO.P,J6,17,Pin_17*%
%TO.N,/GPIO11*%
X87630000Y-78740000D03*
%TO.P,J6,18,Pin_18*%
%TO.N,/GPIO12*%
X87630000Y-81280000D03*
%TO.P,J6,19,Pin_19*%
%TO.N,/GPIO13*%
X87630000Y-83820000D03*
%TO.P,J6,20,Pin_20*%
%TO.N,/GPIO14*%
X87630000Y-86360000D03*
%TD*%
D18*
%TO.P,J5,1,Pin_1*%
%TO.N,GND*%
X115570000Y-38100000D03*
D33*
%TO.P,J5,2,Pin_2*%
%TO.N,/GPIO15*%
X115570000Y-40640000D03*
%TO.P,J5,3,Pin_3*%
%TO.N,/GPIO16*%
X115570000Y-43180000D03*
%TO.P,J5,4,Pin_4*%
%TO.N,/GPIO17{slash}TX1*%
X115570000Y-45720000D03*
%TO.P,J5,5,Pin_5*%
%TO.N,/GPIO18{slash}RX1*%
X115570000Y-48260000D03*
%TO.P,J5,6,Pin_6*%
%TO.N,/GPIO19*%
X115570000Y-50800000D03*
%TO.P,J5,7,Pin_7*%
%TO.N,/GPIO20*%
X115570000Y-53340000D03*
%TO.P,J5,8,Pin_8*%
%TO.N,/GPIO21*%
X115570000Y-55880000D03*
%TO.P,J5,9,Pin_9*%
%TO.N,/GPIO35*%
X115570000Y-58420000D03*
%TO.P,J5,10,Pin_10*%
%TO.N,/GPIO36*%
X115570000Y-60960000D03*
%TO.P,J5,11,Pin_11*%
%TO.N,/GPIO37*%
X115570000Y-63500000D03*
%TO.P,J5,12,Pin_12*%
%TO.N,/GPIO38*%
X115570000Y-66040000D03*
%TO.P,J5,13,Pin_13*%
%TO.N,/GPIO39*%
X115570000Y-68580000D03*
%TO.P,J5,14,Pin_14*%
%TO.N,/GPIO40*%
X115570000Y-71120000D03*
%TO.P,J5,15,Pin_15*%
%TO.N,/GPIO41*%
X115570000Y-73660000D03*
%TO.P,J5,16,Pin_16*%
%TO.N,/GPIO42*%
X115570000Y-76200000D03*
%TO.P,J5,17,Pin_17*%
%TO.N,/GPIO45*%
X115570000Y-78740000D03*
%TO.P,J5,18,Pin_18*%
%TO.N,/GPIO46*%
X115570000Y-81280000D03*
%TO.P,J5,19,Pin_19*%
%TO.N,/GPIO47*%
X115570000Y-83820000D03*
%TO.P,J5,20,Pin_20*%
%TO.N,/GPIO48*%
X115570000Y-86360000D03*
%TD*%
D18*
%TO.P,SW1,1,1*%
%TO.N,/EN*%
X103430000Y-62520000D03*
D19*
X109930000Y-62520000D03*
%TO.P,SW1,2,2*%
%TO.N,GND*%
X103430000Y-67020000D03*
X109930000Y-67020000D03*
%TD*%
D15*
%TO.P,C1,1*%
%TO.N,VCC*%
X98110000Y-74930000D03*
%TO.P,C1,2*%
%TO.N,GND*%
X100010000Y-74930000D03*
%TD*%
D34*
%TO.P,D1,1,GND*%
%TO.N,GND*%
X95996000Y-86094000D03*
D35*
%TO.P,D1,2,I/O1*%
%TO.N,/usb/D+*%
X95996000Y-84394000D03*
%TO.P,D1,3,I/O2*%
%TO.N,/usb/D-*%
X93996000Y-84394000D03*
%TO.P,D1,4,VCC*%
%TO.N,Net-(D1-VCC)*%
X93996000Y-86294000D03*
%TD*%
D29*
%TO.P,D3,1,VDD*%
%TO.N,+3.3V*%
X127725000Y-88520000D03*
%TO.P,D3,2,DOUT*%
%TO.N,unconnected-(D3-DOUT-Pad2)*%
X127725000Y-91820000D03*
%TO.P,D3,3,VSS*%
%TO.N,GND*%
X132625000Y-91820000D03*
%TO.P,D3,4,DIN*%
%TO.N,/GPIO38*%
X132625000Y-88520000D03*
%TD*%
D36*
%TO.P,Q3,1,B*%
%TO.N,Net-(Q3-B)*%
X108282500Y-52390000D03*
%TO.P,Q3,2,E*%
%TO.N,/usb/DTR*%
X108282500Y-54290000D03*
%TO.P,Q3,3,C*%
%TO.N,/GPIO0*%
X110157500Y-53340000D03*
%TD*%
D37*
%TO.P,J4,1,VBUS*%
%TO.N,Net-(D1-VCC)*%
X93950000Y-89740000D03*
%TO.P,J4,2,D-*%
%TO.N,/usb/D-*%
X94600000Y-89740000D03*
%TO.P,J4,3,D+*%
%TO.N,/usb/D+*%
X95250000Y-89740000D03*
%TO.P,J4,4,ID*%
%TO.N,unconnected-(J4-ID-Pad4)*%
X95900000Y-89740000D03*
%TO.P,J4,5,GND*%
%TO.N,GND*%
X96550000Y-89740000D03*
D38*
%TO.P,J4,6,Shield*%
X91750000Y-92440000D03*
D39*
X92350000Y-92440000D03*
D40*
X92750000Y-89740000D03*
D41*
X94250000Y-92440000D03*
X96250000Y-92440000D03*
D40*
X97750000Y-89740000D03*
D39*
X98150000Y-92440000D03*
D38*
X98750000Y-92440000D03*
%TD*%
D15*
%TO.P,C6,1*%
%TO.N,+3.3V*%
X93030000Y-57150000D03*
%TO.P,C6,2*%
%TO.N,GND*%
X94930000Y-57150000D03*
%TD*%
D42*
%TO.N,GND*%
X110998000Y-86360000D03*
X75692000Y-81280000D03*
X102108000Y-80010000D03*
X100838000Y-86106000D03*
X135890000Y-37465000D03*
X81026000Y-30734000D03*
X122682000Y-88900000D03*
X83820000Y-44704000D03*
X83566000Y-51054000D03*
X76200000Y-30734000D03*
X84328000Y-61722000D03*
X104140000Y-55880000D03*
X108712000Y-79502000D03*
X125730000Y-31496000D03*
X85598000Y-30734000D03*
X92886689Y-86209289D03*
X105156000Y-61468000D03*
X76708000Y-90932000D03*
X98044000Y-85090000D03*
%TO.N,/EN*%
X98270500Y-58420000D03*
X91186000Y-33020000D03*
%TO.N,/GPIO0*%
X111760000Y-53340000D03*
X113538000Y-55118000D03*
%TO.N,/GPIO2*%
X107446299Y-32516299D03*
%TO.N,/GPIO1*%
X107442000Y-31496000D03*
%TO.N,/GPIO39*%
X107442000Y-38100000D03*
X109728000Y-72390000D03*
%TO.N,/GPIO15*%
X94996000Y-39370000D03*
%TO.N,/GPIO16*%
X94996000Y-40640000D03*
%TO.N,/GPIO17{slash}TX1*%
X94996000Y-41910000D03*
%TO.N,/GPIO18{slash}RX1*%
X94996000Y-43180000D03*
%TO.N,/GPIO19*%
X94996000Y-45466000D03*
%TO.N,/GPIO20*%
X94996000Y-46710498D03*
%TO.N,/GPIO21*%
X108423902Y-46710500D03*
%TO.N,/GPIO35*%
X107188000Y-45720000D03*
%TO.N,/GPIO36*%
X106426000Y-44450000D03*
%TO.N,/GPIO37*%
X105410000Y-43688000D03*
%TO.N,/GPIO38*%
X107442000Y-39370000D03*
%TO.N,/GPIO40*%
X107442000Y-36830000D03*
%TO.N,/GPIO41*%
X107442000Y-35592000D03*
%TO.N,/GPIO42*%
X107442000Y-34544000D03*
%TO.N,/GPIO45*%
X108712000Y-49784000D03*
%TO.N,/GPIO46*%
X96266000Y-46736000D03*
%TO.N,/GPIO47*%
X108712000Y-51054000D03*
%TO.N,/GPIO48*%
X107442000Y-49784000D03*
%TO.N,/RX*%
X103632000Y-31242000D03*
%TO.N,/TX*%
X104902000Y-32004000D03*
%TO.N,/GPIO3*%
X91440000Y-48260000D03*
%TO.N,/GPIO4*%
X94996000Y-34036000D03*
%TO.N,/GPIO5*%
X81534000Y-90932000D03*
X94996000Y-35306000D03*
%TO.N,/GPIO6*%
X94996000Y-36576000D03*
X82296000Y-91948000D03*
%TO.N,/GPIO7*%
X83058000Y-92964000D03*
X94996000Y-38100000D03*
%TO.N,/GPIO8*%
X94996000Y-44196000D03*
X84328000Y-92964000D03*
X140970000Y-86614000D03*
%TO.N,/GPIO9*%
X85598000Y-92964000D03*
X97028000Y-49784000D03*
X142240000Y-86614000D03*
%TO.N,/GPIO10*%
X98298000Y-49784000D03*
%TO.N,/GPIO11*%
X99568000Y-49784000D03*
%TO.N,/GPIO12*%
X100838000Y-49784000D03*
%TO.N,/GPIO13*%
X102108000Y-49784000D03*
%TO.N,/GPIO14*%
X103378000Y-49784000D03*
%TO.N,/usb/RTS*%
X101092000Y-62775500D03*
X101346000Y-51816000D03*
%TO.N,/usb/DTR*%
X106426000Y-54102000D03*
X106426000Y-64008000D03*
%TD*%
D43*
%TO.N,VCC*%
X98110000Y-79816000D02*
X98110000Y-74930000D01*
X96646000Y-81280000D02*
X98110000Y-79816000D01*
X102870000Y-87590000D02*
X102870000Y-82980000D01*
X102870000Y-82980000D02*
X101274000Y-82980000D01*
X101274000Y-82980000D02*
X98110000Y-79816000D01*
X105450000Y-90170000D02*
X102870000Y-87590000D01*
D44*
%TO.N,GND*%
X136930000Y-36425000D02*
X135890000Y-37465000D01*
X92886689Y-87533311D02*
X92886689Y-86209289D01*
X132625000Y-91820000D02*
X133390000Y-91820000D01*
X115570000Y-34520000D02*
X113042000Y-31992000D01*
X100010000Y-72390000D02*
X100010000Y-74930000D01*
X100838000Y-60452000D02*
X100340000Y-60950000D01*
X125730000Y-31496000D02*
X113538000Y-31496000D01*
X91750000Y-92440000D02*
X91750000Y-90740000D01*
X100838000Y-57978000D02*
X100838000Y-60452000D01*
X92750000Y-87670000D02*
X92886689Y-87533311D01*
X138970000Y-36425000D02*
X136930000Y-36425000D01*
X92750000Y-89740000D02*
X92750000Y-87670000D01*
X113042000Y-31992000D02*
X111350000Y-30300000D01*
X105090000Y-61402000D02*
X105156000Y-61468000D01*
X96550000Y-89740000D02*
X96550000Y-86648000D01*
X111350000Y-30300000D02*
X110350000Y-30300000D01*
X100300000Y-74640000D02*
X103430000Y-74640000D01*
X87950000Y-31750000D02*
X87950000Y-34290000D01*
X92850000Y-30300000D02*
X110350000Y-30300000D01*
X133390000Y-91820000D02*
X139140000Y-86070000D01*
X105090000Y-59690000D02*
X105090000Y-61402000D01*
X87950000Y-31750000D02*
X89400000Y-30300000D01*
X96550000Y-86648000D02*
X95996000Y-86094000D01*
X89400000Y-30300000D02*
X92850000Y-30300000D01*
X94930000Y-59440000D02*
X94045000Y-60325000D01*
X113538000Y-31496000D02*
X113042000Y-31992000D01*
X94670000Y-60950000D02*
X94045000Y-60325000D01*
X91750000Y-90740000D02*
X92750000Y-89740000D01*
X100010000Y-57150000D02*
X100838000Y-57978000D01*
X98700000Y-35570000D02*
X93430000Y-30300000D01*
X98700000Y-36620000D02*
X98700000Y-35570000D01*
X98750000Y-90740000D02*
X97750000Y-89740000D01*
X100010000Y-57150000D02*
X100650000Y-57150000D01*
X100650000Y-57150000D02*
X103190000Y-54610000D01*
X115570000Y-38100000D02*
X115570000Y-34520000D01*
X98750000Y-92440000D02*
X98750000Y-90740000D01*
X91750000Y-92440000D02*
X98750000Y-92440000D01*
X103190000Y-54930000D02*
X104140000Y-55880000D01*
X100340000Y-60950000D02*
X94670000Y-60950000D01*
X94930000Y-57150000D02*
X94930000Y-59440000D01*
%TO.N,+3.3V*%
X93668249Y-64135000D02*
X92202000Y-62668751D01*
X108643305Y-82980000D02*
X107950000Y-82980000D01*
X100950000Y-65713249D02*
X99996751Y-64760000D01*
X99060000Y-60260000D02*
X99060000Y-55522500D01*
X138970000Y-35425000D02*
X138835000Y-35560000D01*
X100950000Y-70358000D02*
X100950000Y-65713249D01*
X100142000Y-70358000D02*
X100950000Y-70358000D01*
X127380000Y-88175000D02*
X113838305Y-88175000D01*
X105664000Y-80694000D02*
X105664000Y-75184000D01*
X99060000Y-55522500D02*
X99972500Y-54610000D01*
D43*
X89850000Y-34290000D02*
X89850000Y-31750000D01*
X89850000Y-34290000D02*
X89850000Y-36134000D01*
D44*
X138835000Y-35560000D02*
X121519500Y-35560000D01*
D43*
X89850000Y-36134000D02*
X87884000Y-38100000D01*
D44*
X92202000Y-57978000D02*
X93030000Y-57150000D01*
D43*
X92850000Y-31570000D02*
X90030000Y-31570000D01*
D44*
X94234000Y-55946000D02*
X95824000Y-55946000D01*
X105664000Y-75184000D02*
X100950000Y-70470000D01*
X113838305Y-88175000D02*
X108643305Y-82980000D01*
X107950000Y-82980000D02*
X105664000Y-80694000D01*
X127725000Y-88520000D02*
X127380000Y-88175000D01*
X94670000Y-64760000D02*
X94045000Y-64135000D01*
X92202000Y-62668751D02*
X92202000Y-57978000D01*
X99996751Y-64760000D02*
X94670000Y-64760000D01*
X95824000Y-55946000D02*
X96520000Y-56642000D01*
X96520000Y-57850000D02*
X98995000Y-60325000D01*
X93030000Y-57150000D02*
X94234000Y-55946000D01*
X96520000Y-56642000D02*
X96520000Y-57850000D01*
X100950000Y-70470000D02*
X100950000Y-70358000D01*
X98110000Y-72390000D02*
X100142000Y-70358000D01*
%TO.N,/EN*%
X98270500Y-58420000D02*
X98270500Y-57310500D01*
X103430000Y-62520000D02*
X109930000Y-62520000D01*
X91772500Y-52070000D02*
X87053149Y-52070000D01*
X93042500Y-53340000D02*
X91772500Y-52070000D01*
X91186000Y-33020000D02*
X92670000Y-33020000D01*
X93042500Y-54688500D02*
X93726000Y-55372000D01*
X103430000Y-62520000D02*
X103430000Y-59930000D01*
X98110000Y-57150000D02*
X98110000Y-54647500D01*
X93726000Y-55372000D02*
X97385500Y-55372000D01*
X93042500Y-53340000D02*
X93042500Y-54688500D01*
X86106000Y-44704000D02*
X87630000Y-43180000D01*
X97385500Y-55372000D02*
X98147500Y-54610000D01*
X87053149Y-52070000D02*
X86106000Y-51122851D01*
X86106000Y-51122851D02*
X86106000Y-44704000D01*
%TO.N,/GPIO0*%
X110350000Y-53147500D02*
X110350000Y-46810000D01*
X113538000Y-66532000D02*
X113538000Y-55118000D01*
X93855000Y-54636751D02*
X93855000Y-53943249D01*
X109930000Y-70140000D02*
X113538000Y-66532000D01*
X105395000Y-54915000D02*
X109169000Y-54915000D01*
X111760000Y-53340000D02*
X110157500Y-53340000D01*
X110157500Y-53340000D02*
X110350000Y-53147500D01*
X97190396Y-53560000D02*
X95835396Y-54915000D01*
X105090000Y-54610000D02*
X104040000Y-53560000D01*
X104040000Y-53560000D02*
X97190396Y-53560000D01*
X94133249Y-54915000D02*
X93855000Y-54636751D01*
X110157500Y-53926500D02*
X110157500Y-53340000D01*
X94105000Y-52993249D02*
X91911751Y-50800000D01*
X94105000Y-53693249D02*
X94105000Y-52993249D01*
X91911751Y-50800000D02*
X87630000Y-50800000D01*
X109169000Y-54915000D02*
X110157500Y-53926500D01*
X95835396Y-54915000D02*
X94133249Y-54915000D01*
X93855000Y-53943249D02*
X94105000Y-53693249D01*
D45*
%TO.N,/usb/D+*%
X96745000Y-66200800D02*
X96259193Y-65714993D01*
X95150000Y-84582000D02*
X95150000Y-72046200D01*
X96745000Y-70451200D02*
X96745000Y-66200800D01*
X95250000Y-89740000D02*
X95250000Y-88727499D01*
X95150000Y-88627499D02*
X95150000Y-84582000D01*
X95250000Y-88727499D02*
X95150000Y-88627499D01*
X94354993Y-65714993D02*
X94045000Y-65405000D01*
X95150000Y-84582000D02*
X95808000Y-84582000D01*
X96259193Y-65714993D02*
X94354993Y-65714993D01*
X95150000Y-72046200D02*
X96745000Y-70451200D01*
%TO.N,/usb/D-*%
X94426000Y-66294000D02*
X94045000Y-66675000D01*
X96201800Y-66294000D02*
X94426000Y-66294000D01*
X94600000Y-88727499D02*
X94700000Y-88627499D01*
X94700000Y-84582000D02*
X94700000Y-71859800D01*
X96295000Y-70264800D02*
X96295000Y-66387200D01*
X94700000Y-71859800D02*
X96295000Y-70264800D01*
X96295000Y-66387200D02*
X96201800Y-66294000D01*
X94700000Y-88627499D02*
X94700000Y-84582000D01*
X94600000Y-89740000D02*
X94600000Y-88727499D01*
X94700000Y-84582000D02*
X94184000Y-84582000D01*
D44*
%TO.N,Net-(D1-VCC)*%
X93996000Y-86294000D02*
X93321000Y-85619000D01*
X93950000Y-89740000D02*
X93950000Y-86340000D01*
X93321000Y-85619000D02*
X93321000Y-81305000D01*
%TO.N,/GPIO2*%
X107446299Y-32516299D02*
X107770000Y-32840000D01*
X78740000Y-59650000D02*
X83860000Y-59650000D01*
X81026000Y-64262000D02*
X77216000Y-68072000D01*
X77216000Y-73366000D02*
X78740000Y-74890000D01*
X83860000Y-59650000D02*
X87630000Y-55880000D01*
X107770000Y-32840000D02*
X110350000Y-32840000D01*
X78740000Y-59650000D02*
X81026000Y-61936000D01*
X77216000Y-68072000D02*
X77216000Y-73366000D01*
X81026000Y-61936000D02*
X81026000Y-64262000D01*
%TO.N,/GPIO1*%
X86320000Y-54650000D02*
X87630000Y-53340000D01*
X107442000Y-31496000D02*
X107516000Y-31570000D01*
X78740000Y-54650000D02*
X86320000Y-54650000D01*
X107516000Y-31570000D02*
X110350000Y-31570000D01*
%TO.N,/GPIO39*%
X109728000Y-72390000D02*
X111760000Y-72390000D01*
X107442000Y-38132000D02*
X109770000Y-40460000D01*
X107442000Y-38100000D02*
X107442000Y-38132000D01*
X111760000Y-72390000D02*
X115570000Y-68580000D01*
%TO.N,/GPIO15*%
X92850000Y-39190000D02*
X94816000Y-39190000D01*
X94816000Y-39190000D02*
X94996000Y-39370000D01*
%TO.N,/GPIO16*%
X94996000Y-40640000D02*
X93030000Y-40640000D01*
%TO.N,/GPIO17{slash}TX1*%
X90932000Y-41402000D02*
X92522000Y-41402000D01*
X87122000Y-39370000D02*
X88900000Y-39370000D01*
X85852000Y-40640000D02*
X87122000Y-39370000D01*
X76962000Y-40894000D02*
X77216000Y-40640000D01*
X76962000Y-42632000D02*
X76962000Y-40894000D01*
X94996000Y-41910000D02*
X93030000Y-41910000D01*
X88900000Y-39370000D02*
X90932000Y-41402000D01*
X92522000Y-41402000D02*
X92850000Y-41730000D01*
X78740000Y-44410000D02*
X76962000Y-42632000D01*
X77216000Y-40640000D02*
X85852000Y-40640000D01*
%TO.N,/GPIO18{slash}RX1*%
X78740000Y-41910000D02*
X91180000Y-41910000D01*
X94996000Y-43180000D02*
X93030000Y-43180000D01*
X91180000Y-41910000D02*
X92270000Y-43000000D01*
%TO.N,/GPIO19*%
X94996000Y-45466000D02*
X92924000Y-45466000D01*
%TO.N,/GPIO20*%
X94996000Y-46710498D02*
X92949502Y-46710498D01*
%TO.N,/GPIO21*%
X105544500Y-46710500D02*
X104775000Y-47480000D01*
X108423902Y-46710500D02*
X105544500Y-46710500D01*
%TO.N,/GPIO35*%
X107368000Y-45540000D02*
X110350000Y-45540000D01*
X107188000Y-45720000D02*
X107368000Y-45540000D01*
%TO.N,/GPIO36*%
X106426000Y-44450000D02*
X106606000Y-44270000D01*
X106606000Y-44270000D02*
X110350000Y-44270000D01*
%TO.N,/GPIO37*%
X105410000Y-43688000D02*
X106098000Y-43000000D01*
X106098000Y-43000000D02*
X110350000Y-43000000D01*
%TO.N,/GPIO38*%
X130175000Y-86995000D02*
X131700000Y-88520000D01*
X107770000Y-41730000D02*
X110350000Y-41730000D01*
X130175000Y-81366491D02*
X130175000Y-86995000D01*
X115570000Y-66761491D02*
X130175000Y-81366491D01*
X107442000Y-39370000D02*
X107442000Y-41402000D01*
X131700000Y-88520000D02*
X132625000Y-88520000D01*
X115570000Y-66040000D02*
X115570000Y-66761491D01*
X107442000Y-41402000D02*
X107770000Y-41730000D01*
%TO.N,/GPIO40*%
X107442000Y-36862000D02*
X109770000Y-39190000D01*
X107442000Y-36830000D02*
X107442000Y-36862000D01*
%TO.N,/GPIO41*%
X107442000Y-35592000D02*
X109770000Y-37920000D01*
%TO.N,/GPIO42*%
X108458000Y-35560000D02*
X108458000Y-35758000D01*
X107442000Y-34544000D02*
X108458000Y-35560000D01*
X109350000Y-36650000D02*
X110350000Y-36650000D01*
X108458000Y-35758000D02*
X109350000Y-36650000D01*
%TO.N,/GPIO45*%
X108712000Y-49784000D02*
X108712000Y-48187000D01*
%TO.N,/GPIO46*%
X96266000Y-46736000D02*
X96266000Y-47679000D01*
X96266000Y-47679000D02*
X95885000Y-48060000D01*
%TO.N,/GPIO47*%
X106045000Y-49911000D02*
X106045000Y-48060000D01*
X108712000Y-51054000D02*
X107188000Y-51054000D01*
X107188000Y-51054000D02*
X106045000Y-49911000D01*
%TO.N,/GPIO48*%
X107442000Y-49784000D02*
X107442000Y-48187000D01*
%TO.N,/RX*%
X107188000Y-55626000D02*
X110998000Y-55626000D01*
X110998000Y-55626000D02*
X112522000Y-54102000D01*
X112522000Y-54102000D02*
X112522000Y-36576000D01*
X111326000Y-35380000D02*
X110350000Y-35380000D01*
X105664000Y-57150000D02*
X107188000Y-55626000D01*
X107789000Y-33819000D02*
X109350000Y-35380000D01*
X105691695Y-33819000D02*
X107789000Y-33819000D01*
X112522000Y-36576000D02*
X111326000Y-35380000D01*
X103632000Y-31242000D02*
X103632000Y-31759305D01*
X103632000Y-31759305D02*
X105691695Y-33819000D01*
X105052500Y-57150000D02*
X105664000Y-57150000D01*
X109350000Y-35380000D02*
X110350000Y-35380000D01*
%TO.N,/TX*%
X113030000Y-54252500D02*
X113030000Y-35814000D01*
X110132500Y-57150000D02*
X113030000Y-54252500D01*
X113030000Y-35814000D02*
X111326000Y-34110000D01*
X109548000Y-34110000D02*
X108749000Y-33311000D01*
X111326000Y-34110000D02*
X110350000Y-34110000D01*
X108749000Y-33311000D02*
X106209000Y-33311000D01*
X110350000Y-34110000D02*
X109548000Y-34110000D01*
X106209000Y-33311000D02*
X104902000Y-32004000D01*
%TO.N,/GPIO3*%
X91640000Y-48060000D02*
X94615000Y-48060000D01*
X91440000Y-48260000D02*
X91640000Y-48060000D01*
%TO.N,/GPIO4*%
X94996000Y-34036000D02*
X92924000Y-34036000D01*
%TO.N,/GPIO5*%
X94996000Y-35306000D02*
X92924000Y-35306000D01*
X121210000Y-81570000D02*
X127710000Y-81570000D01*
X81534000Y-69596000D02*
X87630000Y-63500000D01*
X81534000Y-90932000D02*
X81534000Y-69596000D01*
%TO.N,/GPIO6*%
X82296000Y-71374000D02*
X87630000Y-66040000D01*
X82296000Y-91948000D02*
X82296000Y-71374000D01*
X94996000Y-36576000D02*
X92924000Y-36576000D01*
X132640000Y-81570000D02*
X139140000Y-81570000D01*
%TO.N,/GPIO7*%
X83058000Y-92964000D02*
X83058000Y-73152000D01*
X94996000Y-38100000D02*
X93030000Y-38100000D01*
X83058000Y-73152000D02*
X87630000Y-68580000D01*
%TO.N,/GPIO8*%
X141839500Y-68580000D02*
X140335000Y-67075500D01*
X94922000Y-44270000D02*
X92850000Y-44270000D01*
X140335000Y-67075500D02*
X140335000Y-34343249D01*
X84328000Y-91948000D02*
X84328000Y-92964000D01*
X140335000Y-34343249D02*
X139416751Y-33425000D01*
X140970000Y-74930000D02*
X140462000Y-74422000D01*
X139416751Y-33425000D02*
X138970000Y-33425000D01*
X140462000Y-74422000D02*
X140462000Y-69957500D01*
X140970000Y-86614000D02*
X140970000Y-74930000D01*
X83820000Y-91440000D02*
X84328000Y-91948000D01*
X140462000Y-69957500D02*
X141839500Y-68580000D01*
X87630000Y-71120000D02*
X83820000Y-74930000D01*
X83820000Y-74930000D02*
X83820000Y-91440000D01*
X94996000Y-44196000D02*
X94922000Y-44270000D01*
%TO.N,/GPIO9*%
X97028000Y-49784000D02*
X97028000Y-48187000D01*
X84836000Y-92202000D02*
X85598000Y-92964000D01*
X141164500Y-33849500D02*
X139700000Y-32385000D01*
X138523249Y-34425000D02*
X138970000Y-34425000D01*
X84836000Y-76454000D02*
X84836000Y-92202000D01*
X139700000Y-32385000D02*
X138179124Y-32385000D01*
X87630000Y-73660000D02*
X84836000Y-76454000D01*
X142240000Y-86614000D02*
X142240000Y-71520500D01*
X143510000Y-40203173D02*
X141164500Y-37857673D01*
X137795000Y-32769124D02*
X137795000Y-33696751D01*
X141164500Y-37857673D02*
X141164500Y-33849500D01*
X138179124Y-32385000D02*
X137795000Y-32769124D01*
X141839500Y-71120000D02*
X143510000Y-69449500D01*
X137795000Y-33696751D02*
X138523249Y-34425000D01*
X143510000Y-69449500D02*
X143510000Y-40203173D01*
%TO.N,/GPIO10*%
X98298000Y-49784000D02*
X98298000Y-48187000D01*
%TO.N,/GPIO11*%
X99568000Y-49784000D02*
X99568000Y-48187000D01*
%TO.N,/GPIO12*%
X100838000Y-49784000D02*
X100838000Y-48187000D01*
%TO.N,/GPIO13*%
X102108000Y-49784000D02*
X102108000Y-48187000D01*
%TO.N,/GPIO14*%
X103378000Y-49784000D02*
X103378000Y-48187000D01*
%TO.N,Net-(Q2-B)*%
X102202500Y-53095000D02*
X103227500Y-52070000D01*
X97028000Y-53086000D02*
X97037000Y-53095000D01*
X97037000Y-53095000D02*
X102202500Y-53095000D01*
X94917500Y-54290000D02*
X95824000Y-54290000D01*
X95824000Y-54290000D02*
X97028000Y-53086000D01*
%TO.N,/usb/RTS*%
X99172500Y-51045000D02*
X98147500Y-52070000D01*
X100575000Y-51045000D02*
X99172500Y-51045000D01*
X101092000Y-62775500D02*
X101002500Y-62865000D01*
X101346000Y-51816000D02*
X100575000Y-51045000D01*
X101002500Y-62865000D02*
X98995000Y-62865000D01*
X94917500Y-52390000D02*
X97827500Y-52390000D01*
%TO.N,Net-(Q3-B)*%
X102083104Y-52578000D02*
X102362000Y-52299104D01*
X99972500Y-52070000D02*
X100480500Y-52578000D01*
X107508000Y-52390000D02*
X108282500Y-52390000D01*
X102362000Y-51308000D02*
X103124000Y-50546000D01*
X100480500Y-52578000D02*
X102083104Y-52578000D01*
X102362000Y-52299104D02*
X102362000Y-51308000D01*
X103124000Y-50546000D02*
X105664000Y-50546000D01*
X105664000Y-50546000D02*
X107508000Y-52390000D01*
%TO.N,/usb/DTR*%
X108094500Y-54102000D02*
X108282500Y-54290000D01*
X106299000Y-64135000D02*
X106426000Y-64008000D01*
X106426000Y-54102000D02*
X108094500Y-54102000D01*
X105052500Y-52070000D02*
X106062500Y-52070000D01*
X98995000Y-64135000D02*
X106299000Y-64135000D01*
X106062500Y-52070000D02*
X108282500Y-54290000D01*
%TO.N,Net-(U3-TXD)*%
X101600000Y-60636751D02*
X101600000Y-58777500D01*
X94045000Y-61595000D02*
X94670000Y-62220000D01*
X101600000Y-58777500D02*
X103227500Y-57150000D01*
X94670000Y-62220000D02*
X100016751Y-62220000D01*
X100016751Y-62220000D02*
X101600000Y-60636751D01*
%TO.N,Net-(U3-RXD)*%
X94045000Y-62865000D02*
X94680000Y-63500000D01*
X102108000Y-62784805D02*
X102108000Y-59233827D01*
X101392805Y-63500000D02*
X102108000Y-62784805D01*
X102921827Y-58420000D02*
X107037500Y-58420000D01*
X102108000Y-59233827D02*
X102921827Y-58420000D01*
X94680000Y-63500000D02*
X101392805Y-63500000D01*
X107037500Y-58420000D02*
X108307500Y-57150000D01*
%TD*%
%TA.AperFunction,Conductor*%
%TO.N,GND*%
G36*
X91589204Y-29478124D02*
G01*
X91633585Y-29517280D01*
X91654762Y-29572546D01*
X91647911Y-29631333D01*
X91606402Y-29742622D01*
X91600000Y-29802176D01*
X91600000Y-30050000D01*
X94100000Y-30050000D01*
X94100000Y-29802176D01*
X94093597Y-29742622D01*
X94052089Y-29631333D01*
X94045238Y-29572546D01*
X94066415Y-29517280D01*
X94110796Y-29478124D01*
X94168271Y-29464000D01*
X109031729Y-29464000D01*
X109089204Y-29478124D01*
X109133585Y-29517280D01*
X109154762Y-29572546D01*
X109147911Y-29631333D01*
X109106402Y-29742622D01*
X109100000Y-29802176D01*
X109100000Y-30050000D01*
X111600000Y-30050000D01*
X111600000Y-29802176D01*
X111593597Y-29742622D01*
X111552089Y-29631333D01*
X111545238Y-29572546D01*
X111566415Y-29517280D01*
X111610796Y-29478124D01*
X111668271Y-29464000D01*
X143640000Y-29464000D01*
X143702000Y-29480613D01*
X143747387Y-29526000D01*
X143764000Y-29588000D01*
X143764000Y-30909559D01*
X143745222Y-30975167D01*
X143694574Y-31020904D01*
X143627398Y-31032917D01*
X143545009Y-31024500D01*
X142144991Y-31024500D01*
X142042203Y-31035000D01*
X141875665Y-31090186D01*
X141726342Y-31182288D01*
X141602288Y-31306342D01*
X141510186Y-31455665D01*
X141455000Y-31622202D01*
X141444500Y-31724990D01*
X141444500Y-32525008D01*
X141455000Y-32627796D01*
X141510186Y-32794334D01*
X141602288Y-32943657D01*
X141726342Y-33067711D01*
X141726344Y-33067712D01*
X141875666Y-33159814D01*
X141987016Y-33196712D01*
X142042202Y-33214999D01*
X142052703Y-33216071D01*
X142144991Y-33225500D01*
X143545008Y-33225499D01*
X143627399Y-33217083D01*
X143694575Y-33229097D01*
X143745222Y-33274834D01*
X143764000Y-33340441D01*
X143764000Y-36509559D01*
X143745222Y-36575167D01*
X143694574Y-36620904D01*
X143627398Y-36632917D01*
X143545009Y-36624500D01*
X142144991Y-36624500D01*
X142042203Y-36635000D01*
X141974793Y-36657338D01*
X141953002Y-36664559D01*
X141895137Y-36669410D01*
X141841407Y-36647383D01*
X141803597Y-36603309D01*
X141790000Y-36546853D01*
X141790000Y-33932244D01*
X141792264Y-33911736D01*
X141791882Y-33899588D01*
X141790061Y-33841613D01*
X141790000Y-33837719D01*
X141790000Y-33810154D01*
X141790000Y-33810150D01*
X141789497Y-33806170D01*
X141788581Y-33794528D01*
X141787653Y-33764991D01*
X141787210Y-33750873D01*
X141781618Y-33731626D01*
X141777674Y-33712585D01*
X141775164Y-33692708D01*
X141759079Y-33652083D01*
X141755308Y-33641068D01*
X141743118Y-33599110D01*
X141732914Y-33581855D01*
X141724361Y-33564395D01*
X141716986Y-33545768D01*
X141691308Y-33510425D01*
X141684901Y-33500671D01*
X141681941Y-33495666D01*
X141662670Y-33463080D01*
X141648505Y-33448915D01*
X141635867Y-33434117D01*
X141624095Y-33417913D01*
X141590441Y-33390073D01*
X141581799Y-33382209D01*
X140200802Y-32001211D01*
X140187906Y-31985113D01*
X140136775Y-31937098D01*
X140133978Y-31934387D01*
X140114470Y-31914879D01*
X140111290Y-31912412D01*
X140102424Y-31904839D01*
X140070582Y-31874938D01*
X140053024Y-31865285D01*
X140036764Y-31854604D01*
X140020936Y-31842327D01*
X139980851Y-31824980D01*
X139970361Y-31819841D01*
X139932091Y-31798802D01*
X139912691Y-31793821D01*
X139894284Y-31787519D01*
X139875897Y-31779562D01*
X139832758Y-31772729D01*
X139821324Y-31770361D01*
X139779019Y-31759500D01*
X139758984Y-31759500D01*
X139739586Y-31757973D01*
X139732162Y-31756797D01*
X139719805Y-31754840D01*
X139719804Y-31754840D01*
X139693484Y-31757328D01*
X139676325Y-31758950D01*
X139664656Y-31759500D01*
X138261864Y-31759500D01*
X138241360Y-31757236D01*
X138171268Y-31759439D01*
X138167374Y-31759500D01*
X138139772Y-31759500D01*
X138135777Y-31760004D01*
X138124153Y-31760918D01*
X138080492Y-31762290D01*
X138061253Y-31767880D01*
X138042204Y-31771825D01*
X138022332Y-31774335D01*
X137981717Y-31790415D01*
X137970673Y-31794196D01*
X137928735Y-31806382D01*
X137911488Y-31816581D01*
X137894024Y-31825136D01*
X137875391Y-31832514D01*
X137840050Y-31858189D01*
X137830292Y-31864599D01*
X137792703Y-31886829D01*
X137778534Y-31900998D01*
X137763746Y-31913628D01*
X137747537Y-31925405D01*
X137719696Y-31959058D01*
X137711835Y-31967696D01*
X137411208Y-32268323D01*
X137395110Y-32281220D01*
X137347096Y-32332349D01*
X137344391Y-32335141D01*
X137324874Y-32354658D01*
X137322415Y-32357829D01*
X137314842Y-32366696D01*
X137284935Y-32398544D01*
X137275285Y-32416098D01*
X137264609Y-32432352D01*
X137252326Y-32448187D01*
X137234975Y-32488282D01*
X137229838Y-32498768D01*
X137208802Y-32537031D01*
X137203821Y-32556433D01*
X137197520Y-32574835D01*
X137189561Y-32593226D01*
X137182728Y-32636366D01*
X137180360Y-32647798D01*
X137169500Y-32690102D01*
X137169500Y-32710140D01*
X137167973Y-32729539D01*
X137164840Y-32749318D01*
X137168950Y-32792799D01*
X137169500Y-32804468D01*
X137169500Y-33614007D01*
X137167235Y-33634513D01*
X137169439Y-33704624D01*
X137169500Y-33708519D01*
X137169500Y-33736100D01*
X137170003Y-33740085D01*
X137170918Y-33751718D01*
X137172290Y-33795377D01*
X137177879Y-33814611D01*
X137181825Y-33833667D01*
X137184335Y-33853543D01*
X137200414Y-33894155D01*
X137204197Y-33905202D01*
X137216382Y-33947142D01*
X137226580Y-33964386D01*
X137235136Y-33981851D01*
X137242514Y-34000483D01*
X137242515Y-34000484D01*
X137268180Y-34035810D01*
X137274593Y-34045573D01*
X137296826Y-34083167D01*
X137296829Y-34083170D01*
X137296830Y-34083171D01*
X137310995Y-34097336D01*
X137323627Y-34112126D01*
X137335406Y-34128338D01*
X137369058Y-34156177D01*
X137377699Y-34164040D01*
X137658181Y-34444522D01*
X137685061Y-34484750D01*
X137694500Y-34532203D01*
X137694500Y-34640692D01*
X137697402Y-34677572D01*
X137725971Y-34775905D01*
X137728877Y-34832778D01*
X137706056Y-34884952D01*
X137662320Y-34921423D01*
X137606895Y-34934500D01*
X122733688Y-34934500D01*
X122676431Y-34920489D01*
X122632113Y-34881623D01*
X122519546Y-34720859D01*
X122358640Y-34559953D01*
X122334037Y-34542726D01*
X122294899Y-34497884D01*
X122281166Y-34439970D01*
X122296000Y-34382328D01*
X122335985Y-34338239D01*
X122391906Y-34317861D01*
X122426983Y-34314091D01*
X122561831Y-34263796D01*
X122677046Y-34177546D01*
X122763296Y-34062331D01*
X122813591Y-33927483D01*
X122820000Y-33867873D01*
X122819999Y-32172128D01*
X122813591Y-32112517D01*
X122763296Y-31977669D01*
X122677046Y-31862454D01*
X122561831Y-31776204D01*
X122426983Y-31725909D01*
X122367373Y-31719500D01*
X122367369Y-31719500D01*
X120671630Y-31719500D01*
X120612015Y-31725909D01*
X120477169Y-31776204D01*
X120361954Y-31862454D01*
X120275704Y-31977668D01*
X120225409Y-32112515D01*
X120225409Y-32112517D01*
X120220317Y-32159884D01*
X120219000Y-32172130D01*
X120219000Y-33867869D01*
X120225409Y-33927484D01*
X120239173Y-33964386D01*
X120275704Y-34062331D01*
X120361954Y-34177546D01*
X120477169Y-34263796D01*
X120612017Y-34314091D01*
X120647094Y-34317862D01*
X120703013Y-34338239D01*
X120742997Y-34382327D01*
X120757832Y-34439968D01*
X120744100Y-34497881D01*
X120704964Y-34542724D01*
X120680360Y-34559952D01*
X120519453Y-34720859D01*
X120388932Y-34907264D01*
X120292761Y-35113502D01*
X120233864Y-35333310D01*
X120214031Y-35560000D01*
X120233864Y-35786689D01*
X120292761Y-36006497D01*
X120388932Y-36212735D01*
X120519453Y-36399140D01*
X120680359Y-36560046D01*
X120866220Y-36690186D01*
X120866766Y-36690568D01*
X120921260Y-36715979D01*
X120924775Y-36717618D01*
X120976950Y-36763375D01*
X120996369Y-36830000D01*
X120976950Y-36896625D01*
X120924775Y-36942382D01*
X120866763Y-36969433D01*
X120680359Y-37099953D01*
X120519453Y-37260859D01*
X120388932Y-37447264D01*
X120292761Y-37653502D01*
X120233864Y-37873310D01*
X120214031Y-38100000D01*
X120233864Y-38326689D01*
X120292761Y-38546497D01*
X120388932Y-38752735D01*
X120519453Y-38939140D01*
X120680359Y-39100046D01*
X120866764Y-39230567D01*
X120866765Y-39230567D01*
X120866766Y-39230568D01*
X120925365Y-39257893D01*
X120977540Y-39303650D01*
X120996960Y-39370275D01*
X120977541Y-39436900D01*
X120925365Y-39482657D01*
X120867017Y-39509865D01*
X120794027Y-39560973D01*
X120794026Y-39560973D01*
X121519500Y-40286446D01*
X121519501Y-40286446D01*
X122244972Y-39560974D01*
X122244971Y-39560972D01*
X122171985Y-39509867D01*
X122113633Y-39482657D01*
X122061458Y-39436899D01*
X122042039Y-39370274D01*
X122061459Y-39303649D01*
X122113634Y-39257893D01*
X122172234Y-39230568D01*
X122358639Y-39100047D01*
X122519547Y-38939139D01*
X122650068Y-38752734D01*
X122746239Y-38546496D01*
X122805135Y-38326692D01*
X122824968Y-38100000D01*
X122805135Y-37873308D01*
X122746239Y-37653504D01*
X122650068Y-37447266D01*
X122635956Y-37427112D01*
X122519546Y-37260859D01*
X122358640Y-37099953D01*
X122172233Y-36969431D01*
X122114225Y-36942382D01*
X122062049Y-36896625D01*
X122042629Y-36830000D01*
X122062049Y-36763375D01*
X122114225Y-36717618D01*
X122117740Y-36715979D01*
X122172234Y-36690568D01*
X122194468Y-36675000D01*
X137697704Y-36675000D01*
X137697900Y-36677488D01*
X137743719Y-36835200D01*
X137827317Y-36976557D01*
X137943442Y-37092682D01*
X138084802Y-37176282D01*
X138242506Y-37222099D01*
X138279361Y-37225000D01*
X138720000Y-37225000D01*
X138720000Y-36675000D01*
X137697704Y-36675000D01*
X122194468Y-36675000D01*
X122358639Y-36560047D01*
X122519547Y-36399139D01*
X122630278Y-36240997D01*
X122632113Y-36238377D01*
X122676431Y-36199511D01*
X122733688Y-36185500D01*
X138097093Y-36185500D01*
X138131687Y-36190423D01*
X138242431Y-36222598D01*
X138279306Y-36225500D01*
X138279308Y-36225500D01*
X139096000Y-36225500D01*
X139158000Y-36242113D01*
X139203387Y-36287500D01*
X139220000Y-36349500D01*
X139220000Y-37225000D01*
X139585500Y-37225000D01*
X139647500Y-37241613D01*
X139692887Y-37287000D01*
X139709500Y-37349000D01*
X139709500Y-66992756D01*
X139707235Y-67013262D01*
X139709439Y-67083373D01*
X139709500Y-67087268D01*
X139709500Y-67114849D01*
X139710003Y-67118834D01*
X139710918Y-67130467D01*
X139712290Y-67174126D01*
X139717879Y-67193360D01*
X139721825Y-67212416D01*
X139724335Y-67232292D01*
X139740414Y-67272904D01*
X139744197Y-67283951D01*
X139756382Y-67325891D01*
X139766580Y-67343135D01*
X139775136Y-67360600D01*
X139782514Y-67379232D01*
X139782515Y-67379233D01*
X139808180Y-67414559D01*
X139814593Y-67424322D01*
X139836826Y-67461916D01*
X139836829Y-67461919D01*
X139836830Y-67461920D01*
X139850995Y-67476085D01*
X139863627Y-67490875D01*
X139875406Y-67507087D01*
X139909058Y-67534926D01*
X139917699Y-67542789D01*
X140540086Y-68165177D01*
X140572180Y-68220764D01*
X140572180Y-68284950D01*
X140553864Y-68353307D01*
X140534031Y-68579999D01*
X140553864Y-68806690D01*
X140572180Y-68875047D01*
X140572180Y-68939234D01*
X140540086Y-68994821D01*
X140078208Y-69456699D01*
X140062110Y-69469596D01*
X140014096Y-69520725D01*
X140011391Y-69523517D01*
X139991874Y-69543034D01*
X139989415Y-69546205D01*
X139981842Y-69555072D01*
X139951935Y-69586920D01*
X139942285Y-69604474D01*
X139931609Y-69620728D01*
X139919326Y-69636563D01*
X139901975Y-69676658D01*
X139896838Y-69687144D01*
X139875802Y-69725407D01*
X139870821Y-69744809D01*
X139864520Y-69763211D01*
X139856561Y-69781602D01*
X139849728Y-69824742D01*
X139847360Y-69836174D01*
X139836500Y-69878478D01*
X139836500Y-69898516D01*
X139834973Y-69917915D01*
X139831840Y-69937694D01*
X139835950Y-69981175D01*
X139836500Y-69992844D01*
X139836500Y-74339256D01*
X139834235Y-74359762D01*
X139836439Y-74429873D01*
X139836500Y-74433768D01*
X139836500Y-74461349D01*
X139837003Y-74465334D01*
X139837918Y-74476967D01*
X139839290Y-74520626D01*
X139844879Y-74539860D01*
X139848825Y-74558916D01*
X139851335Y-74578792D01*
X139867414Y-74619404D01*
X139871197Y-74630451D01*
X139883382Y-74672391D01*
X139893580Y-74689635D01*
X139902136Y-74707100D01*
X139909514Y-74725732D01*
X139920066Y-74740256D01*
X139935180Y-74761059D01*
X139941593Y-74770822D01*
X139963826Y-74808416D01*
X139963829Y-74808419D01*
X139963830Y-74808420D01*
X139977995Y-74822585D01*
X139990627Y-74837375D01*
X140002406Y-74853587D01*
X140036058Y-74881426D01*
X140044699Y-74889289D01*
X140308181Y-75152772D01*
X140335061Y-75193000D01*
X140344500Y-75240453D01*
X140344500Y-80565242D01*
X140330985Y-80621537D01*
X140293385Y-80665560D01*
X140239898Y-80687715D01*
X140182182Y-80683173D01*
X140132819Y-80652923D01*
X140011404Y-80531508D01*
X140011401Y-80531505D01*
X139817830Y-80395965D01*
X139603663Y-80296097D01*
X139542502Y-80279709D01*
X139375407Y-80234936D01*
X139140000Y-80214340D01*
X138904592Y-80234936D01*
X138676336Y-80296097D01*
X138462170Y-80395965D01*
X138268598Y-80531505D01*
X138101505Y-80698598D01*
X138047826Y-80775261D01*
X137990834Y-80856655D01*
X137966349Y-80891623D01*
X137922031Y-80930489D01*
X137864774Y-80944500D01*
X134114499Y-80944500D01*
X134052499Y-80927887D01*
X134007112Y-80882500D01*
X133990499Y-80820500D01*
X133990499Y-80672130D01*
X133989793Y-80665560D01*
X133984091Y-80612517D01*
X133933796Y-80477669D01*
X133847546Y-80362454D01*
X133732331Y-80276204D01*
X133597483Y-80225909D01*
X133537873Y-80219500D01*
X133537869Y-80219500D01*
X131742130Y-80219500D01*
X131682515Y-80225909D01*
X131547669Y-80276204D01*
X131432454Y-80362454D01*
X131346204Y-80477668D01*
X131295909Y-80612516D01*
X131289500Y-80672130D01*
X131289500Y-82467869D01*
X131295909Y-82527484D01*
X131313541Y-82574758D01*
X131346204Y-82662331D01*
X131432454Y-82777546D01*
X131547669Y-82863796D01*
X131682517Y-82914091D01*
X131742127Y-82920500D01*
X133537872Y-82920499D01*
X133597483Y-82914091D01*
X133732331Y-82863796D01*
X133847546Y-82777546D01*
X133933796Y-82662331D01*
X133984091Y-82527483D01*
X133990500Y-82467873D01*
X133990500Y-82319500D01*
X134007113Y-82257500D01*
X134052500Y-82212113D01*
X134114500Y-82195500D01*
X137864773Y-82195500D01*
X137922030Y-82209511D01*
X137966346Y-82248374D01*
X138101505Y-82441401D01*
X138268599Y-82608495D01*
X138462170Y-82744035D01*
X138676337Y-82843903D01*
X138904591Y-82905062D01*
X138904592Y-82905063D01*
X139139999Y-82925659D01*
X139139999Y-82925658D01*
X139140000Y-82925659D01*
X139375408Y-82905063D01*
X139603663Y-82843903D01*
X139817830Y-82744035D01*
X140011401Y-82608495D01*
X140132818Y-82487077D01*
X140182182Y-82456827D01*
X140239898Y-82452285D01*
X140293385Y-82474440D01*
X140330985Y-82518463D01*
X140344500Y-82574758D01*
X140344500Y-85181140D01*
X140326039Y-85246237D01*
X140276152Y-85291950D01*
X140270524Y-85293027D01*
X139140000Y-86423553D01*
X138378625Y-87184925D01*
X138462420Y-87243599D01*
X138676507Y-87343430D01*
X138904681Y-87404569D01*
X139139999Y-87425157D01*
X139375318Y-87404569D01*
X139603492Y-87343430D01*
X139817576Y-87243600D01*
X140011079Y-87108107D01*
X140026384Y-87092803D01*
X140074206Y-87063063D01*
X140130251Y-87057543D01*
X140182957Y-87077379D01*
X140221454Y-87118482D01*
X140237466Y-87146215D01*
X140364129Y-87286889D01*
X140517269Y-87398151D01*
X140690197Y-87475144D01*
X140875352Y-87514500D01*
X140875354Y-87514500D01*
X141064646Y-87514500D01*
X141064648Y-87514500D01*
X141209479Y-87483715D01*
X141249803Y-87475144D01*
X141422730Y-87398151D01*
X141497508Y-87343822D01*
X141532115Y-87318679D01*
X141579219Y-87297707D01*
X141630781Y-87297707D01*
X141677885Y-87318679D01*
X141787269Y-87398151D01*
X141960197Y-87475144D01*
X142145352Y-87514500D01*
X142145354Y-87514500D01*
X142334646Y-87514500D01*
X142334648Y-87514500D01*
X142479479Y-87483715D01*
X142519803Y-87475144D01*
X142692730Y-87398151D01*
X142768047Y-87343430D01*
X142845870Y-87286889D01*
X142867709Y-87262635D01*
X142972533Y-87146216D01*
X143067179Y-86982284D01*
X143125674Y-86802256D01*
X143145460Y-86614000D01*
X143125674Y-86425744D01*
X143067179Y-86245716D01*
X143067179Y-86245715D01*
X142972535Y-86081786D01*
X142944443Y-86050587D01*
X142897347Y-85998282D01*
X142873736Y-85959751D01*
X142865500Y-85915313D01*
X142865500Y-71961170D01*
X142871239Y-71923883D01*
X142887925Y-71890047D01*
X142970068Y-71772734D01*
X143066239Y-71566496D01*
X143125135Y-71346692D01*
X143144968Y-71120000D01*
X143125135Y-70893308D01*
X143106818Y-70824947D01*
X143106818Y-70760764D01*
X143138910Y-70705178D01*
X143552318Y-70291770D01*
X143601682Y-70261520D01*
X143659398Y-70256978D01*
X143712885Y-70279133D01*
X143750485Y-70323156D01*
X143764000Y-70379451D01*
X143764000Y-93348000D01*
X143747387Y-93410000D01*
X143702000Y-93455387D01*
X143640000Y-93472000D01*
X99650145Y-93472000D01*
X99585892Y-93454054D01*
X99540236Y-93405412D01*
X99526394Y-93340151D01*
X99548370Y-93277163D01*
X99580517Y-93230975D01*
X99656309Y-93054358D01*
X99695000Y-92866095D01*
X99695000Y-92690000D01*
X98624000Y-92690000D01*
X98562000Y-92673387D01*
X98516613Y-92628000D01*
X98500000Y-92566000D01*
X98500000Y-92317869D01*
X126474500Y-92317869D01*
X126480909Y-92377484D01*
X126501162Y-92431784D01*
X126531204Y-92512331D01*
X126617454Y-92627546D01*
X126732669Y-92713796D01*
X126867517Y-92764091D01*
X126927127Y-92770500D01*
X128522872Y-92770499D01*
X128582483Y-92764091D01*
X128717331Y-92713796D01*
X128832546Y-92627546D01*
X128918796Y-92512331D01*
X128969091Y-92377483D01*
X128975500Y-92317873D01*
X128975500Y-92070000D01*
X131375000Y-92070000D01*
X131375000Y-92317824D01*
X131381402Y-92377375D01*
X131431647Y-92512089D01*
X131517811Y-92627188D01*
X131632910Y-92713352D01*
X131767624Y-92763597D01*
X131827176Y-92770000D01*
X132375000Y-92770000D01*
X132375000Y-92070000D01*
X132875000Y-92070000D01*
X132875000Y-92770000D01*
X133422824Y-92770000D01*
X133482375Y-92763597D01*
X133617089Y-92713352D01*
X133732188Y-92627188D01*
X133818352Y-92512089D01*
X133868597Y-92377375D01*
X133875000Y-92317824D01*
X133875000Y-92070000D01*
X132875000Y-92070000D01*
X132375000Y-92070000D01*
X131375000Y-92070000D01*
X128975500Y-92070000D01*
X128975499Y-91570000D01*
X131375000Y-91570000D01*
X132375000Y-91570000D01*
X132375000Y-90870000D01*
X132875000Y-90870000D01*
X132875000Y-91570000D01*
X133875000Y-91570000D01*
X133875000Y-91322176D01*
X133868597Y-91262624D01*
X133818352Y-91127910D01*
X133732188Y-91012811D01*
X133617089Y-90926647D01*
X133482375Y-90876402D01*
X133422824Y-90870000D01*
X132875000Y-90870000D01*
X132375000Y-90870000D01*
X131827176Y-90870000D01*
X131767624Y-90876402D01*
X131632910Y-90926647D01*
X131517811Y-91012811D01*
X131431647Y-91127910D01*
X131381402Y-91262624D01*
X131375000Y-91322176D01*
X131375000Y-91570000D01*
X128975499Y-91570000D01*
X128975499Y-91322128D01*
X128969091Y-91262517D01*
X128918796Y-91127669D01*
X128832546Y-91012454D01*
X128717331Y-90926204D01*
X128582483Y-90875909D01*
X128522873Y-90869500D01*
X128522869Y-90869500D01*
X126927130Y-90869500D01*
X126867515Y-90875909D01*
X126732669Y-90926204D01*
X126617454Y-91012454D01*
X126531204Y-91127668D01*
X126480909Y-91262515D01*
X126480909Y-91262517D01*
X126476849Y-91300284D01*
X126474500Y-91322130D01*
X126474500Y-92317869D01*
X98500000Y-92317869D01*
X98500000Y-91198567D01*
X98999999Y-91198567D01*
X99000000Y-91198568D01*
X99000000Y-92190000D01*
X99695000Y-92190000D01*
X99695000Y-92062082D01*
X99680428Y-91918789D01*
X99622892Y-91735412D01*
X99529621Y-91567367D01*
X99404431Y-91421538D01*
X99252451Y-91303897D01*
X99079893Y-91219253D01*
X98999999Y-91198567D01*
X98500000Y-91198567D01*
X98500000Y-91165000D01*
X98400000Y-91165000D01*
X98400000Y-92566000D01*
X98383387Y-92628000D01*
X98338000Y-92673387D01*
X98276000Y-92690000D01*
X92224000Y-92690000D01*
X92162000Y-92673387D01*
X92116613Y-92628000D01*
X92100000Y-92566000D01*
X92100000Y-91165000D01*
X92600000Y-91165000D01*
X92600000Y-92190000D01*
X94000000Y-92190000D01*
X94000000Y-91165000D01*
X94500000Y-91165000D01*
X94500000Y-92190000D01*
X96000000Y-92190000D01*
X96000000Y-91165000D01*
X96500000Y-91165000D01*
X96500000Y-92190000D01*
X97900000Y-92190000D01*
X97900000Y-91165000D01*
X97502176Y-91165000D01*
X97442624Y-91171402D01*
X97318334Y-91217760D01*
X97275000Y-91225578D01*
X97231666Y-91217760D01*
X97107375Y-91171402D01*
X97047824Y-91165000D01*
X96500000Y-91165000D01*
X96000000Y-91165000D01*
X95452176Y-91165000D01*
X95392622Y-91171402D01*
X95293332Y-91208435D01*
X95249999Y-91216253D01*
X95206666Y-91208435D01*
X95107377Y-91171402D01*
X95047824Y-91165000D01*
X94500000Y-91165000D01*
X94000000Y-91165000D01*
X93452176Y-91165000D01*
X93392624Y-91171402D01*
X93268334Y-91217760D01*
X93225000Y-91225578D01*
X93181666Y-91217760D01*
X93057375Y-91171402D01*
X92997824Y-91165000D01*
X92600000Y-91165000D01*
X92100000Y-91165000D01*
X92000000Y-91165000D01*
X92000000Y-92566000D01*
X91983387Y-92628000D01*
X91938000Y-92673387D01*
X91876000Y-92690000D01*
X90805000Y-92690000D01*
X90805000Y-92817918D01*
X90819571Y-92961210D01*
X90877107Y-93144587D01*
X90956608Y-93287823D01*
X90972179Y-93349571D01*
X90955049Y-93410905D01*
X90909735Y-93455648D01*
X90848189Y-93472000D01*
X86550454Y-93472000D01*
X86494159Y-93458485D01*
X86450136Y-93420885D01*
X86427981Y-93367398D01*
X86432523Y-93309682D01*
X86458096Y-93230975D01*
X86483674Y-93152256D01*
X86503460Y-92964000D01*
X86483674Y-92775744D01*
X86425179Y-92595716D01*
X86425179Y-92595715D01*
X86330533Y-92431783D01*
X86203870Y-92291110D01*
X86064703Y-92190000D01*
X90805000Y-92190000D01*
X91500000Y-92190000D01*
X91500000Y-91194862D01*
X91499999Y-91194861D01*
X91331681Y-91257199D01*
X91168576Y-91358862D01*
X91029277Y-91491277D01*
X90919482Y-91649024D01*
X90843690Y-91825641D01*
X90805000Y-92013905D01*
X90805000Y-92190000D01*
X86064703Y-92190000D01*
X86050730Y-92179848D01*
X85877802Y-92102855D01*
X85692648Y-92063500D01*
X85692646Y-92063500D01*
X85633453Y-92063500D01*
X85586000Y-92054061D01*
X85545772Y-92027181D01*
X85497819Y-91979228D01*
X85470939Y-91939000D01*
X85461500Y-91891547D01*
X85461500Y-89990000D01*
X91652869Y-89990000D01*
X91720123Y-90171595D01*
X91825019Y-90339883D01*
X91961635Y-90483602D01*
X92124389Y-90596883D01*
X92306614Y-90675081D01*
X92500000Y-90714824D01*
X92500000Y-89990000D01*
X91652869Y-89990000D01*
X85461500Y-89990000D01*
X85461500Y-89489999D01*
X91657579Y-89489999D01*
X91657580Y-89490000D01*
X92500000Y-89490000D01*
X92500000Y-88770142D01*
X92499999Y-88770141D01*
X92402721Y-88780033D01*
X92213519Y-88839396D01*
X92040140Y-88935628D01*
X91889682Y-89064792D01*
X91768306Y-89221597D01*
X91680977Y-89399630D01*
X91657579Y-89489999D01*
X85461500Y-89489999D01*
X85461500Y-76764452D01*
X85470939Y-76716999D01*
X85497819Y-76676771D01*
X85537388Y-76637202D01*
X86062194Y-76112394D01*
X86123034Y-76079016D01*
X86192283Y-76083555D01*
X86248249Y-76124590D01*
X86273401Y-76189269D01*
X86294936Y-76435407D01*
X86304384Y-76470666D01*
X86356097Y-76663663D01*
X86455965Y-76877830D01*
X86591505Y-77071401D01*
X86758599Y-77238495D01*
X86944160Y-77368426D01*
X86983024Y-77412743D01*
X86997035Y-77470000D01*
X86983024Y-77527257D01*
X86944159Y-77571575D01*
X86758595Y-77701508D01*
X86591505Y-77868598D01*
X86455965Y-78062170D01*
X86356097Y-78276336D01*
X86294936Y-78504592D01*
X86274340Y-78740000D01*
X86294936Y-78975407D01*
X86339709Y-79142501D01*
X86356097Y-79203663D01*
X86455965Y-79417830D01*
X86591505Y-79611401D01*
X86758599Y-79778495D01*
X86944160Y-79908426D01*
X86983024Y-79952743D01*
X86997035Y-80010000D01*
X86983024Y-80067257D01*
X86944158Y-80111575D01*
X86780873Y-80225909D01*
X86758595Y-80241508D01*
X86591505Y-80408598D01*
X86455965Y-80602170D01*
X86356097Y-80816336D01*
X86294936Y-81044592D01*
X86274340Y-81279999D01*
X86294936Y-81515407D01*
X86325505Y-81629491D01*
X86356097Y-81743663D01*
X86455965Y-81957830D01*
X86591505Y-82151401D01*
X86758599Y-82318495D01*
X86944160Y-82448426D01*
X86983024Y-82492743D01*
X86997035Y-82550000D01*
X86983024Y-82607257D01*
X86944158Y-82651575D01*
X86764255Y-82777545D01*
X86758595Y-82781508D01*
X86591505Y-82948598D01*
X86455965Y-83142170D01*
X86356097Y-83356336D01*
X86294936Y-83584592D01*
X86274340Y-83820000D01*
X86294936Y-84055407D01*
X86323859Y-84163347D01*
X86356097Y-84283663D01*
X86455965Y-84497830D01*
X86591505Y-84691401D01*
X86758599Y-84858495D01*
X86944160Y-84988426D01*
X86983024Y-85032743D01*
X86997035Y-85090000D01*
X86983024Y-85147257D01*
X86944159Y-85191575D01*
X86758595Y-85321508D01*
X86591505Y-85488598D01*
X86455965Y-85682170D01*
X86356097Y-85896336D01*
X86294936Y-86124592D01*
X86274340Y-86360000D01*
X86294936Y-86595407D01*
X86331536Y-86732000D01*
X86356097Y-86823663D01*
X86455965Y-87037830D01*
X86591505Y-87231401D01*
X86758599Y-87398495D01*
X86952170Y-87534035D01*
X87166337Y-87633903D01*
X87394592Y-87695063D01*
X87630000Y-87715659D01*
X87865408Y-87695063D01*
X88093663Y-87633903D01*
X88307830Y-87534035D01*
X88501401Y-87398495D01*
X88668495Y-87231401D01*
X88804035Y-87037830D01*
X88903903Y-86823663D01*
X88965063Y-86595408D01*
X88985659Y-86360000D01*
X88965063Y-86124592D01*
X88903903Y-85896337D01*
X88804035Y-85682171D01*
X88668495Y-85488599D01*
X88501401Y-85321505D01*
X88315839Y-85191573D01*
X88276975Y-85147257D01*
X88262964Y-85090000D01*
X88276975Y-85032743D01*
X88315839Y-84988426D01*
X88501401Y-84858495D01*
X88668495Y-84691401D01*
X88804035Y-84497830D01*
X88903903Y-84283663D01*
X88965063Y-84055408D01*
X88985659Y-83820000D01*
X88965063Y-83584592D01*
X88903903Y-83356337D01*
X88804035Y-83142171D01*
X88668495Y-82948599D01*
X88501401Y-82781505D01*
X88315839Y-82651573D01*
X88276975Y-82607257D01*
X88262964Y-82550000D01*
X88276975Y-82492743D01*
X88315839Y-82448426D01*
X88501401Y-82318495D01*
X88668495Y-82151401D01*
X88804035Y-81957830D01*
X88903903Y-81743663D01*
X88965063Y-81515408D01*
X88985659Y-81280000D01*
X88965063Y-81044592D01*
X88903903Y-80816337D01*
X88804035Y-80602171D01*
X88668495Y-80408599D01*
X88501401Y-80241505D01*
X88315839Y-80111573D01*
X88276976Y-80067257D01*
X88262965Y-80010000D01*
X88276976Y-79952743D01*
X88315839Y-79908426D01*
X88501401Y-79778495D01*
X88668495Y-79611401D01*
X88804035Y-79417830D01*
X88903903Y-79203663D01*
X88965063Y-78975408D01*
X88985659Y-78740000D01*
X88965063Y-78504592D01*
X88903903Y-78276337D01*
X88804035Y-78062171D01*
X88668495Y-77868599D01*
X88501401Y-77701505D01*
X88315839Y-77571573D01*
X88276975Y-77527257D01*
X88262964Y-77470000D01*
X88276975Y-77412743D01*
X88315839Y-77368426D01*
X88501401Y-77238495D01*
X88668495Y-77071401D01*
X88804035Y-76877830D01*
X88903903Y-76663663D01*
X88965063Y-76435408D01*
X88985659Y-76200000D01*
X88977994Y-76112396D01*
X88965063Y-75964592D01*
X88940697Y-75873656D01*
X88903903Y-75736337D01*
X88804035Y-75522171D01*
X88668495Y-75328599D01*
X88501401Y-75161505D01*
X88315839Y-75031573D01*
X88276975Y-74987257D01*
X88262964Y-74930000D01*
X88276975Y-74872743D01*
X88315839Y-74828426D01*
X88501401Y-74698495D01*
X88668495Y-74531401D01*
X88804035Y-74337830D01*
X88903903Y-74123663D01*
X88965063Y-73895408D01*
X88985659Y-73660000D01*
X88965063Y-73424592D01*
X88903903Y-73196337D01*
X88804035Y-72982171D01*
X88668495Y-72788599D01*
X88501401Y-72621505D01*
X88315839Y-72491573D01*
X88276976Y-72447257D01*
X88262965Y-72390000D01*
X88276976Y-72332743D01*
X88315839Y-72288426D01*
X88501401Y-72158495D01*
X88668495Y-71991401D01*
X88804035Y-71797830D01*
X88903903Y-71583663D01*
X88965063Y-71355408D01*
X88985659Y-71120000D01*
X88977994Y-71032396D01*
X88965063Y-70884592D01*
X88947174Y-70817830D01*
X88903903Y-70656337D01*
X88804035Y-70442171D01*
X88668495Y-70248599D01*
X88501401Y-70081505D01*
X88315839Y-69951573D01*
X88276975Y-69907257D01*
X88262964Y-69850000D01*
X88276975Y-69792743D01*
X88315839Y-69748426D01*
X88501401Y-69618495D01*
X88668495Y-69451401D01*
X88804035Y-69257830D01*
X88903903Y-69043663D01*
X88965063Y-68815408D01*
X88985659Y-68580000D01*
X88979646Y-68511278D01*
X88965063Y-68344592D01*
X88949082Y-68284950D01*
X88903903Y-68116337D01*
X88804035Y-67902171D01*
X88668495Y-67708599D01*
X88501401Y-67541505D01*
X88315839Y-67411573D01*
X88276975Y-67367257D01*
X88262964Y-67310000D01*
X88276975Y-67252743D01*
X88315839Y-67208426D01*
X88501401Y-67078495D01*
X88668495Y-66911401D01*
X88804035Y-66717830D01*
X88903903Y-66503663D01*
X88965063Y-66275408D01*
X88985659Y-66040000D01*
X88979656Y-65971392D01*
X88965063Y-65804592D01*
X88951318Y-65753294D01*
X88903903Y-65576337D01*
X88804035Y-65362171D01*
X88668495Y-65168599D01*
X88501401Y-65001505D01*
X88315839Y-64871573D01*
X88276976Y-64827257D01*
X88262965Y-64770000D01*
X88276976Y-64712743D01*
X88315839Y-64668426D01*
X88501401Y-64538495D01*
X88668495Y-64371401D01*
X88804035Y-64177830D01*
X88903903Y-63963663D01*
X88965063Y-63735408D01*
X88985659Y-63500000D01*
X88965063Y-63264592D01*
X88903903Y-63036337D01*
X88804035Y-62822171D01*
X88668495Y-62628599D01*
X88501401Y-62461505D01*
X88315839Y-62331573D01*
X88276974Y-62287255D01*
X88262964Y-62229999D01*
X88276975Y-62172742D01*
X88315837Y-62128428D01*
X88501401Y-61998495D01*
X88668495Y-61831401D01*
X88804035Y-61637830D01*
X88903903Y-61423663D01*
X88965063Y-61195408D01*
X88985659Y-60960000D01*
X88965063Y-60724592D01*
X88903903Y-60496337D01*
X88804035Y-60282171D01*
X88668495Y-60088599D01*
X88501401Y-59921505D01*
X88315839Y-59791573D01*
X88276975Y-59747257D01*
X88262964Y-59690000D01*
X88276975Y-59632743D01*
X88315839Y-59588426D01*
X88501401Y-59458495D01*
X88668495Y-59291401D01*
X88804035Y-59097830D01*
X88903903Y-58883663D01*
X88965063Y-58655408D01*
X88985659Y-58420000D01*
X88984899Y-58411319D01*
X88965063Y-58184592D01*
X88956794Y-58153732D01*
X88903903Y-57956337D01*
X88804035Y-57742171D01*
X88668495Y-57548599D01*
X88501401Y-57381505D01*
X88315839Y-57251573D01*
X88276975Y-57207257D01*
X88262964Y-57150000D01*
X88276975Y-57092743D01*
X88315839Y-57048426D01*
X88501401Y-56918495D01*
X88668495Y-56751401D01*
X88804035Y-56557830D01*
X88903903Y-56343663D01*
X88965063Y-56115408D01*
X88985659Y-55880000D01*
X88965063Y-55644592D01*
X88903903Y-55416337D01*
X88804035Y-55202171D01*
X88668495Y-55008599D01*
X88501401Y-54841505D01*
X88315839Y-54711573D01*
X88276974Y-54667255D01*
X88262964Y-54609999D01*
X88276975Y-54552742D01*
X88315837Y-54508428D01*
X88501401Y-54378495D01*
X88668495Y-54211401D01*
X88804035Y-54017830D01*
X88903903Y-53803663D01*
X88965063Y-53575408D01*
X88985659Y-53340000D01*
X88973831Y-53204814D01*
X88965063Y-53104592D01*
X88960463Y-53087426D01*
X88903903Y-52876337D01*
X88901835Y-52871903D01*
X88890483Y-52811391D01*
X88909637Y-52752875D01*
X88954575Y-52710786D01*
X89014218Y-52695500D01*
X91462048Y-52695500D01*
X91509501Y-52704939D01*
X91549729Y-52731819D01*
X91777595Y-52959685D01*
X91810018Y-53016526D01*
X91808992Y-53081955D01*
X91807402Y-53087426D01*
X91804500Y-53124309D01*
X91804500Y-53555692D01*
X91807402Y-53592572D01*
X91853255Y-53750397D01*
X91936918Y-53891864D01*
X91936919Y-53891865D01*
X92053135Y-54008081D01*
X92194602Y-54091744D01*
X92327595Y-54130383D01*
X92374024Y-54155592D01*
X92405745Y-54197840D01*
X92417000Y-54249459D01*
X92417000Y-54605756D01*
X92414735Y-54626262D01*
X92416939Y-54696373D01*
X92417000Y-54700268D01*
X92417000Y-54727849D01*
X92417503Y-54731834D01*
X92418418Y-54743467D01*
X92419790Y-54787126D01*
X92425379Y-54806360D01*
X92429325Y-54825416D01*
X92431835Y-54845292D01*
X92447914Y-54885904D01*
X92451697Y-54896951D01*
X92463882Y-54938891D01*
X92474080Y-54956135D01*
X92482636Y-54973600D01*
X92490014Y-54992232D01*
X92490015Y-54992233D01*
X92515680Y-55027559D01*
X92522093Y-55037322D01*
X92544326Y-55074916D01*
X92544329Y-55074919D01*
X92544330Y-55074920D01*
X92558495Y-55089085D01*
X92571127Y-55103875D01*
X92582906Y-55120087D01*
X92616558Y-55147926D01*
X92625199Y-55155789D01*
X93182228Y-55712819D01*
X93212478Y-55762182D01*
X93217020Y-55819898D01*
X93194865Y-55873385D01*
X93150842Y-55910985D01*
X93094547Y-55924500D01*
X92729991Y-55924500D01*
X92627203Y-55935000D01*
X92460665Y-55990186D01*
X92311342Y-56082288D01*
X92187288Y-56206342D01*
X92095186Y-56355665D01*
X92040000Y-56522202D01*
X92029500Y-56624991D01*
X92029500Y-57214546D01*
X92020061Y-57261999D01*
X91993181Y-57302227D01*
X91818208Y-57477199D01*
X91802110Y-57490096D01*
X91754096Y-57541225D01*
X91751391Y-57544017D01*
X91731874Y-57563534D01*
X91729415Y-57566705D01*
X91721842Y-57575572D01*
X91691935Y-57607420D01*
X91682285Y-57624974D01*
X91671609Y-57641228D01*
X91659326Y-57657063D01*
X91641975Y-57697158D01*
X91636838Y-57707644D01*
X91615802Y-57745907D01*
X91610821Y-57765309D01*
X91604520Y-57783711D01*
X91596561Y-57802102D01*
X91589728Y-57845242D01*
X91587360Y-57856674D01*
X91576500Y-57898978D01*
X91576500Y-57919016D01*
X91574973Y-57938415D01*
X91571840Y-57958194D01*
X91575950Y-58001675D01*
X91576500Y-58013344D01*
X91576500Y-62586007D01*
X91574235Y-62606513D01*
X91576439Y-62676624D01*
X91576500Y-62680519D01*
X91576500Y-62708100D01*
X91577003Y-62712085D01*
X91577918Y-62723718D01*
X91579290Y-62767377D01*
X91584879Y-62786611D01*
X91588825Y-62805667D01*
X91591335Y-62825543D01*
X91607414Y-62866155D01*
X91611197Y-62877202D01*
X91623382Y-62919142D01*
X91633580Y-62936386D01*
X91642136Y-62953851D01*
X91649514Y-62972483D01*
X91649515Y-62972484D01*
X91675180Y-63007810D01*
X91681593Y-63017573D01*
X91703826Y-63055167D01*
X91703829Y-63055170D01*
X91703830Y-63055171D01*
X91717993Y-63069334D01*
X91730627Y-63084126D01*
X91742406Y-63100338D01*
X91776058Y-63128177D01*
X91784699Y-63136040D01*
X92533181Y-63884523D01*
X92560061Y-63924751D01*
X92569500Y-63972204D01*
X92569500Y-64350692D01*
X92572402Y-64387572D01*
X92618255Y-64545397D01*
X92640456Y-64582936D01*
X92695771Y-64676470D01*
X92709893Y-64700348D01*
X92708319Y-64701278D01*
X92729467Y-64737906D01*
X92729467Y-64802094D01*
X92708319Y-64838721D01*
X92709893Y-64839652D01*
X92618255Y-64994602D01*
X92572402Y-65152427D01*
X92569500Y-65189308D01*
X92569500Y-65620692D01*
X92572402Y-65657572D01*
X92618255Y-65815397D01*
X92709893Y-65970348D01*
X92708319Y-65971278D01*
X92729467Y-66007906D01*
X92729467Y-66072094D01*
X92708319Y-66108721D01*
X92709893Y-66109652D01*
X92618255Y-66264602D01*
X92572402Y-66422427D01*
X92572402Y-66422431D01*
X92569500Y-66459306D01*
X92569500Y-66890694D01*
X92570436Y-66902582D01*
X92572402Y-66927572D01*
X92618255Y-67085397D01*
X92709893Y-67240348D01*
X92708319Y-67241278D01*
X92729467Y-67277906D01*
X92729467Y-67342094D01*
X92708319Y-67378721D01*
X92709893Y-67379652D01*
X92618255Y-67534602D01*
X92572402Y-67692427D01*
X92569500Y-67729308D01*
X92569500Y-68160692D01*
X92572402Y-68197572D01*
X92618255Y-68355397D01*
X92709893Y-68510348D01*
X92708319Y-68511278D01*
X92729467Y-68547906D01*
X92729467Y-68612094D01*
X92708319Y-68648721D01*
X92709893Y-68649652D01*
X92618255Y-68804602D01*
X92572402Y-68962427D01*
X92569500Y-68999308D01*
X92569500Y-69430692D01*
X92572402Y-69467572D01*
X92618255Y-69625397D01*
X92683059Y-69734975D01*
X92701919Y-69766865D01*
X92818135Y-69883081D01*
X92933953Y-69951575D01*
X92959602Y-69966744D01*
X93117427Y-70012597D01*
X93117431Y-70012598D01*
X93154306Y-70015500D01*
X94935692Y-70015500D01*
X94935694Y-70015500D01*
X94972569Y-70012598D01*
X95130398Y-69966744D01*
X95271865Y-69883081D01*
X95388081Y-69766865D01*
X95463767Y-69638885D01*
X95509402Y-69594103D01*
X95571279Y-69578008D01*
X95632949Y-69594879D01*
X95678017Y-69640231D01*
X95694500Y-69702006D01*
X95694500Y-69964703D01*
X95685061Y-70012156D01*
X95658181Y-70052384D01*
X94308965Y-71401598D01*
X94296773Y-71412291D01*
X94271717Y-71431517D01*
X94202547Y-71521664D01*
X94202545Y-71521665D01*
X94175463Y-71556959D01*
X94114956Y-71703037D01*
X94094317Y-71859799D01*
X94098439Y-71891101D01*
X94099500Y-71907287D01*
X94099500Y-80156398D01*
X94082433Y-80219177D01*
X94035932Y-80264675D01*
X93972795Y-80280368D01*
X93910403Y-80261937D01*
X93879696Y-80242996D01*
X93718707Y-80189650D01*
X93629495Y-80180536D01*
X93619344Y-80179500D01*
X93072655Y-80179500D01*
X92973292Y-80189650D01*
X92812300Y-80242997D01*
X92667955Y-80332031D01*
X92548031Y-80451955D01*
X92458997Y-80596300D01*
X92405650Y-80757292D01*
X92395500Y-80856655D01*
X92395500Y-81703344D01*
X92405650Y-81802707D01*
X92458997Y-81963699D01*
X92548029Y-82108041D01*
X92548031Y-82108043D01*
X92548032Y-82108044D01*
X92659183Y-82219195D01*
X92686061Y-82259421D01*
X92695500Y-82306874D01*
X92695500Y-85536256D01*
X92693235Y-85556762D01*
X92695439Y-85626873D01*
X92695500Y-85630768D01*
X92695500Y-85658349D01*
X92696003Y-85662334D01*
X92696918Y-85673967D01*
X92698290Y-85717626D01*
X92703879Y-85736860D01*
X92707825Y-85755916D01*
X92710335Y-85775792D01*
X92726414Y-85816404D01*
X92730197Y-85827451D01*
X92742382Y-85869391D01*
X92752580Y-85886635D01*
X92761136Y-85904100D01*
X92768514Y-85922732D01*
X92768515Y-85922733D01*
X92794180Y-85958059D01*
X92800593Y-85967822D01*
X92822826Y-86005416D01*
X92822829Y-86005419D01*
X92822830Y-86005420D01*
X92836995Y-86019585D01*
X92849627Y-86034375D01*
X92861406Y-86050587D01*
X92895058Y-86078426D01*
X92903699Y-86086289D01*
X93109181Y-86291771D01*
X93136061Y-86331999D01*
X93145500Y-86379452D01*
X93145500Y-86641869D01*
X93151909Y-86701484D01*
X93169102Y-86747580D01*
X93202204Y-86836331D01*
X93269290Y-86925946D01*
X93299138Y-86965818D01*
X93296761Y-86967597D01*
X93311388Y-86985103D01*
X93324500Y-87040600D01*
X93324500Y-88679788D01*
X93312511Y-88732982D01*
X93278861Y-88775890D01*
X93230057Y-88800214D01*
X93175539Y-88801250D01*
X93000000Y-88765175D01*
X93000000Y-90709858D01*
X93097278Y-90699966D01*
X93208539Y-90665058D01*
X93258868Y-90660076D01*
X93306999Y-90675605D01*
X93344927Y-90709060D01*
X93392451Y-90772544D01*
X93392454Y-90772546D01*
X93507669Y-90858796D01*
X93642517Y-90909091D01*
X93702127Y-90915500D01*
X94197872Y-90915499D01*
X94257483Y-90909091D01*
X94257484Y-90909090D01*
X94261748Y-90908632D01*
X94288258Y-90908633D01*
X94292516Y-90909090D01*
X94292517Y-90909091D01*
X94352127Y-90915500D01*
X94847872Y-90915499D01*
X94907483Y-90909091D01*
X94907484Y-90909090D01*
X94911748Y-90908632D01*
X94938258Y-90908633D01*
X94942516Y-90909090D01*
X94942517Y-90909091D01*
X95002127Y-90915500D01*
X95497872Y-90915499D01*
X95557483Y-90909091D01*
X95557484Y-90909090D01*
X95561748Y-90908632D01*
X95588258Y-90908633D01*
X95592516Y-90909090D01*
X95592517Y-90909091D01*
X95652127Y-90915500D01*
X96147872Y-90915499D01*
X96207483Y-90909091D01*
X96207485Y-90909090D01*
X96214092Y-90908380D01*
X96240601Y-90908380D01*
X96302177Y-90915000D01*
X96350000Y-90915000D01*
X96350038Y-90914961D01*
X96363116Y-90859621D01*
X96399689Y-90815858D01*
X96413022Y-90805876D01*
X96457546Y-90772546D01*
X96526735Y-90680121D01*
X96574489Y-90641640D01*
X96634846Y-90630750D01*
X96693039Y-90650119D01*
X96734832Y-90695007D01*
X96750000Y-90754434D01*
X96750000Y-90915000D01*
X96797824Y-90915000D01*
X96857375Y-90908597D01*
X96992089Y-90858352D01*
X97107190Y-90772187D01*
X97152211Y-90712047D01*
X97193813Y-90676581D01*
X97246623Y-90662452D01*
X97300376Y-90672406D01*
X97306609Y-90675080D01*
X97500000Y-90714824D01*
X97500000Y-89990000D01*
X98000000Y-89990000D01*
X98000000Y-90709858D01*
X98097278Y-90699966D01*
X98286480Y-90640603D01*
X98459859Y-90544371D01*
X98610317Y-90415207D01*
X98731693Y-90258402D01*
X98819022Y-90080369D01*
X98842420Y-89990000D01*
X98000000Y-89990000D01*
X97500000Y-89990000D01*
X96724500Y-89990000D01*
X96662500Y-89973387D01*
X96617113Y-89928000D01*
X96600500Y-89866000D01*
X96600499Y-89614000D01*
X96617112Y-89552000D01*
X96662499Y-89506613D01*
X96724499Y-89490000D01*
X97500000Y-89490000D01*
X97500000Y-88770142D01*
X97499999Y-88770141D01*
X97402719Y-88780033D01*
X97290953Y-88815100D01*
X97240624Y-88820082D01*
X97192493Y-88804553D01*
X97154565Y-88771097D01*
X97150132Y-88765175D01*
X98000000Y-88765175D01*
X98000000Y-89490000D01*
X98847130Y-89490000D01*
X98847130Y-89489999D01*
X98779876Y-89308404D01*
X98674980Y-89140116D01*
X98538364Y-88996397D01*
X98375610Y-88883116D01*
X98193385Y-88804918D01*
X98000000Y-88765175D01*
X97150132Y-88765175D01*
X97107190Y-88707812D01*
X96992089Y-88621647D01*
X96857375Y-88571402D01*
X96797824Y-88565000D01*
X96750000Y-88565000D01*
X96750000Y-88725566D01*
X96734832Y-88784993D01*
X96693039Y-88829881D01*
X96634846Y-88849250D01*
X96574489Y-88838360D01*
X96526735Y-88799878D01*
X96457546Y-88707454D01*
X96454798Y-88705397D01*
X96399689Y-88664142D01*
X96363116Y-88620379D01*
X96350038Y-88565038D01*
X96350000Y-88565000D01*
X96302174Y-88565000D01*
X96240599Y-88571619D01*
X96214092Y-88571619D01*
X96171799Y-88567072D01*
X96147873Y-88564500D01*
X96147870Y-88564500D01*
X95915314Y-88564500D01*
X95867861Y-88555061D01*
X95827632Y-88528181D01*
X95800753Y-88487952D01*
X95772877Y-88420653D01*
X95757081Y-88391099D01*
X95750500Y-88351241D01*
X95750500Y-86344000D01*
X96246000Y-86344000D01*
X96246000Y-87094000D01*
X96393824Y-87094000D01*
X96453375Y-87087597D01*
X96588089Y-87037352D01*
X96703188Y-86951188D01*
X96789352Y-86836089D01*
X96839597Y-86701375D01*
X96846000Y-86641824D01*
X96846000Y-86344000D01*
X96246000Y-86344000D01*
X95750500Y-86344000D01*
X95750500Y-85968000D01*
X95767113Y-85906000D01*
X95812500Y-85860613D01*
X95874500Y-85844000D01*
X96846000Y-85844000D01*
X96846000Y-85546176D01*
X96839597Y-85486624D01*
X96789352Y-85351910D01*
X96692505Y-85222539D01*
X96693822Y-85221552D01*
X96675656Y-85199815D01*
X96662541Y-85144310D01*
X96675658Y-85088806D01*
X96694097Y-85066742D01*
X96692862Y-85065818D01*
X96717622Y-85032743D01*
X96789796Y-84936331D01*
X96840091Y-84801483D01*
X96846500Y-84741873D01*
X96846499Y-84046128D01*
X96840091Y-83986517D01*
X96789796Y-83851669D01*
X96703546Y-83736454D01*
X96588331Y-83650204D01*
X96453483Y-83599909D01*
X96393873Y-83593500D01*
X96393869Y-83593500D01*
X96393852Y-83593500D01*
X95874499Y-83593500D01*
X95812500Y-83576888D01*
X95767113Y-83531501D01*
X95750500Y-83469501D01*
X95750500Y-82309875D01*
X95764015Y-82253580D01*
X95801615Y-82209557D01*
X95855102Y-82187402D01*
X95912818Y-82191944D01*
X95962181Y-82222194D01*
X95967955Y-82227968D01*
X96112300Y-82317002D01*
X96112302Y-82317002D01*
X96112303Y-82317003D01*
X96273292Y-82370349D01*
X96372655Y-82380500D01*
X96919344Y-82380499D01*
X97018708Y-82370349D01*
X97179697Y-82317003D01*
X97191254Y-82309875D01*
X97324044Y-82227968D01*
X97443968Y-82108044D01*
X97533002Y-81963699D01*
X97557472Y-81889855D01*
X97586349Y-81802708D01*
X97596500Y-81703345D01*
X97596499Y-81340121D01*
X97605938Y-81292669D01*
X97632815Y-81252444D01*
X98022322Y-80862938D01*
X98077905Y-80830847D01*
X98142093Y-80830847D01*
X98197680Y-80862941D01*
X100777216Y-83442477D01*
X100782350Y-83447930D01*
X100820900Y-83491444D01*
X100868724Y-83524454D01*
X100874756Y-83528892D01*
X100897638Y-83546818D01*
X100920513Y-83564740D01*
X100929139Y-83568622D01*
X100948677Y-83579642D01*
X100956461Y-83585015D01*
X100956462Y-83585015D01*
X100956463Y-83585016D01*
X101010810Y-83605627D01*
X101017717Y-83608488D01*
X101070722Y-83632344D01*
X101080028Y-83634049D01*
X101101636Y-83640072D01*
X101110480Y-83643427D01*
X101168177Y-83650431D01*
X101175562Y-83651556D01*
X101232742Y-83662036D01*
X101232744Y-83662035D01*
X101232745Y-83662036D01*
X101290769Y-83658526D01*
X101298257Y-83658300D01*
X101491501Y-83658300D01*
X101553501Y-83674913D01*
X101598888Y-83720300D01*
X101613648Y-83775387D01*
X101614791Y-83775265D01*
X101615501Y-83781869D01*
X101615501Y-83781872D01*
X101621909Y-83841483D01*
X101672204Y-83976331D01*
X101758454Y-84091546D01*
X101873669Y-84177796D01*
X102008517Y-84228091D01*
X102068127Y-84234500D01*
X102068132Y-84234500D01*
X102074735Y-84235210D01*
X102074612Y-84236352D01*
X102129700Y-84251113D01*
X102175087Y-84296500D01*
X102191700Y-84358500D01*
X102191700Y-87565748D01*
X102191474Y-87573236D01*
X102187964Y-87631256D01*
X102198440Y-87688424D01*
X102199567Y-87695827D01*
X102206573Y-87753520D01*
X102209925Y-87762359D01*
X102215951Y-87783974D01*
X102217655Y-87793274D01*
X102241509Y-87846275D01*
X102244375Y-87853196D01*
X102264984Y-87907538D01*
X102270354Y-87915319D01*
X102281375Y-87934858D01*
X102285259Y-87943487D01*
X102321106Y-87989242D01*
X102325546Y-87995276D01*
X102358557Y-88043101D01*
X102402067Y-88081648D01*
X102407521Y-88086782D01*
X104063181Y-89742442D01*
X104090061Y-89782670D01*
X104099500Y-89830123D01*
X104099500Y-90970008D01*
X104110000Y-91072796D01*
X104165186Y-91239334D01*
X104257288Y-91388657D01*
X104381342Y-91512711D01*
X104381344Y-91512712D01*
X104530666Y-91604814D01*
X104642016Y-91641712D01*
X104697202Y-91659999D01*
X104707703Y-91661071D01*
X104799991Y-91670500D01*
X106100008Y-91670499D01*
X106202797Y-91659999D01*
X106369334Y-91604814D01*
X106518656Y-91512712D01*
X106642712Y-91388656D01*
X106734814Y-91239334D01*
X106734814Y-91239331D01*
X106738448Y-91233441D01*
X106777361Y-91193957D01*
X106829591Y-91175376D01*
X106884698Y-91181411D01*
X106931668Y-91210856D01*
X107078918Y-91358106D01*
X107272423Y-91493600D01*
X107486507Y-91593430D01*
X107699999Y-91650635D01*
X107700000Y-91650636D01*
X107700000Y-90420000D01*
X108200000Y-90420000D01*
X108200000Y-91650635D01*
X108413492Y-91593430D01*
X108627578Y-91493599D01*
X108821078Y-91358109D01*
X108988109Y-91191078D01*
X109123599Y-90997578D01*
X109223430Y-90783492D01*
X109284569Y-90555318D01*
X109296407Y-90420000D01*
X108200000Y-90420000D01*
X107700000Y-90420000D01*
X107700000Y-88689364D01*
X108200000Y-88689364D01*
X108200000Y-89920000D01*
X109296407Y-89920000D01*
X109296407Y-89919999D01*
X109284569Y-89784681D01*
X109223430Y-89556507D01*
X109123599Y-89342421D01*
X108988109Y-89148921D01*
X108821081Y-88981893D01*
X108627576Y-88846399D01*
X108413492Y-88746569D01*
X108200000Y-88689364D01*
X107700000Y-88689364D01*
X107699999Y-88689364D01*
X107486507Y-88746569D01*
X107272421Y-88846400D01*
X107078924Y-88981888D01*
X106931668Y-89129144D01*
X106884698Y-89158589D01*
X106829591Y-89164623D01*
X106777361Y-89146042D01*
X106738448Y-89106558D01*
X106732295Y-89096583D01*
X106642712Y-88951344D01*
X106642711Y-88951342D01*
X106518657Y-88827288D01*
X106369334Y-88735186D01*
X106202797Y-88680000D01*
X106100009Y-88669500D01*
X104960123Y-88669500D01*
X104912670Y-88660061D01*
X104872442Y-88633181D01*
X103584619Y-87345358D01*
X103557739Y-87305130D01*
X103548300Y-87257677D01*
X103548300Y-84358499D01*
X103564913Y-84296499D01*
X103610300Y-84251112D01*
X103665387Y-84236351D01*
X103665265Y-84235209D01*
X103671869Y-84234499D01*
X103671872Y-84234499D01*
X103731483Y-84228091D01*
X103866331Y-84177796D01*
X103981546Y-84091546D01*
X104030617Y-84025996D01*
X104717555Y-84025996D01*
X104717556Y-84025997D01*
X104780604Y-84070143D01*
X104979467Y-84162875D01*
X105191413Y-84219666D01*
X105410000Y-84238790D01*
X105628586Y-84219666D01*
X105840532Y-84162875D01*
X106039392Y-84070144D01*
X106102443Y-84025996D01*
X105410001Y-83333553D01*
X105410000Y-83333553D01*
X104717555Y-84025996D01*
X104030617Y-84025996D01*
X104067796Y-83976331D01*
X104118091Y-83841483D01*
X104124500Y-83781873D01*
X104124499Y-83723673D01*
X104140045Y-83663560D01*
X104182788Y-83618518D01*
X104242009Y-83599845D01*
X104302857Y-83612224D01*
X104350074Y-83652552D01*
X104364001Y-83672442D01*
X104364003Y-83672443D01*
X105056446Y-82980001D01*
X105056446Y-82980000D01*
X104364001Y-82287555D01*
X104350075Y-82307446D01*
X104302858Y-82347774D01*
X104242010Y-82360154D01*
X104182789Y-82341482D01*
X104140046Y-82296441D01*
X104124499Y-82236324D01*
X104124499Y-82178130D01*
X104124499Y-82178127D01*
X104118091Y-82118517D01*
X104067796Y-81983669D01*
X103981546Y-81868454D01*
X103866331Y-81782204D01*
X103731483Y-81731909D01*
X103671873Y-81725500D01*
X103671869Y-81725500D01*
X102068130Y-81725500D01*
X102008515Y-81731909D01*
X101873669Y-81782204D01*
X101758454Y-81868454D01*
X101672204Y-81983668D01*
X101621387Y-82119916D01*
X101586408Y-82170295D01*
X101531563Y-82197748D01*
X101470270Y-82195559D01*
X101417524Y-82164263D01*
X98824619Y-79571358D01*
X98797739Y-79531130D01*
X98788300Y-79483677D01*
X98788300Y-76089431D01*
X98797739Y-76041978D01*
X98824619Y-76001750D01*
X98952708Y-75873660D01*
X98952712Y-75873656D01*
X98954752Y-75870347D01*
X98999856Y-75827166D01*
X99060289Y-75811440D01*
X99120723Y-75827161D01*
X99165831Y-75870343D01*
X99167682Y-75873344D01*
X99291654Y-75997316D01*
X99440877Y-76089357D01*
X99607303Y-76144506D01*
X99710021Y-76155000D01*
X99760000Y-76155000D01*
X99760000Y-75180000D01*
X100260000Y-75180000D01*
X100260000Y-76154999D01*
X100309979Y-76154999D01*
X100412695Y-76144506D01*
X100579122Y-76089357D01*
X100728345Y-75997316D01*
X100852316Y-75873345D01*
X100925358Y-75754925D01*
X102668625Y-75754925D01*
X102752420Y-75813599D01*
X102966507Y-75913430D01*
X103194681Y-75974569D01*
X103430000Y-75995157D01*
X103665318Y-75974569D01*
X103893492Y-75913430D01*
X104107576Y-75813600D01*
X104191373Y-75754925D01*
X103430000Y-74993553D01*
X102668625Y-75754925D01*
X100925358Y-75754925D01*
X100944357Y-75724122D01*
X100999506Y-75557696D01*
X101010000Y-75454979D01*
X101010000Y-75180000D01*
X100260000Y-75180000D01*
X99760000Y-75180000D01*
X99760000Y-74804000D01*
X99776613Y-74742000D01*
X99822000Y-74696613D01*
X99884000Y-74680000D01*
X101009999Y-74680000D01*
X101009999Y-74640000D01*
X102074842Y-74640000D01*
X102095430Y-74875318D01*
X102156569Y-75103492D01*
X102256400Y-75317580D01*
X102315073Y-75401373D01*
X103076447Y-74640001D01*
X103076447Y-74640000D01*
X102315072Y-73878625D01*
X102256399Y-73962422D01*
X102156569Y-74176507D01*
X102095430Y-74404681D01*
X102074842Y-74640000D01*
X101009999Y-74640000D01*
X101009999Y-74405021D01*
X100999506Y-74302304D01*
X100944357Y-74135877D01*
X100852316Y-73986654D01*
X100728345Y-73862683D01*
X100570848Y-73765539D01*
X100527667Y-73720432D01*
X100511944Y-73660000D01*
X100527667Y-73599568D01*
X100570848Y-73554461D01*
X100728345Y-73457316D01*
X100852316Y-73333345D01*
X100944357Y-73184122D01*
X100999506Y-73017696D01*
X101010000Y-72914979D01*
X101010000Y-72640000D01*
X99884000Y-72640000D01*
X99822000Y-72623387D01*
X99776613Y-72578000D01*
X99760000Y-72516000D01*
X99760000Y-72264000D01*
X99776613Y-72202000D01*
X99822000Y-72156613D01*
X99884000Y-72140000D01*
X101009999Y-72140000D01*
X101009999Y-71865021D01*
X100999506Y-71762304D01*
X100986553Y-71723215D01*
X100983121Y-71657725D01*
X101013571Y-71599644D01*
X101069387Y-71565216D01*
X101134957Y-71564071D01*
X101191940Y-71596530D01*
X102838198Y-73242788D01*
X102868778Y-73293181D01*
X102872633Y-73352000D01*
X102848894Y-73405954D01*
X102802923Y-73442850D01*
X102752425Y-73466398D01*
X102668626Y-73525073D01*
X103430000Y-74286447D01*
X104544925Y-75401373D01*
X104603599Y-75317577D01*
X104627147Y-75267079D01*
X104664042Y-75221107D01*
X104717997Y-75197366D01*
X104776817Y-75201221D01*
X104827211Y-75231801D01*
X105002181Y-75406771D01*
X105029061Y-75446999D01*
X105038500Y-75494452D01*
X105038500Y-80611256D01*
X105036235Y-80631762D01*
X105038439Y-80701873D01*
X105038500Y-80705768D01*
X105038500Y-80733349D01*
X105039003Y-80737334D01*
X105039918Y-80748967D01*
X105041290Y-80792626D01*
X105046879Y-80811860D01*
X105050825Y-80830916D01*
X105053335Y-80850792D01*
X105069414Y-80891404D01*
X105073197Y-80902451D01*
X105085382Y-80944391D01*
X105095580Y-80961635D01*
X105104136Y-80979100D01*
X105111514Y-80997732D01*
X105111515Y-80997733D01*
X105137180Y-81033059D01*
X105143593Y-81042822D01*
X105165826Y-81080416D01*
X105165829Y-81080419D01*
X105165830Y-81080420D01*
X105179995Y-81094585D01*
X105192627Y-81109375D01*
X105204406Y-81125587D01*
X105238058Y-81153426D01*
X105246699Y-81161289D01*
X105603744Y-81518334D01*
X105634645Y-81569761D01*
X105637785Y-81629675D01*
X105612429Y-81684051D01*
X105564514Y-81720157D01*
X105505256Y-81729543D01*
X105410000Y-81721209D01*
X105191413Y-81740333D01*
X104979467Y-81797124D01*
X104780605Y-81889855D01*
X104717555Y-81934001D01*
X104717555Y-81934002D01*
X106455996Y-83672443D01*
X106500144Y-83609392D01*
X106567342Y-83465288D01*
X106613099Y-83413112D01*
X106679724Y-83393693D01*
X106746349Y-83413112D01*
X106792106Y-83465288D01*
X106859421Y-83609646D01*
X106985326Y-83789457D01*
X107140543Y-83944674D01*
X107320354Y-84070579D01*
X107519297Y-84163347D01*
X107731326Y-84220161D01*
X107950000Y-84239292D01*
X108168674Y-84220161D01*
X108380703Y-84163347D01*
X108579646Y-84070579D01*
X108653014Y-84019205D01*
X108706163Y-83998091D01*
X108763138Y-84003076D01*
X108811815Y-84033100D01*
X111084032Y-86305318D01*
X113337501Y-88558787D01*
X113350401Y-88574888D01*
X113401528Y-88622900D01*
X113404325Y-88625611D01*
X113423834Y-88645120D01*
X113427016Y-88647588D01*
X113435876Y-88655155D01*
X113462334Y-88680001D01*
X113467723Y-88685062D01*
X113485275Y-88694711D01*
X113501543Y-88705397D01*
X113517369Y-88717673D01*
X113557451Y-88735017D01*
X113567938Y-88740155D01*
X113606212Y-88761197D01*
X113614715Y-88763379D01*
X113625613Y-88766178D01*
X113644018Y-88772478D01*
X113662409Y-88780437D01*
X113705555Y-88787270D01*
X113716973Y-88789635D01*
X113759286Y-88800500D01*
X113779321Y-88800500D01*
X113798720Y-88802027D01*
X113818501Y-88805160D01*
X113861979Y-88801050D01*
X113873649Y-88800500D01*
X126350501Y-88800500D01*
X126412501Y-88817113D01*
X126457888Y-88862500D01*
X126474501Y-88924500D01*
X126474501Y-89017872D01*
X126475940Y-89031255D01*
X126480909Y-89077484D01*
X126491753Y-89106558D01*
X126531204Y-89212331D01*
X126617454Y-89327546D01*
X126732669Y-89413796D01*
X126867517Y-89464091D01*
X126927127Y-89470500D01*
X128522872Y-89470499D01*
X128582483Y-89464091D01*
X128717331Y-89413796D01*
X128832546Y-89327546D01*
X128918796Y-89212331D01*
X128969091Y-89077483D01*
X128975500Y-89017873D01*
X128975499Y-88022128D01*
X128969091Y-87962517D01*
X128918796Y-87827669D01*
X128832546Y-87712454D01*
X128717331Y-87626204D01*
X128582483Y-87575909D01*
X128522873Y-87569500D01*
X128522869Y-87569500D01*
X128248013Y-87569500D01*
X128184148Y-87551789D01*
X128138528Y-87503715D01*
X128124183Y-87439011D01*
X128145212Y-87376160D01*
X128195608Y-87333118D01*
X128387576Y-87243600D01*
X128471373Y-87184925D01*
X127710000Y-86423553D01*
X126948625Y-87184925D01*
X127032420Y-87243599D01*
X127181502Y-87313118D01*
X127231898Y-87356160D01*
X127252927Y-87419011D01*
X127238582Y-87483715D01*
X127192962Y-87531789D01*
X127129097Y-87549500D01*
X121790903Y-87549500D01*
X121727038Y-87531789D01*
X121681418Y-87483715D01*
X121667073Y-87419011D01*
X121688102Y-87356160D01*
X121738498Y-87313118D01*
X121887576Y-87243600D01*
X121971373Y-87184925D01*
X121210000Y-86423553D01*
X120448625Y-87184925D01*
X120532420Y-87243599D01*
X120681502Y-87313118D01*
X120731898Y-87356160D01*
X120752927Y-87419011D01*
X120738582Y-87483715D01*
X120692962Y-87531789D01*
X120629097Y-87549500D01*
X116589758Y-87549500D01*
X116533463Y-87535985D01*
X116489440Y-87498385D01*
X116467285Y-87444898D01*
X116471827Y-87387182D01*
X116502077Y-87337819D01*
X116553008Y-87286888D01*
X116608495Y-87231401D01*
X116744035Y-87037830D01*
X116843903Y-86823663D01*
X116905063Y-86595408D01*
X116925659Y-86360000D01*
X116905063Y-86124592D01*
X116890435Y-86070000D01*
X119854842Y-86070000D01*
X119875430Y-86305318D01*
X119936569Y-86533492D01*
X120036400Y-86747580D01*
X120095073Y-86831373D01*
X120856447Y-86070001D01*
X121563553Y-86070001D01*
X122324925Y-86831373D01*
X122383600Y-86747576D01*
X122483430Y-86533492D01*
X122544569Y-86305318D01*
X122565157Y-86070000D01*
X126354842Y-86070000D01*
X126375430Y-86305318D01*
X126436569Y-86533492D01*
X126536400Y-86747580D01*
X126595073Y-86831373D01*
X127356447Y-86070001D01*
X128063553Y-86070001D01*
X128824925Y-86831373D01*
X128883600Y-86747576D01*
X128983430Y-86533492D01*
X129044569Y-86305318D01*
X129065157Y-86069999D01*
X129044569Y-85834681D01*
X128983430Y-85606507D01*
X128883599Y-85392421D01*
X128824926Y-85308626D01*
X128824925Y-85308625D01*
X128063553Y-86070000D01*
X128063553Y-86070001D01*
X127356447Y-86070001D01*
X127356447Y-86069999D01*
X126595073Y-85308625D01*
X126595072Y-85308625D01*
X126536399Y-85392422D01*
X126436569Y-85606507D01*
X126375430Y-85834681D01*
X126354842Y-86070000D01*
X122565157Y-86070000D01*
X122544569Y-85834681D01*
X122483430Y-85606507D01*
X122383599Y-85392421D01*
X122324926Y-85308626D01*
X122324925Y-85308625D01*
X121563553Y-86070000D01*
X121563553Y-86070001D01*
X120856447Y-86070001D01*
X120856447Y-86070000D01*
X120095072Y-85308625D01*
X120036399Y-85392422D01*
X119936569Y-85606507D01*
X119875430Y-85834681D01*
X119854842Y-86070000D01*
X116890435Y-86070000D01*
X116843903Y-85896337D01*
X116744035Y-85682171D01*
X116608495Y-85488599D01*
X116441401Y-85321505D01*
X116255839Y-85191573D01*
X116216975Y-85147257D01*
X116202964Y-85090000D01*
X116216975Y-85032743D01*
X116255839Y-84988426D01*
X116303474Y-84955072D01*
X120448625Y-84955072D01*
X121210000Y-85716447D01*
X121210001Y-85716447D01*
X121971373Y-84955073D01*
X121971373Y-84955072D01*
X126948625Y-84955072D01*
X127710000Y-85716447D01*
X127710001Y-85716447D01*
X128471373Y-84955073D01*
X128471373Y-84955072D01*
X128387580Y-84896400D01*
X128173492Y-84796569D01*
X127945318Y-84735430D01*
X127710000Y-84714842D01*
X127474681Y-84735430D01*
X127246507Y-84796569D01*
X127032422Y-84896399D01*
X126948625Y-84955072D01*
X121971373Y-84955072D01*
X121887580Y-84896400D01*
X121673492Y-84796569D01*
X121445318Y-84735430D01*
X121210000Y-84714842D01*
X120974681Y-84735430D01*
X120746507Y-84796569D01*
X120532422Y-84896399D01*
X120448625Y-84955072D01*
X116303474Y-84955072D01*
X116441401Y-84858495D01*
X116608495Y-84691401D01*
X116744035Y-84497830D01*
X116843903Y-84283663D01*
X116905063Y-84055408D01*
X116925659Y-83820000D01*
X116905063Y-83584592D01*
X116843903Y-83356337D01*
X116744035Y-83142171D01*
X116608495Y-82948599D01*
X116441401Y-82781505D01*
X116255839Y-82651573D01*
X116216975Y-82607257D01*
X116202964Y-82550000D01*
X116216975Y-82492743D01*
X116255839Y-82448426D01*
X116441401Y-82318495D01*
X116608495Y-82151401D01*
X116744035Y-81957830D01*
X116843903Y-81743663D01*
X116905063Y-81515408D01*
X116925659Y-81280000D01*
X116905063Y-81044592D01*
X116843903Y-80816337D01*
X116744035Y-80602171D01*
X116608495Y-80408599D01*
X116441401Y-80241505D01*
X116255839Y-80111573D01*
X116216976Y-80067257D01*
X116202965Y-80010000D01*
X116216976Y-79952743D01*
X116255839Y-79908426D01*
X116441401Y-79778495D01*
X116608495Y-79611401D01*
X116744035Y-79417830D01*
X116843903Y-79203663D01*
X116905063Y-78975408D01*
X116925659Y-78740000D01*
X116905063Y-78504592D01*
X116843903Y-78276337D01*
X116744035Y-78062171D01*
X116608495Y-77868599D01*
X116441401Y-77701505D01*
X116255839Y-77571573D01*
X116216975Y-77527257D01*
X116202964Y-77470000D01*
X116216975Y-77412743D01*
X116255839Y-77368426D01*
X116441401Y-77238495D01*
X116608495Y-77071401D01*
X116744035Y-76877830D01*
X116843903Y-76663663D01*
X116905063Y-76435408D01*
X116925659Y-76200000D01*
X116917994Y-76112396D01*
X116905063Y-75964592D01*
X116880697Y-75873656D01*
X116843903Y-75736337D01*
X116744035Y-75522171D01*
X116608495Y-75328599D01*
X116441401Y-75161505D01*
X116255839Y-75031573D01*
X116216975Y-74987257D01*
X116202964Y-74930000D01*
X116216975Y-74872743D01*
X116255839Y-74828426D01*
X116441401Y-74698495D01*
X116608495Y-74531401D01*
X116744035Y-74337830D01*
X116843903Y-74123663D01*
X116905063Y-73895408D01*
X116925659Y-73660000D01*
X116905063Y-73424592D01*
X116843903Y-73196337D01*
X116744035Y-72982171D01*
X116608495Y-72788599D01*
X116441401Y-72621505D01*
X116255839Y-72491573D01*
X116216975Y-72447257D01*
X116202964Y-72390000D01*
X116216975Y-72332743D01*
X116255839Y-72288426D01*
X116441401Y-72158495D01*
X116608495Y-71991401D01*
X116744035Y-71797830D01*
X116843903Y-71583663D01*
X116905063Y-71355408D01*
X116925659Y-71120000D01*
X116917994Y-71032396D01*
X116905063Y-70884592D01*
X116887174Y-70817830D01*
X116843903Y-70656337D01*
X116744035Y-70442171D01*
X116608495Y-70248599D01*
X116441401Y-70081505D01*
X116255839Y-69951573D01*
X116216975Y-69907257D01*
X116202964Y-69850000D01*
X116216975Y-69792743D01*
X116255839Y-69748426D01*
X116441401Y-69618495D01*
X116608495Y-69451401D01*
X116744035Y-69257830D01*
X116808394Y-69119811D01*
X116845289Y-69073842D01*
X116899243Y-69050102D01*
X116958063Y-69053957D01*
X117008456Y-69084537D01*
X127938417Y-80014499D01*
X127969318Y-80065926D01*
X127972458Y-80125840D01*
X127947102Y-80180216D01*
X127899187Y-80216323D01*
X127839929Y-80225708D01*
X127710000Y-80214340D01*
X127474592Y-80234936D01*
X127246336Y-80296097D01*
X127032170Y-80395965D01*
X126838598Y-80531505D01*
X126671505Y-80698598D01*
X126617826Y-80775261D01*
X126560834Y-80856655D01*
X126536349Y-80891623D01*
X126492031Y-80930489D01*
X126434774Y-80944500D01*
X122684499Y-80944500D01*
X122622499Y-80927887D01*
X122577112Y-80882500D01*
X122560499Y-80820500D01*
X122560499Y-80672130D01*
X122559793Y-80665560D01*
X122554091Y-80612517D01*
X122503796Y-80477669D01*
X122417546Y-80362454D01*
X122302331Y-80276204D01*
X122167483Y-80225909D01*
X122107873Y-80219500D01*
X122107869Y-80219500D01*
X120312130Y-80219500D01*
X120252515Y-80225909D01*
X120117669Y-80276204D01*
X120002454Y-80362454D01*
X119916204Y-80477668D01*
X119865909Y-80612516D01*
X119859500Y-80672130D01*
X119859500Y-82467869D01*
X119865909Y-82527484D01*
X119883541Y-82574758D01*
X119916204Y-82662331D01*
X120002454Y-82777546D01*
X120117669Y-82863796D01*
X120252517Y-82914091D01*
X120312127Y-82920500D01*
X122107872Y-82920499D01*
X122167483Y-82914091D01*
X122302331Y-82863796D01*
X122417546Y-82777546D01*
X122503796Y-82662331D01*
X122554091Y-82527483D01*
X122560500Y-82467873D01*
X122560500Y-82319500D01*
X122577113Y-82257500D01*
X122622500Y-82212113D01*
X122684500Y-82195500D01*
X126434773Y-82195500D01*
X126492030Y-82209511D01*
X126536346Y-82248374D01*
X126671505Y-82441401D01*
X126838599Y-82608495D01*
X127032170Y-82744035D01*
X127246337Y-82843903D01*
X127474591Y-82905062D01*
X127474592Y-82905063D01*
X127709999Y-82925659D01*
X127709999Y-82925658D01*
X127710000Y-82925659D01*
X127945408Y-82905063D01*
X128173663Y-82843903D01*
X128387830Y-82744035D01*
X128581401Y-82608495D01*
X128748495Y-82441401D01*
X128884035Y-82247830D01*
X128983903Y-82033663D01*
X129045063Y-81805408D01*
X129065659Y-81570000D01*
X129054291Y-81440069D01*
X129063676Y-81380813D01*
X129099783Y-81332897D01*
X129154158Y-81307541D01*
X129214073Y-81310681D01*
X129265500Y-81341582D01*
X129513181Y-81589263D01*
X129540061Y-81629491D01*
X129549500Y-81676944D01*
X129549500Y-86912256D01*
X129547235Y-86932762D01*
X129549439Y-87002873D01*
X129549500Y-87006768D01*
X129549500Y-87034349D01*
X129550003Y-87038334D01*
X129550918Y-87049967D01*
X129552290Y-87093626D01*
X129557879Y-87112860D01*
X129561825Y-87131916D01*
X129564335Y-87151792D01*
X129580414Y-87192404D01*
X129584197Y-87203451D01*
X129596382Y-87245391D01*
X129606580Y-87262635D01*
X129615136Y-87280100D01*
X129622514Y-87298732D01*
X129632966Y-87313118D01*
X129648180Y-87334059D01*
X129654593Y-87343822D01*
X129676826Y-87381416D01*
X129676829Y-87381419D01*
X129676830Y-87381420D01*
X129690995Y-87395585D01*
X129703627Y-87410375D01*
X129715406Y-87426587D01*
X129749058Y-87454426D01*
X129757699Y-87462289D01*
X131199197Y-88903787D01*
X131212098Y-88919889D01*
X131214212Y-88921874D01*
X131214214Y-88921877D01*
X131261561Y-88966339D01*
X131263240Y-88967916D01*
X131266035Y-88970625D01*
X131285530Y-88990120D01*
X131288704Y-88992582D01*
X131297568Y-89000153D01*
X131315644Y-89017127D01*
X131329418Y-89030062D01*
X131331588Y-89031255D01*
X131365680Y-89058848D01*
X131388032Y-89096582D01*
X131431204Y-89212331D01*
X131517454Y-89327546D01*
X131632669Y-89413796D01*
X131767517Y-89464091D01*
X131827127Y-89470500D01*
X133422872Y-89470499D01*
X133482483Y-89464091D01*
X133617331Y-89413796D01*
X133732546Y-89327546D01*
X133818796Y-89212331D01*
X133869091Y-89077483D01*
X133875500Y-89017873D01*
X133875499Y-88022128D01*
X133869091Y-87962517D01*
X133818796Y-87827669D01*
X133732546Y-87712454D01*
X133617331Y-87626204D01*
X133482483Y-87575909D01*
X133422873Y-87569500D01*
X133422869Y-87569500D01*
X133178012Y-87569500D01*
X133114147Y-87551789D01*
X133068527Y-87503715D01*
X133054182Y-87439010D01*
X133075211Y-87376160D01*
X133125607Y-87333118D01*
X133317576Y-87243600D01*
X133401373Y-87184925D01*
X132640000Y-86423553D01*
X131878625Y-87184925D01*
X131962420Y-87243599D01*
X132154394Y-87333118D01*
X132204790Y-87376160D01*
X132225819Y-87439010D01*
X132211475Y-87503714D01*
X132165854Y-87551789D01*
X132101989Y-87569500D01*
X131827130Y-87569500D01*
X131767514Y-87575909D01*
X131749666Y-87582566D01*
X131679976Y-87587549D01*
X131618655Y-87554064D01*
X130836819Y-86772228D01*
X130809939Y-86732000D01*
X130800500Y-86684547D01*
X130800500Y-86070000D01*
X131284842Y-86070000D01*
X131305430Y-86305318D01*
X131366569Y-86533492D01*
X131466400Y-86747580D01*
X131525073Y-86831373D01*
X132286447Y-86070001D01*
X132993553Y-86070001D01*
X133754925Y-86831373D01*
X133813600Y-86747576D01*
X133913430Y-86533492D01*
X133974569Y-86305318D01*
X133995157Y-86070000D01*
X137784842Y-86070000D01*
X137805430Y-86305318D01*
X137866569Y-86533492D01*
X137966400Y-86747580D01*
X138025073Y-86831373D01*
X138786447Y-86070001D01*
X138786447Y-86070000D01*
X138025072Y-85308625D01*
X137966399Y-85392422D01*
X137866569Y-85606507D01*
X137805430Y-85834681D01*
X137784842Y-86070000D01*
X133995157Y-86070000D01*
X133995157Y-86069999D01*
X133974569Y-85834681D01*
X133913430Y-85606507D01*
X133813599Y-85392421D01*
X133754926Y-85308626D01*
X133754925Y-85308625D01*
X132993553Y-86070000D01*
X132993553Y-86070001D01*
X132286447Y-86070001D01*
X132286447Y-86070000D01*
X131525072Y-85308625D01*
X131466399Y-85392422D01*
X131366569Y-85606507D01*
X131305430Y-85834681D01*
X131284842Y-86070000D01*
X130800500Y-86070000D01*
X130800500Y-84955072D01*
X131878625Y-84955072D01*
X132640000Y-85716447D01*
X132640001Y-85716447D01*
X133401373Y-84955073D01*
X133401373Y-84955072D01*
X138378625Y-84955072D01*
X139140000Y-85716447D01*
X139140001Y-85716447D01*
X139901373Y-84955073D01*
X139901373Y-84955072D01*
X139817580Y-84896400D01*
X139603492Y-84796569D01*
X139375318Y-84735430D01*
X139140000Y-84714842D01*
X138904681Y-84735430D01*
X138676507Y-84796569D01*
X138462422Y-84896399D01*
X138378625Y-84955072D01*
X133401373Y-84955072D01*
X133317580Y-84896400D01*
X133103492Y-84796569D01*
X132875318Y-84735430D01*
X132640000Y-84714842D01*
X132404681Y-84735430D01*
X132176507Y-84796569D01*
X131962422Y-84896399D01*
X131878625Y-84955072D01*
X130800500Y-84955072D01*
X130800500Y-81449232D01*
X130802763Y-81428728D01*
X130800561Y-81358636D01*
X130800500Y-81354742D01*
X130800500Y-81327148D01*
X130800500Y-81327141D01*
X130799995Y-81323144D01*
X130799080Y-81311514D01*
X130799054Y-81310681D01*
X130797709Y-81267864D01*
X130792120Y-81248631D01*
X130788174Y-81229573D01*
X130785664Y-81209697D01*
X130769588Y-81169095D01*
X130765804Y-81158044D01*
X130756374Y-81125587D01*
X130753618Y-81116101D01*
X130743414Y-81098846D01*
X130734861Y-81081386D01*
X130727486Y-81062760D01*
X130727486Y-81062759D01*
X130701808Y-81027416D01*
X130695401Y-81017662D01*
X130683615Y-80997733D01*
X130673170Y-80980071D01*
X130659006Y-80965907D01*
X130646367Y-80951108D01*
X130634595Y-80934904D01*
X130600941Y-80907064D01*
X130592299Y-80899200D01*
X122141577Y-72448477D01*
X122110997Y-72398082D01*
X122107143Y-72339260D01*
X122130886Y-72285305D01*
X122164451Y-72258368D01*
X122163347Y-72256791D01*
X122358640Y-72120046D01*
X122519546Y-71959140D01*
X122561543Y-71899161D01*
X122650068Y-71772734D01*
X122746239Y-71566496D01*
X122805135Y-71346692D01*
X122824968Y-71120000D01*
X122805135Y-70893308D01*
X122746239Y-70673504D01*
X122650068Y-70467266D01*
X122637292Y-70449020D01*
X122519546Y-70280859D01*
X122358640Y-70119953D01*
X122172233Y-69989431D01*
X122114225Y-69962382D01*
X122062049Y-69916625D01*
X122042629Y-69850000D01*
X122062049Y-69783375D01*
X122114225Y-69737618D01*
X122119893Y-69734975D01*
X122172234Y-69710568D01*
X122358639Y-69580047D01*
X122519547Y-69419139D01*
X122650068Y-69232734D01*
X122746239Y-69026496D01*
X122805135Y-68806692D01*
X122824968Y-68580000D01*
X122805135Y-68353308D01*
X122746239Y-68133504D01*
X122650068Y-67927266D01*
X122632496Y-67902171D01*
X122519546Y-67740859D01*
X122358640Y-67579953D01*
X122172233Y-67449431D01*
X122131227Y-67430310D01*
X122114224Y-67422381D01*
X122062049Y-67376625D01*
X122042629Y-67310000D01*
X122062049Y-67243375D01*
X122114225Y-67197618D01*
X122172234Y-67170568D01*
X122358639Y-67040047D01*
X122519547Y-66879139D01*
X122650068Y-66692734D01*
X122746239Y-66486496D01*
X122805135Y-66266692D01*
X122824968Y-66040000D01*
X122805135Y-65813308D01*
X122746239Y-65593504D01*
X122650068Y-65387266D01*
X122648831Y-65385500D01*
X122519546Y-65200859D01*
X122358640Y-65039953D01*
X122172233Y-64909431D01*
X122114225Y-64882382D01*
X122062049Y-64836625D01*
X122042629Y-64770000D01*
X122062049Y-64703375D01*
X122114225Y-64657618D01*
X122172234Y-64630568D01*
X122358639Y-64500047D01*
X122519547Y-64339139D01*
X122650068Y-64152734D01*
X122746239Y-63946496D01*
X122805135Y-63726692D01*
X122824968Y-63500000D01*
X122805135Y-63273308D01*
X122746239Y-63053504D01*
X122650068Y-62847266D01*
X122648831Y-62845500D01*
X122519546Y-62660859D01*
X122358640Y-62499953D01*
X122172233Y-62369431D01*
X122114225Y-62342382D01*
X122062049Y-62296625D01*
X122042629Y-62230000D01*
X122062049Y-62163375D01*
X122114225Y-62117618D01*
X122172234Y-62090568D01*
X122358639Y-61960047D01*
X122519547Y-61799139D01*
X122650068Y-61612734D01*
X122746239Y-61406496D01*
X122805135Y-61186692D01*
X122824968Y-60960000D01*
X122805135Y-60733308D01*
X122746239Y-60513504D01*
X122650068Y-60307266D01*
X122638718Y-60291057D01*
X122519546Y-60120859D01*
X122358640Y-59959953D01*
X122172233Y-59829431D01*
X122114225Y-59802382D01*
X122062049Y-59756625D01*
X122042629Y-59690000D01*
X122062049Y-59623375D01*
X122114225Y-59577618D01*
X122122591Y-59573717D01*
X122172234Y-59550568D01*
X122358639Y-59420047D01*
X122519547Y-59259139D01*
X122650068Y-59072734D01*
X122746239Y-58866496D01*
X122805135Y-58646692D01*
X122824968Y-58420000D01*
X122823823Y-58406918D01*
X122810750Y-58257484D01*
X122805135Y-58193308D01*
X122746239Y-57973504D01*
X122650068Y-57767266D01*
X122638718Y-57751057D01*
X122519546Y-57580859D01*
X122358640Y-57419953D01*
X122172233Y-57289431D01*
X122114225Y-57262382D01*
X122062049Y-57216625D01*
X122042629Y-57150000D01*
X122062049Y-57083375D01*
X122114225Y-57037618D01*
X122172234Y-57010568D01*
X122358639Y-56880047D01*
X122519547Y-56719139D01*
X122650068Y-56532734D01*
X122746239Y-56326496D01*
X122805135Y-56106692D01*
X122824968Y-55880000D01*
X122805135Y-55653308D01*
X122746239Y-55433504D01*
X122650068Y-55227266D01*
X122632496Y-55202171D01*
X122519546Y-55040859D01*
X122358640Y-54879953D01*
X122172233Y-54749431D01*
X122131227Y-54730310D01*
X122114224Y-54722381D01*
X122062049Y-54676625D01*
X122042629Y-54610000D01*
X122062049Y-54543375D01*
X122114225Y-54497618D01*
X122172234Y-54470568D01*
X122358639Y-54340047D01*
X122519547Y-54179139D01*
X122650068Y-53992734D01*
X122746239Y-53786496D01*
X122805135Y-53566692D01*
X122824968Y-53340000D01*
X122805135Y-53113308D01*
X122746239Y-52893504D01*
X122650068Y-52687266D01*
X122640403Y-52673463D01*
X122519546Y-52500859D01*
X122358640Y-52339953D01*
X122172233Y-52209431D01*
X122114225Y-52182382D01*
X122062049Y-52136625D01*
X122042629Y-52070000D01*
X122062049Y-52003375D01*
X122114225Y-51957618D01*
X122172234Y-51930568D01*
X122358639Y-51800047D01*
X122519547Y-51639139D01*
X122650068Y-51452734D01*
X122746239Y-51246496D01*
X122805135Y-51026692D01*
X122824968Y-50800000D01*
X122805135Y-50573308D01*
X122746239Y-50353504D01*
X122650068Y-50147266D01*
X122632496Y-50122171D01*
X122519546Y-49960859D01*
X122358640Y-49799953D01*
X122172232Y-49669430D01*
X122114224Y-49642380D01*
X122062049Y-49596623D01*
X122042630Y-49529997D01*
X122062050Y-49463373D01*
X122114221Y-49417619D01*
X122172234Y-49390568D01*
X122358639Y-49260047D01*
X122519547Y-49099139D01*
X122650068Y-48912734D01*
X122746239Y-48706496D01*
X122805135Y-48486692D01*
X122824968Y-48260000D01*
X122805135Y-48033308D01*
X122746239Y-47813504D01*
X122650068Y-47607266D01*
X122635956Y-47587112D01*
X122519546Y-47420859D01*
X122358640Y-47259953D01*
X122172233Y-47129431D01*
X122114225Y-47102382D01*
X122062049Y-47056625D01*
X122042629Y-46990000D01*
X122062049Y-46923375D01*
X122114225Y-46877618D01*
X122172234Y-46850568D01*
X122358639Y-46720047D01*
X122519547Y-46559139D01*
X122650068Y-46372734D01*
X122746239Y-46166496D01*
X122805135Y-45946692D01*
X122824968Y-45720000D01*
X122805135Y-45493308D01*
X122746239Y-45273504D01*
X122650068Y-45067266D01*
X122632496Y-45042171D01*
X122519546Y-44880859D01*
X122358640Y-44719953D01*
X122172233Y-44589431D01*
X122114225Y-44562382D01*
X122062049Y-44516625D01*
X122042629Y-44450000D01*
X122062049Y-44383375D01*
X122114225Y-44337618D01*
X122172234Y-44310568D01*
X122358639Y-44180047D01*
X122519547Y-44019139D01*
X122650068Y-43832734D01*
X122746239Y-43626496D01*
X122805135Y-43406692D01*
X122824968Y-43180000D01*
X122805135Y-42953308D01*
X122746239Y-42733504D01*
X122650068Y-42527266D01*
X122632496Y-42502171D01*
X122519546Y-42340859D01*
X122358640Y-42179953D01*
X122172236Y-42049433D01*
X122172230Y-42049430D01*
X122113632Y-42022105D01*
X122061458Y-41976348D01*
X122042039Y-41909723D01*
X122061459Y-41843098D01*
X122113635Y-41797342D01*
X122171979Y-41770136D01*
X122244972Y-41719025D01*
X121519501Y-40993553D01*
X121519500Y-40993553D01*
X120794026Y-41719025D01*
X120794026Y-41719026D01*
X120867015Y-41770133D01*
X120925365Y-41797342D01*
X120977540Y-41843099D01*
X120996960Y-41909723D01*
X120977541Y-41976348D01*
X120925366Y-42022105D01*
X120866767Y-42049430D01*
X120680359Y-42179953D01*
X120519453Y-42340859D01*
X120388932Y-42527264D01*
X120292761Y-42733502D01*
X120233864Y-42953310D01*
X120214031Y-43179999D01*
X120233864Y-43406689D01*
X120292761Y-43626497D01*
X120388932Y-43832735D01*
X120519453Y-44019140D01*
X120680359Y-44180046D01*
X120813897Y-44273549D01*
X120866766Y-44310568D01*
X120924773Y-44337617D01*
X120976949Y-44383373D01*
X120996369Y-44449997D01*
X120976951Y-44516622D01*
X120924776Y-44562380D01*
X120866766Y-44589431D01*
X120680359Y-44719953D01*
X120519453Y-44880859D01*
X120388932Y-45067264D01*
X120292761Y-45273502D01*
X120233864Y-45493310D01*
X120214031Y-45719999D01*
X120233864Y-45946689D01*
X120292761Y-46166497D01*
X120388932Y-46372735D01*
X120519453Y-46559140D01*
X120680359Y-46720046D01*
X120794634Y-46800061D01*
X120866766Y-46850568D01*
X120924773Y-46877617D01*
X120976949Y-46923373D01*
X120996369Y-46989997D01*
X120976951Y-47056622D01*
X120924776Y-47102380D01*
X120866766Y-47129431D01*
X120680359Y-47259953D01*
X120519453Y-47420859D01*
X120388932Y-47607264D01*
X120292761Y-47813502D01*
X120233864Y-48033310D01*
X120214031Y-48259999D01*
X120233864Y-48486689D01*
X120292761Y-48706497D01*
X120388932Y-48912735D01*
X120519453Y-49099140D01*
X120680359Y-49260046D01*
X120825415Y-49361614D01*
X120866766Y-49390568D01*
X120924773Y-49417617D01*
X120976949Y-49463373D01*
X120996369Y-49529997D01*
X120976951Y-49596622D01*
X120924776Y-49642380D01*
X120866766Y-49669431D01*
X120680359Y-49799953D01*
X120519453Y-49960859D01*
X120388932Y-50147264D01*
X120292761Y-50353502D01*
X120233864Y-50573310D01*
X120214031Y-50799999D01*
X120233864Y-51026689D01*
X120292761Y-51246497D01*
X120388932Y-51452735D01*
X120519453Y-51639140D01*
X120680359Y-51800046D01*
X120813897Y-51893549D01*
X120866766Y-51930568D01*
X120924775Y-51957618D01*
X120976950Y-52003375D01*
X120996369Y-52070000D01*
X120976950Y-52136625D01*
X120924775Y-52182382D01*
X120866763Y-52209433D01*
X120680359Y-52339953D01*
X120519453Y-52500859D01*
X120388932Y-52687264D01*
X120292761Y-52893502D01*
X120233864Y-53113310D01*
X120214031Y-53339999D01*
X120233864Y-53566689D01*
X120292761Y-53786497D01*
X120388932Y-53992735D01*
X120519453Y-54179140D01*
X120680359Y-54340046D01*
X120786823Y-54414592D01*
X120866766Y-54470568D01*
X120924773Y-54497617D01*
X120976949Y-54543373D01*
X120996369Y-54609997D01*
X120976951Y-54676622D01*
X120924776Y-54722380D01*
X120866766Y-54749431D01*
X120680359Y-54879953D01*
X120519453Y-55040859D01*
X120388932Y-55227264D01*
X120292761Y-55433502D01*
X120233864Y-55653310D01*
X120214031Y-55879999D01*
X120233864Y-56106689D01*
X120292761Y-56326497D01*
X120388932Y-56532735D01*
X120519453Y-56719140D01*
X120680359Y-56880046D01*
X120735271Y-56918495D01*
X120866766Y-57010568D01*
X120924773Y-57037617D01*
X120976949Y-57083373D01*
X120996369Y-57149997D01*
X120976951Y-57216622D01*
X120924776Y-57262380D01*
X120866766Y-57289431D01*
X120680359Y-57419953D01*
X120519453Y-57580859D01*
X120388932Y-57767264D01*
X120292761Y-57973502D01*
X120233864Y-58193310D01*
X120214031Y-58419999D01*
X120233864Y-58646689D01*
X120292761Y-58866497D01*
X120388932Y-59072735D01*
X120519453Y-59259140D01*
X120680359Y-59420046D01*
X120830251Y-59525000D01*
X120866766Y-59550568D01*
X120916409Y-59573717D01*
X120924775Y-59577618D01*
X120976950Y-59623375D01*
X120996369Y-59690000D01*
X120976950Y-59756625D01*
X120924775Y-59802382D01*
X120866763Y-59829433D01*
X120680359Y-59959953D01*
X120519453Y-60120859D01*
X120388932Y-60307264D01*
X120292761Y-60513502D01*
X120233864Y-60733310D01*
X120214031Y-60959999D01*
X120233864Y-61186689D01*
X120292761Y-61406497D01*
X120388932Y-61612735D01*
X120519453Y-61799140D01*
X120680359Y-61960046D01*
X120866763Y-62090566D01*
X120866766Y-62090568D01*
X120924775Y-62117618D01*
X120976950Y-62163375D01*
X120996369Y-62230000D01*
X120976950Y-62296625D01*
X120924775Y-62342382D01*
X120866763Y-62369433D01*
X120680359Y-62499953D01*
X120519453Y-62660859D01*
X120388932Y-62847264D01*
X120292761Y-63053502D01*
X120233864Y-63273310D01*
X120214031Y-63499999D01*
X120233864Y-63726689D01*
X120292761Y-63946497D01*
X120388932Y-64152735D01*
X120519453Y-64339140D01*
X120680359Y-64500046D01*
X120866763Y-64630566D01*
X120866766Y-64630568D01*
X120924775Y-64657618D01*
X120976950Y-64703375D01*
X120996369Y-64770000D01*
X120976950Y-64836625D01*
X120924775Y-64882382D01*
X120866763Y-64909433D01*
X120680359Y-65039953D01*
X120519453Y-65200859D01*
X120388932Y-65387264D01*
X120292761Y-65593502D01*
X120233864Y-65813310D01*
X120214031Y-66040000D01*
X120233864Y-66266689D01*
X120292761Y-66486497D01*
X120388932Y-66692735D01*
X120519453Y-66879140D01*
X120680359Y-67040046D01*
X120801159Y-67124630D01*
X120866766Y-67170568D01*
X120924775Y-67197618D01*
X120976950Y-67243375D01*
X120996369Y-67310000D01*
X120976950Y-67376625D01*
X120924775Y-67422381D01*
X120904076Y-67432033D01*
X120866763Y-67449433D01*
X120680359Y-67579953D01*
X120519453Y-67740859D01*
X120388932Y-67927264D01*
X120292761Y-68133502D01*
X120233864Y-68353310D01*
X120214031Y-68580000D01*
X120233864Y-68806689D01*
X120292761Y-69026497D01*
X120388932Y-69232735D01*
X120519453Y-69419140D01*
X120680359Y-69580046D01*
X120825986Y-69682014D01*
X120866766Y-69710568D01*
X120919107Y-69734975D01*
X120924775Y-69737618D01*
X120976950Y-69783375D01*
X120996369Y-69850000D01*
X120976950Y-69916625D01*
X120924775Y-69962381D01*
X120904076Y-69972033D01*
X120866763Y-69989433D01*
X120680359Y-70119953D01*
X120519453Y-70280859D01*
X120382710Y-70476152D01*
X120381133Y-70475048D01*
X120354189Y-70508619D01*
X120300235Y-70532358D01*
X120241416Y-70528503D01*
X120191023Y-70497923D01*
X116680422Y-66987323D01*
X116650397Y-66938645D01*
X116645412Y-66881670D01*
X116666527Y-66828522D01*
X116744035Y-66717830D01*
X116843903Y-66503663D01*
X116905063Y-66275408D01*
X116925659Y-66040000D01*
X116919656Y-65971392D01*
X116905063Y-65804592D01*
X116891318Y-65753294D01*
X116843903Y-65576337D01*
X116744035Y-65362171D01*
X116608495Y-65168599D01*
X116441401Y-65001505D01*
X116255839Y-64871573D01*
X116216976Y-64827257D01*
X116202965Y-64770000D01*
X116216976Y-64712743D01*
X116255839Y-64668426D01*
X116441401Y-64538495D01*
X116608495Y-64371401D01*
X116744035Y-64177830D01*
X116843903Y-63963663D01*
X116905063Y-63735408D01*
X116925659Y-63500000D01*
X116905063Y-63264592D01*
X116843903Y-63036337D01*
X116744035Y-62822171D01*
X116608495Y-62628599D01*
X116441401Y-62461505D01*
X116255839Y-62331573D01*
X116216974Y-62287255D01*
X116202964Y-62229999D01*
X116216975Y-62172742D01*
X116255837Y-62128428D01*
X116441401Y-61998495D01*
X116608495Y-61831401D01*
X116744035Y-61637830D01*
X116843903Y-61423663D01*
X116905063Y-61195408D01*
X116925659Y-60960000D01*
X116905063Y-60724592D01*
X116843903Y-60496337D01*
X116744035Y-60282171D01*
X116608495Y-60088599D01*
X116441401Y-59921505D01*
X116255839Y-59791573D01*
X116216975Y-59747257D01*
X116202964Y-59690000D01*
X116216975Y-59632743D01*
X116255839Y-59588426D01*
X116441401Y-59458495D01*
X116608495Y-59291401D01*
X116744035Y-59097830D01*
X116843903Y-58883663D01*
X116905063Y-58655408D01*
X116925659Y-58420000D01*
X116924899Y-58411319D01*
X116905063Y-58184592D01*
X116896794Y-58153732D01*
X116843903Y-57956337D01*
X116744035Y-57742171D01*
X116608495Y-57548599D01*
X116441401Y-57381505D01*
X116255839Y-57251573D01*
X116216975Y-57207257D01*
X116202964Y-57150000D01*
X116216975Y-57092743D01*
X116255839Y-57048426D01*
X116441401Y-56918495D01*
X116608495Y-56751401D01*
X116744035Y-56557830D01*
X116843903Y-56343663D01*
X116905063Y-56115408D01*
X116925659Y-55880000D01*
X116905063Y-55644592D01*
X116843903Y-55416337D01*
X116744035Y-55202171D01*
X116608495Y-55008599D01*
X116441401Y-54841505D01*
X116255839Y-54711573D01*
X116216974Y-54667255D01*
X116202964Y-54609999D01*
X116216975Y-54552742D01*
X116255837Y-54508428D01*
X116441401Y-54378495D01*
X116608495Y-54211401D01*
X116744035Y-54017830D01*
X116843903Y-53803663D01*
X116905063Y-53575408D01*
X116925659Y-53340000D01*
X116913831Y-53204814D01*
X116905063Y-53104592D01*
X116900463Y-53087426D01*
X116843903Y-52876337D01*
X116744035Y-52662171D01*
X116608495Y-52468599D01*
X116441401Y-52301505D01*
X116255839Y-52171573D01*
X116216975Y-52127257D01*
X116202964Y-52070000D01*
X116216975Y-52012743D01*
X116255839Y-51968426D01*
X116441401Y-51838495D01*
X116608495Y-51671401D01*
X116744035Y-51477830D01*
X116843903Y-51263663D01*
X116905063Y-51035408D01*
X116925659Y-50800000D01*
X116905063Y-50564592D01*
X116843903Y-50336337D01*
X116744035Y-50122171D01*
X116608495Y-49928599D01*
X116441401Y-49761505D01*
X116255839Y-49631573D01*
X116216975Y-49587257D01*
X116202964Y-49530000D01*
X116216975Y-49472743D01*
X116255839Y-49428426D01*
X116441401Y-49298495D01*
X116608495Y-49131401D01*
X116744035Y-48937830D01*
X116843903Y-48723663D01*
X116905063Y-48495408D01*
X116925659Y-48260000D01*
X116905063Y-48024592D01*
X116843903Y-47796337D01*
X116744035Y-47582171D01*
X116608495Y-47388599D01*
X116441401Y-47221505D01*
X116255839Y-47091573D01*
X116216975Y-47047257D01*
X116202964Y-46990000D01*
X116216975Y-46932743D01*
X116255839Y-46888426D01*
X116441401Y-46758495D01*
X116608495Y-46591401D01*
X116744035Y-46397830D01*
X116843903Y-46183663D01*
X116905063Y-45955408D01*
X116925659Y-45720000D01*
X116905063Y-45484592D01*
X116843903Y-45256337D01*
X116744035Y-45042171D01*
X116608495Y-44848599D01*
X116441401Y-44681505D01*
X116255839Y-44551573D01*
X116216975Y-44507257D01*
X116202964Y-44450000D01*
X116216975Y-44392743D01*
X116255839Y-44348426D01*
X116441401Y-44218495D01*
X116608495Y-44051401D01*
X116744035Y-43857830D01*
X116843903Y-43643663D01*
X116905063Y-43415408D01*
X116925659Y-43180000D01*
X116905063Y-42944592D01*
X116843903Y-42716337D01*
X116744035Y-42502171D01*
X116608495Y-42308599D01*
X116441401Y-42141505D01*
X116255839Y-42011573D01*
X116216975Y-41967257D01*
X116202964Y-41910000D01*
X116216975Y-41852743D01*
X116255839Y-41808426D01*
X116441401Y-41678495D01*
X116608495Y-41511401D01*
X116744035Y-41317830D01*
X116843903Y-41103663D01*
X116905063Y-40875408D01*
X116925659Y-40640000D01*
X120214533Y-40640000D01*
X120234358Y-40866602D01*
X120293233Y-41086326D01*
X120389366Y-41292484D01*
X120440472Y-41365471D01*
X120440473Y-41365472D01*
X121165946Y-40640000D01*
X121165946Y-40639999D01*
X121873053Y-40639999D01*
X122598525Y-41365472D01*
X122649634Y-41292480D01*
X122745766Y-41086326D01*
X122804641Y-40866602D01*
X122824466Y-40640000D01*
X122804641Y-40413397D01*
X122745766Y-40193673D01*
X122649633Y-39987515D01*
X122598525Y-39914526D01*
X121873053Y-40639998D01*
X121873053Y-40639999D01*
X121165946Y-40639999D01*
X121165946Y-40639998D01*
X120440473Y-39914527D01*
X120389365Y-39987516D01*
X120293233Y-40193672D01*
X120234358Y-40413397D01*
X120214533Y-40640000D01*
X116925659Y-40640000D01*
X116905063Y-40404592D01*
X116843903Y-40176337D01*
X116744035Y-39962171D01*
X116608495Y-39768599D01*
X116486181Y-39646285D01*
X116454885Y-39593539D01*
X116452696Y-39532246D01*
X116480149Y-39477401D01*
X116530528Y-39442422D01*
X116662089Y-39393352D01*
X116777188Y-39307188D01*
X116863352Y-39192089D01*
X116913597Y-39057375D01*
X116920000Y-38997824D01*
X116920000Y-38350000D01*
X114220000Y-38350000D01*
X114220000Y-38997824D01*
X114226402Y-39057375D01*
X114276647Y-39192089D01*
X114362811Y-39307188D01*
X114477911Y-39393352D01*
X114609471Y-39442422D01*
X114659850Y-39477401D01*
X114687303Y-39532246D01*
X114685114Y-39593539D01*
X114653819Y-39646285D01*
X114531503Y-39768601D01*
X114395965Y-39962170D01*
X114296097Y-40176336D01*
X114234936Y-40404592D01*
X114214340Y-40640000D01*
X114234936Y-40875407D01*
X114273005Y-41017483D01*
X114296097Y-41103663D01*
X114395965Y-41317830D01*
X114531505Y-41511401D01*
X114698599Y-41678495D01*
X114884160Y-41808426D01*
X114923024Y-41852743D01*
X114937035Y-41910000D01*
X114923024Y-41967257D01*
X114884158Y-42011575D01*
X114712350Y-42131877D01*
X114698595Y-42141508D01*
X114531505Y-42308598D01*
X114395965Y-42502170D01*
X114296097Y-42716336D01*
X114234936Y-42944592D01*
X114214340Y-43180000D01*
X114234936Y-43415407D01*
X114273005Y-43557483D01*
X114296097Y-43643663D01*
X114395965Y-43857830D01*
X114531505Y-44051401D01*
X114698599Y-44218495D01*
X114884160Y-44348426D01*
X114923024Y-44392743D01*
X114937035Y-44450000D01*
X114923024Y-44507257D01*
X114884158Y-44551575D01*
X114709058Y-44674182D01*
X114698595Y-44681508D01*
X114531505Y-44848598D01*
X114395965Y-45042170D01*
X114296097Y-45256336D01*
X114234936Y-45484592D01*
X114214340Y-45720000D01*
X114234936Y-45955407D01*
X114270408Y-46087790D01*
X114296097Y-46183663D01*
X114395965Y-46397830D01*
X114531505Y-46591401D01*
X114698599Y-46758495D01*
X114884160Y-46888426D01*
X114923024Y-46932743D01*
X114937035Y-46990000D01*
X114923024Y-47047257D01*
X114884159Y-47091575D01*
X114698595Y-47221508D01*
X114531505Y-47388598D01*
X114395965Y-47582170D01*
X114296097Y-47796336D01*
X114234936Y-48024592D01*
X114214340Y-48259999D01*
X114234936Y-48495407D01*
X114279709Y-48662502D01*
X114296097Y-48723663D01*
X114395965Y-48937830D01*
X114531505Y-49131401D01*
X114698599Y-49298495D01*
X114884160Y-49428426D01*
X114923024Y-49472743D01*
X114937035Y-49530000D01*
X114923024Y-49587257D01*
X114884159Y-49631575D01*
X114698595Y-49761508D01*
X114531505Y-49928598D01*
X114395965Y-50122170D01*
X114296097Y-50336336D01*
X114234936Y-50564592D01*
X114214340Y-50800000D01*
X114234936Y-51035407D01*
X114269978Y-51166185D01*
X114296097Y-51263663D01*
X114395965Y-51477830D01*
X114531505Y-51671401D01*
X114698599Y-51838495D01*
X114884160Y-51968426D01*
X114923024Y-52012743D01*
X114937035Y-52070000D01*
X114923024Y-52127257D01*
X114884159Y-52171575D01*
X114698595Y-52301508D01*
X114531505Y-52468598D01*
X114395965Y-52662170D01*
X114296097Y-52876336D01*
X114234936Y-53104592D01*
X114214340Y-53339999D01*
X114234936Y-53575407D01*
X114279054Y-53740058D01*
X114296097Y-53803663D01*
X114395965Y-54017830D01*
X114531505Y-54211401D01*
X114698599Y-54378495D01*
X114884160Y-54508426D01*
X114923024Y-54552743D01*
X114937035Y-54610000D01*
X114923024Y-54667257D01*
X114884159Y-54711575D01*
X114698598Y-54841505D01*
X114612538Y-54927566D01*
X114558515Y-54959229D01*
X114495909Y-54960458D01*
X114440685Y-54930939D01*
X114406927Y-54878202D01*
X114365179Y-54749716D01*
X114343158Y-54711574D01*
X114270533Y-54585783D01*
X114143870Y-54445110D01*
X113990730Y-54333848D01*
X113817802Y-54256855D01*
X113753719Y-54243234D01*
X113703158Y-54219657D01*
X113668050Y-54176302D01*
X113655500Y-54121944D01*
X113655500Y-37850000D01*
X114220000Y-37850000D01*
X115320000Y-37850000D01*
X115320000Y-36750000D01*
X115820000Y-36750000D01*
X115820000Y-37850000D01*
X116920000Y-37850000D01*
X116920000Y-37202176D01*
X116913597Y-37142624D01*
X116863352Y-37007910D01*
X116777188Y-36892811D01*
X116662089Y-36806647D01*
X116527375Y-36756402D01*
X116467824Y-36750000D01*
X115820000Y-36750000D01*
X115320000Y-36750000D01*
X114672176Y-36750000D01*
X114612624Y-36756402D01*
X114477910Y-36806647D01*
X114362811Y-36892811D01*
X114276647Y-37007910D01*
X114226402Y-37142624D01*
X114220000Y-37202176D01*
X114220000Y-37850000D01*
X113655500Y-37850000D01*
X113655500Y-35896744D01*
X113657764Y-35876237D01*
X113655561Y-35806127D01*
X113655500Y-35802232D01*
X113655500Y-35774653D01*
X113654997Y-35770672D01*
X113654080Y-35759019D01*
X113652709Y-35715373D01*
X113647120Y-35696140D01*
X113643174Y-35677082D01*
X113640664Y-35657206D01*
X113624588Y-35616604D01*
X113620804Y-35605553D01*
X113614881Y-35585168D01*
X113608618Y-35563610D01*
X113598414Y-35546355D01*
X113589861Y-35528895D01*
X113582486Y-35510268D01*
X113556808Y-35474925D01*
X113550401Y-35465171D01*
X113528170Y-35427580D01*
X113514006Y-35413416D01*
X113501367Y-35398617D01*
X113489595Y-35382413D01*
X113455941Y-35354573D01*
X113447299Y-35346709D01*
X111826802Y-33726211D01*
X111813906Y-33710113D01*
X111762775Y-33662098D01*
X111759978Y-33659387D01*
X111740470Y-33639879D01*
X111737290Y-33637412D01*
X111728424Y-33629839D01*
X111696582Y-33599938D01*
X111679024Y-33590285D01*
X111662764Y-33579604D01*
X111634559Y-33557726D01*
X111635923Y-33555966D01*
X111605961Y-33532631D01*
X111581615Y-33475469D01*
X111588051Y-33413674D01*
X111594091Y-33397483D01*
X111600500Y-33337873D01*
X111600499Y-32342128D01*
X111594091Y-32282517D01*
X111581340Y-32248331D01*
X111573523Y-32204999D01*
X111581342Y-32161665D01*
X111594090Y-32127485D01*
X111594089Y-32127485D01*
X111594091Y-32127483D01*
X111600500Y-32067873D01*
X111600499Y-31072128D01*
X111594091Y-31012517D01*
X111581075Y-30977619D01*
X111573256Y-30934284D01*
X111581075Y-30890949D01*
X111593597Y-30857376D01*
X111600000Y-30797824D01*
X111600000Y-30550000D01*
X109100000Y-30550000D01*
X109100000Y-30797832D01*
X109101012Y-30807245D01*
X109089260Y-30874681D01*
X109043516Y-30925606D01*
X108977723Y-30944500D01*
X108212379Y-30944500D01*
X108161944Y-30933780D01*
X108120230Y-30903473D01*
X108047870Y-30823111D01*
X107894730Y-30711848D01*
X107721802Y-30634855D01*
X107536648Y-30595500D01*
X107536646Y-30595500D01*
X107347354Y-30595500D01*
X107347352Y-30595500D01*
X107162197Y-30634855D01*
X106989269Y-30711848D01*
X106836129Y-30823110D01*
X106709466Y-30963783D01*
X106614820Y-31127715D01*
X106556326Y-31307742D01*
X106556325Y-31307744D01*
X106556326Y-31307744D01*
X106536540Y-31496000D01*
X106546433Y-31590128D01*
X106556326Y-31684257D01*
X106614820Y-31864284D01*
X106663080Y-31947872D01*
X106679693Y-32009872D01*
X106663081Y-32071871D01*
X106619119Y-32148015D01*
X106560625Y-32328041D01*
X106545002Y-32476690D01*
X106519060Y-32540496D01*
X106463073Y-32580616D01*
X106394314Y-32584670D01*
X106334000Y-32551409D01*
X105840960Y-32058369D01*
X105816720Y-32024071D01*
X105805321Y-31983655D01*
X105787674Y-31815744D01*
X105729179Y-31635716D01*
X105729179Y-31635715D01*
X105634533Y-31471783D01*
X105507870Y-31331110D01*
X105354730Y-31219848D01*
X105181802Y-31142855D01*
X104996648Y-31103500D01*
X104996646Y-31103500D01*
X104807354Y-31103500D01*
X104807352Y-31103500D01*
X104660720Y-31134667D01*
X104600760Y-31132573D01*
X104548801Y-31102575D01*
X104517008Y-31051695D01*
X104511583Y-31035000D01*
X104468848Y-30903473D01*
X104459179Y-30873715D01*
X104364533Y-30709783D01*
X104237870Y-30569110D01*
X104084730Y-30457848D01*
X103911802Y-30380855D01*
X103726648Y-30341500D01*
X103726646Y-30341500D01*
X103537354Y-30341500D01*
X103537352Y-30341500D01*
X103352197Y-30380855D01*
X103179269Y-30457848D01*
X103026129Y-30569110D01*
X102899466Y-30709783D01*
X102804820Y-30873715D01*
X102746326Y-31053742D01*
X102726540Y-31241999D01*
X102746326Y-31430257D01*
X102804820Y-31610284D01*
X102899466Y-31774216D01*
X103001790Y-31887858D01*
X103024933Y-31925183D01*
X103037414Y-31956707D01*
X103041197Y-31967756D01*
X103053382Y-32009696D01*
X103063580Y-32026940D01*
X103072136Y-32044405D01*
X103079514Y-32063037D01*
X103079515Y-32063038D01*
X103105180Y-32098364D01*
X103111593Y-32108127D01*
X103133826Y-32145721D01*
X103133829Y-32145724D01*
X103133830Y-32145725D01*
X103147995Y-32159890D01*
X103160627Y-32174680D01*
X103172406Y-32190892D01*
X103206058Y-32218731D01*
X103214699Y-32226594D01*
X105190892Y-34202787D01*
X105203793Y-34218889D01*
X105205907Y-34220874D01*
X105205909Y-34220877D01*
X105251612Y-34263795D01*
X105254935Y-34266916D01*
X105257731Y-34269626D01*
X105277225Y-34289120D01*
X105280399Y-34291582D01*
X105289263Y-34299153D01*
X105321113Y-34329062D01*
X105328751Y-34333261D01*
X105338669Y-34338714D01*
X105354926Y-34349392D01*
X105370759Y-34361674D01*
X105386880Y-34368649D01*
X105410851Y-34379023D01*
X105421338Y-34384160D01*
X105459603Y-34405197D01*
X105479011Y-34410180D01*
X105497405Y-34416478D01*
X105515800Y-34424438D01*
X105558949Y-34431271D01*
X105570375Y-34433638D01*
X105585917Y-34437629D01*
X105612675Y-34444500D01*
X105612676Y-34444500D01*
X105632711Y-34444500D01*
X105652108Y-34446026D01*
X105671891Y-34449160D01*
X105715369Y-34445050D01*
X105727039Y-34444500D01*
X106414432Y-34444500D01*
X106472646Y-34459015D01*
X106517233Y-34499160D01*
X106537752Y-34555538D01*
X106546703Y-34640694D01*
X106556326Y-34732257D01*
X106614820Y-34912284D01*
X106668927Y-35006000D01*
X106685540Y-35068000D01*
X106668927Y-35130000D01*
X106614820Y-35223715D01*
X106556326Y-35403742D01*
X106536540Y-35592000D01*
X106556326Y-35780257D01*
X106614820Y-35960284D01*
X106709466Y-36124216D01*
X106712901Y-36128031D01*
X106741065Y-36181003D01*
X106741065Y-36240997D01*
X106712901Y-36293969D01*
X106709466Y-36297783D01*
X106614820Y-36461715D01*
X106556326Y-36641742D01*
X106536540Y-36830000D01*
X106556326Y-37018257D01*
X106614820Y-37198284D01*
X106709466Y-37362215D01*
X106727304Y-37382026D01*
X106755471Y-37434999D01*
X106755472Y-37494995D01*
X106727307Y-37547969D01*
X106709466Y-37567783D01*
X106614820Y-37731715D01*
X106556326Y-37911742D01*
X106556325Y-37911744D01*
X106556326Y-37911744D01*
X106536540Y-38100000D01*
X106540667Y-38139264D01*
X106556326Y-38288257D01*
X106614820Y-38468284D01*
X106709466Y-38632215D01*
X106727304Y-38652026D01*
X106755471Y-38704999D01*
X106755472Y-38764995D01*
X106727307Y-38817969D01*
X106709466Y-38837783D01*
X106614820Y-39001715D01*
X106556326Y-39181742D01*
X106541087Y-39326739D01*
X106536540Y-39370000D01*
X106540268Y-39405468D01*
X106556326Y-39558257D01*
X106614820Y-39738284D01*
X106709464Y-39902213D01*
X106724367Y-39918764D01*
X106784652Y-39985717D01*
X106808264Y-40024249D01*
X106816500Y-40068687D01*
X106816500Y-41319256D01*
X106814235Y-41339762D01*
X106816439Y-41409873D01*
X106816500Y-41413768D01*
X106816500Y-41441349D01*
X106817003Y-41445334D01*
X106817918Y-41456967D01*
X106819290Y-41500626D01*
X106824879Y-41519860D01*
X106828825Y-41538916D01*
X106831335Y-41558792D01*
X106847414Y-41599404D01*
X106851197Y-41610451D01*
X106863382Y-41652391D01*
X106873580Y-41669635D01*
X106882136Y-41687100D01*
X106889514Y-41705732D01*
X106889515Y-41705733D01*
X106915180Y-41741059D01*
X106921593Y-41750822D01*
X106943826Y-41788416D01*
X106943829Y-41788419D01*
X106943830Y-41788420D01*
X106957995Y-41802585D01*
X106970628Y-41817376D01*
X106982404Y-41833585D01*
X106982405Y-41833586D01*
X106982406Y-41833587D01*
X107016069Y-41861435D01*
X107024696Y-41869287D01*
X107269194Y-42113784D01*
X107282094Y-42129886D01*
X107314277Y-42160108D01*
X107346324Y-42209230D01*
X107352210Y-42267586D01*
X107330619Y-42322119D01*
X107286381Y-42360629D01*
X107229393Y-42374500D01*
X106180744Y-42374500D01*
X106160237Y-42372235D01*
X106090127Y-42374439D01*
X106086232Y-42374500D01*
X106058650Y-42374500D01*
X106054665Y-42375003D01*
X106043033Y-42375918D01*
X105999369Y-42377290D01*
X105980129Y-42382880D01*
X105961081Y-42386825D01*
X105941209Y-42389335D01*
X105900599Y-42405413D01*
X105889554Y-42409194D01*
X105847610Y-42421381D01*
X105830365Y-42431579D01*
X105812904Y-42440133D01*
X105794267Y-42447512D01*
X105758931Y-42473185D01*
X105749174Y-42479595D01*
X105711580Y-42501829D01*
X105697413Y-42515996D01*
X105682624Y-42528626D01*
X105666413Y-42540404D01*
X105638572Y-42574058D01*
X105630711Y-42582697D01*
X105462226Y-42751183D01*
X105422001Y-42778061D01*
X105374548Y-42787500D01*
X105315352Y-42787500D01*
X105130197Y-42826855D01*
X104957269Y-42903848D01*
X104804129Y-43015110D01*
X104677466Y-43155783D01*
X104582820Y-43319715D01*
X104524326Y-43499742D01*
X104504540Y-43687999D01*
X104524326Y-43876257D01*
X104582820Y-44056284D01*
X104677466Y-44220216D01*
X104804129Y-44360889D01*
X104957269Y-44472151D01*
X105130197Y-44549144D01*
X105315352Y-44588500D01*
X105434068Y-44588500D01*
X105484503Y-44599220D01*
X105526218Y-44629528D01*
X105551999Y-44674182D01*
X105598820Y-44818284D01*
X105693466Y-44982216D01*
X105820129Y-45122889D01*
X105973269Y-45234151D01*
X106146197Y-45311144D01*
X106224579Y-45327805D01*
X106284936Y-45359896D01*
X106319115Y-45419096D01*
X106316730Y-45487412D01*
X106302326Y-45531740D01*
X106282825Y-45717288D01*
X106282540Y-45720000D01*
X106302326Y-45908256D01*
X106307014Y-45922685D01*
X106311557Y-45980397D01*
X106289402Y-46033885D01*
X106245378Y-46071485D01*
X106189083Y-46085000D01*
X105627240Y-46085000D01*
X105606736Y-46082736D01*
X105536644Y-46084939D01*
X105532750Y-46085000D01*
X105505148Y-46085000D01*
X105501153Y-46085504D01*
X105489529Y-46086418D01*
X105445872Y-46087790D01*
X105426635Y-46093379D01*
X105407594Y-46097322D01*
X105387708Y-46099835D01*
X105347082Y-46115919D01*
X105336037Y-46119700D01*
X105294113Y-46131881D01*
X105276865Y-46142081D01*
X105259403Y-46150635D01*
X105247415Y-46155381D01*
X105240765Y-46158015D01*
X105205426Y-46183689D01*
X105195668Y-46190099D01*
X105158079Y-46212329D01*
X105143910Y-46226498D01*
X105129122Y-46239128D01*
X105112913Y-46250905D01*
X105085072Y-46284558D01*
X105077211Y-46293196D01*
X104597226Y-46773181D01*
X104556998Y-46800061D01*
X104509546Y-46809500D01*
X104277130Y-46809500D01*
X104217516Y-46815909D01*
X104183331Y-46828659D01*
X104140000Y-46836476D01*
X104096668Y-46828658D01*
X104062486Y-46815909D01*
X104036935Y-46813162D01*
X104002873Y-46809500D01*
X104002869Y-46809500D01*
X103007130Y-46809500D01*
X102947516Y-46815909D01*
X102913331Y-46828659D01*
X102870000Y-46836476D01*
X102826668Y-46828658D01*
X102792486Y-46815909D01*
X102766935Y-46813162D01*
X102732873Y-46809500D01*
X102732869Y-46809500D01*
X101737130Y-46809500D01*
X101677516Y-46815909D01*
X101643331Y-46828659D01*
X101600000Y-46836476D01*
X101556668Y-46828658D01*
X101522486Y-46815909D01*
X101496935Y-46813162D01*
X101462873Y-46809500D01*
X101462869Y-46809500D01*
X100467130Y-46809500D01*
X100407516Y-46815909D01*
X100373331Y-46828659D01*
X100330000Y-46836476D01*
X100286668Y-46828658D01*
X100252486Y-46815909D01*
X100226935Y-46813162D01*
X100192873Y-46809500D01*
X100192869Y-46809500D01*
X99197130Y-46809500D01*
X99137516Y-46815909D01*
X99103331Y-46828659D01*
X99060000Y-46836476D01*
X99016668Y-46828658D01*
X98982486Y-46815909D01*
X98956935Y-46813162D01*
X98922873Y-46809500D01*
X98922869Y-46809500D01*
X97927130Y-46809500D01*
X97867516Y-46815909D01*
X97833331Y-46828659D01*
X97790000Y-46836476D01*
X97746668Y-46828658D01*
X97712486Y-46815909D01*
X97686935Y-46813162D01*
X97652873Y-46809500D01*
X97652869Y-46809500D01*
X97290835Y-46809500D01*
X97232620Y-46794985D01*
X97188034Y-46754840D01*
X97167514Y-46698463D01*
X97151674Y-46547744D01*
X97094810Y-46372735D01*
X97093179Y-46367715D01*
X96998533Y-46203783D01*
X96871870Y-46063110D01*
X96718730Y-45951848D01*
X96545802Y-45874855D01*
X96360648Y-45835500D01*
X96360646Y-45835500D01*
X96171354Y-45835500D01*
X96171351Y-45835500D01*
X96007004Y-45870432D01*
X95942905Y-45867073D01*
X95889073Y-45832114D01*
X95859934Y-45774922D01*
X95863292Y-45710827D01*
X95881674Y-45654256D01*
X95901460Y-45466000D01*
X95881674Y-45277744D01*
X95823179Y-45097716D01*
X95823179Y-45097715D01*
X95728533Y-44933783D01*
X95710694Y-44913971D01*
X95682527Y-44860997D01*
X95682528Y-44801000D01*
X95710694Y-44748027D01*
X95728533Y-44728216D01*
X95823179Y-44564284D01*
X95881674Y-44384256D01*
X95901460Y-44196000D01*
X95881674Y-44007744D01*
X95832963Y-43857827D01*
X95823180Y-43827718D01*
X95823179Y-43827716D01*
X95778307Y-43749996D01*
X95761696Y-43688000D01*
X95778307Y-43626003D01*
X95823179Y-43548284D01*
X95881674Y-43368256D01*
X95901460Y-43180000D01*
X95881674Y-42991744D01*
X95828926Y-42829404D01*
X95823179Y-42811715D01*
X95728535Y-42647787D01*
X95728534Y-42647786D01*
X95728533Y-42647784D01*
X95710693Y-42627971D01*
X95682527Y-42574999D01*
X95682527Y-42515001D01*
X95710693Y-42462028D01*
X95728533Y-42442216D01*
X95823179Y-42278284D01*
X95881674Y-42098256D01*
X95901460Y-41910000D01*
X95881674Y-41721744D01*
X95851332Y-41628363D01*
X95823179Y-41541715D01*
X95728533Y-41377783D01*
X95710694Y-41357971D01*
X95682527Y-41304996D01*
X95682528Y-41244998D01*
X95710696Y-41192025D01*
X95728533Y-41172216D01*
X95823179Y-41008284D01*
X95881674Y-40828256D01*
X95901460Y-40640000D01*
X95881674Y-40451744D01*
X95838460Y-40318746D01*
X95823179Y-40271715D01*
X95728535Y-40107787D01*
X95728534Y-40107786D01*
X95728533Y-40107784D01*
X95710693Y-40087971D01*
X95682527Y-40034999D01*
X95682527Y-39975001D01*
X95710693Y-39922028D01*
X95728533Y-39902216D01*
X95823179Y-39738284D01*
X95845366Y-39670000D01*
X97750000Y-39670000D01*
X97750000Y-39917824D01*
X97756402Y-39977375D01*
X97806647Y-40112089D01*
X97892811Y-40227188D01*
X98007910Y-40313352D01*
X98142624Y-40363597D01*
X98202176Y-40370000D01*
X98450000Y-40370000D01*
X98450000Y-39670000D01*
X97750000Y-39670000D01*
X95845366Y-39670000D01*
X95881674Y-39558256D01*
X95901460Y-39370000D01*
X95881674Y-39181744D01*
X95877858Y-39170000D01*
X97750000Y-39170000D01*
X98104553Y-39170000D01*
X98148524Y-39178058D01*
X98186776Y-39201181D01*
X98299148Y-39300734D01*
X98449775Y-39379790D01*
X98613764Y-39420209D01*
X98658579Y-39441473D01*
X98691475Y-39478604D01*
X98707184Y-39525657D01*
X98714860Y-39588872D01*
X98775182Y-39747930D01*
X98871817Y-39887930D01*
X98908227Y-39920186D01*
X98939076Y-39962110D01*
X98950000Y-40013001D01*
X98950000Y-40370000D01*
X99197824Y-40370000D01*
X99257378Y-40363597D01*
X99356665Y-40326565D01*
X99399999Y-40318746D01*
X99443333Y-40326564D01*
X99542624Y-40363597D01*
X99602176Y-40370000D01*
X99850000Y-40370000D01*
X99850000Y-40013001D01*
X99860924Y-39962110D01*
X99891773Y-39920186D01*
X99928182Y-39887930D01*
X99931479Y-39883154D01*
X99997951Y-39786852D01*
X100042374Y-39747497D01*
X100100000Y-39733294D01*
X100157626Y-39747497D01*
X100202048Y-39786852D01*
X100228378Y-39824997D01*
X100271817Y-39887930D01*
X100308227Y-39920186D01*
X100339076Y-39962110D01*
X100350000Y-40013001D01*
X100350000Y-40370000D01*
X100597824Y-40370000D01*
X100657378Y-40363597D01*
X100756665Y-40326565D01*
X100799999Y-40318746D01*
X100843333Y-40326564D01*
X100942624Y-40363597D01*
X101002176Y-40370000D01*
X101250000Y-40370000D01*
X101250000Y-40013001D01*
X101260924Y-39962110D01*
X101291773Y-39920186D01*
X101328182Y-39887930D01*
X101331479Y-39883154D01*
X101424818Y-39747930D01*
X101454373Y-39670000D01*
X101750000Y-39670000D01*
X101750000Y-40370000D01*
X101997824Y-40370000D01*
X102057375Y-40363597D01*
X102192089Y-40313352D01*
X102307188Y-40227188D01*
X102393352Y-40112089D01*
X102443597Y-39977375D01*
X102450000Y-39917824D01*
X102450000Y-39670000D01*
X101750000Y-39670000D01*
X101454373Y-39670000D01*
X101485140Y-39588872D01*
X101492815Y-39525657D01*
X101508524Y-39478605D01*
X101541419Y-39441474D01*
X101586232Y-39420209D01*
X101750225Y-39379790D01*
X101900852Y-39300734D01*
X102013223Y-39201181D01*
X102051476Y-39178058D01*
X102095447Y-39170000D01*
X102450000Y-39170000D01*
X102450000Y-38922176D01*
X102443597Y-38862624D01*
X102406564Y-38763333D01*
X102398746Y-38719999D01*
X102406565Y-38676665D01*
X102443597Y-38577378D01*
X102450000Y-38517824D01*
X102450000Y-38270000D01*
X102095447Y-38270000D01*
X102051476Y-38261942D01*
X102013223Y-38238818D01*
X101900852Y-38139266D01*
X101900850Y-38139265D01*
X101900849Y-38139264D01*
X101890604Y-38133887D01*
X101882807Y-38129795D01*
X101834317Y-38084150D01*
X101816434Y-38020000D01*
X101834317Y-37955850D01*
X101882807Y-37910204D01*
X101900852Y-37900734D01*
X102013223Y-37801181D01*
X102051476Y-37778058D01*
X102095447Y-37770000D01*
X102450000Y-37770000D01*
X102450000Y-37522176D01*
X102443597Y-37462624D01*
X102406564Y-37363333D01*
X102398746Y-37319999D01*
X102406565Y-37276665D01*
X102443597Y-37177378D01*
X102450000Y-37117824D01*
X102450000Y-36870000D01*
X102095447Y-36870000D01*
X102051476Y-36861942D01*
X102013223Y-36838818D01*
X101900852Y-36739266D01*
X101807339Y-36690186D01*
X101750224Y-36660209D01*
X101590752Y-36620904D01*
X101586235Y-36619790D01*
X101541419Y-36598525D01*
X101508524Y-36561394D01*
X101492815Y-36514340D01*
X101485140Y-36451128D01*
X101424818Y-36292070D01*
X101360929Y-36199511D01*
X101328182Y-36152069D01*
X101291773Y-36119814D01*
X101260924Y-36077890D01*
X101250000Y-36026999D01*
X101250000Y-35670000D01*
X101750000Y-35670000D01*
X101750000Y-36370000D01*
X102450000Y-36370000D01*
X102450000Y-36122176D01*
X102443597Y-36062624D01*
X102393352Y-35927910D01*
X102307188Y-35812811D01*
X102192089Y-35726647D01*
X102057375Y-35676402D01*
X101997824Y-35670000D01*
X101750000Y-35670000D01*
X101250000Y-35670000D01*
X101002176Y-35670000D01*
X100942622Y-35676402D01*
X100843333Y-35713435D01*
X100800000Y-35721253D01*
X100756667Y-35713435D01*
X100657377Y-35676402D01*
X100597824Y-35670000D01*
X100350000Y-35670000D01*
X100350000Y-36026999D01*
X100339076Y-36077890D01*
X100308227Y-36119814D01*
X100271817Y-36152069D01*
X100202050Y-36253145D01*
X100157625Y-36292502D01*
X100100000Y-36306705D01*
X100042375Y-36292502D01*
X99997950Y-36253145D01*
X99928182Y-36152069D01*
X99891773Y-36119814D01*
X99860924Y-36077890D01*
X99850000Y-36026999D01*
X99850000Y-35670000D01*
X99602176Y-35670000D01*
X99542622Y-35676402D01*
X99443333Y-35713435D01*
X99400000Y-35721253D01*
X99356667Y-35713435D01*
X99257377Y-35676402D01*
X99197824Y-35670000D01*
X98950000Y-35670000D01*
X98950000Y-36026999D01*
X98939076Y-36077890D01*
X98908227Y-36119814D01*
X98871817Y-36152069D01*
X98775182Y-36292069D01*
X98714860Y-36451127D01*
X98707184Y-36514342D01*
X98691475Y-36561395D01*
X98658579Y-36598525D01*
X98613763Y-36619791D01*
X98449775Y-36660209D01*
X98299149Y-36739265D01*
X98299147Y-36739266D01*
X98299148Y-36739266D01*
X98186776Y-36838818D01*
X98148524Y-36861942D01*
X98104553Y-36870000D01*
X97750000Y-36870000D01*
X97750000Y-37117824D01*
X97756402Y-37177377D01*
X97793435Y-37276667D01*
X97801253Y-37320000D01*
X97793435Y-37363333D01*
X97756402Y-37462622D01*
X97750000Y-37522176D01*
X97750000Y-37770000D01*
X98104553Y-37770000D01*
X98148524Y-37778058D01*
X98186776Y-37801181D01*
X98299148Y-37900734D01*
X98317192Y-37910204D01*
X98365682Y-37955851D01*
X98383565Y-38020000D01*
X98365682Y-38084149D01*
X98317192Y-38129795D01*
X98309879Y-38133633D01*
X98299149Y-38139265D01*
X98299147Y-38139266D01*
X98299148Y-38139266D01*
X98186776Y-38238818D01*
X98148524Y-38261942D01*
X98104553Y-38270000D01*
X97750000Y-38270000D01*
X97750000Y-38517824D01*
X97756402Y-38577377D01*
X97793435Y-38676667D01*
X97801253Y-38720000D01*
X97793435Y-38763333D01*
X97756402Y-38862622D01*
X97750000Y-38922176D01*
X97750000Y-39170000D01*
X95877858Y-39170000D01*
X95823179Y-39001716D01*
X95823179Y-39001715D01*
X95728533Y-38837783D01*
X95710694Y-38817971D01*
X95682527Y-38764997D01*
X95682528Y-38705000D01*
X95710694Y-38652027D01*
X95728533Y-38632216D01*
X95823179Y-38468284D01*
X95881674Y-38288256D01*
X95901460Y-38100000D01*
X95881674Y-37911744D01*
X95823179Y-37731716D01*
X95823179Y-37731715D01*
X95728535Y-37567786D01*
X95662993Y-37494995D01*
X95601871Y-37427112D01*
X95601867Y-37427109D01*
X95596342Y-37420973D01*
X95568175Y-37367999D01*
X95568175Y-37308001D01*
X95596342Y-37255027D01*
X95601867Y-37248890D01*
X95601871Y-37248888D01*
X95728533Y-37108216D01*
X95823179Y-36944284D01*
X95881674Y-36764256D01*
X95901460Y-36576000D01*
X95881674Y-36387744D01*
X95875909Y-36370000D01*
X97750000Y-36370000D01*
X98450000Y-36370000D01*
X98450000Y-35670000D01*
X98202176Y-35670000D01*
X98142624Y-35676402D01*
X98007910Y-35726647D01*
X97892811Y-35812811D01*
X97806647Y-35927910D01*
X97756402Y-36062624D01*
X97750000Y-36122176D01*
X97750000Y-36370000D01*
X95875909Y-36370000D01*
X95837940Y-36253145D01*
X95823179Y-36207715D01*
X95728533Y-36043783D01*
X95710694Y-36023971D01*
X95682527Y-35970997D01*
X95682528Y-35911000D01*
X95710694Y-35858027D01*
X95728533Y-35838216D01*
X95823179Y-35674284D01*
X95881674Y-35494256D01*
X95901460Y-35306000D01*
X95881674Y-35117744D01*
X95823179Y-34937716D01*
X95823179Y-34937715D01*
X95728535Y-34773787D01*
X95728534Y-34773786D01*
X95728533Y-34773784D01*
X95710693Y-34753971D01*
X95682527Y-34700999D01*
X95682527Y-34641001D01*
X95710693Y-34588028D01*
X95728533Y-34568216D01*
X95823179Y-34404284D01*
X95881674Y-34224256D01*
X95901460Y-34036000D01*
X95881674Y-33847744D01*
X95845399Y-33736101D01*
X95823179Y-33667715D01*
X95728533Y-33503783D01*
X95601870Y-33363110D01*
X95448730Y-33251848D01*
X95275802Y-33174855D01*
X95090648Y-33135500D01*
X95090646Y-33135500D01*
X94901354Y-33135500D01*
X94901352Y-33135500D01*
X94716197Y-33174855D01*
X94543272Y-33251847D01*
X94441176Y-33326024D01*
X94390129Y-33363112D01*
X94384401Y-33369473D01*
X94342688Y-33399780D01*
X94292253Y-33410500D01*
X94224500Y-33410500D01*
X94162500Y-33393887D01*
X94117113Y-33348500D01*
X94100500Y-33286500D01*
X94100499Y-32342130D01*
X94099599Y-32333759D01*
X94094091Y-32282517D01*
X94081340Y-32248331D01*
X94073523Y-32204999D01*
X94081342Y-32161665D01*
X94094090Y-32127485D01*
X94094089Y-32127485D01*
X94094091Y-32127483D01*
X94100500Y-32067873D01*
X94100499Y-31072128D01*
X94094091Y-31012517D01*
X94081075Y-30977619D01*
X94073256Y-30934284D01*
X94081075Y-30890949D01*
X94093597Y-30857376D01*
X94100000Y-30797824D01*
X94100000Y-30550000D01*
X91600000Y-30550000D01*
X91600000Y-30767700D01*
X91583387Y-30829700D01*
X91538000Y-30875087D01*
X91476000Y-30891700D01*
X90814567Y-30891700D01*
X90754135Y-30875977D01*
X90709028Y-30832796D01*
X90692711Y-30806342D01*
X90568657Y-30682288D01*
X90419334Y-30590186D01*
X90252797Y-30535000D01*
X90154903Y-30525000D01*
X90150008Y-30524500D01*
X89549991Y-30524500D01*
X89447203Y-30535000D01*
X89280665Y-30590186D01*
X89131342Y-30682288D01*
X89007286Y-30806344D01*
X89005242Y-30809659D01*
X88960135Y-30852837D01*
X88899704Y-30868558D01*
X88839274Y-30852835D01*
X88794168Y-30809656D01*
X88792316Y-30806654D01*
X88668345Y-30682683D01*
X88519122Y-30590642D01*
X88352696Y-30535493D01*
X88249979Y-30525000D01*
X88200000Y-30525000D01*
X88200000Y-31876000D01*
X88183387Y-31938000D01*
X88138000Y-31983387D01*
X88076000Y-32000000D01*
X86950001Y-32000000D01*
X86950001Y-32274979D01*
X86960493Y-32377695D01*
X87015642Y-32544122D01*
X87107683Y-32693345D01*
X87231654Y-32817316D01*
X87389151Y-32914460D01*
X87432332Y-32959567D01*
X87448055Y-33019998D01*
X87432333Y-33080430D01*
X87389152Y-33125537D01*
X87231655Y-33222682D01*
X87107683Y-33346654D01*
X87015642Y-33495877D01*
X86960493Y-33662303D01*
X86950000Y-33765021D01*
X86950000Y-34040000D01*
X88076000Y-34040000D01*
X88138000Y-34056613D01*
X88183387Y-34102000D01*
X88200000Y-34164000D01*
X88200000Y-35514999D01*
X88249979Y-35514999D01*
X88352695Y-35504506D01*
X88519122Y-35449357D01*
X88668345Y-35357316D01*
X88792313Y-35233348D01*
X88794164Y-35230348D01*
X88839271Y-35187164D01*
X88899704Y-35171440D01*
X88960138Y-35187163D01*
X89005246Y-35230345D01*
X89007290Y-35233659D01*
X89135381Y-35361750D01*
X89162261Y-35401978D01*
X89171700Y-35449431D01*
X89171700Y-35801677D01*
X89162261Y-35849130D01*
X89135381Y-35889358D01*
X88311557Y-36713181D01*
X88271329Y-36740061D01*
X88223876Y-36749500D01*
X86732130Y-36749500D01*
X86672515Y-36755909D01*
X86537669Y-36806204D01*
X86422454Y-36892454D01*
X86336204Y-37007668D01*
X86298703Y-37108213D01*
X86285909Y-37142517D01*
X86279568Y-37201500D01*
X86279500Y-37202130D01*
X86279500Y-38997869D01*
X86279914Y-39001716D01*
X86285909Y-39057483D01*
X86324145Y-39160000D01*
X86329782Y-39175112D01*
X86334766Y-39244803D01*
X86301281Y-39306126D01*
X85629228Y-39978181D01*
X85589000Y-40005061D01*
X85541547Y-40014500D01*
X80262248Y-40014500D01*
X80207404Y-40001712D01*
X80163872Y-39965986D01*
X80140631Y-39914691D01*
X80142473Y-39858406D01*
X80195636Y-39660000D01*
X77284364Y-39660000D01*
X77337414Y-39857985D01*
X77339443Y-39913314D01*
X77317189Y-39964010D01*
X77275089Y-39999967D01*
X77221536Y-40014018D01*
X77211433Y-40014335D01*
X77208141Y-40014439D01*
X77204250Y-40014500D01*
X77176648Y-40014500D01*
X77172653Y-40015004D01*
X77161029Y-40015918D01*
X77117368Y-40017290D01*
X77098128Y-40022880D01*
X77079081Y-40026825D01*
X77059209Y-40029335D01*
X77018599Y-40045413D01*
X77007554Y-40049194D01*
X76965611Y-40061380D01*
X76948369Y-40071578D01*
X76930897Y-40080138D01*
X76912266Y-40087514D01*
X76876938Y-40113181D01*
X76867180Y-40119591D01*
X76829579Y-40141829D01*
X76815410Y-40155998D01*
X76800622Y-40168628D01*
X76784413Y-40180405D01*
X76756572Y-40214058D01*
X76748711Y-40222696D01*
X76578208Y-40393199D01*
X76562110Y-40406096D01*
X76514096Y-40457225D01*
X76511391Y-40460017D01*
X76491874Y-40479534D01*
X76489415Y-40482705D01*
X76481842Y-40491572D01*
X76451935Y-40523420D01*
X76442285Y-40540974D01*
X76431609Y-40557228D01*
X76419326Y-40573063D01*
X76401975Y-40613158D01*
X76396838Y-40623644D01*
X76375802Y-40661907D01*
X76370821Y-40681309D01*
X76364520Y-40699711D01*
X76356561Y-40718102D01*
X76349728Y-40761242D01*
X76347360Y-40772674D01*
X76336500Y-40814978D01*
X76336500Y-40835016D01*
X76334973Y-40854413D01*
X76331840Y-40874196D01*
X76331955Y-40875408D01*
X76335950Y-40917675D01*
X76336500Y-40929344D01*
X76336500Y-42549256D01*
X76334235Y-42569762D01*
X76336439Y-42639873D01*
X76336500Y-42643768D01*
X76336500Y-42671349D01*
X76337003Y-42675334D01*
X76337918Y-42686967D01*
X76339290Y-42730626D01*
X76344879Y-42749860D01*
X76348825Y-42768916D01*
X76351335Y-42788792D01*
X76367414Y-42829404D01*
X76371197Y-42840451D01*
X76383382Y-42882391D01*
X76393580Y-42899635D01*
X76402136Y-42917100D01*
X76409514Y-42935732D01*
X76409515Y-42935733D01*
X76435180Y-42971059D01*
X76441593Y-42980822D01*
X76463826Y-43018416D01*
X76463829Y-43018419D01*
X76463830Y-43018420D01*
X76477995Y-43032585D01*
X76490627Y-43047375D01*
X76502406Y-43063587D01*
X76536058Y-43091426D01*
X76544699Y-43099289D01*
X77301177Y-43855767D01*
X77333271Y-43911354D01*
X77333271Y-43975541D01*
X77279936Y-44174592D01*
X77259340Y-44409999D01*
X77279936Y-44645407D01*
X77341097Y-44873663D01*
X77440965Y-45087829D01*
X77576505Y-45281401D01*
X77723705Y-45428601D01*
X77753150Y-45475571D01*
X77759186Y-45530678D01*
X77740604Y-45582907D01*
X77701121Y-45621821D01*
X77546341Y-45717289D01*
X77422288Y-45841342D01*
X77330186Y-45990665D01*
X77275000Y-46157202D01*
X77264500Y-46259990D01*
X77264500Y-47560008D01*
X77275000Y-47662796D01*
X77330186Y-47829334D01*
X77422288Y-47978657D01*
X77546342Y-48102711D01*
X77546344Y-48102712D01*
X77695666Y-48194814D01*
X77807017Y-48231712D01*
X77862202Y-48249999D01*
X77872703Y-48251071D01*
X77964991Y-48260500D01*
X79515008Y-48260499D01*
X79617797Y-48249999D01*
X79784334Y-48194814D01*
X79933656Y-48102712D01*
X80057712Y-47978656D01*
X80149814Y-47829334D01*
X80204999Y-47662797D01*
X80215500Y-47560009D01*
X80215499Y-46259992D01*
X80214735Y-46252517D01*
X80204999Y-46157203D01*
X80196537Y-46131666D01*
X80149814Y-45990666D01*
X80057712Y-45841344D01*
X80057711Y-45841342D01*
X79933657Y-45717288D01*
X79778879Y-45621821D01*
X79739395Y-45582908D01*
X79720813Y-45530678D01*
X79726849Y-45475571D01*
X79756290Y-45428605D01*
X79903495Y-45281401D01*
X80039035Y-45087830D01*
X80138903Y-44873663D01*
X80200063Y-44645408D01*
X80220659Y-44410000D01*
X80210800Y-44297319D01*
X80200063Y-44174592D01*
X80190844Y-44140186D01*
X80138903Y-43946337D01*
X80039035Y-43732171D01*
X79903495Y-43538599D01*
X79736401Y-43371505D01*
X79579401Y-43261573D01*
X79540537Y-43217257D01*
X79526526Y-43160000D01*
X79540537Y-43102743D01*
X79579401Y-43058426D01*
X79736401Y-42948495D01*
X79903495Y-42781401D01*
X80038653Y-42588374D01*
X80082970Y-42549511D01*
X80140227Y-42535500D01*
X86245782Y-42535500D01*
X86305425Y-42550786D01*
X86350363Y-42592875D01*
X86369517Y-42651391D01*
X86358164Y-42711905D01*
X86356097Y-42716337D01*
X86294936Y-42944592D01*
X86274340Y-43179999D01*
X86294936Y-43415408D01*
X86321855Y-43515873D01*
X86321855Y-43580059D01*
X86289761Y-43635646D01*
X85722208Y-44203199D01*
X85706110Y-44216096D01*
X85658096Y-44267225D01*
X85655391Y-44270017D01*
X85635874Y-44289534D01*
X85633415Y-44292705D01*
X85625842Y-44301572D01*
X85595935Y-44333420D01*
X85586285Y-44350974D01*
X85575609Y-44367228D01*
X85563326Y-44383063D01*
X85545975Y-44423158D01*
X85540838Y-44433644D01*
X85519802Y-44471907D01*
X85514821Y-44491309D01*
X85508520Y-44509711D01*
X85500561Y-44528102D01*
X85493728Y-44571242D01*
X85491360Y-44582674D01*
X85480500Y-44624978D01*
X85480500Y-44645016D01*
X85478973Y-44664415D01*
X85475840Y-44684194D01*
X85479950Y-44727675D01*
X85480500Y-44739344D01*
X85480500Y-51040107D01*
X85478235Y-51060613D01*
X85480439Y-51130724D01*
X85480500Y-51134619D01*
X85480500Y-51162200D01*
X85481003Y-51166185D01*
X85481918Y-51177818D01*
X85483290Y-51221477D01*
X85488879Y-51240711D01*
X85492825Y-51259767D01*
X85495335Y-51279643D01*
X85511414Y-51320255D01*
X85515197Y-51331302D01*
X85527382Y-51373242D01*
X85537580Y-51390486D01*
X85546136Y-51407951D01*
X85553514Y-51426583D01*
X85553515Y-51426584D01*
X85579180Y-51461910D01*
X85585593Y-51471673D01*
X85607826Y-51509267D01*
X85607829Y-51509270D01*
X85607830Y-51509271D01*
X85621995Y-51523436D01*
X85634627Y-51538226D01*
X85646406Y-51554438D01*
X85680058Y-51582277D01*
X85688699Y-51590140D01*
X86507904Y-52409346D01*
X86537929Y-52458023D01*
X86542914Y-52514998D01*
X86521798Y-52568150D01*
X86455965Y-52662169D01*
X86356097Y-52876336D01*
X86294936Y-53104592D01*
X86274340Y-53339999D01*
X86294936Y-53575405D01*
X86321856Y-53675871D01*
X86321856Y-53740058D01*
X86289762Y-53795646D01*
X86097228Y-53988181D01*
X86057000Y-54015061D01*
X86009547Y-54024500D01*
X80140226Y-54024500D01*
X80082969Y-54010489D01*
X80038651Y-53971623D01*
X79909025Y-53786497D01*
X79903495Y-53778599D01*
X79736401Y-53611505D01*
X79542829Y-53475965D01*
X79328663Y-53376097D01*
X79289114Y-53365500D01*
X79100407Y-53314936D01*
X78923968Y-53299500D01*
X78923966Y-53299500D01*
X78556034Y-53299500D01*
X78556032Y-53299500D01*
X78379592Y-53314936D01*
X78151336Y-53376097D01*
X77937170Y-53475965D01*
X77743598Y-53611505D01*
X77576508Y-53778595D01*
X77576505Y-53778598D01*
X77576505Y-53778599D01*
X77497196Y-53891865D01*
X77440964Y-53972172D01*
X77341097Y-54186337D01*
X77279936Y-54414592D01*
X77259340Y-54650000D01*
X77279936Y-54885407D01*
X77321589Y-55040859D01*
X77341097Y-55113663D01*
X77440965Y-55327829D01*
X77576505Y-55521401D01*
X77743599Y-55688495D01*
X77874069Y-55779851D01*
X77901032Y-55798730D01*
X77939898Y-55843048D01*
X77953909Y-55900305D01*
X77939898Y-55957562D01*
X77901033Y-56001880D01*
X77743918Y-56111893D01*
X77576893Y-56278918D01*
X77441399Y-56472423D01*
X77341569Y-56686507D01*
X77284364Y-56899999D01*
X77284364Y-56900000D01*
X80195636Y-56900000D01*
X80195635Y-56899999D01*
X80138430Y-56686507D01*
X80038599Y-56472421D01*
X79903109Y-56278921D01*
X79736078Y-56111890D01*
X79578967Y-56001880D01*
X79540101Y-55957562D01*
X79526090Y-55900305D01*
X79540101Y-55843048D01*
X79578964Y-55798732D01*
X79736401Y-55688495D01*
X79903495Y-55521401D01*
X80038653Y-55328374D01*
X80082970Y-55289511D01*
X80140227Y-55275500D01*
X86232234Y-55275500D01*
X86287078Y-55288288D01*
X86330610Y-55324013D01*
X86353851Y-55375309D01*
X86352009Y-55431593D01*
X86294936Y-55644592D01*
X86274340Y-55879999D01*
X86294936Y-56115408D01*
X86321855Y-56215873D01*
X86321855Y-56280059D01*
X86289761Y-56335646D01*
X83637228Y-58988181D01*
X83597000Y-59015061D01*
X83549547Y-59024500D01*
X80140226Y-59024500D01*
X80082969Y-59010489D01*
X80038651Y-58971623D01*
X80001223Y-58918170D01*
X79903495Y-58778599D01*
X79736401Y-58611505D01*
X79578966Y-58501268D01*
X79540102Y-58456951D01*
X79526091Y-58399694D01*
X79540102Y-58342437D01*
X79578968Y-58298119D01*
X79736078Y-58188109D01*
X79903106Y-58021081D01*
X80038600Y-57827576D01*
X80138430Y-57613492D01*
X80195636Y-57400000D01*
X77284364Y-57400000D01*
X77341569Y-57613492D01*
X77441400Y-57827578D01*
X77576890Y-58021078D01*
X77743921Y-58188109D01*
X77901032Y-58298119D01*
X77939898Y-58342437D01*
X77953909Y-58399694D01*
X77939898Y-58456951D01*
X77901033Y-58501269D01*
X77743595Y-58611508D01*
X77576508Y-58778595D01*
X77576505Y-58778598D01*
X77576505Y-58778599D01*
X77458718Y-58946817D01*
X77440964Y-58972172D01*
X77341097Y-59186337D01*
X77279936Y-59414592D01*
X77259340Y-59650000D01*
X77279936Y-59885407D01*
X77341097Y-60113663D01*
X77440965Y-60327829D01*
X77576505Y-60521401D01*
X77723705Y-60668601D01*
X77753150Y-60715571D01*
X77759186Y-60770678D01*
X77740604Y-60822907D01*
X77701121Y-60861821D01*
X77546341Y-60957289D01*
X77422288Y-61081342D01*
X77330186Y-61230665D01*
X77275000Y-61397202D01*
X77264500Y-61499990D01*
X77264500Y-62800008D01*
X77275000Y-62902796D01*
X77330186Y-63069334D01*
X77422288Y-63218657D01*
X77546342Y-63342711D01*
X77546344Y-63342712D01*
X77695666Y-63434814D01*
X77797242Y-63468473D01*
X77862202Y-63489999D01*
X77872702Y-63491071D01*
X77964991Y-63500500D01*
X79515008Y-63500499D01*
X79617797Y-63489999D01*
X79784334Y-63434814D01*
X79933656Y-63342712D01*
X80057712Y-63218656D01*
X80149814Y-63069334D01*
X80158794Y-63042231D01*
X80197906Y-62985327D01*
X80261389Y-62958162D01*
X80329558Y-62969163D01*
X80381274Y-63014918D01*
X80400500Y-63081238D01*
X80400500Y-63951548D01*
X80391061Y-63999001D01*
X80364181Y-64039229D01*
X76832208Y-67571199D01*
X76816110Y-67584096D01*
X76768096Y-67635225D01*
X76765391Y-67638017D01*
X76745874Y-67657534D01*
X76743415Y-67660705D01*
X76735842Y-67669572D01*
X76705935Y-67701420D01*
X76696285Y-67718974D01*
X76685609Y-67735228D01*
X76673326Y-67751063D01*
X76655975Y-67791158D01*
X76650838Y-67801644D01*
X76629802Y-67839907D01*
X76624821Y-67859309D01*
X76618520Y-67877711D01*
X76610561Y-67896102D01*
X76603728Y-67939242D01*
X76601360Y-67950674D01*
X76590500Y-67992978D01*
X76590500Y-68013016D01*
X76588973Y-68032415D01*
X76585840Y-68052194D01*
X76589950Y-68095675D01*
X76590500Y-68107344D01*
X76590500Y-73283256D01*
X76588235Y-73303762D01*
X76590439Y-73373873D01*
X76590500Y-73377768D01*
X76590500Y-73405349D01*
X76591003Y-73409334D01*
X76591918Y-73420967D01*
X76593290Y-73464626D01*
X76598879Y-73483860D01*
X76602825Y-73502916D01*
X76605335Y-73522792D01*
X76621414Y-73563404D01*
X76625197Y-73574451D01*
X76637382Y-73616391D01*
X76647580Y-73633635D01*
X76656136Y-73651100D01*
X76663514Y-73669732D01*
X76663515Y-73669733D01*
X76689180Y-73705059D01*
X76695593Y-73714822D01*
X76717826Y-73752416D01*
X76717829Y-73752419D01*
X76717830Y-73752420D01*
X76731995Y-73766585D01*
X76744627Y-73781375D01*
X76756406Y-73797587D01*
X76790058Y-73825426D01*
X76798699Y-73833289D01*
X77301177Y-74335767D01*
X77333271Y-74391354D01*
X77333271Y-74455541D01*
X77279936Y-74654592D01*
X77259340Y-74889999D01*
X77279936Y-75125407D01*
X77341097Y-75353663D01*
X77440965Y-75567829D01*
X77576505Y-75761401D01*
X77723705Y-75908601D01*
X77753150Y-75955571D01*
X77759186Y-76010678D01*
X77740604Y-76062907D01*
X77701121Y-76101821D01*
X77546341Y-76197289D01*
X77422288Y-76321342D01*
X77330186Y-76470665D01*
X77275000Y-76637202D01*
X77264500Y-76739990D01*
X77264500Y-78040008D01*
X77275000Y-78142796D01*
X77330186Y-78309334D01*
X77422288Y-78458657D01*
X77546342Y-78582711D01*
X77546344Y-78582712D01*
X77695666Y-78674814D01*
X77807017Y-78711712D01*
X77862202Y-78729999D01*
X77872702Y-78731071D01*
X77964991Y-78740500D01*
X79515008Y-78740499D01*
X79617797Y-78729999D01*
X79784334Y-78674814D01*
X79933656Y-78582712D01*
X80057712Y-78458656D01*
X80149814Y-78309334D01*
X80204999Y-78142797D01*
X80215500Y-78040009D01*
X80215499Y-76739992D01*
X80204999Y-76637203D01*
X80149814Y-76470666D01*
X80057712Y-76321344D01*
X80057711Y-76321342D01*
X79933657Y-76197288D01*
X79778879Y-76101821D01*
X79739395Y-76062908D01*
X79720813Y-76010678D01*
X79726849Y-75955571D01*
X79756290Y-75908605D01*
X79903495Y-75761401D01*
X80039035Y-75567830D01*
X80138903Y-75353663D01*
X80200063Y-75125408D01*
X80220659Y-74890000D01*
X80219374Y-74875318D01*
X80200063Y-74654592D01*
X80196153Y-74640000D01*
X80138903Y-74426337D01*
X80039035Y-74212171D01*
X79903495Y-74018599D01*
X79736401Y-73851505D01*
X79578966Y-73741268D01*
X79540102Y-73696951D01*
X79526091Y-73639694D01*
X79540102Y-73582437D01*
X79578968Y-73538119D01*
X79736078Y-73428109D01*
X79903106Y-73261081D01*
X80038600Y-73067576D01*
X80138430Y-72853492D01*
X80195636Y-72640000D01*
X78614000Y-72640000D01*
X78552000Y-72623387D01*
X78506613Y-72578000D01*
X78490000Y-72516000D01*
X78490000Y-72264000D01*
X78506613Y-72202000D01*
X78552000Y-72156613D01*
X78614000Y-72140000D01*
X80195636Y-72140000D01*
X80195635Y-72139999D01*
X80138430Y-71926507D01*
X80038599Y-71712421D01*
X79903109Y-71518921D01*
X79736078Y-71351890D01*
X79578967Y-71241880D01*
X79540101Y-71197562D01*
X79526090Y-71140305D01*
X79540101Y-71083048D01*
X79578964Y-71038732D01*
X79736401Y-70928495D01*
X79903495Y-70761401D01*
X80039035Y-70567830D01*
X80138903Y-70353663D01*
X80200063Y-70125408D01*
X80220659Y-69890000D01*
X80200063Y-69654592D01*
X80138903Y-69426337D01*
X80039035Y-69212171D01*
X79903495Y-69018599D01*
X79736401Y-68851505D01*
X79542829Y-68715965D01*
X79328663Y-68616097D01*
X79100407Y-68554936D01*
X78923968Y-68539500D01*
X78923966Y-68539500D01*
X78556034Y-68539500D01*
X78556032Y-68539500D01*
X78379592Y-68554936D01*
X78151336Y-68616097D01*
X78017905Y-68678318D01*
X77957390Y-68689671D01*
X77898875Y-68670517D01*
X77856786Y-68625579D01*
X77841500Y-68565936D01*
X77841500Y-68382452D01*
X77850939Y-68334999D01*
X77877819Y-68294771D01*
X78758031Y-67414559D01*
X81409786Y-64762802D01*
X81425887Y-64749904D01*
X81427874Y-64747787D01*
X81427877Y-64747786D01*
X81473932Y-64698741D01*
X81476613Y-64695976D01*
X81496120Y-64676470D01*
X81498581Y-64673295D01*
X81506152Y-64664431D01*
X81536062Y-64632582D01*
X81545713Y-64615026D01*
X81556393Y-64598767D01*
X81568674Y-64582936D01*
X81586018Y-64542851D01*
X81591160Y-64532356D01*
X81612197Y-64494092D01*
X81617178Y-64474688D01*
X81623480Y-64456283D01*
X81631438Y-64437895D01*
X81638270Y-64394748D01*
X81640639Y-64383316D01*
X81651500Y-64341020D01*
X81651500Y-64320984D01*
X81653027Y-64301585D01*
X81656160Y-64281804D01*
X81652050Y-64238325D01*
X81651500Y-64226656D01*
X81651500Y-62018740D01*
X81653763Y-61998236D01*
X81651561Y-61928144D01*
X81651500Y-61924250D01*
X81651500Y-61896657D01*
X81651500Y-61896650D01*
X81650995Y-61892653D01*
X81650080Y-61881023D01*
X81648709Y-61837373D01*
X81643120Y-61818140D01*
X81639174Y-61799082D01*
X81636664Y-61779208D01*
X81620588Y-61738606D01*
X81616804Y-61727552D01*
X81604619Y-61685613D01*
X81604618Y-61685612D01*
X81604618Y-61685610D01*
X81594417Y-61668361D01*
X81585860Y-61650895D01*
X81578486Y-61632268D01*
X81552813Y-61596932D01*
X81546402Y-61587172D01*
X81524169Y-61549578D01*
X81510006Y-61535415D01*
X81497369Y-61520620D01*
X81485595Y-61504414D01*
X81485594Y-61504413D01*
X81451935Y-61476568D01*
X81443305Y-61468714D01*
X80461772Y-60487181D01*
X80431522Y-60437818D01*
X80426980Y-60380102D01*
X80449135Y-60326615D01*
X80493158Y-60289015D01*
X80549453Y-60275500D01*
X83777256Y-60275500D01*
X83797762Y-60277764D01*
X83800665Y-60277672D01*
X83800667Y-60277673D01*
X83867872Y-60275561D01*
X83871768Y-60275500D01*
X83899349Y-60275500D01*
X83899350Y-60275500D01*
X83903319Y-60274998D01*
X83914965Y-60274080D01*
X83958627Y-60272709D01*
X83977859Y-60267120D01*
X83996918Y-60263174D01*
X84003196Y-60262381D01*
X84016792Y-60260664D01*
X84057407Y-60244582D01*
X84068444Y-60240803D01*
X84110390Y-60228618D01*
X84127629Y-60218422D01*
X84145102Y-60209862D01*
X84163732Y-60202486D01*
X84199064Y-60176814D01*
X84208830Y-60170400D01*
X84246418Y-60148171D01*
X84246417Y-60148171D01*
X84246420Y-60148170D01*
X84260585Y-60134004D01*
X84275373Y-60121373D01*
X84291587Y-60109594D01*
X84319438Y-60075926D01*
X84327279Y-60067309D01*
X86062193Y-58332395D01*
X86123034Y-58299017D01*
X86192283Y-58303556D01*
X86248249Y-58344591D01*
X86273401Y-58409270D01*
X86294936Y-58655407D01*
X86333995Y-58801175D01*
X86356097Y-58883663D01*
X86455965Y-59097830D01*
X86591505Y-59291401D01*
X86758599Y-59458495D01*
X86944160Y-59588426D01*
X86983024Y-59632743D01*
X86997035Y-59690000D01*
X86983024Y-59747257D01*
X86944158Y-59791575D01*
X86768464Y-59914598D01*
X86758595Y-59921508D01*
X86591505Y-60088598D01*
X86455965Y-60282170D01*
X86356097Y-60496336D01*
X86294936Y-60724592D01*
X86274340Y-60960000D01*
X86294936Y-61195407D01*
X86326299Y-61312454D01*
X86356097Y-61423663D01*
X86455965Y-61637830D01*
X86591505Y-61831401D01*
X86758599Y-61998495D01*
X86944160Y-62128426D01*
X86983024Y-62172743D01*
X86997035Y-62230000D01*
X86983024Y-62287257D01*
X86944159Y-62331575D01*
X86758595Y-62461508D01*
X86591505Y-62628598D01*
X86455965Y-62822170D01*
X86356097Y-63036336D01*
X86294936Y-63264592D01*
X86274340Y-63500000D01*
X86294936Y-63735405D01*
X86321856Y-63835871D01*
X86321856Y-63900058D01*
X86289762Y-63955646D01*
X81150208Y-69095199D01*
X81134110Y-69108096D01*
X81086096Y-69159225D01*
X81083391Y-69162017D01*
X81063874Y-69181534D01*
X81061415Y-69184705D01*
X81053842Y-69193572D01*
X81023935Y-69225420D01*
X81014285Y-69242974D01*
X81003609Y-69259228D01*
X80991326Y-69275063D01*
X80973975Y-69315158D01*
X80968838Y-69325644D01*
X80947802Y-69363907D01*
X80942821Y-69383309D01*
X80936520Y-69401711D01*
X80928561Y-69420102D01*
X80921728Y-69463242D01*
X80919360Y-69474674D01*
X80908500Y-69516978D01*
X80908500Y-69537016D01*
X80906973Y-69556415D01*
X80903840Y-69576194D01*
X80907950Y-69619675D01*
X80908500Y-69631344D01*
X80908500Y-90233313D01*
X80900264Y-90277751D01*
X80876652Y-90316282D01*
X80843545Y-90353051D01*
X80801464Y-90399786D01*
X80706820Y-90563715D01*
X80648326Y-90743742D01*
X80628540Y-90931999D01*
X80648326Y-91120257D01*
X80706820Y-91300284D01*
X80801466Y-91464216D01*
X80928129Y-91604889D01*
X81081269Y-91716151D01*
X81254194Y-91793143D01*
X81254195Y-91793143D01*
X81254197Y-91793144D01*
X81294270Y-91801661D01*
X81348192Y-91827959D01*
X81383458Y-91876496D01*
X81391810Y-91935909D01*
X81390539Y-91947996D01*
X81410326Y-92136257D01*
X81468820Y-92316284D01*
X81563466Y-92480216D01*
X81690129Y-92620889D01*
X81843269Y-92732151D01*
X82016194Y-92809143D01*
X82016195Y-92809143D01*
X82016197Y-92809144D01*
X82056270Y-92817661D01*
X82110192Y-92843959D01*
X82145458Y-92892496D01*
X82153810Y-92951909D01*
X82152539Y-92963996D01*
X82172326Y-93152257D01*
X82223477Y-93309682D01*
X82228019Y-93367398D01*
X82205864Y-93420885D01*
X82161841Y-93458485D01*
X82105546Y-93472000D01*
X74292000Y-93472000D01*
X74230000Y-93455387D01*
X74184613Y-93410000D01*
X74168000Y-93348000D01*
X74168000Y-86610000D01*
X77390000Y-86610000D01*
X77390000Y-87257824D01*
X77396402Y-87317375D01*
X77446647Y-87452089D01*
X77532811Y-87567188D01*
X77647910Y-87653352D01*
X77782624Y-87703597D01*
X77842176Y-87710000D01*
X78490000Y-87710000D01*
X78490000Y-86610000D01*
X78990000Y-86610000D01*
X78990000Y-87710000D01*
X79637824Y-87710000D01*
X79697375Y-87703597D01*
X79832089Y-87653352D01*
X79947188Y-87567188D01*
X80033352Y-87452089D01*
X80083597Y-87317375D01*
X80090000Y-87257824D01*
X80090000Y-86610000D01*
X78990000Y-86610000D01*
X78490000Y-86610000D01*
X77390000Y-86610000D01*
X74168000Y-86610000D01*
X74168000Y-86110000D01*
X77390000Y-86110000D01*
X78490000Y-86110000D01*
X78490000Y-85010000D01*
X78990000Y-85010000D01*
X78990000Y-86110000D01*
X80090000Y-86110000D01*
X80090000Y-85462176D01*
X80083597Y-85402624D01*
X80033352Y-85267910D01*
X79947188Y-85152811D01*
X79832089Y-85066647D01*
X79697375Y-85016402D01*
X79637824Y-85010000D01*
X78990000Y-85010000D01*
X78490000Y-85010000D01*
X77842176Y-85010000D01*
X77782624Y-85016402D01*
X77647910Y-85066647D01*
X77532811Y-85152811D01*
X77446647Y-85267910D01*
X77396402Y-85402624D01*
X77390000Y-85462176D01*
X77390000Y-86110000D01*
X74168000Y-86110000D01*
X74168000Y-39160000D01*
X77284364Y-39160000D01*
X78490000Y-39160000D01*
X78490000Y-38065779D01*
X78489999Y-38065778D01*
X78990000Y-38065778D01*
X78990000Y-39160000D01*
X80195636Y-39160000D01*
X80195635Y-39159999D01*
X80138430Y-38946507D01*
X80038599Y-38732421D01*
X79903109Y-38538921D01*
X79736078Y-38371890D01*
X79542578Y-38236400D01*
X79328492Y-38136569D01*
X79100318Y-38075430D01*
X78990000Y-38065778D01*
X78489999Y-38065778D01*
X78379681Y-38075430D01*
X78151507Y-38136569D01*
X77937421Y-38236400D01*
X77743921Y-38371890D01*
X77576893Y-38538918D01*
X77441399Y-38732423D01*
X77341569Y-38946507D01*
X77284364Y-39159999D01*
X77284364Y-39160000D01*
X74168000Y-39160000D01*
X74168000Y-34540000D01*
X86950001Y-34540000D01*
X86950001Y-34814979D01*
X86960493Y-34917695D01*
X87015642Y-35084122D01*
X87107683Y-35233345D01*
X87231654Y-35357316D01*
X87380877Y-35449357D01*
X87547303Y-35504506D01*
X87650021Y-35515000D01*
X87700000Y-35515000D01*
X87700000Y-34540000D01*
X86950001Y-34540000D01*
X74168000Y-34540000D01*
X74168000Y-31500000D01*
X86950000Y-31500000D01*
X87700000Y-31500000D01*
X87700000Y-30525001D01*
X87650021Y-30525001D01*
X87547304Y-30535493D01*
X87380877Y-30590642D01*
X87231654Y-30682683D01*
X87107683Y-30806654D01*
X87015642Y-30955877D01*
X86960493Y-31122303D01*
X86950000Y-31225021D01*
X86950000Y-31500000D01*
X74168000Y-31500000D01*
X74168000Y-29588000D01*
X74184613Y-29526000D01*
X74230000Y-29480613D01*
X74292000Y-29464000D01*
X91531729Y-29464000D01*
X91589204Y-29478124D01*
G37*
%TD.AperFunction*%
%TA.AperFunction,Conductor*%
G36*
X112742136Y-55566101D02*
G01*
X112780633Y-55607203D01*
X112805467Y-55650216D01*
X112880652Y-55733717D01*
X112904264Y-55772249D01*
X112912500Y-55816687D01*
X112912500Y-66221548D01*
X112903061Y-66269001D01*
X112876181Y-66309229D01*
X111208374Y-67977033D01*
X111156256Y-68008143D01*
X111095618Y-68010790D01*
X111040987Y-67984341D01*
X111005454Y-67935133D01*
X110997532Y-67874955D01*
X111019119Y-67818228D01*
X111103599Y-67697580D01*
X111203430Y-67483492D01*
X111264569Y-67255318D01*
X111285157Y-67020000D01*
X111264569Y-66784681D01*
X111203430Y-66556507D01*
X111103599Y-66342421D01*
X111044926Y-66258626D01*
X111044925Y-66258625D01*
X109930000Y-67373553D01*
X109168625Y-68134925D01*
X109252420Y-68193599D01*
X109466507Y-68293430D01*
X109694681Y-68354569D01*
X109930000Y-68375157D01*
X110165318Y-68354569D01*
X110393492Y-68293430D01*
X110607580Y-68193599D01*
X110728227Y-68109120D01*
X110784955Y-68087533D01*
X110845132Y-68095455D01*
X110894340Y-68130988D01*
X110920789Y-68185619D01*
X110918142Y-68246257D01*
X110887032Y-68298375D01*
X110385646Y-68799761D01*
X110330059Y-68831855D01*
X110265873Y-68831855D01*
X110165408Y-68804936D01*
X109929999Y-68784340D01*
X109694592Y-68804936D01*
X109466336Y-68866097D01*
X109252170Y-68965965D01*
X109058598Y-69101505D01*
X108891505Y-69268598D01*
X108755965Y-69462170D01*
X108656097Y-69676336D01*
X108594936Y-69904592D01*
X108574340Y-70140000D01*
X108594936Y-70375407D01*
X108613444Y-70444478D01*
X108656097Y-70603663D01*
X108755965Y-70817830D01*
X108891505Y-71011401D01*
X109058599Y-71178495D01*
X109252170Y-71314035D01*
X109336987Y-71353586D01*
X109381219Y-71388268D01*
X109405595Y-71438917D01*
X109405104Y-71495124D01*
X109379849Y-71545340D01*
X109335018Y-71579246D01*
X109275268Y-71605849D01*
X109122129Y-71717110D01*
X108995466Y-71857783D01*
X108900820Y-72021715D01*
X108842326Y-72201742D01*
X108822540Y-72390000D01*
X108842326Y-72578257D01*
X108900820Y-72758284D01*
X108995466Y-72922216D01*
X109122129Y-73062889D01*
X109275265Y-73174149D01*
X109335623Y-73201022D01*
X109380454Y-73234929D01*
X109405710Y-73285144D01*
X109406201Y-73341352D01*
X109381825Y-73392001D01*
X109337592Y-73426684D01*
X109252422Y-73466399D01*
X109168625Y-73525072D01*
X109930000Y-74286447D01*
X109930001Y-74286447D01*
X110691373Y-73525073D01*
X110691373Y-73525072D01*
X110607580Y-73466400D01*
X110393492Y-73366569D01*
X110295684Y-73340361D01*
X110236721Y-73304757D01*
X110205854Y-73243183D01*
X110212606Y-73174636D01*
X110254891Y-73120269D01*
X110333871Y-73062888D01*
X110339598Y-73056526D01*
X110381312Y-73026220D01*
X110431747Y-73015500D01*
X111677256Y-73015500D01*
X111697762Y-73017764D01*
X111700665Y-73017672D01*
X111700667Y-73017673D01*
X111767872Y-73015561D01*
X111771768Y-73015500D01*
X111799349Y-73015500D01*
X111799350Y-73015500D01*
X111803319Y-73014998D01*
X111814965Y-73014080D01*
X111858627Y-73012709D01*
X111877859Y-73007120D01*
X111896918Y-73003174D01*
X111903196Y-73002381D01*
X111916792Y-73000664D01*
X111957407Y-72984582D01*
X111968444Y-72980803D01*
X112010390Y-72968618D01*
X112027629Y-72958422D01*
X112045102Y-72949862D01*
X112063732Y-72942486D01*
X112099064Y-72916814D01*
X112108830Y-72910400D01*
X112146418Y-72888171D01*
X112146417Y-72888171D01*
X112146420Y-72888170D01*
X112160585Y-72874004D01*
X112175373Y-72861373D01*
X112191587Y-72849594D01*
X112219438Y-72815926D01*
X112227279Y-72807309D01*
X114002194Y-71032394D01*
X114063034Y-70999016D01*
X114132283Y-71003555D01*
X114188249Y-71044590D01*
X114213401Y-71109269D01*
X114234936Y-71355407D01*
X114266998Y-71475063D01*
X114296097Y-71583663D01*
X114395965Y-71797830D01*
X114531505Y-71991401D01*
X114698599Y-72158495D01*
X114884160Y-72288426D01*
X114923024Y-72332743D01*
X114937035Y-72390000D01*
X114923024Y-72447257D01*
X114884159Y-72491575D01*
X114698595Y-72621508D01*
X114531505Y-72788598D01*
X114395965Y-72982170D01*
X114296097Y-73196336D01*
X114234936Y-73424592D01*
X114214340Y-73660000D01*
X114234936Y-73895407D01*
X114271760Y-74032834D01*
X114296097Y-74123663D01*
X114395965Y-74337830D01*
X114531505Y-74531401D01*
X114698599Y-74698495D01*
X114884160Y-74828426D01*
X114923024Y-74872743D01*
X114937035Y-74930000D01*
X114923024Y-74987257D01*
X114884158Y-75031575D01*
X114711073Y-75152771D01*
X114698595Y-75161508D01*
X114531505Y-75328598D01*
X114395965Y-75522170D01*
X114296097Y-75736336D01*
X114234936Y-75964592D01*
X114214340Y-76199999D01*
X114234936Y-76435407D01*
X114244384Y-76470666D01*
X114296097Y-76663663D01*
X114395965Y-76877830D01*
X114531505Y-77071401D01*
X114698599Y-77238495D01*
X114884160Y-77368426D01*
X114923024Y-77412743D01*
X114937035Y-77470000D01*
X114923024Y-77527257D01*
X114884159Y-77571575D01*
X114698595Y-77701508D01*
X114531505Y-77868598D01*
X114395965Y-78062170D01*
X114296097Y-78276336D01*
X114234936Y-78504592D01*
X114214340Y-78740000D01*
X114234936Y-78975407D01*
X114279709Y-79142501D01*
X114296097Y-79203663D01*
X114395965Y-79417830D01*
X114531505Y-79611401D01*
X114698599Y-79778495D01*
X114884160Y-79908426D01*
X114923024Y-79952743D01*
X114937035Y-80010000D01*
X114923024Y-80067257D01*
X114884158Y-80111575D01*
X114720873Y-80225909D01*
X114698595Y-80241508D01*
X114531505Y-80408598D01*
X114395965Y-80602170D01*
X114296097Y-80816336D01*
X114234936Y-81044592D01*
X114214340Y-81279999D01*
X114234936Y-81515407D01*
X114265505Y-81629491D01*
X114296097Y-81743663D01*
X114395965Y-81957830D01*
X114531505Y-82151401D01*
X114698599Y-82318495D01*
X114884160Y-82448426D01*
X114923024Y-82492743D01*
X114937035Y-82550000D01*
X114923024Y-82607257D01*
X114884158Y-82651575D01*
X114704255Y-82777545D01*
X114698595Y-82781508D01*
X114531505Y-82948598D01*
X114395965Y-83142170D01*
X114296097Y-83356336D01*
X114234936Y-83584592D01*
X114214340Y-83820000D01*
X114234936Y-84055407D01*
X114263859Y-84163347D01*
X114296097Y-84283663D01*
X114395965Y-84497830D01*
X114531505Y-84691401D01*
X114698599Y-84858495D01*
X114884160Y-84988426D01*
X114923024Y-85032743D01*
X114937035Y-85090000D01*
X114923024Y-85147257D01*
X114884159Y-85191575D01*
X114698595Y-85321508D01*
X114531505Y-85488598D01*
X114395965Y-85682170D01*
X114296097Y-85896336D01*
X114234936Y-86124592D01*
X114214340Y-86360000D01*
X114234936Y-86595407D01*
X114271536Y-86732000D01*
X114296097Y-86823663D01*
X114395965Y-87037830D01*
X114531505Y-87231401D01*
X114531508Y-87231404D01*
X114637923Y-87337819D01*
X114668173Y-87387182D01*
X114672715Y-87444898D01*
X114650560Y-87498385D01*
X114606537Y-87535985D01*
X114550242Y-87549500D01*
X114148758Y-87549500D01*
X114101305Y-87540061D01*
X114061077Y-87513181D01*
X109170074Y-82622178D01*
X109137980Y-82566589D01*
X109133346Y-82549295D01*
X109040581Y-82350357D01*
X109017226Y-82317003D01*
X108914674Y-82170543D01*
X108759457Y-82015326D01*
X108579646Y-81889421D01*
X108487921Y-81846649D01*
X108380704Y-81796653D01*
X108168671Y-81739838D01*
X107950000Y-81720707D01*
X107731325Y-81739838D01*
X107692509Y-81750239D01*
X107628323Y-81750239D01*
X107572736Y-81718145D01*
X106325819Y-80471228D01*
X106298939Y-80431000D01*
X106289500Y-80383547D01*
X106289500Y-75754925D01*
X109168625Y-75754925D01*
X109252420Y-75813599D01*
X109466507Y-75913430D01*
X109694681Y-75974569D01*
X109930000Y-75995157D01*
X110165318Y-75974569D01*
X110393492Y-75913430D01*
X110607576Y-75813600D01*
X110691373Y-75754925D01*
X109930000Y-74993553D01*
X109168625Y-75754925D01*
X106289500Y-75754925D01*
X106289500Y-75266744D01*
X106291764Y-75246236D01*
X106291582Y-75240453D01*
X106289561Y-75176113D01*
X106289500Y-75172219D01*
X106289500Y-75144654D01*
X106289500Y-75144650D01*
X106288997Y-75140670D01*
X106288081Y-75129028D01*
X106286710Y-75085373D01*
X106281118Y-75066126D01*
X106277174Y-75047085D01*
X106274664Y-75027208D01*
X106258579Y-74986583D01*
X106254808Y-74975568D01*
X106242618Y-74933610D01*
X106232414Y-74916355D01*
X106223861Y-74898895D01*
X106216486Y-74880268D01*
X106190808Y-74844925D01*
X106184401Y-74835171D01*
X106181038Y-74829484D01*
X106162170Y-74797580D01*
X106148006Y-74783416D01*
X106135367Y-74768617D01*
X106123595Y-74752413D01*
X106089941Y-74724573D01*
X106081299Y-74716709D01*
X106004590Y-74640000D01*
X108574842Y-74640000D01*
X108595430Y-74875318D01*
X108656569Y-75103492D01*
X108756400Y-75317580D01*
X108815073Y-75401373D01*
X109576447Y-74640001D01*
X110283553Y-74640001D01*
X111044925Y-75401373D01*
X111103600Y-75317576D01*
X111203430Y-75103492D01*
X111264569Y-74875318D01*
X111285157Y-74640000D01*
X111264569Y-74404681D01*
X111203430Y-74176507D01*
X111103599Y-73962421D01*
X111044926Y-73878626D01*
X111044925Y-73878625D01*
X110283553Y-74640000D01*
X110283553Y-74640001D01*
X109576447Y-74640001D01*
X109576447Y-74640000D01*
X108815072Y-73878625D01*
X108756399Y-73962422D01*
X108656569Y-74176507D01*
X108595430Y-74404681D01*
X108574842Y-74640000D01*
X106004590Y-74640000D01*
X103066771Y-71702180D01*
X103036521Y-71652817D01*
X103031979Y-71595101D01*
X103054134Y-71541614D01*
X103098157Y-71504014D01*
X103154452Y-71490499D01*
X104327870Y-71490499D01*
X104327872Y-71490499D01*
X104387483Y-71484091D01*
X104522331Y-71433796D01*
X104637546Y-71347546D01*
X104723796Y-71232331D01*
X104774091Y-71097483D01*
X104780500Y-71037873D01*
X104780499Y-69242128D01*
X104774091Y-69182517D01*
X104723796Y-69047669D01*
X104637546Y-68932454D01*
X104522331Y-68846204D01*
X104387483Y-68795909D01*
X104327873Y-68789500D01*
X104327869Y-68789500D01*
X102532130Y-68789500D01*
X102472515Y-68795909D01*
X102337669Y-68846204D01*
X102222454Y-68932454D01*
X102136204Y-69047668D01*
X102085909Y-69182515D01*
X102085909Y-69182517D01*
X102081297Y-69225420D01*
X102079500Y-69242131D01*
X102079500Y-70415547D01*
X102065985Y-70471842D01*
X102028385Y-70515865D01*
X101974898Y-70538020D01*
X101917182Y-70533478D01*
X101867819Y-70503228D01*
X101611819Y-70247228D01*
X101584939Y-70207000D01*
X101575500Y-70159547D01*
X101575500Y-68134925D01*
X102668625Y-68134925D01*
X102752420Y-68193599D01*
X102966507Y-68293430D01*
X103194681Y-68354569D01*
X103430000Y-68375157D01*
X103665318Y-68354569D01*
X103893492Y-68293430D01*
X104107576Y-68193600D01*
X104191373Y-68134925D01*
X103430000Y-67373553D01*
X102668625Y-68134925D01*
X101575500Y-68134925D01*
X101575500Y-67020000D01*
X102074842Y-67020000D01*
X102095430Y-67255318D01*
X102156569Y-67483492D01*
X102256400Y-67697580D01*
X102315073Y-67781373D01*
X103076447Y-67020001D01*
X103783553Y-67020001D01*
X104544925Y-67781373D01*
X104603600Y-67697576D01*
X104703430Y-67483492D01*
X104764569Y-67255318D01*
X104785157Y-67020000D01*
X108574842Y-67020000D01*
X108595430Y-67255318D01*
X108656569Y-67483492D01*
X108756400Y-67697580D01*
X108815073Y-67781373D01*
X109576447Y-67020001D01*
X109576447Y-67020000D01*
X108815072Y-66258625D01*
X108756399Y-66342422D01*
X108656569Y-66556507D01*
X108595430Y-66784681D01*
X108574842Y-67020000D01*
X104785157Y-67020000D01*
X104764569Y-66784681D01*
X104703430Y-66556507D01*
X104603599Y-66342421D01*
X104544926Y-66258626D01*
X104544925Y-66258625D01*
X103783553Y-67020000D01*
X103783553Y-67020001D01*
X103076447Y-67020001D01*
X103076447Y-67020000D01*
X102315072Y-66258625D01*
X102256399Y-66342422D01*
X102156569Y-66556507D01*
X102095430Y-66784681D01*
X102074842Y-67020000D01*
X101575500Y-67020000D01*
X101575500Y-65905072D01*
X102668625Y-65905072D01*
X103430000Y-66666447D01*
X103430001Y-66666447D01*
X104191373Y-65905073D01*
X104191373Y-65905072D01*
X109168625Y-65905072D01*
X109930000Y-66666447D01*
X109930001Y-66666447D01*
X110691373Y-65905073D01*
X110691373Y-65905072D01*
X110607580Y-65846400D01*
X110393492Y-65746569D01*
X110165318Y-65685430D01*
X109930000Y-65664842D01*
X109694681Y-65685430D01*
X109466507Y-65746569D01*
X109252422Y-65846399D01*
X109168625Y-65905072D01*
X104191373Y-65905072D01*
X104107580Y-65846400D01*
X103893492Y-65746569D01*
X103665318Y-65685430D01*
X103430000Y-65664842D01*
X103194681Y-65685430D01*
X102966507Y-65746569D01*
X102752422Y-65846399D01*
X102668625Y-65905072D01*
X101575500Y-65905072D01*
X101575500Y-65795993D01*
X101577764Y-65775485D01*
X101576911Y-65748348D01*
X101575561Y-65705362D01*
X101575500Y-65701468D01*
X101575500Y-65673903D01*
X101575500Y-65673899D01*
X101574997Y-65669919D01*
X101574081Y-65658277D01*
X101574059Y-65657569D01*
X101572710Y-65614622D01*
X101567118Y-65595375D01*
X101563174Y-65576334D01*
X101560664Y-65556457D01*
X101544579Y-65515832D01*
X101540808Y-65504817D01*
X101528618Y-65462859D01*
X101518414Y-65445604D01*
X101509861Y-65428144D01*
X101508694Y-65425197D01*
X101502486Y-65409517D01*
X101476808Y-65374174D01*
X101470401Y-65364420D01*
X101448169Y-65326828D01*
X101434006Y-65312665D01*
X101421367Y-65297866D01*
X101409595Y-65281662D01*
X101375941Y-65253822D01*
X101367299Y-65245958D01*
X101093523Y-64972181D01*
X101063273Y-64922818D01*
X101058731Y-64865102D01*
X101080886Y-64811615D01*
X101124909Y-64774015D01*
X101181204Y-64760500D01*
X105889416Y-64760500D01*
X105927735Y-64766569D01*
X105962302Y-64784182D01*
X105973270Y-64792151D01*
X105973271Y-64792151D01*
X105973272Y-64792152D01*
X106146197Y-64869144D01*
X106331352Y-64908500D01*
X106331354Y-64908500D01*
X106520646Y-64908500D01*
X106520648Y-64908500D01*
X106644083Y-64882262D01*
X106705803Y-64869144D01*
X106878730Y-64792151D01*
X106936878Y-64749904D01*
X107031870Y-64680889D01*
X107042860Y-64668684D01*
X107158533Y-64540216D01*
X107253179Y-64376284D01*
X107311674Y-64196256D01*
X107331460Y-64008000D01*
X107311674Y-63819744D01*
X107281332Y-63726363D01*
X107253179Y-63639715D01*
X107158535Y-63475786D01*
X107121642Y-63434813D01*
X107047500Y-63352470D01*
X107020220Y-63302846D01*
X107017848Y-63246265D01*
X107040882Y-63194530D01*
X107084517Y-63158432D01*
X107139652Y-63145500D01*
X108654773Y-63145500D01*
X108712030Y-63159511D01*
X108756346Y-63198374D01*
X108891505Y-63391401D01*
X109058599Y-63558495D01*
X109252170Y-63694035D01*
X109466337Y-63793903D01*
X109694592Y-63855063D01*
X109930000Y-63875659D01*
X110165408Y-63855063D01*
X110393663Y-63793903D01*
X110607830Y-63694035D01*
X110801401Y-63558495D01*
X110968495Y-63391401D01*
X111104035Y-63197830D01*
X111203903Y-62983663D01*
X111265063Y-62755408D01*
X111285659Y-62520000D01*
X111265063Y-62284592D01*
X111203903Y-62056337D01*
X111104035Y-61842171D01*
X110968495Y-61648599D01*
X110801401Y-61481505D01*
X110607830Y-61345965D01*
X110393663Y-61246097D01*
X110332502Y-61229709D01*
X110165407Y-61184936D01*
X109930000Y-61164340D01*
X109694592Y-61184936D01*
X109466336Y-61246097D01*
X109252170Y-61345965D01*
X109058598Y-61481505D01*
X108891505Y-61648598D01*
X108806149Y-61770500D01*
X108772788Y-61818146D01*
X108756349Y-61841623D01*
X108712031Y-61880489D01*
X108654774Y-61894500D01*
X104904499Y-61894500D01*
X104842499Y-61877887D01*
X104797112Y-61832500D01*
X104780499Y-61770500D01*
X104780499Y-61622130D01*
X104777282Y-61592206D01*
X104774091Y-61562517D01*
X104723796Y-61427669D01*
X104637546Y-61312454D01*
X104522331Y-61226204D01*
X104387483Y-61175909D01*
X104327873Y-61169500D01*
X104327869Y-61169500D01*
X104179500Y-61169500D01*
X104117500Y-61152887D01*
X104072113Y-61107500D01*
X104055500Y-61045500D01*
X104055500Y-60740524D01*
X104069015Y-60684229D01*
X104106615Y-60640206D01*
X104160102Y-60618051D01*
X104217818Y-60622593D01*
X104267181Y-60652843D01*
X104371654Y-60757316D01*
X104520877Y-60849357D01*
X104687303Y-60904506D01*
X104790021Y-60915000D01*
X104840000Y-60915000D01*
X104840000Y-59940000D01*
X105340000Y-59940000D01*
X105340000Y-60914999D01*
X105389979Y-60914999D01*
X105492695Y-60904506D01*
X105659122Y-60849357D01*
X105808345Y-60757316D01*
X105932316Y-60633345D01*
X106024357Y-60484122D01*
X106079506Y-60317696D01*
X106090000Y-60214979D01*
X106090000Y-59940000D01*
X105340000Y-59940000D01*
X104840000Y-59940000D01*
X104840000Y-59564000D01*
X104856613Y-59502000D01*
X104902000Y-59456613D01*
X104964000Y-59440000D01*
X106089999Y-59440000D01*
X106089999Y-59169500D01*
X106106612Y-59107500D01*
X106151999Y-59062113D01*
X106213999Y-59045500D01*
X106954756Y-59045500D01*
X106975262Y-59047764D01*
X106978165Y-59047672D01*
X106978167Y-59047673D01*
X107045372Y-59045561D01*
X107049268Y-59045500D01*
X107076849Y-59045500D01*
X107076850Y-59045500D01*
X107080819Y-59044998D01*
X107092465Y-59044080D01*
X107136127Y-59042709D01*
X107155359Y-59037120D01*
X107174418Y-59033174D01*
X107180696Y-59032381D01*
X107194292Y-59030664D01*
X107234907Y-59014582D01*
X107245944Y-59010803D01*
X107287890Y-58998618D01*
X107305129Y-58988422D01*
X107322602Y-58979862D01*
X107341232Y-58972486D01*
X107376564Y-58946814D01*
X107386330Y-58940400D01*
X107423918Y-58918171D01*
X107423917Y-58918171D01*
X107423920Y-58918170D01*
X107438085Y-58904004D01*
X107452873Y-58891373D01*
X107469087Y-58879594D01*
X107496938Y-58845926D01*
X107504779Y-58837309D01*
X107955273Y-58386815D01*
X107995498Y-58359938D01*
X108042946Y-58350499D01*
X108620008Y-58350499D01*
X108620009Y-58350499D01*
X108677844Y-58344591D01*
X108722797Y-58339999D01*
X108889334Y-58284814D01*
X109038656Y-58192712D01*
X109132320Y-58099047D01*
X109187906Y-58066955D01*
X109252094Y-58066955D01*
X109307679Y-58099047D01*
X109354782Y-58146150D01*
X109401345Y-58192713D01*
X109472200Y-58236416D01*
X109550666Y-58284814D01*
X109641571Y-58314937D01*
X109717202Y-58339999D01*
X109724309Y-58340725D01*
X109819991Y-58350500D01*
X110445008Y-58350499D01*
X110547797Y-58339999D01*
X110714334Y-58284814D01*
X110863656Y-58192712D01*
X110987712Y-58068656D01*
X111079814Y-57919334D01*
X111134999Y-57752797D01*
X111145500Y-57650009D01*
X111145499Y-57072950D01*
X111154938Y-57025498D01*
X111181815Y-56985273D01*
X112585567Y-55581521D01*
X112633387Y-55551785D01*
X112689431Y-55546265D01*
X112742136Y-55566101D01*
G37*
%TD.AperFunction*%
%TA.AperFunction,Conductor*%
G36*
X95118000Y-56916613D02*
G01*
X95163387Y-56962000D01*
X95180000Y-57024000D01*
X95180000Y-58374999D01*
X95229979Y-58374999D01*
X95332695Y-58364506D01*
X95499122Y-58309357D01*
X95648342Y-58217318D01*
X95761539Y-58104121D01*
X95813690Y-58073001D01*
X95874364Y-58070378D01*
X95929007Y-58096880D01*
X95964512Y-58146150D01*
X95967514Y-58153733D01*
X95993180Y-58189059D01*
X95999593Y-58198822D01*
X96021826Y-58236416D01*
X96021829Y-58236419D01*
X96021830Y-58236420D01*
X96035995Y-58250585D01*
X96048627Y-58265375D01*
X96060406Y-58281587D01*
X96094058Y-58309426D01*
X96102699Y-58317289D01*
X97549206Y-59763796D01*
X97578193Y-59809471D01*
X97584975Y-59863141D01*
X97568261Y-59914591D01*
X97568256Y-59914598D01*
X97522402Y-60072427D01*
X97519500Y-60109308D01*
X97519500Y-60540692D01*
X97522402Y-60577572D01*
X97568255Y-60735397D01*
X97659893Y-60890348D01*
X97658319Y-60891278D01*
X97679467Y-60927906D01*
X97679467Y-60992094D01*
X97658319Y-61028721D01*
X97659893Y-61029652D01*
X97568255Y-61184602D01*
X97522402Y-61342427D01*
X97519500Y-61379308D01*
X97519500Y-61470500D01*
X97502887Y-61532500D01*
X97457500Y-61577887D01*
X97395500Y-61594500D01*
X95644500Y-61594500D01*
X95582500Y-61577887D01*
X95537113Y-61532500D01*
X95520500Y-61470500D01*
X95520500Y-61379308D01*
X95520500Y-61379306D01*
X95517598Y-61342431D01*
X95471744Y-61184602D01*
X95388081Y-61043135D01*
X95388080Y-61043134D01*
X95380107Y-61029652D01*
X95381569Y-61028786D01*
X95360178Y-60991733D01*
X95360182Y-60927540D01*
X95381296Y-60890979D01*
X95379709Y-60890040D01*
X95471280Y-60735200D01*
X95517099Y-60577488D01*
X95517295Y-60575000D01*
X93919000Y-60575000D01*
X93857000Y-60558387D01*
X93811613Y-60513000D01*
X93795000Y-60451000D01*
X93795000Y-59525000D01*
X94295000Y-59525000D01*
X94295000Y-60075000D01*
X95517295Y-60075000D01*
X95517295Y-60074999D01*
X95517099Y-60072511D01*
X95471280Y-59914799D01*
X95387682Y-59773442D01*
X95271557Y-59657317D01*
X95130197Y-59573717D01*
X94972493Y-59527900D01*
X94935639Y-59525000D01*
X94295000Y-59525000D01*
X93795000Y-59525000D01*
X93154361Y-59525000D01*
X93117506Y-59527900D01*
X92986095Y-59566079D01*
X92929222Y-59568985D01*
X92877048Y-59546164D01*
X92840576Y-59502428D01*
X92827500Y-59447003D01*
X92827500Y-58499500D01*
X92844113Y-58437500D01*
X92889500Y-58392113D01*
X92951500Y-58375500D01*
X93330008Y-58375499D01*
X93334903Y-58374999D01*
X93432797Y-58364999D01*
X93599334Y-58309814D01*
X93748656Y-58217712D01*
X93872712Y-58093656D01*
X93874752Y-58090347D01*
X93919856Y-58047166D01*
X93980289Y-58031440D01*
X94040723Y-58047161D01*
X94085831Y-58090343D01*
X94087682Y-58093344D01*
X94211654Y-58217316D01*
X94360877Y-58309357D01*
X94527303Y-58364506D01*
X94630021Y-58375000D01*
X94680000Y-58375000D01*
X94680000Y-57024000D01*
X94696613Y-56962000D01*
X94742000Y-56916613D01*
X94804000Y-56900000D01*
X95056000Y-56900000D01*
X95118000Y-56916613D01*
G37*
%TD.AperFunction*%
%TA.AperFunction,Conductor*%
G36*
X102128000Y-54202113D02*
G01*
X102173387Y-54247500D01*
X102190000Y-54309500D01*
X102190000Y-54360000D01*
X103316000Y-54360000D01*
X103378000Y-54376613D01*
X103423387Y-54422000D01*
X103440000Y-54484000D01*
X103440000Y-54736000D01*
X103423387Y-54798000D01*
X103378000Y-54843387D01*
X103316000Y-54860000D01*
X102190001Y-54860000D01*
X102190001Y-55134979D01*
X102200493Y-55237695D01*
X102255642Y-55404122D01*
X102347683Y-55553345D01*
X102471654Y-55677316D01*
X102620876Y-55769356D01*
X102648990Y-55778673D01*
X102700673Y-55811812D01*
X102730125Y-55865681D01*
X102730125Y-55927076D01*
X102700674Y-55980946D01*
X102648990Y-56014084D01*
X102645668Y-56015184D01*
X102496342Y-56107288D01*
X102372288Y-56231342D01*
X102280186Y-56380665D01*
X102225000Y-56547202D01*
X102214500Y-56649991D01*
X102214500Y-57227047D01*
X102205061Y-57274500D01*
X102178181Y-57314728D01*
X101216208Y-58276699D01*
X101200110Y-58289596D01*
X101152096Y-58340725D01*
X101149391Y-58343517D01*
X101129874Y-58363034D01*
X101127415Y-58366205D01*
X101119842Y-58375072D01*
X101089935Y-58406920D01*
X101080285Y-58424474D01*
X101069609Y-58440728D01*
X101057326Y-58456563D01*
X101039975Y-58496658D01*
X101034838Y-58507144D01*
X101013802Y-58545407D01*
X101008821Y-58564809D01*
X101002520Y-58583211D01*
X100994561Y-58601602D01*
X100987728Y-58644742D01*
X100985360Y-58656174D01*
X100974500Y-58698478D01*
X100974500Y-58718516D01*
X100972973Y-58737915D01*
X100969840Y-58757694D01*
X100973950Y-58801175D01*
X100974500Y-58812844D01*
X100974500Y-60326298D01*
X100965061Y-60373751D01*
X100938181Y-60413979D01*
X100679043Y-60673116D01*
X100627823Y-60703953D01*
X100568126Y-60707239D01*
X100513831Y-60682208D01*
X100477560Y-60634681D01*
X100467744Y-60575707D01*
X100470500Y-60540694D01*
X100470500Y-60109306D01*
X100467598Y-60072431D01*
X100436727Y-59966175D01*
X100421744Y-59914602D01*
X100391310Y-59863141D01*
X100338081Y-59773135D01*
X100221865Y-59656919D01*
X100210166Y-59650000D01*
X100080397Y-59573255D01*
X99922572Y-59527402D01*
X99900444Y-59525660D01*
X99885694Y-59524500D01*
X99885692Y-59524500D01*
X99809500Y-59524500D01*
X99747500Y-59507887D01*
X99702113Y-59462500D01*
X99685500Y-59400500D01*
X99685500Y-58499000D01*
X99702113Y-58437000D01*
X99725737Y-58413375D01*
X99723681Y-58411319D01*
X99760000Y-58375000D01*
X99760000Y-57400000D01*
X100260000Y-57400000D01*
X100260000Y-58374999D01*
X100309979Y-58374999D01*
X100412695Y-58364506D01*
X100579122Y-58309357D01*
X100728345Y-58217316D01*
X100852316Y-58093345D01*
X100944357Y-57944122D01*
X100999506Y-57777696D01*
X101010000Y-57674979D01*
X101010000Y-57400000D01*
X100260000Y-57400000D01*
X99760000Y-57400000D01*
X99760000Y-57024000D01*
X99776613Y-56962000D01*
X99822000Y-56916613D01*
X99884000Y-56900000D01*
X101009999Y-56900000D01*
X101009999Y-56625021D01*
X100999506Y-56522304D01*
X100944357Y-56355877D01*
X100852316Y-56206654D01*
X100728345Y-56082683D01*
X100579120Y-55990641D01*
X100551008Y-55981325D01*
X100499324Y-55948185D01*
X100469873Y-55894313D01*
X100469875Y-55832917D01*
X100499330Y-55779048D01*
X100551013Y-55745914D01*
X100554334Y-55744814D01*
X100703656Y-55652712D01*
X100827712Y-55528656D01*
X100919814Y-55379334D01*
X100974999Y-55212797D01*
X100985500Y-55110009D01*
X100985499Y-54309499D01*
X101002112Y-54247500D01*
X101047499Y-54202113D01*
X101109499Y-54185500D01*
X102066000Y-54185500D01*
X102128000Y-54202113D01*
G37*
%TD.AperFunction*%
%TA.AperFunction,Conductor*%
G36*
X104200138Y-55507163D02*
G01*
X104245246Y-55550345D01*
X104247290Y-55553659D01*
X104371342Y-55677711D01*
X104428262Y-55712819D01*
X104519923Y-55769356D01*
X104533001Y-55777422D01*
X104531502Y-55779851D01*
X104562370Y-55799637D01*
X104591828Y-55853507D01*
X104591833Y-55914905D01*
X104562382Y-55968779D01*
X104510697Y-56001920D01*
X104470667Y-56015185D01*
X104321342Y-56107288D01*
X104227681Y-56200950D01*
X104172094Y-56233044D01*
X104107906Y-56233044D01*
X104052319Y-56200950D01*
X103958657Y-56107288D01*
X103809335Y-56015186D01*
X103768509Y-56001658D01*
X103716823Y-55968516D01*
X103687372Y-55914642D01*
X103687377Y-55853243D01*
X103716837Y-55799373D01*
X103748205Y-55779266D01*
X103746787Y-55776966D01*
X103908345Y-55677316D01*
X104032313Y-55553348D01*
X104034164Y-55550348D01*
X104079271Y-55507164D01*
X104139704Y-55491440D01*
X104200138Y-55507163D01*
G37*
%TD.AperFunction*%
%TA.AperFunction,Conductor*%
G36*
X89031501Y-40399439D02*
G01*
X89071727Y-40426318D01*
X89405296Y-40759887D01*
X89718228Y-41072819D01*
X89748478Y-41122182D01*
X89753020Y-41179898D01*
X89730865Y-41233385D01*
X89686842Y-41270985D01*
X89630547Y-41284500D01*
X89013666Y-41284500D01*
X88954023Y-41269214D01*
X88909085Y-41227124D01*
X88889931Y-41168608D01*
X88901285Y-41108093D01*
X88903430Y-41103492D01*
X88960636Y-40890000D01*
X87504000Y-40890000D01*
X87442000Y-40873387D01*
X87396613Y-40828000D01*
X87380000Y-40766000D01*
X87380000Y-40514000D01*
X87396613Y-40452000D01*
X87442000Y-40406613D01*
X87504000Y-40390000D01*
X88984048Y-40390000D01*
X89031501Y-40399439D01*
G37*
%TD.AperFunction*%
%TD*%
M02*
