%TF.GenerationSoftware,KiCad,Pcbnew,7.0.1*%
%TF.CreationDate,2023-04-07T12:38:16-07:00*%
%TF.ProjectId,receive mcu prototype r1,72656365-6976-4652-906d-63752070726f,rev?*%
%TF.SameCoordinates,Original*%
%TF.FileFunction,Soldermask,Top*%
%TF.FilePolarity,Negative*%
%FSLAX46Y46*%
G04 Gerber Fmt 4.6, Leading zero omitted, Abs format (unit mm)*
G04 Created by KiCad (PCBNEW 7.0.1) date 2023-04-07 12:38:16*
%MOMM*%
%LPD*%
G01*
G04 APERTURE LIST*
G04 Aperture macros list*
%AMRoundRect*
0 Rectangle with rounded corners*
0 $1 Rounding radius*
0 $2 $3 $4 $5 $6 $7 $8 $9 X,Y pos of 4 corners*
0 Add a 4 corners polygon primitive as box body*
4,1,4,$2,$3,$4,$5,$6,$7,$8,$9,$2,$3,0*
0 Add four circle primitives for the rounded corners*
1,1,$1+$1,$2,$3*
1,1,$1+$1,$4,$5*
1,1,$1+$1,$6,$7*
1,1,$1+$1,$8,$9*
0 Add four rect primitives between the rounded corners*
20,1,$1+$1,$2,$3,$4,$5,0*
20,1,$1+$1,$4,$5,$6,$7,0*
20,1,$1+$1,$6,$7,$8,$9,0*
20,1,$1+$1,$8,$9,$2,$3,0*%
G04 Aperture macros list end*
%ADD10RoundRect,0.150000X0.625000X-0.150000X0.625000X0.150000X-0.625000X0.150000X-0.625000X-0.150000X0*%
%ADD11RoundRect,0.250000X0.650000X-0.350000X0.650000X0.350000X-0.650000X0.350000X-0.650000X-0.350000X0*%
%ADD12R,1.500000X0.900000*%
%ADD13C,1.700000*%
%ADD14R,1.700000X1.700000*%
%ADD15RoundRect,0.150000X-0.825000X-0.150000X0.825000X-0.150000X0.825000X0.150000X-0.825000X0.150000X0*%
%ADD16R,1.600000X1.600000*%
%ADD17C,1.600000*%
%ADD18R,0.900000X1.500000*%
%ADD19R,0.900000X0.900000*%
%ADD20RoundRect,0.250000X-0.262500X-0.450000X0.262500X-0.450000X0.262500X0.450000X-0.262500X0.450000X0*%
%ADD21RoundRect,0.250000X0.262500X0.450000X-0.262500X0.450000X-0.262500X-0.450000X0.262500X-0.450000X0*%
%ADD22RoundRect,0.150000X-0.587500X-0.150000X0.587500X-0.150000X0.587500X0.150000X-0.587500X0.150000X0*%
%ADD23RoundRect,0.150000X0.587500X0.150000X-0.587500X0.150000X-0.587500X-0.150000X0.587500X-0.150000X0*%
%ADD24R,1.508000X1.508000*%
%ADD25C,1.508000*%
%ADD26RoundRect,0.250000X0.725000X-0.600000X0.725000X0.600000X-0.725000X0.600000X-0.725000X-0.600000X0*%
%ADD27O,1.950000X1.700000*%
%ADD28O,1.700000X1.700000*%
%ADD29R,0.400000X1.350000*%
%ADD30R,1.200000X1.550000*%
%ADD31O,1.250000X0.950000*%
%ADD32R,1.500000X1.550000*%
%ADD33O,0.890000X1.550000*%
%ADD34RoundRect,0.250000X-0.600000X-0.750000X0.600000X-0.750000X0.600000X0.750000X-0.600000X0.750000X0*%
%ADD35O,1.700000X2.000000*%
%ADD36RoundRect,0.225000X0.225000X0.375000X-0.225000X0.375000X-0.225000X-0.375000X0.225000X-0.375000X0*%
%ADD37R,0.700000X0.600000*%
%ADD38R,0.700000X1.000000*%
%ADD39RoundRect,0.250000X-0.250000X-0.475000X0.250000X-0.475000X0.250000X0.475000X-0.250000X0.475000X0*%
%ADD40RoundRect,0.250000X0.250000X0.475000X-0.250000X0.475000X-0.250000X-0.475000X0.250000X-0.475000X0*%
G04 APERTURE END LIST*
D10*
%TO.C,J7*%
X138970000Y-36425000D03*
X138970000Y-35425000D03*
X138970000Y-34425000D03*
X138970000Y-33425000D03*
D11*
X142845000Y-32125000D03*
X142845000Y-37725000D03*
%TD*%
D12*
%TO.C,D3*%
X127725000Y-88520000D03*
X127725000Y-91820000D03*
X132625000Y-91820000D03*
X132625000Y-88520000D03*
%TD*%
D13*
%TO.C,SW1*%
X103430000Y-67020000D03*
X109930000Y-67020000D03*
D14*
X103430000Y-62520000D03*
D13*
X109930000Y-62520000D03*
%TD*%
D14*
%TO.C,TP1*%
X78740000Y-86360000D03*
%TD*%
D15*
%TO.C,U3*%
X94045000Y-60325000D03*
X94045000Y-61595000D03*
X94045000Y-62865000D03*
X94045000Y-64135000D03*
X94045000Y-65405000D03*
X94045000Y-66675000D03*
X94045000Y-67945000D03*
X94045000Y-69215000D03*
X98995000Y-69215000D03*
X98995000Y-67945000D03*
X98995000Y-66675000D03*
X98995000Y-65405000D03*
X98995000Y-64135000D03*
X98995000Y-62865000D03*
X98995000Y-61595000D03*
X98995000Y-60325000D03*
%TD*%
D16*
%TO.C,U2*%
X121519500Y-33020000D03*
D17*
X121519500Y-35560000D03*
X121519500Y-38100000D03*
X121519500Y-40640000D03*
X121519500Y-43180000D03*
X121519500Y-45720000D03*
X121519500Y-48260000D03*
X121519500Y-50800000D03*
X121519500Y-53340000D03*
X121519500Y-55880000D03*
X121519500Y-58420000D03*
X121519500Y-60960000D03*
X121519500Y-63500000D03*
X121519500Y-66040000D03*
X121519500Y-68580000D03*
X121519500Y-71120000D03*
X141839500Y-71120000D03*
X141839500Y-68580000D03*
X141839500Y-66040000D03*
X141839500Y-63500000D03*
X141839500Y-60960000D03*
X141839500Y-58420000D03*
X141839500Y-55880000D03*
X141839500Y-53340000D03*
X141839500Y-50800000D03*
X141839500Y-48260000D03*
X141839500Y-45720000D03*
X141839500Y-43180000D03*
%TD*%
D12*
%TO.C,U1*%
X92850000Y-30300000D03*
X92850000Y-31570000D03*
X92850000Y-32840000D03*
X92850000Y-34110000D03*
X92850000Y-35380000D03*
X92850000Y-36650000D03*
X92850000Y-37920000D03*
X92850000Y-39190000D03*
X92850000Y-40460000D03*
X92850000Y-41730000D03*
X92850000Y-43000000D03*
X92850000Y-44270000D03*
X92850000Y-45540000D03*
X92850000Y-46810000D03*
D18*
X94615000Y-48060000D03*
X95885000Y-48060000D03*
X97155000Y-48060000D03*
X98425000Y-48060000D03*
X99695000Y-48060000D03*
X100965000Y-48060000D03*
X102235000Y-48060000D03*
X103505000Y-48060000D03*
X104775000Y-48060000D03*
X106045000Y-48060000D03*
X107315000Y-48060000D03*
X108585000Y-48060000D03*
D12*
X110350000Y-46810000D03*
X110350000Y-45540000D03*
X110350000Y-44270000D03*
X110350000Y-43000000D03*
X110350000Y-41730000D03*
X110350000Y-40460000D03*
X110350000Y-39190000D03*
X110350000Y-37920000D03*
X110350000Y-36650000D03*
X110350000Y-35380000D03*
X110350000Y-34110000D03*
X110350000Y-32840000D03*
X110350000Y-31570000D03*
X110350000Y-30300000D03*
D19*
X100100000Y-38020000D03*
X98700000Y-38020000D03*
X101500000Y-38020000D03*
X98700000Y-39420000D03*
X100100000Y-39420000D03*
X101500000Y-39420000D03*
X98700000Y-36620000D03*
X100100000Y-36620000D03*
X101500000Y-36620000D03*
%TD*%
D13*
%TO.C,SW4*%
X139140000Y-81570000D03*
D14*
X132640000Y-81570000D03*
D13*
X139140000Y-86070000D03*
X132640000Y-86070000D03*
%TD*%
%TO.C,SW3*%
X127710000Y-81570000D03*
D14*
X121210000Y-81570000D03*
D13*
X127710000Y-86070000D03*
X121210000Y-86070000D03*
%TD*%
%TO.C,SW2*%
X109930000Y-70140000D03*
D14*
X103430000Y-70140000D03*
D13*
X109930000Y-74640000D03*
X103430000Y-74640000D03*
%TD*%
D20*
%TO.C,R5*%
X98147500Y-52070000D03*
X99972500Y-52070000D03*
%TD*%
D21*
%TO.C,R4*%
X105052500Y-52070000D03*
X103227500Y-52070000D03*
%TD*%
D20*
%TO.C,R3*%
X108307500Y-57150000D03*
X110132500Y-57150000D03*
%TD*%
%TO.C,R2*%
X98147500Y-54610000D03*
X99972500Y-54610000D03*
%TD*%
%TO.C,R1*%
X105052500Y-57150000D03*
X103227500Y-57150000D03*
%TD*%
D22*
%TO.C,Q3*%
X108282500Y-52390000D03*
X108282500Y-54290000D03*
X110157500Y-53340000D03*
%TD*%
D23*
%TO.C,Q2*%
X93042500Y-53340000D03*
X94917500Y-52390000D03*
X94917500Y-54290000D03*
%TD*%
D24*
%TO.C,PS1*%
X102870000Y-82980000D03*
D25*
X105410000Y-82980000D03*
X107950000Y-82980000D03*
%TD*%
D26*
%TO.C,J11*%
X78740000Y-46910000D03*
D27*
X78740000Y-44410000D03*
X78740000Y-41910000D03*
X78740000Y-39410000D03*
%TD*%
D14*
%TO.C,J6*%
X87630000Y-38100000D03*
D28*
X87630000Y-40640000D03*
X87630000Y-43180000D03*
X87630000Y-45720000D03*
X87630000Y-48260000D03*
X87630000Y-50800000D03*
X87630000Y-53340000D03*
X87630000Y-55880000D03*
X87630000Y-58420000D03*
X87630000Y-60960000D03*
X87630000Y-63500000D03*
X87630000Y-66040000D03*
X87630000Y-68580000D03*
X87630000Y-71120000D03*
X87630000Y-73660000D03*
X87630000Y-76200000D03*
X87630000Y-78740000D03*
X87630000Y-81280000D03*
X87630000Y-83820000D03*
X87630000Y-86360000D03*
%TD*%
D14*
%TO.C,J5*%
X115570000Y-38100000D03*
D28*
X115570000Y-40640000D03*
X115570000Y-43180000D03*
X115570000Y-45720000D03*
X115570000Y-48260000D03*
X115570000Y-50800000D03*
X115570000Y-53340000D03*
X115570000Y-55880000D03*
X115570000Y-58420000D03*
X115570000Y-60960000D03*
X115570000Y-63500000D03*
X115570000Y-66040000D03*
X115570000Y-68580000D03*
X115570000Y-71120000D03*
X115570000Y-73660000D03*
X115570000Y-76200000D03*
X115570000Y-78740000D03*
X115570000Y-81280000D03*
X115570000Y-83820000D03*
X115570000Y-86360000D03*
%TD*%
D29*
%TO.C,J4*%
X93950000Y-89740000D03*
X94600000Y-89740000D03*
X95250000Y-89740000D03*
X95900000Y-89740000D03*
X96550000Y-89740000D03*
D30*
X92350000Y-92440000D03*
D31*
X97750000Y-89740000D03*
D32*
X96250000Y-92440000D03*
D33*
X98750000Y-92440000D03*
D30*
X98150000Y-92440000D03*
D31*
X92750000Y-89740000D03*
D32*
X94250000Y-92440000D03*
D33*
X91750000Y-92440000D03*
%TD*%
D34*
%TO.C,J3*%
X105450000Y-90170000D03*
D35*
X107950000Y-90170000D03*
%TD*%
D26*
%TO.C,J2*%
X78740000Y-77390000D03*
D27*
X78740000Y-74890000D03*
X78740000Y-72390000D03*
X78740000Y-69890000D03*
%TD*%
D26*
%TO.C,J1*%
X78740000Y-62150000D03*
D27*
X78740000Y-59650000D03*
X78740000Y-57150000D03*
X78740000Y-54650000D03*
%TD*%
D36*
%TO.C,D2*%
X96646000Y-81280000D03*
X93346000Y-81280000D03*
%TD*%
D37*
%TO.C,D1*%
X93996000Y-86294000D03*
X93996000Y-84394000D03*
X95996000Y-84394000D03*
D38*
X95996000Y-86094000D03*
%TD*%
D39*
%TO.C,C9*%
X103190000Y-59690000D03*
X105090000Y-59690000D03*
%TD*%
D40*
%TO.C,C8*%
X103190000Y-54610000D03*
X105090000Y-54610000D03*
%TD*%
D39*
%TO.C,C7*%
X98110000Y-57150000D03*
X100010000Y-57150000D03*
%TD*%
%TO.C,C6*%
X93030000Y-57150000D03*
X94930000Y-57150000D03*
%TD*%
D40*
%TO.C,C4*%
X89850000Y-34290000D03*
X87950000Y-34290000D03*
%TD*%
%TO.C,C3*%
X89850000Y-31750000D03*
X87950000Y-31750000D03*
%TD*%
D39*
%TO.C,C2*%
X98110000Y-72390000D03*
X100010000Y-72390000D03*
%TD*%
%TO.C,C1*%
X98110000Y-74930000D03*
X100010000Y-74930000D03*
%TD*%
M02*
