%TF.GenerationSoftware,KiCad,Pcbnew,7.0.1*%
%TF.CreationDate,2023-04-07T14:52:09-07:00*%
%TF.ProjectId,receive mcu prototype r1,72656365-6976-4652-906d-63752070726f,rev?*%
%TF.SameCoordinates,Original*%
%TF.FileFunction,Paste,Top*%
%TF.FilePolarity,Positive*%
%FSLAX46Y46*%
G04 Gerber Fmt 4.6, Leading zero omitted, Abs format (unit mm)*
G04 Created by KiCad (PCBNEW 7.0.1) date 2023-04-07 14:52:09*
%MOMM*%
%LPD*%
G01*
G04 APERTURE LIST*
G04 Aperture macros list*
%AMRoundRect*
0 Rectangle with rounded corners*
0 $1 Rounding radius*
0 $2 $3 $4 $5 $6 $7 $8 $9 X,Y pos of 4 corners*
0 Add a 4 corners polygon primitive as box body*
4,1,4,$2,$3,$4,$5,$6,$7,$8,$9,$2,$3,0*
0 Add four circle primitives for the rounded corners*
1,1,$1+$1,$2,$3*
1,1,$1+$1,$4,$5*
1,1,$1+$1,$6,$7*
1,1,$1+$1,$8,$9*
0 Add four rect primitives between the rounded corners*
20,1,$1+$1,$2,$3,$4,$5,0*
20,1,$1+$1,$4,$5,$6,$7,0*
20,1,$1+$1,$6,$7,$8,$9,0*
20,1,$1+$1,$8,$9,$2,$3,0*%
G04 Aperture macros list end*
%ADD10RoundRect,0.250000X-0.262500X-0.450000X0.262500X-0.450000X0.262500X0.450000X-0.262500X0.450000X0*%
%ADD11RoundRect,0.250000X0.250000X0.475000X-0.250000X0.475000X-0.250000X-0.475000X0.250000X-0.475000X0*%
%ADD12RoundRect,0.150000X-0.825000X-0.150000X0.825000X-0.150000X0.825000X0.150000X-0.825000X0.150000X0*%
%ADD13RoundRect,0.250000X-0.250000X-0.475000X0.250000X-0.475000X0.250000X0.475000X-0.250000X0.475000X0*%
%ADD14RoundRect,0.250000X0.262500X0.450000X-0.262500X0.450000X-0.262500X-0.450000X0.262500X-0.450000X0*%
%ADD15RoundRect,0.225000X0.225000X0.375000X-0.225000X0.375000X-0.225000X-0.375000X0.225000X-0.375000X0*%
%ADD16RoundRect,0.150000X0.625000X-0.150000X0.625000X0.150000X-0.625000X0.150000X-0.625000X-0.150000X0*%
%ADD17RoundRect,0.250000X0.650000X-0.350000X0.650000X0.350000X-0.650000X0.350000X-0.650000X-0.350000X0*%
%ADD18RoundRect,0.150000X0.587500X0.150000X-0.587500X0.150000X-0.587500X-0.150000X0.587500X-0.150000X0*%
%ADD19R,1.500000X0.900000*%
%ADD20R,0.900000X1.500000*%
%ADD21R,0.900000X0.900000*%
%ADD22R,0.700000X1.000000*%
%ADD23R,0.700000X0.600000*%
%ADD24RoundRect,0.150000X-0.587500X-0.150000X0.587500X-0.150000X0.587500X0.150000X-0.587500X0.150000X0*%
%ADD25O,0.890000X1.550000*%
%ADD26O,1.250000X0.950000*%
%ADD27R,0.400000X1.350000*%
%ADD28R,1.200000X1.550000*%
%ADD29R,1.500000X1.550000*%
G04 APERTURE END LIST*
D10*
%TO.C,R1*%
X103227500Y-57150000D03*
X105052500Y-57150000D03*
%TD*%
D11*
%TO.C,C8*%
X105090000Y-54610000D03*
X103190000Y-54610000D03*
%TD*%
D12*
%TO.C,U3*%
X94045000Y-60325000D03*
X94045000Y-61595000D03*
X94045000Y-62865000D03*
X94045000Y-64135000D03*
X94045000Y-65405000D03*
X94045000Y-66675000D03*
X94045000Y-67945000D03*
X94045000Y-69215000D03*
X98995000Y-69215000D03*
X98995000Y-67945000D03*
X98995000Y-66675000D03*
X98995000Y-65405000D03*
X98995000Y-64135000D03*
X98995000Y-62865000D03*
X98995000Y-61595000D03*
X98995000Y-60325000D03*
%TD*%
D10*
%TO.C,R5*%
X98147500Y-52070000D03*
X99972500Y-52070000D03*
%TD*%
D11*
%TO.C,C3*%
X89850000Y-31750000D03*
X87950000Y-31750000D03*
%TD*%
D13*
%TO.C,C2*%
X98110000Y-72390000D03*
X100010000Y-72390000D03*
%TD*%
%TO.C,C7*%
X98110000Y-57150000D03*
X100010000Y-57150000D03*
%TD*%
%TO.C,C9*%
X103190000Y-59690000D03*
X105090000Y-59690000D03*
%TD*%
D11*
%TO.C,C4*%
X89850000Y-34290000D03*
X87950000Y-34290000D03*
%TD*%
D14*
%TO.C,R4*%
X105052500Y-52070000D03*
X103227500Y-52070000D03*
%TD*%
D10*
%TO.C,R3*%
X108307500Y-57150000D03*
X110132500Y-57150000D03*
%TD*%
D15*
%TO.C,D2*%
X96646000Y-81280000D03*
X93346000Y-81280000D03*
%TD*%
D16*
%TO.C,J7*%
X138970000Y-36425000D03*
X138970000Y-35425000D03*
X138970000Y-34425000D03*
X138970000Y-33425000D03*
D17*
X142845000Y-37725000D03*
X142845000Y-32125000D03*
%TD*%
D18*
%TO.C,Q2*%
X94917500Y-54290000D03*
X94917500Y-52390000D03*
X93042500Y-53340000D03*
%TD*%
D10*
%TO.C,R2*%
X98147500Y-54610000D03*
X99972500Y-54610000D03*
%TD*%
D19*
%TO.C,U1*%
X92850000Y-30300000D03*
X92850000Y-31570000D03*
X92850000Y-32840000D03*
X92850000Y-34110000D03*
X92850000Y-35380000D03*
X92850000Y-36650000D03*
X92850000Y-37920000D03*
X92850000Y-39190000D03*
X92850000Y-40460000D03*
X92850000Y-41730000D03*
X92850000Y-43000000D03*
X92850000Y-44270000D03*
X92850000Y-45540000D03*
X92850000Y-46810000D03*
D20*
X94615000Y-48060000D03*
X95885000Y-48060000D03*
X97155000Y-48060000D03*
X98425000Y-48060000D03*
X99695000Y-48060000D03*
X100965000Y-48060000D03*
X102235000Y-48060000D03*
X103505000Y-48060000D03*
X104775000Y-48060000D03*
X106045000Y-48060000D03*
X107315000Y-48060000D03*
X108585000Y-48060000D03*
D19*
X110350000Y-46810000D03*
X110350000Y-45540000D03*
X110350000Y-44270000D03*
X110350000Y-43000000D03*
X110350000Y-41730000D03*
X110350000Y-40460000D03*
X110350000Y-39190000D03*
X110350000Y-37920000D03*
X110350000Y-36650000D03*
X110350000Y-35380000D03*
X110350000Y-34110000D03*
X110350000Y-32840000D03*
X110350000Y-31570000D03*
X110350000Y-30300000D03*
D21*
X100100000Y-38020000D03*
X98700000Y-38020000D03*
X101500000Y-38020000D03*
X98700000Y-39420000D03*
X100100000Y-39420000D03*
X101500000Y-39420000D03*
X98700000Y-36620000D03*
X100100000Y-36620000D03*
X101500000Y-36620000D03*
%TD*%
D13*
%TO.C,C1*%
X98110000Y-74930000D03*
X100010000Y-74930000D03*
%TD*%
D22*
%TO.C,D1*%
X95996000Y-86094000D03*
D23*
X95996000Y-84394000D03*
X93996000Y-84394000D03*
X93996000Y-86294000D03*
%TD*%
D19*
%TO.C,D3*%
X127725000Y-88520000D03*
X127725000Y-91820000D03*
X132625000Y-91820000D03*
X132625000Y-88520000D03*
%TD*%
D24*
%TO.C,Q3*%
X108282500Y-52390000D03*
X108282500Y-54290000D03*
X110157500Y-53340000D03*
%TD*%
D25*
%TO.C,J4*%
X91750000Y-92440000D03*
D26*
X92750000Y-89740000D03*
X97750000Y-89740000D03*
D25*
X98750000Y-92440000D03*
D27*
X93950000Y-89740000D03*
X94600000Y-89740000D03*
X95250000Y-89740000D03*
X95900000Y-89740000D03*
X96550000Y-89740000D03*
D28*
X92350000Y-92440000D03*
D29*
X94250000Y-92440000D03*
X96250000Y-92440000D03*
D28*
X98150000Y-92440000D03*
%TD*%
D13*
%TO.C,C6*%
X93030000Y-57150000D03*
X94930000Y-57150000D03*
%TD*%
M02*
