M48
; DRILL file {KiCad 7.0.1} date Fri Apr  7 12:37:53 2023
; FORMAT={-:-/ absolute / inch / decimal}
; #@! TF.CreationDate,2023-04-07T12:37:53-07:00
; #@! TF.GenerationSoftware,Kicad,Pcbnew,7.0.1
; #@! TF.FileFunction,Plated,1,2,PTH
FMAT,2
INCH
; #@! TA.AperFunction,Plated,PTH,ComponentDrill
T1C0.0079
; #@! TA.AperFunction,Plated,PTH,ViaDrill
T2C0.0157
; #@! TA.AperFunction,Plated,PTH,ComponentDrill
T3C0.0197
; #@! TA.AperFunction,Plated,PTH,ComponentDrill
T4C0.0217
; #@! TA.AperFunction,Plated,PTH,ComponentDrill
T5C0.0315
; #@! TA.AperFunction,Plated,PTH,ComponentDrill
T6C0.0374
; #@! TA.AperFunction,Plated,PTH,ComponentDrill
T7C0.0394
%
G90
G05
T1
X3.8858Y-1.4693
X3.8858Y-1.5244
X3.9134Y-1.4417
X3.9134Y-1.4969
X3.9134Y-1.552
X3.9409Y-1.4693
X3.9409Y-1.5244
X3.9685Y-1.4417
X3.9685Y-1.4969
X3.9685Y-1.552
X3.9961Y-1.4693
X3.9961Y-1.5244
T2
X2.98Y-3.2
X3.0Y-1.21
X3.02Y-3.58
X3.19Y-1.21
X3.21Y-3.58
X3.24Y-3.62
X3.27Y-3.66
X3.29Y-2.01
X3.3Y-1.76
X3.32Y-2.43
X3.32Y-3.66
X3.37Y-1.21
X3.37Y-3.66
X3.59Y-1.3
X3.6Y-1.9
X3.657Y-3.3941
X3.74Y-1.34
X3.74Y-1.39
X3.74Y-1.44
X3.74Y-1.5
X3.74Y-1.55
X3.74Y-1.6
X3.74Y-1.65
X3.74Y-1.7
X3.74Y-1.74
X3.74Y-1.79
X3.74Y-1.839
X3.79Y-1.84
X3.82Y-1.96
X3.86Y-3.35
X3.8689Y-2.3
X3.87Y-1.96
X3.92Y-1.96
X3.97Y-1.96
X3.97Y-3.39
X3.98Y-2.4715
X3.99Y-2.04
X4.02Y-1.96
X4.02Y-3.15
X4.07Y-1.96
X4.08Y-1.23
X4.1Y-2.2
X4.13Y-1.26
X4.14Y-2.42
X4.15Y-1.72
X4.19Y-1.75
X4.19Y-2.13
X4.19Y-2.52
X4.22Y-1.8
X4.23Y-1.24
X4.23Y-1.36
X4.23Y-1.4013
X4.23Y-1.45
X4.23Y-1.5
X4.23Y-1.55
X4.23Y-1.96
X4.2302Y-1.2802
X4.2687Y-1.839
X4.28Y-1.96
X4.28Y-2.01
X4.28Y-3.13
X4.32Y-2.85
X4.37Y-3.4
X4.4Y-2.1
X4.47Y-2.17
X4.83Y-3.5
X4.95Y-1.24
X5.35Y-1.475
X5.55Y-3.41
X5.6Y-3.41
T5
X4.7842Y-1.3
X4.7842Y-1.4
X4.7842Y-1.5
X4.7842Y-1.6
X4.7842Y-1.7
X4.7842Y-1.8
X4.7842Y-1.9
X4.7842Y-2.0
X4.7842Y-2.1
X4.7842Y-2.2
X4.7842Y-2.3
X4.7842Y-2.4
X4.7842Y-2.5
X4.7842Y-2.6
X4.7842Y-2.7
X4.7842Y-2.8
X5.5842Y-1.7
X5.5842Y-1.8
X5.5842Y-1.9
X5.5842Y-2.0
X5.5842Y-2.1
X5.5842Y-2.2
X5.5842Y-2.3
X5.5842Y-2.4
X5.5842Y-2.5
X5.5842Y-2.6
X5.5842Y-2.7
X5.5842Y-2.8
T6
X3.1Y-1.5516
X3.1Y-1.65
X3.1Y-1.7484
X3.1Y-1.8469
X3.1Y-2.1516
X3.1Y-2.25
X3.1Y-2.3484
X3.1Y-2.4469
X3.1Y-2.7516
X3.1Y-2.85
X3.1Y-2.9484
X3.1Y-3.0469
T7
X3.1Y-3.4
X3.45Y-1.5
X3.45Y-1.6
X3.45Y-1.7
X3.45Y-1.8
X3.45Y-1.9
X3.45Y-2.0
X3.45Y-2.1
X3.45Y-2.2
X3.45Y-2.3
X3.45Y-2.4
X3.45Y-2.5
X3.45Y-2.6
X3.45Y-2.7
X3.45Y-2.8
X3.45Y-2.9
X3.45Y-3.0
X3.45Y-3.1
X3.45Y-3.2
X3.45Y-3.3
X3.45Y-3.4
X4.05Y-3.2669
X4.072Y-2.4614
X4.072Y-2.6386
X4.072Y-2.7614
X4.072Y-2.9386
X4.15Y-3.2669
X4.1516Y-3.55
X4.25Y-3.2669
X4.25Y-3.55
X4.328Y-2.4614
X4.328Y-2.6386
X4.328Y-2.7614
X4.328Y-2.9386
X4.55Y-1.5
X4.55Y-1.6
X4.55Y-1.7
X4.55Y-1.8
X4.55Y-1.9
X4.55Y-2.0
X4.55Y-2.1
X4.55Y-2.2
X4.55Y-2.3
X4.55Y-2.4
X4.55Y-2.5
X4.55Y-2.6
X4.55Y-2.7
X4.55Y-2.8
X4.55Y-2.9
X4.55Y-3.0
X4.55Y-3.1
X4.55Y-3.2
X4.55Y-3.3
X4.55Y-3.4
X4.772Y-3.2114
X4.772Y-3.3886
X5.028Y-3.2114
X5.028Y-3.3886
X5.222Y-3.2114
X5.222Y-3.3886
X5.478Y-3.2114
X5.478Y-3.3886
T3
G00X3.6122Y-3.6266
M15
G01X3.6122Y-3.6522
M16
G05
G00X3.8878Y-3.6266
M15
G01X3.8878Y-3.6522
M16
G05
T4
G00X3.6457Y-3.5331
M15
G01X3.6575Y-3.5331
M16
G05
G00X3.8425Y-3.5331
M15
G01X3.8543Y-3.5331
M16
G05
T0
M30
