<?xml version="1.0" encoding="UTF-8" standalone="no"?>
<!-- Created with Inkscape (http://www.inkscape.org/) -->

<svg
   width="200.0mm"
   height="200.0mm"
   viewBox="0 0 200.0 200.0"
   version="1.1"
   id="svg257"
   sodipodi:docname="uFollowLogo.svg"
   inkscape:version="1.1.1 (3bf5ae0d25, 2021-09-20)"
   xmlns:inkscape="http://www.inkscape.org/namespaces/inkscape"
   xmlns:sodipodi="http://sodipodi.sourceforge.net/DTD/sodipodi-0.dtd"
   xmlns="http://www.w3.org/2000/svg"
   xmlns:svg="http://www.w3.org/2000/svg">
  <sodipodi:namedview
     id="namedview259"
     pagecolor="#ffffff"
     bordercolor="#666666"
     borderopacity="1.0"
     inkscape:pageshadow="2"
     inkscape:pageopacity="0.0"
     inkscape:pagecheckerboard="0"
     inkscape:document-units="mm"
     showgrid="false"
     inkscape:zoom="30.173117"
     inkscape:cx="62.903678"
     inkscape:cy="189.22474"
     inkscape:window-width="1920"
     inkscape:window-height="1009"
     inkscape:window-x="-8"
     inkscape:window-y="-8"
     inkscape:window-maximized="1"
     inkscape:current-layer="g283" />
  <defs
     id="defs254" />
  <g
     inkscape:label="[fixed] BG"
     inkscape:groupmode="layer"
     sodipodi:insensitive="true"
     id="g269">
    <rect
       x="0"
       y="0"
       width="200.0"
       height="200.0"
       style="fill:#FFFFFF;fill-opacity:1;stroke:none"
       id="rect267" />
  </g>
  <g
     inkscape:label="Edge.Cuts"
     inkscape:groupmode="layer"
     id="g271" />
  <g
     inkscape:label="B.Cu"
     inkscape:groupmode="layer"
     id="g273" />
  <g
     inkscape:label="B.Mask"
     inkscape:groupmode="layer"
     id="g275" />
  <g
     inkscape:label="B.SilkS"
     inkscape:groupmode="layer"
     id="g277" />
  <g
     inkscape:label="F.Cu"
     inkscape:groupmode="layer"
     id="g279" />
  <g
     inkscape:label="F.Mask"
     inkscape:groupmode="layer"
     id="g281" />
  <g
     inkscape:label="F.SilkS"
     inkscape:groupmode="layer"
     id="g283">
    <g
       id="_2319296757904"
       style="clip-rule:evenodd;fill-rule:evenodd;image-rendering:optimizeQuality;shape-rendering:geometricPrecision;text-rendering:geometricPrecision"
       transform="matrix(0.00442465,0,0,0.00442465,6.698229,48.485658)">
      <path
         class="fil0"
         d="m 73,110 v 148 c 0,27 5,47 15,61 10,14 25,21 46,21 20,0 35,-7 45,-20 10,-12 15,-31 15,-55 V 110 l 66,-23 v 178 c 0,45 -11,80 -34,105 -23,25 -55,37 -96,37 C 89,407 57,395 34,370 11,345 0,310 0,266 V 87 Z"
         id="path205" />
      <g
         id="g213">
        <path
           class="fil1"
           d="M 0,5 C 27,27 77,41 131,41 185,41 234,27 261,5 V 0 C 234,22 185,36 131,36 77,36 27,22 0,0 Z"
           id="path207" />
        <path
           class="fil1"
           d="M 0,32 C 27,54 77,68 131,68 185,68 234,54 261,32 V 27 C 234,49 185,63 131,63 77,63 27,49 0,27 Z"
           id="path209" />
        <path
           class="fil1"
           d="M 0,58 C 27,81 77,94 131,94 185,94 234,81 261,58 V 54 C 234,76 185,89 131,89 77,89 27,76 0,54 Z"
           id="path211" />
      </g>
    </g>
    <path
       class="fil0"
       d="m 9.7379649,49.556424 c 0,0.119466 0.035402,0.221232 0.1017672,0.300877 0.070795,0.07964 0.1592876,0.119465 0.2610539,0.119465 0.101767,0 0.185835,-0.03982 0.256631,-0.119465 0.0708,-0.07964 0.101766,-0.181411 0.101766,-0.300877 0,-0.119466 -0.03097,-0.221233 -0.101766,-0.300877 -0.0708,-0.07964 -0.154864,-0.119465 -0.256631,-0.119465 -0.1017663,0 -0.1902602,0.03982 -0.2610539,0.119465 -0.066367,0.07964 -0.1017672,0.181411 -0.1017672,0.300877 z m -0.3362738,0 c 0,-0.101767 0.017701,-0.194684 0.048672,-0.283177 0.035398,-0.08849 0.088493,-0.168137 0.154863,-0.238933 0.06637,-0.06637 0.1415889,-0.119465 0.2256577,-0.154862 0.084072,-0.03539 0.1769862,-0.05309 0.2699032,-0.05309 0.09292,0 0.181411,0.01771 0.26548,0.05309 0.08849,0.03982 0.163712,0.08849 0.230081,0.159287 0.06637,0.06637 0.115041,0.141589 0.150438,0.230082 0.0354,0.08849 0.0531,0.185836 0.0531,0.287603 0,0.08849 -0.01328,0.168137 -0.0354,0.243355 -0.02655,0.07522 -0.06195,0.146015 -0.110616,0.207959 -0.06637,0.08849 -0.146014,0.159288 -0.243356,0.207959 -0.09734,0.04867 -0.203534,0.0708 -0.309726,0.0708 -0.09292,0 -0.18141,-0.01771 -0.269903,-0.05309 -0.084063,-0.0354 -0.1592823,-0.0885 -0.2256521,-0.154867 -0.06637,-0.07079 -0.1194656,-0.150438 -0.1548631,-0.234507 -0.030971,-0.08849 -0.048672,-0.185835 -0.048672,-0.287601 z m 1.6238479,0.685821 v -1.371642 h 0.327424 v 1.079615 h 0.535383 v 0.292027 z m 1.022094,0 v -1.371642 h 0.327425 v 1.079615 h 0.535383 v 0.292027 z m 1.243327,-0.685821 c 0,0.119466 0.0354,0.221232 0.101767,0.300877 0.0708,0.07964 0.154864,0.119465 0.261055,0.119465 0.101768,0 0.185835,-0.03982 0.25663,-0.119465 0.07079,-0.07964 0.101766,-0.181411 0.101766,-0.300877 0,-0.119466 -0.03097,-0.221233 -0.101766,-0.300877 -0.0708,-0.07964 -0.154862,-0.119465 -0.25663,-0.119465 -0.106191,0 -0.19026,0.03982 -0.261055,0.119465 -0.06637,0.07964 -0.101767,0.181411 -0.101767,0.300877 z m -0.340697,0 c 0,-0.101767 0.01771,-0.194684 0.05309,-0.283177 0.03539,-0.08849 0.08849,-0.168137 0.154863,-0.238933 0.06637,-0.06637 0.141589,-0.119465 0.225657,-0.154862 0.08407,-0.03539 0.172562,-0.05309 0.269904,-0.05309 0.09292,0 0.181411,0.01771 0.26548,0.05309 0.08406,0.03982 0.163711,0.08849 0.230081,0.159287 0.06637,0.06637 0.115041,0.141589 0.150438,0.230082 0.0354,0.08849 0.0531,0.185836 0.0531,0.287603 0,0.08849 -0.01328,0.168137 -0.03982,0.243355 -0.02213,0.07522 -0.05752,0.146015 -0.106191,0.207959 -0.06637,0.08849 -0.146013,0.159288 -0.243356,0.207959 -0.09734,0.04867 -0.203534,0.0708 -0.309726,0.0708 -0.09292,0 -0.18141,-0.01771 -0.269904,-0.05309 -0.08406,-0.03539 -0.159288,-0.08849 -0.225657,-0.154862 -0.06637,-0.0708 -0.119465,-0.150438 -0.154863,-0.234507 -0.0354,-0.08849 -0.05309,-0.185835 -0.05309,-0.287602 z m 2.02649,0.730067 -0.575204,-1.415888 h 0.331848 l 0.269904,0.743341 0.283178,-0.787587 h 0.02655 l 0.287602,0.787587 0.265479,-0.743341 h 0.305302 l -0.570781,1.415888 h -0.01771 L 15.286479,49.503329 15.0033,50.286491 Z M 8.1893368,50.242241 V 48.5299 h 1.0663409 v 0.349547 h -0.659273 v 0.340699 h 0.5884786 v 0.345123 H 8.5964047 v 0.676972 z"
       id="path216"
       style="clip-rule:evenodd;fill:#373435;fill-rule:evenodd;stroke-width:0.00442465;image-rendering:optimizeQuality;shape-rendering:geometricPrecision;text-rendering:geometricPrecision" />
  </g>
  <g
     inkscape:label="Dwgs.User"
     inkscape:groupmode="layer"
     id="g285" />
  <g
     inkscape:label="Drill"
     inkscape:groupmode="layer"
     id="g287" />
</svg>
