<?xml version="1.0" encoding="UTF-8"?>
<!DOCTYPE svg PUBLIC "-//W3C//DTD SVG 1.1//EN" "http://www.w3.org/Graphics/SVG/1.1/DTD/svg11.dtd">
<!-- Creator: CorelDRAW X7 -->
<svg xmlns="http://www.w3.org/2000/svg" xml:space="preserve" width="33.1256mm" height="6.3028mm" version="1.1" style="shape-rendering:geometricPrecision; text-rendering:geometricPrecision; image-rendering:optimizeQuality; fill-rule:evenodd; clip-rule:evenodd"
viewBox="0 0 2141 407"
 xmlns:xlink="http://www.w3.org/1999/xlink">
 <defs>
  <style type="text/css">
   <![CDATA[
    .fil0 {fill:#373435}
    .fil1 {fill:#373435}
   ]]>
  </style>
 </defs>
 <g id="Layer_x0020_1">
  <metadata id="CorelCorpID_0Corel-Layer"/>
  <g id="_2319296757904">
   <path class="fil0" d="M73 110l0 148c0,27 5,47 15,61 10,14 25,21 46,21 20,0 35,-7 45,-20 10,-12 15,-31 15,-55l0 -155 66 -23 0 178c0,45 -11,80 -34,105 -23,25 -55,37 -96,37 -41,0 -73,-12 -96,-37 -23,-25 -34,-60 -34,-104l0 -179 73 23z"/>
   <g>
    <path class="fil1" d="M0 5c27,22 77,36 131,36 54,0 103,-14 130,-36l0 -5c-27,22 -76,36 -130,36 -54,0 -104,-14 -131,-36l0 5z"/>
    <path class="fil1" d="M0 32c27,22 77,36 131,36 54,0 103,-14 130,-36l0 -5c-27,22 -76,36 -130,36 -54,0 -104,-14 -131,-36l0 5z"/>
    <path class="fil1" d="M0 58c27,23 77,36 131,36 54,0 103,-13 130,-36l0 -4c-27,22 -76,35 -130,35 -54,0 -104,-13 -131,-35l0 4z"/>
   </g>
  </g>
  <path class="fil0" d="M687 242c0,27 8,50 23,68 16,18 36,27 59,27 23,0 42,-9 58,-27 16,-18 23,-41 23,-68 0,-27 -7,-50 -23,-68 -16,-18 -35,-27 -58,-27 -23,0 -43,9 -59,27 -15,18 -23,41 -23,68zm-76 0c0,-23 4,-44 11,-64 8,-20 20,-38 35,-54 15,-15 32,-27 51,-35 19,-8 40,-12 61,-12 21,0 41,4 60,12 20,9 37,20 52,36 15,15 26,32 34,52 8,20 12,42 12,65 0,20 -3,38 -8,55 -6,17 -14,33 -25,47 -15,20 -33,36 -55,47 -22,11 -46,16 -70,16 -21,0 -41,-4 -61,-12 -19,-8 -36,-20 -51,-35 -15,-16 -27,-34 -35,-53 -7,-20 -11,-42 -11,-65zm367 155l0 -310 74 0 0 244 121 0 0 66 -195 0zm231 0l0 -310 74 0 0 244 121 0 0 66 -195 0zm281 -155c0,27 8,50 23,68 16,18 35,27 59,27 23,0 42,-9 58,-27 16,-18 23,-41 23,-68 0,-27 -7,-50 -23,-68 -16,-18 -35,-27 -58,-27 -24,0 -43,9 -59,27 -15,18 -23,41 -23,68zm-77 0c0,-23 4,-44 12,-64 8,-20 20,-38 35,-54 15,-15 32,-27 51,-35 19,-8 39,-12 61,-12 21,0 41,4 60,12 19,9 37,20 52,36 15,15 26,32 34,52 8,20 12,42 12,65 0,20 -3,38 -9,55 -5,17 -13,33 -24,47 -15,20 -33,36 -55,47 -22,11 -46,16 -70,16 -21,0 -41,-4 -61,-12 -19,-8 -36,-20 -51,-35 -15,-16 -27,-34 -35,-53 -8,-20 -12,-42 -12,-65zm458 165l-130 -320 75 0 61 168 64 -178 6 0 65 178 60 -168 69 0 -129 320 -4 0 -67 -177 -64 177 -6 0zm-1534 -10l0 -387 241 0 0 79 -149 0 0 77 133 0 0 78 -133 0 0 153 -92 0z"/>
 </g>
</svg>
