<?xml version="1.0" encoding="UTF-8" standalone="no"?>
<!-- Created with Inkscape (http://www.inkscape.org/) -->

<svg
   width="200.0mm"
   height="200.0mm"
   viewBox="0 0 200.0 200.0"
   version="1.1"
   id="svg257"
   sodipodi:docname="uFollowLogo.svg"
   inkscape:version="1.1.1 (3bf5ae0d25, 2021-09-20)"
   xmlns:inkscape="http://www.inkscape.org/namespaces/inkscape"
   xmlns:sodipodi="http://sodipodi.sourceforge.net/DTD/sodipodi-0.dtd"
   xmlns="http://www.w3.org/2000/svg"
   xmlns:svg="http://www.w3.org/2000/svg">
  <sodipodi:namedview
     id="namedview259"
     pagecolor="#ffffff"
     bordercolor="#666666"
     borderopacity="1.0"
     inkscape:pageshadow="2"
     inkscape:pageopacity="0.0"
     inkscape:pagecheckerboard="0"
     inkscape:document-units="mm"
     showgrid="false"
     inkscape:zoom="14.493388"
     inkscape:cx="81.968415"
     inkscape:cy="177.63273"
     inkscape:window-width="1920"
     inkscape:window-height="1009"
     inkscape:window-x="-8"
     inkscape:window-y="-8"
     inkscape:window-maximized="1"
     inkscape:current-layer="g283" />
  <defs
     id="defs254" />
  <g
     inkscape:label="[fixed] BG"
     inkscape:groupmode="layer"
     sodipodi:insensitive="true"
     id="g269">
    <rect
       x="0"
       y="0"
       width="200.0"
       height="200.0"
       style="fill:#FFFFFF;fill-opacity:1;stroke:none"
       id="rect267" />
  </g>
  <g
     inkscape:label="Edge.Cuts"
     inkscape:groupmode="layer"
     id="g271" />
  <g
     inkscape:label="B.Cu"
     inkscape:groupmode="layer"
     id="g273" />
  <g
     inkscape:label="B.Mask"
     inkscape:groupmode="layer"
     id="g275" />
  <g
     inkscape:label="B.SilkS"
     inkscape:groupmode="layer"
     id="g277" />
  <g
     inkscape:label="F.Cu"
     inkscape:groupmode="layer"
     id="g279" />
  <g
     inkscape:label="F.Mask"
     inkscape:groupmode="layer"
     id="g281" />
  <g
     inkscape:label="F.SilkS"
     inkscape:groupmode="layer"
     id="g283">
    <g
       id="_2319296757904"
       style="clip-rule:evenodd;fill-rule:evenodd;image-rendering:optimizeQuality;shape-rendering:geometricPrecision;text-rendering:geometricPrecision"
       transform="matrix(0.00485555,0,0,0.00485555,6.698229,48.485658)">
      <path
         class="fil0"
         d="m 73,110 v 148 c 0,27 5,47 15,61 10,14 25,21 46,21 20,0 35,-7 45,-20 10,-12 15,-31 15,-55 V 110 l 66,-23 v 178 c 0,45 -11,80 -34,105 -23,25 -55,37 -96,37 C 89,407 57,395 34,370 11,345 0,310 0,266 V 87 Z"
         id="path205" />
      <g
         id="g213">
        <path
           class="fil1"
           d="M 0,5 C 27,27 77,41 131,41 185,41 234,27 261,5 V 0 C 234,22 185,36 131,36 77,36 27,22 0,0 Z"
           id="path207" />
        <path
           class="fil1"
           d="M 0,32 C 27,54 77,68 131,68 185,68 234,54 261,32 V 27 C 234,49 185,63 131,63 77,63 27,49 0,27 Z"
           id="path209" />
        <path
           class="fil1"
           d="M 0,58 C 27,81 77,94 131,94 185,94 234,81 261,58 V 54 C 234,76 185,89 131,89 77,89 27,76 0,54 Z"
           id="path211" />
      </g>
    </g>
    <path
       class="fil0"
       d="m 10.033994,49.660702 c 0,0.1311 0.03885,0.242777 0.111678,0.330178 0.07769,0.0874 0.1748,0.1311 0.286477,0.1311 0.111678,0 0.203933,-0.0437 0.281623,-0.1311 0.07769,-0.0874 0.111677,-0.199078 0.111677,-0.330178 0,-0.1311 -0.03399,-0.242778 -0.111677,-0.330178 -0.07769,-0.0874 -0.169945,-0.1311 -0.281623,-0.1311 -0.111677,0 -0.208789,0.0437 -0.286477,0.1311 -0.07283,0.0874 -0.111678,0.199078 -0.111678,0.330178 z m -0.3690223,0 c 0,-0.111678 0.019425,-0.213644 0.053412,-0.310755 0.038845,-0.09711 0.097111,-0.184511 0.1699446,-0.262201 0.072833,-0.07283 0.1553777,-0.1311 0.2476337,-0.169944 0.09226,-0.03884 0.194222,-0.05826 0.296188,-0.05826 0.101967,0 0.199078,0.01943 0.291334,0.05826 0.09711,0.0437 0.179656,0.09711 0.252488,0.1748 0.07283,0.07283 0.126245,0.155378 0.165089,0.252489 0.03885,0.09711 0.05827,0.203933 0.05827,0.315611 0,0.09711 -0.01457,0.184511 -0.03885,0.267055 -0.02914,0.08255 -0.06798,0.160234 -0.121388,0.228211 -0.07283,0.09711 -0.160234,0.1748 -0.267056,0.228211 -0.106822,0.05341 -0.223355,0.07769 -0.339889,0.07769 -0.101966,0 -0.199077,-0.01943 -0.296188,-0.05826 C 10.04371,50.36476 9.9611658,50.306493 9.8883324,50.23366 9.815499,50.155971 9.7572325,50.068571 9.7183878,49.976315 9.684401,49.879204 9.6649755,49.772382 9.6649755,49.660705 Z m 1.7819883,0.752611 v -1.505222 h 0.359311 v 1.184755 h 0.587522 v 0.320467 z m 1.121633,0 v -1.505222 h 0.359311 v 1.184755 h 0.587522 v 0.320467 z m 1.36441,-0.752611 c 0,0.1311 0.03885,0.242777 0.111678,0.330178 0.07769,0.0874 0.169945,0.1311 0.286478,0.1311 0.111678,0 0.203933,-0.0437 0.281622,-0.1311 0.07769,-0.0874 0.111677,-0.199078 0.111677,-0.330178 0,-0.1311 -0.03399,-0.242778 -0.111677,-0.330178 -0.07769,-0.0874 -0.169944,-0.1311 -0.281622,-0.1311 -0.116533,0 -0.208789,0.0437 -0.286478,0.1311 -0.07283,0.0874 -0.111678,0.199078 -0.111678,0.330178 z m -0.373877,0 c 0,-0.111678 0.01943,-0.213644 0.05826,-0.310755 0.03884,-0.09711 0.09711,-0.184511 0.169944,-0.262201 0.07283,-0.07283 0.155378,-0.1311 0.247633,-0.169944 0.09226,-0.03884 0.189367,-0.05826 0.296189,-0.05826 0.101967,0 0.199078,0.01943 0.291334,0.05826 0.09225,0.0437 0.179655,0.09711 0.252488,0.1748 0.07283,0.07283 0.126244,0.155378 0.165089,0.252489 0.03885,0.09711 0.05827,0.203933 0.05827,0.315611 0,0.09711 -0.01457,0.184511 -0.0437,0.267055 -0.02428,0.08255 -0.06312,0.160234 -0.116533,0.228211 -0.07283,0.09711 -0.160233,0.1748 -0.267056,0.228211 -0.106822,0.05341 -0.223355,0.07769 -0.339889,0.07769 -0.101966,0 -0.199077,-0.01943 -0.296189,-0.05826 -0.09225,-0.03884 -0.1748,-0.09711 -0.247632,-0.169944 -0.07283,-0.07769 -0.1311,-0.165089 -0.169945,-0.257345 -0.03885,-0.09711 -0.05826,-0.203933 -0.05826,-0.31561 z m 2.223843,0.801166 -0.631221,-1.553777 h 0.364166 l 0.296189,0.815733 0.310755,-0.864288 h 0.02914 l 0.315611,0.864288 0.291333,-0.815733 h 0.335034 l -0.626367,1.553777 h -0.01943 l -0.325321,-0.859432 -0.310756,0.859432 z m -7.4484185,-0.04856 v -1.879099 h 1.1701881 v 0.383588 H 8.7812613 v 0.373878 h 0.6457885 v 0.378733 H 8.7812613 v 0.7429 z"
       id="path216"
       style="clip-rule:evenodd;fill:#373435;fill-rule:evenodd;stroke-width:0.00485555;image-rendering:optimizeQuality;shape-rendering:geometricPrecision;text-rendering:geometricPrecision" />
  </g>
  <g
     inkscape:label="Dwgs.User"
     inkscape:groupmode="layer"
     id="g285" />
  <g
     inkscape:label="Drill"
     inkscape:groupmode="layer"
     id="g287" />
</svg>
