G04 #@! TF.GenerationSoftware,KiCad,Pcbnew,(6.0.2)*
G04 #@! TF.CreationDate,2022-05-11T22:01:16-05:00*
G04 #@! TF.ProjectId,Receive US,52656365-6976-4652-9055-532e6b696361,rev?*
G04 #@! TF.SameCoordinates,Original*
G04 #@! TF.FileFunction,Legend,Bot*
G04 #@! TF.FilePolarity,Positive*
%FSLAX46Y46*%
G04 Gerber Fmt 4.6, Leading zero omitted, Abs format (unit mm)*
G04 Created by KiCad (PCBNEW (6.0.2)) date 2022-05-11 22:01:16*
%MOMM*%
%LPD*%
G01*
G04 APERTURE LIST*
%ADD10C,0.150000*%
%ADD11C,0.127000*%
%ADD12C,0.120000*%
%ADD13C,3.200000*%
%ADD14C,2.800000*%
%ADD15R,1.700000X1.700000*%
%ADD16O,1.700000X1.700000*%
%ADD17C,2.000000*%
G04 APERTURE END LIST*
D10*
X117573809Y-100600000D02*
X117611904Y-100714285D01*
X117611904Y-100904761D01*
X117573809Y-100980952D01*
X117535714Y-101019047D01*
X117459523Y-101057142D01*
X117383333Y-101057142D01*
X117307142Y-101019047D01*
X117269047Y-100980952D01*
X117230952Y-100904761D01*
X117192857Y-100752380D01*
X117154761Y-100676190D01*
X117116666Y-100638095D01*
X117040476Y-100600000D01*
X116964285Y-100600000D01*
X116888095Y-100638095D01*
X116850000Y-100676190D01*
X116811904Y-100752380D01*
X116811904Y-100942857D01*
X116850000Y-101057142D01*
X117078571Y-101742857D02*
X117878571Y-101742857D01*
X117573809Y-101742857D02*
X117611904Y-101666666D01*
X117611904Y-101514285D01*
X117573809Y-101438095D01*
X117535714Y-101400000D01*
X117459523Y-101361904D01*
X117230952Y-101361904D01*
X117154761Y-101400000D01*
X117116666Y-101438095D01*
X117078571Y-101514285D01*
X117078571Y-101666666D01*
X117116666Y-101742857D01*
X117611904Y-102238095D02*
X117573809Y-102161904D01*
X117497619Y-102123809D01*
X116811904Y-102123809D01*
X116761904Y-103194047D02*
X116761904Y-103689285D01*
X117066666Y-103422619D01*
X117066666Y-103536904D01*
X117104761Y-103613095D01*
X117142857Y-103651190D01*
X117219047Y-103689285D01*
X117409523Y-103689285D01*
X117485714Y-103651190D01*
X117523809Y-103613095D01*
X117561904Y-103536904D01*
X117561904Y-103308333D01*
X117523809Y-103232142D01*
X117485714Y-103194047D01*
X117485714Y-104032142D02*
X117523809Y-104070238D01*
X117561904Y-104032142D01*
X117523809Y-103994047D01*
X117485714Y-104032142D01*
X117561904Y-104032142D01*
X116761904Y-104336904D02*
X116761904Y-104832142D01*
X117066666Y-104565476D01*
X117066666Y-104679761D01*
X117104761Y-104755952D01*
X117142857Y-104794047D01*
X117219047Y-104832142D01*
X117409523Y-104832142D01*
X117485714Y-104794047D01*
X117523809Y-104755952D01*
X117561904Y-104679761D01*
X117561904Y-104451190D01*
X117523809Y-104375000D01*
X117485714Y-104336904D01*
X116761904Y-105060714D02*
X117561904Y-105327380D01*
X116761904Y-105594047D01*
X88433333Y-94561904D02*
X88166666Y-95361904D01*
X87900000Y-94561904D01*
X87671428Y-95323809D02*
X87557142Y-95361904D01*
X87366666Y-95361904D01*
X87290476Y-95323809D01*
X87252380Y-95285714D01*
X87214285Y-95209523D01*
X87214285Y-95133333D01*
X87252380Y-95057142D01*
X87290476Y-95019047D01*
X87366666Y-94980952D01*
X87519047Y-94942857D01*
X87595238Y-94904761D01*
X87633333Y-94866666D01*
X87671428Y-94790476D01*
X87671428Y-94714285D01*
X87633333Y-94638095D01*
X87595238Y-94600000D01*
X87519047Y-94561904D01*
X87328571Y-94561904D01*
X87214285Y-94600000D01*
X86985714Y-94561904D02*
X86528571Y-94561904D01*
X86757142Y-95361904D02*
X86757142Y-94561904D01*
X85842857Y-94600000D02*
X85919047Y-94561904D01*
X86033333Y-94561904D01*
X86147619Y-94600000D01*
X86223809Y-94676190D01*
X86261904Y-94752380D01*
X86300000Y-94904761D01*
X86300000Y-95019047D01*
X86261904Y-95171428D01*
X86223809Y-95247619D01*
X86147619Y-95323809D01*
X86033333Y-95361904D01*
X85957142Y-95361904D01*
X85842857Y-95323809D01*
X85804761Y-95285714D01*
X85804761Y-95019047D01*
X85957142Y-95019047D01*
X85042857Y-95361904D02*
X85500000Y-95361904D01*
X85271428Y-95361904D02*
X85271428Y-94561904D01*
X85347619Y-94676190D01*
X85423809Y-94752380D01*
X85500000Y-94790476D01*
X116850000Y-97965476D02*
X116811904Y-97889285D01*
X116811904Y-97775000D01*
X116850000Y-97660714D01*
X116926190Y-97584523D01*
X117002380Y-97546428D01*
X117154761Y-97508333D01*
X117269047Y-97508333D01*
X117421428Y-97546428D01*
X117497619Y-97584523D01*
X117573809Y-97660714D01*
X117611904Y-97775000D01*
X117611904Y-97851190D01*
X117573809Y-97965476D01*
X117535714Y-98003571D01*
X117269047Y-98003571D01*
X117269047Y-97851190D01*
X117611904Y-98346428D02*
X116811904Y-98346428D01*
X117611904Y-98803571D01*
X116811904Y-98803571D01*
X117611904Y-99184523D02*
X116811904Y-99184523D01*
X116811904Y-99375000D01*
X116850000Y-99489285D01*
X116926190Y-99565476D01*
X117002380Y-99603571D01*
X117154761Y-99641666D01*
X117269047Y-99641666D01*
X117421428Y-99603571D01*
X117497619Y-99565476D01*
X117573809Y-99489285D01*
X117611904Y-99375000D01*
X117611904Y-99184523D01*
X84909523Y-103975000D02*
X84985714Y-103936904D01*
X85100000Y-103936904D01*
X85214285Y-103975000D01*
X85290476Y-104051190D01*
X85328571Y-104127380D01*
X85366666Y-104279761D01*
X85366666Y-104394047D01*
X85328571Y-104546428D01*
X85290476Y-104622619D01*
X85214285Y-104698809D01*
X85100000Y-104736904D01*
X85023809Y-104736904D01*
X84909523Y-104698809D01*
X84871428Y-104660714D01*
X84871428Y-104394047D01*
X85023809Y-104394047D01*
X84528571Y-104736904D02*
X84528571Y-103936904D01*
X84071428Y-104736904D01*
X84071428Y-103936904D01*
X83690476Y-104736904D02*
X83690476Y-103936904D01*
X83500000Y-103936904D01*
X83385714Y-103975000D01*
X83309523Y-104051190D01*
X83271428Y-104127380D01*
X83233333Y-104279761D01*
X83233333Y-104394047D01*
X83271428Y-104546428D01*
X83309523Y-104622619D01*
X83385714Y-104698809D01*
X83500000Y-104736904D01*
X83690476Y-104736904D01*
X106490476Y-88661904D02*
X106223809Y-89461904D01*
X105957142Y-88661904D01*
X105690476Y-89042857D02*
X105423809Y-89042857D01*
X105309523Y-89461904D02*
X105690476Y-89461904D01*
X105690476Y-88661904D01*
X105309523Y-88661904D01*
X104966666Y-89461904D02*
X104966666Y-88661904D01*
X104509523Y-89461904D01*
X104509523Y-88661904D01*
X104242857Y-88661904D02*
X103976190Y-89461904D01*
X103709523Y-88661904D01*
X92132547Y-89443399D02*
X91865880Y-90243399D01*
X91599214Y-89443399D01*
X91370642Y-90205304D02*
X91256356Y-90243399D01*
X91065880Y-90243399D01*
X90989690Y-90205304D01*
X90951594Y-90167209D01*
X90913499Y-90091018D01*
X90913499Y-90014828D01*
X90951594Y-89938637D01*
X90989690Y-89900542D01*
X91065880Y-89862447D01*
X91218261Y-89824352D01*
X91294452Y-89786256D01*
X91332547Y-89748161D01*
X91370642Y-89671971D01*
X91370642Y-89595780D01*
X91332547Y-89519590D01*
X91294452Y-89481495D01*
X91218261Y-89443399D01*
X91027785Y-89443399D01*
X90913499Y-89481495D01*
X90684928Y-89443399D02*
X90227785Y-89443399D01*
X90456356Y-90243399D02*
X90456356Y-89443399D01*
X89542071Y-89481495D02*
X89618261Y-89443399D01*
X89732547Y-89443399D01*
X89846833Y-89481495D01*
X89923023Y-89557685D01*
X89961118Y-89633875D01*
X89999214Y-89786256D01*
X89999214Y-89900542D01*
X89961118Y-90052923D01*
X89923023Y-90129114D01*
X89846833Y-90205304D01*
X89732547Y-90243399D01*
X89656356Y-90243399D01*
X89542071Y-90205304D01*
X89503975Y-90167209D01*
X89503975Y-89900542D01*
X89656356Y-89900542D01*
X89199214Y-89519590D02*
X89161118Y-89481495D01*
X89084928Y-89443399D01*
X88894452Y-89443399D01*
X88818261Y-89481495D01*
X88780166Y-89519590D01*
X88742071Y-89595780D01*
X88742071Y-89671971D01*
X88780166Y-89786256D01*
X89237309Y-90243399D01*
X88742071Y-90243399D01*
X117611904Y-94436095D02*
X116811904Y-94436095D01*
X116811904Y-94626571D01*
X116850000Y-94740857D01*
X116926190Y-94817047D01*
X117002380Y-94855142D01*
X117154761Y-94893238D01*
X117269047Y-94893238D01*
X117421428Y-94855142D01*
X117497619Y-94817047D01*
X117573809Y-94740857D01*
X117611904Y-94626571D01*
X117611904Y-94436095D01*
X117611904Y-95578952D02*
X117192857Y-95578952D01*
X117116666Y-95540857D01*
X117078571Y-95464666D01*
X117078571Y-95312285D01*
X117116666Y-95236095D01*
X117573809Y-95578952D02*
X117611904Y-95502761D01*
X117611904Y-95312285D01*
X117573809Y-95236095D01*
X117497619Y-95198000D01*
X117421428Y-95198000D01*
X117345238Y-95236095D01*
X117307142Y-95312285D01*
X117307142Y-95502761D01*
X117269047Y-95578952D01*
X117078571Y-95845619D02*
X117078571Y-96150380D01*
X116811904Y-95959904D02*
X117497619Y-95959904D01*
X117573809Y-95998000D01*
X117611904Y-96074190D01*
X117611904Y-96150380D01*
X117611904Y-96759904D02*
X117192857Y-96759904D01*
X117116666Y-96721809D01*
X117078571Y-96645619D01*
X117078571Y-96493238D01*
X117116666Y-96417047D01*
X117573809Y-96759904D02*
X117611904Y-96683714D01*
X117611904Y-96493238D01*
X117573809Y-96417047D01*
X117497619Y-96378952D01*
X117421428Y-96378952D01*
X117345238Y-96417047D01*
X117307142Y-96493238D01*
X117307142Y-96683714D01*
X117269047Y-96759904D01*
D11*
G04 #@! TO.C,LS1*
X100439285Y-91111904D02*
X100820238Y-91111904D01*
X100820238Y-90311904D01*
X100210714Y-91073809D02*
X100096428Y-91111904D01*
X99905952Y-91111904D01*
X99829761Y-91073809D01*
X99791666Y-91035714D01*
X99753571Y-90959523D01*
X99753571Y-90883333D01*
X99791666Y-90807142D01*
X99829761Y-90769047D01*
X99905952Y-90730952D01*
X100058333Y-90692857D01*
X100134523Y-90654761D01*
X100172619Y-90616666D01*
X100210714Y-90540476D01*
X100210714Y-90464285D01*
X100172619Y-90388095D01*
X100134523Y-90350000D01*
X100058333Y-90311904D01*
X99867857Y-90311904D01*
X99753571Y-90350000D01*
X98991666Y-91111904D02*
X99448809Y-91111904D01*
X99220238Y-91111904D02*
X99220238Y-90311904D01*
X99296428Y-90426190D01*
X99372619Y-90502380D01*
X99448809Y-90540476D01*
D10*
G04 #@! TO.C,TP5*
X86000000Y-101450000D02*
G75*
G03*
X86000000Y-101450000I-1750000J0D01*
G01*
D12*
G04 #@! TO.C,LS1*
X108000000Y-100000000D02*
G75*
G03*
X108000000Y-100000000I-8000000J0D01*
G01*
G04 #@! TD*
%LPC*%
D13*
G04 #@! TO.C,H5*
X85000000Y-90556000D03*
G04 #@! TD*
G04 #@! TO.C,H4*
X85000000Y-109444000D03*
G04 #@! TD*
D14*
G04 #@! TO.C,TP1*
X86700000Y-97550000D03*
G04 #@! TD*
D13*
G04 #@! TO.C,H3*
X115000000Y-90556000D03*
G04 #@! TD*
D14*
G04 #@! TO.C,TP2*
X94100000Y-89900000D03*
G04 #@! TD*
G04 #@! TO.C,TP3*
X108525000Y-89975000D03*
G04 #@! TD*
D15*
G04 #@! TO.C,J1*
X114900000Y-103900000D03*
D16*
X114900000Y-101360000D03*
X114900000Y-98820000D03*
X114900000Y-96280000D03*
G04 #@! TD*
D13*
G04 #@! TO.C,H2*
X115000000Y-109444000D03*
G04 #@! TD*
D14*
G04 #@! TO.C,TP5*
X84250000Y-101450000D03*
G04 #@! TD*
D17*
G04 #@! TO.C,LS1*
X100000000Y-95000000D03*
X100000000Y-105000000D03*
G04 #@! TD*
M02*
