G04 #@! TF.GenerationSoftware,KiCad,Pcbnew,(6.0.2)*
G04 #@! TF.CreationDate,2022-05-11T22:01:16-05:00*
G04 #@! TF.ProjectId,Receive US,52656365-6976-4652-9055-532e6b696361,rev?*
G04 #@! TF.SameCoordinates,Original*
G04 #@! TF.FileFunction,Copper,L2,Bot*
G04 #@! TF.FilePolarity,Positive*
%FSLAX46Y46*%
G04 Gerber Fmt 4.6, Leading zero omitted, Abs format (unit mm)*
G04 Created by KiCad (PCBNEW (6.0.2)) date 2022-05-11 22:01:16*
%MOMM*%
%LPD*%
G01*
G04 APERTURE LIST*
G04 #@! TA.AperFunction,ComponentPad*
%ADD10C,2.800000*%
G04 #@! TD*
G04 #@! TA.AperFunction,ComponentPad*
%ADD11R,1.700000X1.700000*%
G04 #@! TD*
G04 #@! TA.AperFunction,ComponentPad*
%ADD12O,1.700000X1.700000*%
G04 #@! TD*
G04 #@! TA.AperFunction,ComponentPad*
%ADD13C,2.000000*%
G04 #@! TD*
G04 #@! TA.AperFunction,ViaPad*
%ADD14C,0.800000*%
G04 #@! TD*
G04 #@! TA.AperFunction,Conductor*
%ADD15C,0.250000*%
G04 #@! TD*
G04 APERTURE END LIST*
D10*
G04 #@! TO.P,TP1,1,1*
G04 #@! TO.N,Net-(R5-Pad2)*
X86700000Y-97550000D03*
G04 #@! TD*
G04 #@! TO.P,TP2,1,1*
G04 #@! TO.N,Net-(C6-Pad2)*
X94100000Y-89900000D03*
G04 #@! TD*
G04 #@! TO.P,TP3,1,1*
G04 #@! TO.N,Net-(C7-Pad2)*
X108525000Y-89975000D03*
G04 #@! TD*
D11*
G04 #@! TO.P,J1,1,Pin_1*
G04 #@! TO.N,+3V3*
X114900000Y-103900000D03*
D12*
G04 #@! TO.P,J1,2,Pin_2*
G04 #@! TO.N,/SQUELCH*
X114900000Y-101360000D03*
G04 #@! TO.P,J1,3,Pin_3*
G04 #@! TO.N,GNDREF*
X114900000Y-98820000D03*
G04 #@! TO.P,J1,4,Pin_4*
G04 #@! TO.N,/SIGNALOUT*
X114900000Y-96280000D03*
G04 #@! TD*
D10*
G04 #@! TO.P,TP5,1,1*
G04 #@! TO.N,GNDREF*
X84250000Y-101450000D03*
G04 #@! TD*
D13*
G04 #@! TO.P,LS1,1,1*
G04 #@! TO.N,GNDREF*
X100000000Y-95000000D03*
G04 #@! TO.P,LS1,2,2*
G04 #@! TO.N,Net-(C1-Pad1)*
X100000000Y-105000000D03*
G04 #@! TD*
D14*
G04 #@! TO.N,VHALF*
X105900000Y-99075500D03*
X105500000Y-100700000D03*
G04 #@! TO.N,GNDREF*
X104200000Y-99500000D03*
X111500000Y-96500000D03*
X110250000Y-105600000D03*
X111700000Y-98000000D03*
X101300000Y-99500000D03*
X109250000Y-106950000D03*
X104400000Y-108800000D03*
X109200000Y-109000000D03*
X95550000Y-107300000D03*
X95900000Y-101000000D03*
X98550000Y-100800000D03*
X107800000Y-96600000D03*
G04 #@! TD*
D15*
G04 #@! TO.N,VHALF*
X105500000Y-100700000D02*
X105900000Y-100300000D01*
X105900000Y-100300000D02*
X105900000Y-99075500D01*
G04 #@! TD*
G04 #@! TA.AperFunction,Conductor*
G04 #@! TO.N,GNDREF*
G36*
X114970057Y-87509500D02*
G01*
X114984858Y-87511805D01*
X114984861Y-87511805D01*
X114993730Y-87513186D01*
X115002631Y-87512022D01*
X115002635Y-87512022D01*
X115012411Y-87510743D01*
X115035342Y-87509852D01*
X115312003Y-87524351D01*
X115325119Y-87525729D01*
X115627193Y-87573573D01*
X115640093Y-87576315D01*
X115935510Y-87655472D01*
X115948053Y-87659548D01*
X116233565Y-87769145D01*
X116245614Y-87774509D01*
X116518120Y-87913358D01*
X116529536Y-87919949D01*
X116786042Y-88086526D01*
X116796702Y-88094272D01*
X116891330Y-88170900D01*
X117034379Y-88286739D01*
X117044180Y-88295564D01*
X117260436Y-88511820D01*
X117269261Y-88521621D01*
X117460519Y-88757804D01*
X117461726Y-88759295D01*
X117469474Y-88769958D01*
X117636048Y-89026459D01*
X117642642Y-89037880D01*
X117781491Y-89310386D01*
X117786855Y-89322435D01*
X117896452Y-89607947D01*
X117900528Y-89620489D01*
X117950890Y-89808444D01*
X117979685Y-89915907D01*
X117982427Y-89928807D01*
X118030271Y-90230881D01*
X118031649Y-90243997D01*
X118041046Y-90423297D01*
X118045764Y-90513330D01*
X118044436Y-90539312D01*
X118044195Y-90540856D01*
X118044195Y-90540860D01*
X118042814Y-90549730D01*
X118043978Y-90558632D01*
X118043978Y-90558635D01*
X118046936Y-90581251D01*
X118048000Y-90597589D01*
X118048000Y-109394672D01*
X118046500Y-109414056D01*
X118042814Y-109437730D01*
X118043978Y-109446631D01*
X118043978Y-109446635D01*
X118045257Y-109456411D01*
X118046148Y-109479342D01*
X118040114Y-109594488D01*
X118031649Y-109756002D01*
X118030271Y-109769119D01*
X117982427Y-110071193D01*
X117979685Y-110084093D01*
X117900528Y-110379510D01*
X117896452Y-110392053D01*
X117786855Y-110677565D01*
X117781491Y-110689614D01*
X117642642Y-110962120D01*
X117636051Y-110973536D01*
X117469474Y-111230042D01*
X117461728Y-111240702D01*
X117353209Y-111374712D01*
X117269261Y-111478379D01*
X117260436Y-111488180D01*
X117044180Y-111704436D01*
X117034379Y-111713261D01*
X116809058Y-111895723D01*
X116796705Y-111905726D01*
X116786042Y-111913474D01*
X116529536Y-112080051D01*
X116518120Y-112086642D01*
X116245614Y-112225491D01*
X116233565Y-112230855D01*
X115948053Y-112340452D01*
X115935510Y-112344528D01*
X115640093Y-112423685D01*
X115627193Y-112426427D01*
X115325119Y-112474271D01*
X115312003Y-112475649D01*
X115042666Y-112489764D01*
X115016688Y-112488436D01*
X115015144Y-112488195D01*
X115015140Y-112488195D01*
X115006270Y-112486814D01*
X114997368Y-112487978D01*
X114997365Y-112487978D01*
X114974749Y-112490936D01*
X114958411Y-112492000D01*
X85049328Y-112492000D01*
X85029943Y-112490500D01*
X85015142Y-112488195D01*
X85015139Y-112488195D01*
X85006270Y-112486814D01*
X84997369Y-112487978D01*
X84997365Y-112487978D01*
X84987589Y-112489257D01*
X84964658Y-112490148D01*
X84687997Y-112475649D01*
X84674881Y-112474271D01*
X84372807Y-112426427D01*
X84359907Y-112423685D01*
X84064490Y-112344528D01*
X84051947Y-112340452D01*
X83766435Y-112230855D01*
X83754386Y-112225491D01*
X83481880Y-112086642D01*
X83470464Y-112080051D01*
X83213958Y-111913474D01*
X83203295Y-111905726D01*
X83190943Y-111895723D01*
X82965621Y-111713261D01*
X82955820Y-111704436D01*
X82739564Y-111488180D01*
X82730739Y-111478379D01*
X82646791Y-111374712D01*
X82538272Y-111240702D01*
X82530526Y-111230042D01*
X82363949Y-110973536D01*
X82357358Y-110962120D01*
X82218509Y-110689614D01*
X82213145Y-110677565D01*
X82103548Y-110392053D01*
X82099472Y-110379510D01*
X82020315Y-110084093D01*
X82017573Y-110071193D01*
X81969729Y-109769119D01*
X81968351Y-109756002D01*
X81958955Y-109576703D01*
X82890743Y-109576703D01*
X82928268Y-109861734D01*
X83004129Y-110139036D01*
X83005813Y-110142984D01*
X83112051Y-110392053D01*
X83116923Y-110403476D01*
X83264561Y-110650161D01*
X83444313Y-110874528D01*
X83652851Y-111072423D01*
X83886317Y-111240186D01*
X83890112Y-111242195D01*
X83890113Y-111242196D01*
X83911869Y-111253715D01*
X84140392Y-111374712D01*
X84410373Y-111473511D01*
X84691264Y-111534755D01*
X84719841Y-111537004D01*
X84914282Y-111552307D01*
X84914291Y-111552307D01*
X84916739Y-111552500D01*
X85072271Y-111552500D01*
X85074407Y-111552354D01*
X85074418Y-111552354D01*
X85282548Y-111538165D01*
X85282554Y-111538164D01*
X85286825Y-111537873D01*
X85291020Y-111537004D01*
X85291022Y-111537004D01*
X85427584Y-111508723D01*
X85568342Y-111479574D01*
X85839343Y-111383607D01*
X86094812Y-111251750D01*
X86098313Y-111249289D01*
X86098317Y-111249287D01*
X86212418Y-111169095D01*
X86330023Y-111086441D01*
X86451518Y-110973541D01*
X86537479Y-110893661D01*
X86537481Y-110893658D01*
X86540622Y-110890740D01*
X86722713Y-110668268D01*
X86872927Y-110423142D01*
X86988483Y-110159898D01*
X87011894Y-110077715D01*
X87066068Y-109887534D01*
X87067244Y-109883406D01*
X87107751Y-109598784D01*
X87107845Y-109580951D01*
X87107867Y-109576703D01*
X112890743Y-109576703D01*
X112928268Y-109861734D01*
X113004129Y-110139036D01*
X113005813Y-110142984D01*
X113112051Y-110392053D01*
X113116923Y-110403476D01*
X113264561Y-110650161D01*
X113444313Y-110874528D01*
X113652851Y-111072423D01*
X113886317Y-111240186D01*
X113890112Y-111242195D01*
X113890113Y-111242196D01*
X113911869Y-111253715D01*
X114140392Y-111374712D01*
X114410373Y-111473511D01*
X114691264Y-111534755D01*
X114719841Y-111537004D01*
X114914282Y-111552307D01*
X114914291Y-111552307D01*
X114916739Y-111552500D01*
X115072271Y-111552500D01*
X115074407Y-111552354D01*
X115074418Y-111552354D01*
X115282548Y-111538165D01*
X115282554Y-111538164D01*
X115286825Y-111537873D01*
X115291020Y-111537004D01*
X115291022Y-111537004D01*
X115427584Y-111508723D01*
X115568342Y-111479574D01*
X115839343Y-111383607D01*
X116094812Y-111251750D01*
X116098313Y-111249289D01*
X116098317Y-111249287D01*
X116212417Y-111169096D01*
X116330023Y-111086441D01*
X116451518Y-110973541D01*
X116537479Y-110893661D01*
X116537481Y-110893658D01*
X116540622Y-110890740D01*
X116722713Y-110668268D01*
X116872927Y-110423142D01*
X116988483Y-110159898D01*
X117011894Y-110077715D01*
X117066068Y-109887534D01*
X117067244Y-109883406D01*
X117107751Y-109598784D01*
X117107845Y-109580951D01*
X117109235Y-109315583D01*
X117109235Y-109315576D01*
X117109257Y-109311297D01*
X117071732Y-109026266D01*
X116995871Y-108748964D01*
X116883077Y-108484524D01*
X116735439Y-108237839D01*
X116555687Y-108013472D01*
X116347149Y-107815577D01*
X116113683Y-107647814D01*
X116091843Y-107636250D01*
X116068654Y-107623972D01*
X115859608Y-107513288D01*
X115589627Y-107414489D01*
X115308736Y-107353245D01*
X115277685Y-107350801D01*
X115085718Y-107335693D01*
X115085709Y-107335693D01*
X115083261Y-107335500D01*
X114927729Y-107335500D01*
X114925593Y-107335646D01*
X114925582Y-107335646D01*
X114717452Y-107349835D01*
X114717446Y-107349836D01*
X114713175Y-107350127D01*
X114708980Y-107350996D01*
X114708978Y-107350996D01*
X114572416Y-107379277D01*
X114431658Y-107408426D01*
X114160657Y-107504393D01*
X113905188Y-107636250D01*
X113901687Y-107638711D01*
X113901683Y-107638713D01*
X113891594Y-107645804D01*
X113669977Y-107801559D01*
X113459378Y-107997260D01*
X113277287Y-108219732D01*
X113127073Y-108464858D01*
X113011517Y-108728102D01*
X112932756Y-109004594D01*
X112892249Y-109289216D01*
X112892227Y-109293505D01*
X112892226Y-109293512D01*
X112890765Y-109572417D01*
X112890743Y-109576703D01*
X87107867Y-109576703D01*
X87109235Y-109315583D01*
X87109235Y-109315576D01*
X87109257Y-109311297D01*
X87071732Y-109026266D01*
X86995871Y-108748964D01*
X86883077Y-108484524D01*
X86735439Y-108237839D01*
X86555687Y-108013472D01*
X86347149Y-107815577D01*
X86113683Y-107647814D01*
X86091843Y-107636250D01*
X86068654Y-107623972D01*
X85859608Y-107513288D01*
X85589627Y-107414489D01*
X85308736Y-107353245D01*
X85277685Y-107350801D01*
X85085718Y-107335693D01*
X85085709Y-107335693D01*
X85083261Y-107335500D01*
X84927729Y-107335500D01*
X84925593Y-107335646D01*
X84925582Y-107335646D01*
X84717452Y-107349835D01*
X84717446Y-107349836D01*
X84713175Y-107350127D01*
X84708980Y-107350996D01*
X84708978Y-107350996D01*
X84572416Y-107379277D01*
X84431658Y-107408426D01*
X84160657Y-107504393D01*
X83905188Y-107636250D01*
X83901687Y-107638711D01*
X83901683Y-107638713D01*
X83891594Y-107645804D01*
X83669977Y-107801559D01*
X83459378Y-107997260D01*
X83277287Y-108219732D01*
X83127073Y-108464858D01*
X83011517Y-108728102D01*
X82932756Y-109004594D01*
X82892249Y-109289216D01*
X82892227Y-109293505D01*
X82892226Y-109293512D01*
X82890765Y-109572417D01*
X82890743Y-109576703D01*
X81958955Y-109576703D01*
X81954236Y-109486666D01*
X81955564Y-109460688D01*
X81955805Y-109459144D01*
X81955805Y-109459140D01*
X81957186Y-109450270D01*
X81955547Y-109437730D01*
X81953064Y-109418749D01*
X81952000Y-109402411D01*
X81952000Y-105000000D01*
X98486835Y-105000000D01*
X98505465Y-105236711D01*
X98560895Y-105467594D01*
X98651760Y-105686963D01*
X98654346Y-105691183D01*
X98773241Y-105885202D01*
X98773245Y-105885208D01*
X98775824Y-105889416D01*
X98930031Y-106069969D01*
X99110584Y-106224176D01*
X99114792Y-106226755D01*
X99114798Y-106226759D01*
X99308817Y-106345654D01*
X99313037Y-106348240D01*
X99317607Y-106350133D01*
X99317611Y-106350135D01*
X99527833Y-106437211D01*
X99532406Y-106439105D01*
X99612609Y-106458360D01*
X99758476Y-106493380D01*
X99758482Y-106493381D01*
X99763289Y-106494535D01*
X100000000Y-106513165D01*
X100236711Y-106494535D01*
X100241518Y-106493381D01*
X100241524Y-106493380D01*
X100387391Y-106458360D01*
X100467594Y-106439105D01*
X100472167Y-106437211D01*
X100682389Y-106350135D01*
X100682393Y-106350133D01*
X100686963Y-106348240D01*
X100691183Y-106345654D01*
X100885202Y-106226759D01*
X100885208Y-106226755D01*
X100889416Y-106224176D01*
X101069969Y-106069969D01*
X101224176Y-105889416D01*
X101226755Y-105885208D01*
X101226759Y-105885202D01*
X101345654Y-105691183D01*
X101348240Y-105686963D01*
X101439105Y-105467594D01*
X101494535Y-105236711D01*
X101513165Y-105000000D01*
X101494535Y-104763289D01*
X101439105Y-104532406D01*
X101348240Y-104313037D01*
X101345654Y-104308817D01*
X101226759Y-104114798D01*
X101226755Y-104114792D01*
X101224176Y-104110584D01*
X101069969Y-103930031D01*
X100889416Y-103775824D01*
X100885208Y-103773245D01*
X100885202Y-103773241D01*
X100691183Y-103654346D01*
X100686963Y-103651760D01*
X100682393Y-103649867D01*
X100682389Y-103649865D01*
X100472167Y-103562789D01*
X100472165Y-103562788D01*
X100467594Y-103560895D01*
X100387391Y-103541640D01*
X100241524Y-103506620D01*
X100241518Y-103506619D01*
X100236711Y-103505465D01*
X100000000Y-103486835D01*
X99763289Y-103505465D01*
X99758482Y-103506619D01*
X99758476Y-103506620D01*
X99612609Y-103541640D01*
X99532406Y-103560895D01*
X99527835Y-103562788D01*
X99527833Y-103562789D01*
X99317611Y-103649865D01*
X99317607Y-103649867D01*
X99313037Y-103651760D01*
X99308817Y-103654346D01*
X99114798Y-103773241D01*
X99114792Y-103773245D01*
X99110584Y-103775824D01*
X98930031Y-103930031D01*
X98775824Y-104110584D01*
X98773245Y-104114792D01*
X98773241Y-104114798D01*
X98654346Y-104308817D01*
X98651760Y-104313037D01*
X98560895Y-104532406D01*
X98505465Y-104763289D01*
X98486835Y-105000000D01*
X81952000Y-105000000D01*
X81952000Y-102967806D01*
X83097361Y-102967806D01*
X83104751Y-102978108D01*
X83146630Y-103012203D01*
X83153909Y-103017318D01*
X83377756Y-103152085D01*
X83385670Y-103156118D01*
X83626286Y-103258006D01*
X83634691Y-103260883D01*
X83887257Y-103327850D01*
X83895989Y-103329516D01*
X84155474Y-103360227D01*
X84164340Y-103360645D01*
X84425561Y-103354490D01*
X84434414Y-103353653D01*
X84692162Y-103310752D01*
X84700796Y-103308679D01*
X84949930Y-103229888D01*
X84958192Y-103226617D01*
X85193731Y-103113513D01*
X85201455Y-103109107D01*
X85395268Y-102979606D01*
X85403556Y-102969688D01*
X85396299Y-102955509D01*
X84262812Y-101822022D01*
X84248868Y-101814408D01*
X84247035Y-101814539D01*
X84240420Y-101818790D01*
X83104527Y-102954683D01*
X83097361Y-102967806D01*
X81952000Y-102967806D01*
X81952000Y-101394367D01*
X82338245Y-101394367D01*
X82348503Y-101655459D01*
X82349478Y-101664288D01*
X82396422Y-101921332D01*
X82398631Y-101929934D01*
X82481324Y-102177796D01*
X82484728Y-102186014D01*
X82601519Y-102419750D01*
X82606043Y-102427398D01*
X82721352Y-102594235D01*
X82731673Y-102602589D01*
X82745323Y-102595467D01*
X83877978Y-101462812D01*
X83884356Y-101451132D01*
X84614408Y-101451132D01*
X84614539Y-101452965D01*
X84618790Y-101459580D01*
X85755517Y-102596307D01*
X85768917Y-102603624D01*
X85778821Y-102596637D01*
X85794686Y-102577763D01*
X85799905Y-102570580D01*
X85938171Y-102348876D01*
X85942333Y-102341017D01*
X86047988Y-102102030D01*
X86050994Y-102093680D01*
X86121921Y-101842192D01*
X86123722Y-101833499D01*
X86158672Y-101573292D01*
X86159200Y-101566899D01*
X86162773Y-101453222D01*
X86162646Y-101446779D01*
X86144106Y-101184923D01*
X86142853Y-101176119D01*
X86087858Y-100920677D01*
X86085379Y-100912144D01*
X86007115Y-100700000D01*
X104586496Y-100700000D01*
X104587186Y-100706565D01*
X104603650Y-100863207D01*
X104606458Y-100889928D01*
X104665473Y-101071556D01*
X104668776Y-101077278D01*
X104668777Y-101077279D01*
X104691595Y-101116800D01*
X104760960Y-101236944D01*
X104765378Y-101241851D01*
X104765379Y-101241852D01*
X104868740Y-101356646D01*
X104888747Y-101378866D01*
X105043248Y-101491118D01*
X105049276Y-101493802D01*
X105049278Y-101493803D01*
X105211681Y-101566109D01*
X105217712Y-101568794D01*
X105311112Y-101588647D01*
X105398056Y-101607128D01*
X105398061Y-101607128D01*
X105404513Y-101608500D01*
X105595487Y-101608500D01*
X105601939Y-101607128D01*
X105601944Y-101607128D01*
X105688887Y-101588647D01*
X105782288Y-101568794D01*
X105788319Y-101566109D01*
X105950722Y-101493803D01*
X105950724Y-101493802D01*
X105956752Y-101491118D01*
X106111253Y-101378866D01*
X106131260Y-101356646D01*
X106158228Y-101326695D01*
X113537251Y-101326695D01*
X113537548Y-101331848D01*
X113537548Y-101331851D01*
X113544546Y-101453222D01*
X113550110Y-101549715D01*
X113551247Y-101554761D01*
X113551248Y-101554767D01*
X113563358Y-101608500D01*
X113599222Y-101767639D01*
X113683266Y-101974616D01*
X113799987Y-102165088D01*
X113946250Y-102333938D01*
X113950230Y-102337242D01*
X113954981Y-102341187D01*
X113994616Y-102400090D01*
X113996113Y-102471071D01*
X113958997Y-102531593D01*
X113918725Y-102556112D01*
X113822751Y-102592091D01*
X113803295Y-102599385D01*
X113686739Y-102686739D01*
X113599385Y-102803295D01*
X113548255Y-102939684D01*
X113541500Y-103001866D01*
X113541500Y-104798134D01*
X113548255Y-104860316D01*
X113599385Y-104996705D01*
X113686739Y-105113261D01*
X113803295Y-105200615D01*
X113939684Y-105251745D01*
X114001866Y-105258500D01*
X115798134Y-105258500D01*
X115860316Y-105251745D01*
X115996705Y-105200615D01*
X116113261Y-105113261D01*
X116200615Y-104996705D01*
X116251745Y-104860316D01*
X116258500Y-104798134D01*
X116258500Y-103001866D01*
X116251745Y-102939684D01*
X116200615Y-102803295D01*
X116113261Y-102686739D01*
X115996705Y-102599385D01*
X115982967Y-102594235D01*
X115878203Y-102554960D01*
X115821439Y-102512318D01*
X115796739Y-102445756D01*
X115811947Y-102376408D01*
X115833493Y-102347727D01*
X115840056Y-102341187D01*
X115938096Y-102243489D01*
X115997594Y-102160689D01*
X116065435Y-102066277D01*
X116068453Y-102062077D01*
X116167430Y-101861811D01*
X116232370Y-101648069D01*
X116261529Y-101426590D01*
X116262316Y-101394367D01*
X116263074Y-101363365D01*
X116263074Y-101363361D01*
X116263156Y-101360000D01*
X116244852Y-101137361D01*
X116190431Y-100920702D01*
X116101354Y-100715840D01*
X116051502Y-100638781D01*
X115982822Y-100532617D01*
X115982820Y-100532614D01*
X115980014Y-100528277D01*
X115829670Y-100363051D01*
X115825619Y-100359852D01*
X115825615Y-100359848D01*
X115658414Y-100227800D01*
X115658410Y-100227798D01*
X115654359Y-100224598D01*
X115612569Y-100201529D01*
X115562598Y-100151097D01*
X115547826Y-100081654D01*
X115572942Y-100015248D01*
X115600294Y-99988641D01*
X115775328Y-99863792D01*
X115783200Y-99857139D01*
X115934052Y-99706812D01*
X115940730Y-99698965D01*
X116065003Y-99526020D01*
X116070313Y-99517183D01*
X116164670Y-99326267D01*
X116168469Y-99316672D01*
X116230377Y-99112910D01*
X116232555Y-99102837D01*
X116233986Y-99091962D01*
X116231775Y-99077778D01*
X116218617Y-99074000D01*
X113583225Y-99074000D01*
X113569694Y-99077973D01*
X113568257Y-99087966D01*
X113598565Y-99222446D01*
X113601645Y-99232275D01*
X113681770Y-99429603D01*
X113686413Y-99438794D01*
X113797694Y-99620388D01*
X113803777Y-99628699D01*
X113943213Y-99789667D01*
X113950580Y-99796883D01*
X114114434Y-99932916D01*
X114122881Y-99938831D01*
X114191969Y-99979203D01*
X114240693Y-100030842D01*
X114253764Y-100100625D01*
X114227033Y-100166396D01*
X114186584Y-100199752D01*
X114173607Y-100206507D01*
X114169474Y-100209610D01*
X114169471Y-100209612D01*
X114002831Y-100334729D01*
X113994965Y-100340635D01*
X113840629Y-100502138D01*
X113837715Y-100506410D01*
X113837714Y-100506411D01*
X113791736Y-100573813D01*
X113714743Y-100686680D01*
X113620688Y-100889305D01*
X113560989Y-101104570D01*
X113537251Y-101326695D01*
X106158228Y-101326695D01*
X106234621Y-101241852D01*
X106234622Y-101241851D01*
X106239040Y-101236944D01*
X106308405Y-101116800D01*
X106331223Y-101077279D01*
X106331224Y-101077278D01*
X106334527Y-101071556D01*
X106393542Y-100889928D01*
X106396351Y-100863207D01*
X106413206Y-100702836D01*
X106438955Y-100638781D01*
X106444753Y-100631306D01*
X106449613Y-100625041D01*
X106467176Y-100584457D01*
X106472383Y-100573827D01*
X106493695Y-100535060D01*
X106495666Y-100527383D01*
X106495668Y-100527378D01*
X106498732Y-100515442D01*
X106505138Y-100496730D01*
X106510034Y-100485417D01*
X106513181Y-100478145D01*
X106520097Y-100434481D01*
X106522504Y-100422860D01*
X106531528Y-100387711D01*
X106531528Y-100387710D01*
X106533500Y-100380030D01*
X106533500Y-100359769D01*
X106535051Y-100340058D01*
X106535452Y-100337530D01*
X106538219Y-100320057D01*
X106534059Y-100276046D01*
X106533500Y-100264189D01*
X106533500Y-99863087D01*
X106533582Y-99858542D01*
X106534936Y-99821030D01*
X106535811Y-99810074D01*
X106536741Y-99802572D01*
X106552737Y-99754948D01*
X106557757Y-99746276D01*
X106560288Y-99742093D01*
X106575784Y-99717571D01*
X106584559Y-99703684D01*
X106584751Y-99703805D01*
X106584827Y-99703688D01*
X106584634Y-99703566D01*
X106591319Y-99692980D01*
X106617836Y-99650993D01*
X106621481Y-99645133D01*
X106621674Y-99644818D01*
X106626387Y-99636968D01*
X106661317Y-99577581D01*
X106667832Y-99566170D01*
X106668125Y-99565641D01*
X106674320Y-99554106D01*
X106687736Y-99528340D01*
X106690371Y-99523537D01*
X106694039Y-99517183D01*
X106734527Y-99447056D01*
X106793542Y-99265428D01*
X106794898Y-99252532D01*
X106812814Y-99082065D01*
X106813504Y-99075500D01*
X106793542Y-98885572D01*
X106734527Y-98703944D01*
X106639040Y-98538556D01*
X106622339Y-98520007D01*
X106515675Y-98401545D01*
X106515674Y-98401544D01*
X106511253Y-98396634D01*
X106356752Y-98284382D01*
X106350724Y-98281698D01*
X106350722Y-98281697D01*
X106188319Y-98209391D01*
X106188318Y-98209391D01*
X106182288Y-98206706D01*
X106088887Y-98186853D01*
X106001944Y-98168372D01*
X106001939Y-98168372D01*
X105995487Y-98167000D01*
X105804513Y-98167000D01*
X105798061Y-98168372D01*
X105798056Y-98168372D01*
X105711112Y-98186853D01*
X105617712Y-98206706D01*
X105611682Y-98209391D01*
X105611681Y-98209391D01*
X105449278Y-98281697D01*
X105449276Y-98281698D01*
X105443248Y-98284382D01*
X105288747Y-98396634D01*
X105284326Y-98401544D01*
X105284325Y-98401545D01*
X105177662Y-98520007D01*
X105160960Y-98538556D01*
X105065473Y-98703944D01*
X105006458Y-98885572D01*
X104986496Y-99075500D01*
X104987186Y-99082065D01*
X105005103Y-99252532D01*
X105006458Y-99265428D01*
X105065473Y-99447056D01*
X105068773Y-99452772D01*
X105068774Y-99452774D01*
X105109611Y-99523506D01*
X105112251Y-99528318D01*
X105125433Y-99553637D01*
X105125481Y-99553728D01*
X105125677Y-99554104D01*
X105125917Y-99554550D01*
X105131654Y-99565232D01*
X105131675Y-99565271D01*
X105131874Y-99565641D01*
X105132167Y-99566170D01*
X105138682Y-99577581D01*
X105173612Y-99636968D01*
X105178641Y-99645333D01*
X105178821Y-99645626D01*
X105182147Y-99650966D01*
X105201029Y-99680865D01*
X105220490Y-99749139D01*
X105199950Y-99817099D01*
X105145742Y-99863249D01*
X105049281Y-99906195D01*
X105049274Y-99906199D01*
X105043248Y-99908882D01*
X104888747Y-100021134D01*
X104884326Y-100026044D01*
X104884325Y-100026045D01*
X104834255Y-100081654D01*
X104760960Y-100163056D01*
X104735874Y-100206507D01*
X104699140Y-100270132D01*
X104665473Y-100328444D01*
X104606458Y-100510072D01*
X104605768Y-100516633D01*
X104605768Y-100516635D01*
X104599212Y-100579017D01*
X104586496Y-100700000D01*
X86007115Y-100700000D01*
X85994941Y-100667002D01*
X85991286Y-100658907D01*
X85867206Y-100428947D01*
X85862447Y-100421449D01*
X85777759Y-100306790D01*
X85766631Y-100298348D01*
X85754038Y-100305172D01*
X84622022Y-101437188D01*
X84614408Y-101451132D01*
X83884356Y-101451132D01*
X83885592Y-101448868D01*
X83885461Y-101447035D01*
X83881210Y-101440420D01*
X82745819Y-100305029D01*
X82732978Y-100298017D01*
X82722289Y-100305813D01*
X82670663Y-100371299D01*
X82665658Y-100378663D01*
X82534420Y-100604605D01*
X82530516Y-100612575D01*
X82432420Y-100854763D01*
X82429676Y-100863207D01*
X82366683Y-101116800D01*
X82365156Y-101125551D01*
X82338524Y-101385483D01*
X82338245Y-101394367D01*
X81952000Y-101394367D01*
X81952000Y-99932688D01*
X83098045Y-99932688D01*
X83105025Y-99945815D01*
X84237188Y-101077978D01*
X84251132Y-101085592D01*
X84252965Y-101085461D01*
X84259580Y-101081210D01*
X85394804Y-99945986D01*
X85401658Y-99933434D01*
X85393450Y-99922363D01*
X85303762Y-99853916D01*
X85296313Y-99849023D01*
X85068353Y-99721359D01*
X85060303Y-99717571D01*
X84816617Y-99623295D01*
X84808127Y-99620683D01*
X84553578Y-99561683D01*
X84544800Y-99560293D01*
X84284478Y-99537746D01*
X84275607Y-99537606D01*
X84014696Y-99551965D01*
X84005886Y-99553079D01*
X83749607Y-99604055D01*
X83741050Y-99606396D01*
X83494496Y-99692980D01*
X83486362Y-99696500D01*
X83254477Y-99816955D01*
X83246905Y-99821594D01*
X83106447Y-99921967D01*
X83098045Y-99932688D01*
X81952000Y-99932688D01*
X81952000Y-97489899D01*
X84787569Y-97489899D01*
X84798180Y-97759963D01*
X84846737Y-98025837D01*
X84932272Y-98282217D01*
X85053078Y-98523987D01*
X85055607Y-98527646D01*
X85159563Y-98678058D01*
X85206744Y-98746324D01*
X85390205Y-98944790D01*
X85599799Y-99115427D01*
X85831346Y-99254830D01*
X85835441Y-99256564D01*
X85835443Y-99256565D01*
X86076124Y-99358480D01*
X86076131Y-99358482D01*
X86080225Y-99360216D01*
X86176358Y-99385705D01*
X86337172Y-99428345D01*
X86337177Y-99428346D01*
X86341469Y-99429484D01*
X86345878Y-99430006D01*
X86345884Y-99430007D01*
X86495210Y-99447680D01*
X86609868Y-99461251D01*
X86880064Y-99454883D01*
X86884459Y-99454151D01*
X86884464Y-99454151D01*
X87142267Y-99411241D01*
X87142271Y-99411240D01*
X87146669Y-99410508D01*
X87314959Y-99357285D01*
X87400114Y-99330354D01*
X87400116Y-99330353D01*
X87404360Y-99329011D01*
X87408371Y-99327085D01*
X87408376Y-99327083D01*
X87643979Y-99213948D01*
X87643980Y-99213947D01*
X87647998Y-99212018D01*
X87854557Y-99074000D01*
X87869013Y-99064341D01*
X87869017Y-99064338D01*
X87872721Y-99061863D01*
X87876038Y-99058892D01*
X87876042Y-99058889D01*
X88070729Y-98884512D01*
X88074045Y-98881542D01*
X88247953Y-98674654D01*
X88390975Y-98445325D01*
X88500258Y-98198133D01*
X88573620Y-97938008D01*
X88596946Y-97764343D01*
X88609172Y-97673324D01*
X88609173Y-97673316D01*
X88609599Y-97670142D01*
X88609851Y-97662120D01*
X88613274Y-97553222D01*
X88613274Y-97553217D01*
X88613375Y-97550000D01*
X88594287Y-97280403D01*
X88537402Y-97016185D01*
X88526369Y-96986277D01*
X88445397Y-96766796D01*
X88443856Y-96762619D01*
X88414510Y-96708231D01*
X88317629Y-96528678D01*
X88317629Y-96528677D01*
X88315516Y-96524762D01*
X88154942Y-96307362D01*
X88128007Y-96280000D01*
X88081414Y-96232670D01*
X99132160Y-96232670D01*
X99137887Y-96240320D01*
X99309042Y-96345205D01*
X99317837Y-96349687D01*
X99527988Y-96436734D01*
X99537373Y-96439783D01*
X99758554Y-96492885D01*
X99768301Y-96494428D01*
X99995070Y-96512275D01*
X100004930Y-96512275D01*
X100231699Y-96494428D01*
X100241446Y-96492885D01*
X100462627Y-96439783D01*
X100472012Y-96436734D01*
X100682163Y-96349687D01*
X100690958Y-96345205D01*
X100851710Y-96246695D01*
X113537251Y-96246695D01*
X113537548Y-96251848D01*
X113537548Y-96251851D01*
X113542931Y-96345205D01*
X113550110Y-96469715D01*
X113551247Y-96474761D01*
X113551248Y-96474767D01*
X113563398Y-96528678D01*
X113599222Y-96687639D01*
X113683266Y-96894616D01*
X113799987Y-97085088D01*
X113946250Y-97253938D01*
X114118126Y-97396632D01*
X114191955Y-97439774D01*
X114240679Y-97491412D01*
X114253750Y-97561195D01*
X114227019Y-97626967D01*
X114186562Y-97660327D01*
X114178457Y-97664546D01*
X114169738Y-97670036D01*
X113999433Y-97797905D01*
X113991726Y-97804748D01*
X113844590Y-97958717D01*
X113838104Y-97966727D01*
X113718098Y-98142649D01*
X113713000Y-98151623D01*
X113623338Y-98344783D01*
X113619775Y-98354470D01*
X113564389Y-98554183D01*
X113565912Y-98562607D01*
X113578292Y-98566000D01*
X116218344Y-98566000D01*
X116231875Y-98562027D01*
X116233180Y-98552947D01*
X116191214Y-98385875D01*
X116187894Y-98376124D01*
X116102972Y-98180814D01*
X116098105Y-98171739D01*
X115982426Y-97992926D01*
X115976136Y-97984757D01*
X115832806Y-97827240D01*
X115825273Y-97820215D01*
X115658139Y-97688222D01*
X115649556Y-97682520D01*
X115612602Y-97662120D01*
X115562631Y-97611687D01*
X115547859Y-97542245D01*
X115572975Y-97475839D01*
X115600327Y-97449232D01*
X115623797Y-97432491D01*
X115779860Y-97321173D01*
X115938096Y-97163489D01*
X115997594Y-97080689D01*
X116065435Y-96986277D01*
X116068453Y-96982077D01*
X116079990Y-96958735D01*
X116165136Y-96786453D01*
X116165137Y-96786451D01*
X116167430Y-96781811D01*
X116232370Y-96568069D01*
X116261529Y-96346590D01*
X116262400Y-96310954D01*
X116263074Y-96283365D01*
X116263074Y-96283361D01*
X116263156Y-96280000D01*
X116244852Y-96057361D01*
X116190431Y-95840702D01*
X116101354Y-95635840D01*
X115995369Y-95472012D01*
X115982822Y-95452617D01*
X115982820Y-95452614D01*
X115980014Y-95448277D01*
X115829670Y-95283051D01*
X115825619Y-95279852D01*
X115825615Y-95279848D01*
X115658414Y-95147800D01*
X115658410Y-95147798D01*
X115654359Y-95144598D01*
X115458789Y-95036638D01*
X115453920Y-95034914D01*
X115453916Y-95034912D01*
X115253087Y-94963795D01*
X115253083Y-94963794D01*
X115248212Y-94962069D01*
X115243119Y-94961162D01*
X115243116Y-94961161D01*
X115033373Y-94923800D01*
X115033367Y-94923799D01*
X115028284Y-94922894D01*
X114954452Y-94921992D01*
X114810081Y-94920228D01*
X114810079Y-94920228D01*
X114804911Y-94920165D01*
X114584091Y-94953955D01*
X114371756Y-95023357D01*
X114173607Y-95126507D01*
X114169474Y-95129610D01*
X114169471Y-95129612D01*
X114145247Y-95147800D01*
X113994965Y-95260635D01*
X113840629Y-95422138D01*
X113714743Y-95606680D01*
X113693436Y-95652582D01*
X113628483Y-95792513D01*
X113620688Y-95809305D01*
X113560989Y-96024570D01*
X113537251Y-96246695D01*
X100851710Y-96246695D01*
X100858445Y-96242568D01*
X100867907Y-96232110D01*
X100864124Y-96223334D01*
X100012812Y-95372022D01*
X99998868Y-95364408D01*
X99997035Y-95364539D01*
X99990420Y-95368790D01*
X99138920Y-96220290D01*
X99132160Y-96232670D01*
X88081414Y-96232670D01*
X87968469Y-96117937D01*
X87965338Y-96114756D01*
X87840638Y-96019588D01*
X87754028Y-95953489D01*
X87754024Y-95953487D01*
X87750487Y-95950787D01*
X87514675Y-95818727D01*
X87262609Y-95721210D01*
X87258284Y-95720207D01*
X87258279Y-95720206D01*
X87132094Y-95690958D01*
X86999318Y-95660182D01*
X86730054Y-95636861D01*
X86725619Y-95637105D01*
X86725615Y-95637105D01*
X86464634Y-95651468D01*
X86464627Y-95651469D01*
X86460191Y-95651713D01*
X86328622Y-95677883D01*
X86199484Y-95703570D01*
X86199479Y-95703571D01*
X86195112Y-95704440D01*
X86190909Y-95705916D01*
X85944315Y-95792513D01*
X85944312Y-95792514D01*
X85940107Y-95793991D01*
X85936154Y-95796044D01*
X85936148Y-95796047D01*
X85892488Y-95818727D01*
X85700264Y-95918580D01*
X85696649Y-95921163D01*
X85696643Y-95921167D01*
X85483990Y-96073131D01*
X85483986Y-96073134D01*
X85480369Y-96075719D01*
X85477149Y-96078791D01*
X85325629Y-96223334D01*
X85284808Y-96262275D01*
X85117485Y-96474524D01*
X85115253Y-96478366D01*
X85115250Y-96478371D01*
X84983974Y-96704377D01*
X84983971Y-96704384D01*
X84981736Y-96708231D01*
X84880272Y-96958735D01*
X84879201Y-96963048D01*
X84879199Y-96963053D01*
X84828504Y-97167137D01*
X84815116Y-97221035D01*
X84814662Y-97225463D01*
X84814662Y-97225465D01*
X84788023Y-97485467D01*
X84787569Y-97489899D01*
X81952000Y-97489899D01*
X81952000Y-95004930D01*
X98487725Y-95004930D01*
X98505572Y-95231699D01*
X98507115Y-95241446D01*
X98560217Y-95462627D01*
X98563266Y-95472012D01*
X98650313Y-95682163D01*
X98654795Y-95690958D01*
X98757432Y-95858445D01*
X98767890Y-95867907D01*
X98776666Y-95864124D01*
X99627978Y-95012812D01*
X99634356Y-95001132D01*
X100364408Y-95001132D01*
X100364539Y-95002965D01*
X100368790Y-95009580D01*
X101220290Y-95861080D01*
X101232670Y-95867840D01*
X101240320Y-95862113D01*
X101345205Y-95690958D01*
X101349687Y-95682163D01*
X101436734Y-95472012D01*
X101439783Y-95462627D01*
X101492885Y-95241446D01*
X101494428Y-95231699D01*
X101512275Y-95004930D01*
X101512275Y-94995070D01*
X101494428Y-94768301D01*
X101492885Y-94758554D01*
X101439783Y-94537373D01*
X101436734Y-94527988D01*
X101349687Y-94317837D01*
X101345205Y-94309042D01*
X101242568Y-94141555D01*
X101232110Y-94132093D01*
X101223334Y-94135876D01*
X100372022Y-94987188D01*
X100364408Y-95001132D01*
X99634356Y-95001132D01*
X99635592Y-94998868D01*
X99635461Y-94997035D01*
X99631210Y-94990420D01*
X98779710Y-94138920D01*
X98767330Y-94132160D01*
X98759680Y-94137887D01*
X98654795Y-94309042D01*
X98650313Y-94317837D01*
X98563266Y-94527988D01*
X98560217Y-94537373D01*
X98507115Y-94758554D01*
X98505572Y-94768301D01*
X98487725Y-94995070D01*
X98487725Y-95004930D01*
X81952000Y-95004930D01*
X81952000Y-93767890D01*
X99132093Y-93767890D01*
X99135876Y-93776666D01*
X99987188Y-94627978D01*
X100001132Y-94635592D01*
X100002965Y-94635461D01*
X100009580Y-94631210D01*
X100861080Y-93779710D01*
X100867840Y-93767330D01*
X100862113Y-93759680D01*
X100690958Y-93654795D01*
X100682163Y-93650313D01*
X100472012Y-93563266D01*
X100462627Y-93560217D01*
X100241446Y-93507115D01*
X100231699Y-93505572D01*
X100004930Y-93487725D01*
X99995070Y-93487725D01*
X99768301Y-93505572D01*
X99758554Y-93507115D01*
X99537373Y-93560217D01*
X99527988Y-93563266D01*
X99317837Y-93650313D01*
X99309042Y-93654795D01*
X99141555Y-93757432D01*
X99132093Y-93767890D01*
X81952000Y-93767890D01*
X81952000Y-90688703D01*
X82890743Y-90688703D01*
X82891302Y-90692947D01*
X82891302Y-90692951D01*
X82893084Y-90706488D01*
X82928268Y-90973734D01*
X83004129Y-91251036D01*
X83116923Y-91515476D01*
X83143296Y-91559542D01*
X83233473Y-91710216D01*
X83264561Y-91762161D01*
X83444313Y-91986528D01*
X83652851Y-92184423D01*
X83886317Y-92352186D01*
X83890112Y-92354195D01*
X83890113Y-92354196D01*
X83911869Y-92365715D01*
X84140392Y-92486712D01*
X84410373Y-92585511D01*
X84691264Y-92646755D01*
X84719841Y-92649004D01*
X84914282Y-92664307D01*
X84914291Y-92664307D01*
X84916739Y-92664500D01*
X85072271Y-92664500D01*
X85074407Y-92664354D01*
X85074418Y-92664354D01*
X85282548Y-92650165D01*
X85282554Y-92650164D01*
X85286825Y-92649873D01*
X85291020Y-92649004D01*
X85291022Y-92649004D01*
X85427583Y-92620724D01*
X85568342Y-92591574D01*
X85839343Y-92495607D01*
X86094812Y-92363750D01*
X86098313Y-92361289D01*
X86098317Y-92361287D01*
X86212417Y-92281096D01*
X86330023Y-92198441D01*
X86540622Y-92002740D01*
X86722713Y-91780268D01*
X86872927Y-91535142D01*
X86895426Y-91483889D01*
X86986757Y-91275830D01*
X86988483Y-91271898D01*
X87067244Y-90995406D01*
X87107751Y-90710784D01*
X87107845Y-90692951D01*
X87109235Y-90427583D01*
X87109235Y-90427576D01*
X87109257Y-90423297D01*
X87071732Y-90138266D01*
X87065188Y-90114343D01*
X87049585Y-90057311D01*
X86995871Y-89860964D01*
X86986886Y-89839899D01*
X92187569Y-89839899D01*
X92187744Y-89844351D01*
X92197598Y-90095142D01*
X92198180Y-90109963D01*
X92246737Y-90375837D01*
X92248146Y-90380060D01*
X92321084Y-90598681D01*
X92332272Y-90632217D01*
X92392930Y-90753612D01*
X92449211Y-90866247D01*
X92453078Y-90873987D01*
X92455607Y-90877646D01*
X92559563Y-91028058D01*
X92606744Y-91096324D01*
X92672685Y-91167658D01*
X92769044Y-91271898D01*
X92790205Y-91294790D01*
X92999799Y-91465427D01*
X93003617Y-91467726D01*
X93003619Y-91467727D01*
X93156123Y-91559542D01*
X93231346Y-91604830D01*
X93235441Y-91606564D01*
X93235443Y-91606565D01*
X93476124Y-91708480D01*
X93476131Y-91708482D01*
X93480225Y-91710216D01*
X93576358Y-91735705D01*
X93737172Y-91778345D01*
X93737177Y-91778346D01*
X93741469Y-91779484D01*
X93745878Y-91780006D01*
X93745884Y-91780007D01*
X93895210Y-91797680D01*
X94009868Y-91811251D01*
X94280064Y-91804883D01*
X94284459Y-91804151D01*
X94284464Y-91804151D01*
X94542267Y-91761241D01*
X94542271Y-91761240D01*
X94546669Y-91760508D01*
X94714959Y-91707285D01*
X94800114Y-91680354D01*
X94800116Y-91680353D01*
X94804360Y-91679011D01*
X94808371Y-91677085D01*
X94808376Y-91677083D01*
X95043979Y-91563948D01*
X95043980Y-91563947D01*
X95047998Y-91562018D01*
X95196768Y-91462613D01*
X95269013Y-91414341D01*
X95269017Y-91414338D01*
X95272721Y-91411863D01*
X95276038Y-91408892D01*
X95276042Y-91408889D01*
X95452280Y-91251036D01*
X95474045Y-91231542D01*
X95647953Y-91024654D01*
X95668843Y-90991159D01*
X95788614Y-90799111D01*
X95788615Y-90799109D01*
X95790975Y-90795325D01*
X95900258Y-90548133D01*
X95973620Y-90288008D01*
X95981293Y-90230881D01*
X96009172Y-90023324D01*
X96009173Y-90023316D01*
X96009599Y-90020142D01*
X96012907Y-89914899D01*
X106612569Y-89914899D01*
X106614804Y-89971779D01*
X106621183Y-90134124D01*
X106623180Y-90184963D01*
X106623980Y-90189343D01*
X106665932Y-90419049D01*
X106671737Y-90450837D01*
X106757272Y-90707217D01*
X106759265Y-90711205D01*
X106840603Y-90873987D01*
X106878078Y-90948987D01*
X106880607Y-90952646D01*
X106984563Y-91103058D01*
X107031744Y-91171324D01*
X107215205Y-91369790D01*
X107424799Y-91540427D01*
X107428617Y-91542726D01*
X107428619Y-91542727D01*
X107581123Y-91634542D01*
X107656346Y-91679830D01*
X107660441Y-91681564D01*
X107660443Y-91681565D01*
X107901124Y-91783480D01*
X107901131Y-91783482D01*
X107905225Y-91785216D01*
X107976638Y-91804151D01*
X108162172Y-91853345D01*
X108162177Y-91853346D01*
X108166469Y-91854484D01*
X108170878Y-91855006D01*
X108170884Y-91855007D01*
X108320210Y-91872680D01*
X108434868Y-91886251D01*
X108705064Y-91879883D01*
X108709459Y-91879151D01*
X108709464Y-91879151D01*
X108967267Y-91836241D01*
X108967271Y-91836240D01*
X108971669Y-91835508D01*
X109213073Y-91759162D01*
X109225114Y-91755354D01*
X109225116Y-91755353D01*
X109229360Y-91754011D01*
X109233371Y-91752085D01*
X109233376Y-91752083D01*
X109468979Y-91638948D01*
X109468980Y-91638947D01*
X109472998Y-91637018D01*
X109621768Y-91537613D01*
X109694013Y-91489341D01*
X109694017Y-91489338D01*
X109697721Y-91486863D01*
X109701038Y-91483892D01*
X109701042Y-91483889D01*
X109895729Y-91309512D01*
X109899045Y-91306542D01*
X110072953Y-91099654D01*
X110140617Y-90991159D01*
X110213614Y-90874111D01*
X110213615Y-90874109D01*
X110215975Y-90870325D01*
X110296270Y-90688703D01*
X112890743Y-90688703D01*
X112891302Y-90692947D01*
X112891302Y-90692951D01*
X112893084Y-90706488D01*
X112928268Y-90973734D01*
X113004129Y-91251036D01*
X113116923Y-91515476D01*
X113143296Y-91559542D01*
X113233473Y-91710216D01*
X113264561Y-91762161D01*
X113444313Y-91986528D01*
X113652851Y-92184423D01*
X113886317Y-92352186D01*
X113890112Y-92354195D01*
X113890113Y-92354196D01*
X113911869Y-92365715D01*
X114140392Y-92486712D01*
X114410373Y-92585511D01*
X114691264Y-92646755D01*
X114719841Y-92649004D01*
X114914282Y-92664307D01*
X114914291Y-92664307D01*
X114916739Y-92664500D01*
X115072271Y-92664500D01*
X115074407Y-92664354D01*
X115074418Y-92664354D01*
X115282548Y-92650165D01*
X115282554Y-92650164D01*
X115286825Y-92649873D01*
X115291020Y-92649004D01*
X115291022Y-92649004D01*
X115427584Y-92620723D01*
X115568342Y-92591574D01*
X115839343Y-92495607D01*
X116094812Y-92363750D01*
X116098313Y-92361289D01*
X116098317Y-92361287D01*
X116212417Y-92281096D01*
X116330023Y-92198441D01*
X116540622Y-92002740D01*
X116722713Y-91780268D01*
X116872927Y-91535142D01*
X116895426Y-91483889D01*
X116986757Y-91275830D01*
X116988483Y-91271898D01*
X117067244Y-90995406D01*
X117107751Y-90710784D01*
X117107845Y-90692951D01*
X117109235Y-90427583D01*
X117109235Y-90427576D01*
X117109257Y-90423297D01*
X117071732Y-90138266D01*
X117065188Y-90114343D01*
X117049585Y-90057311D01*
X116995871Y-89860964D01*
X116906085Y-89650465D01*
X116884763Y-89600476D01*
X116884761Y-89600472D01*
X116883077Y-89596524D01*
X116790983Y-89442646D01*
X116737643Y-89353521D01*
X116737640Y-89353517D01*
X116735439Y-89349839D01*
X116555687Y-89125472D01*
X116370527Y-88949762D01*
X116350258Y-88930527D01*
X116350255Y-88930525D01*
X116347149Y-88927577D01*
X116113683Y-88759814D01*
X116091843Y-88748250D01*
X116061835Y-88732362D01*
X115859608Y-88625288D01*
X115724617Y-88575888D01*
X115593658Y-88527964D01*
X115593656Y-88527963D01*
X115589627Y-88526489D01*
X115308736Y-88465245D01*
X115277685Y-88462801D01*
X115085718Y-88447693D01*
X115085709Y-88447693D01*
X115083261Y-88447500D01*
X114927729Y-88447500D01*
X114925593Y-88447646D01*
X114925582Y-88447646D01*
X114717452Y-88461835D01*
X114717446Y-88461836D01*
X114713175Y-88462127D01*
X114708980Y-88462996D01*
X114708978Y-88462996D01*
X114685119Y-88467937D01*
X114431658Y-88520426D01*
X114160657Y-88616393D01*
X114156848Y-88618359D01*
X113935971Y-88732362D01*
X113905188Y-88748250D01*
X113901687Y-88750711D01*
X113901683Y-88750713D01*
X113801634Y-88821029D01*
X113669977Y-88913559D01*
X113654892Y-88927577D01*
X113514292Y-89058231D01*
X113459378Y-89109260D01*
X113277287Y-89331732D01*
X113127073Y-89576858D01*
X113011517Y-89840102D01*
X113010342Y-89844229D01*
X113010341Y-89844230D01*
X112986249Y-89928807D01*
X112932756Y-90116594D01*
X112892249Y-90401216D01*
X112892227Y-90405505D01*
X112892226Y-90405512D01*
X112891018Y-90636205D01*
X112890743Y-90688703D01*
X110296270Y-90688703D01*
X110325258Y-90623133D01*
X110398620Y-90363008D01*
X110421946Y-90189343D01*
X110434172Y-90098324D01*
X110434173Y-90098316D01*
X110434599Y-90095142D01*
X110438375Y-89975000D01*
X110430022Y-89857016D01*
X110419602Y-89709852D01*
X110419287Y-89705403D01*
X110362402Y-89441185D01*
X110342801Y-89388053D01*
X110270397Y-89191796D01*
X110268856Y-89187619D01*
X110239510Y-89133231D01*
X110142629Y-88953678D01*
X110142629Y-88953677D01*
X110140516Y-88949762D01*
X109979942Y-88732362D01*
X109790338Y-88539756D01*
X109696233Y-88467937D01*
X109579028Y-88378489D01*
X109579024Y-88378487D01*
X109575487Y-88375787D01*
X109339675Y-88243727D01*
X109087609Y-88146210D01*
X109083284Y-88145207D01*
X109083279Y-88145206D01*
X108977748Y-88120746D01*
X108824318Y-88085182D01*
X108555054Y-88061861D01*
X108550619Y-88062105D01*
X108550615Y-88062105D01*
X108289634Y-88076468D01*
X108289627Y-88076469D01*
X108285191Y-88076713D01*
X108153622Y-88102883D01*
X108024484Y-88128570D01*
X108024479Y-88128571D01*
X108020112Y-88129440D01*
X108015909Y-88130916D01*
X107769315Y-88217513D01*
X107769312Y-88217514D01*
X107765107Y-88218991D01*
X107761154Y-88221044D01*
X107761148Y-88221047D01*
X107664664Y-88271167D01*
X107525264Y-88343580D01*
X107521649Y-88346163D01*
X107521643Y-88346167D01*
X107308990Y-88498131D01*
X107308986Y-88498134D01*
X107305369Y-88500719D01*
X107302149Y-88503791D01*
X107137400Y-88660954D01*
X107109808Y-88687275D01*
X107044621Y-88769965D01*
X106958919Y-88878678D01*
X106942485Y-88899524D01*
X106940253Y-88903366D01*
X106940250Y-88903371D01*
X106808974Y-89129377D01*
X106808971Y-89129384D01*
X106806736Y-89133231D01*
X106805062Y-89137364D01*
X106732600Y-89316266D01*
X106705272Y-89383735D01*
X106704201Y-89388048D01*
X106704199Y-89388053D01*
X106643999Y-89630403D01*
X106640116Y-89646035D01*
X106639662Y-89650463D01*
X106639662Y-89650465D01*
X106613765Y-89903222D01*
X106612569Y-89914899D01*
X96012907Y-89914899D01*
X96013375Y-89900000D01*
X95994287Y-89630403D01*
X95937402Y-89366185D01*
X95923468Y-89328414D01*
X95845397Y-89116796D01*
X95843856Y-89112619D01*
X95814510Y-89058231D01*
X95717629Y-88878678D01*
X95717629Y-88878677D01*
X95715516Y-88874762D01*
X95554942Y-88657362D01*
X95365338Y-88464756D01*
X95209949Y-88346167D01*
X95154028Y-88303489D01*
X95154024Y-88303487D01*
X95150487Y-88300787D01*
X94914675Y-88168727D01*
X94662609Y-88071210D01*
X94658284Y-88070207D01*
X94658279Y-88070206D01*
X94552748Y-88045746D01*
X94399318Y-88010182D01*
X94130054Y-87986861D01*
X94125619Y-87987105D01*
X94125615Y-87987105D01*
X93864634Y-88001468D01*
X93864627Y-88001469D01*
X93860191Y-88001713D01*
X93728622Y-88027883D01*
X93599484Y-88053570D01*
X93599479Y-88053571D01*
X93595112Y-88054440D01*
X93590909Y-88055916D01*
X93344315Y-88142513D01*
X93344312Y-88142514D01*
X93340107Y-88143991D01*
X93336154Y-88146044D01*
X93336148Y-88146047D01*
X93292488Y-88168727D01*
X93100264Y-88268580D01*
X93096649Y-88271163D01*
X93096643Y-88271167D01*
X92883990Y-88423131D01*
X92883986Y-88423134D01*
X92880369Y-88425719D01*
X92684808Y-88612275D01*
X92517485Y-88824524D01*
X92515253Y-88828366D01*
X92515250Y-88828371D01*
X92383974Y-89054377D01*
X92383971Y-89054384D01*
X92381736Y-89058231D01*
X92280272Y-89308735D01*
X92279201Y-89313048D01*
X92279199Y-89313053D01*
X92247371Y-89441185D01*
X92215116Y-89571035D01*
X92214662Y-89575463D01*
X92214662Y-89575465D01*
X92207874Y-89641714D01*
X92187569Y-89839899D01*
X86986886Y-89839899D01*
X86906085Y-89650465D01*
X86884763Y-89600476D01*
X86884761Y-89600472D01*
X86883077Y-89596524D01*
X86790983Y-89442646D01*
X86737643Y-89353521D01*
X86737640Y-89353517D01*
X86735439Y-89349839D01*
X86555687Y-89125472D01*
X86370527Y-88949762D01*
X86350258Y-88930527D01*
X86350255Y-88930525D01*
X86347149Y-88927577D01*
X86113683Y-88759814D01*
X86091843Y-88748250D01*
X86061835Y-88732362D01*
X85859608Y-88625288D01*
X85724617Y-88575888D01*
X85593658Y-88527964D01*
X85593656Y-88527963D01*
X85589627Y-88526489D01*
X85308736Y-88465245D01*
X85277685Y-88462801D01*
X85085718Y-88447693D01*
X85085709Y-88447693D01*
X85083261Y-88447500D01*
X84927729Y-88447500D01*
X84925593Y-88447646D01*
X84925582Y-88447646D01*
X84717452Y-88461835D01*
X84717446Y-88461836D01*
X84713175Y-88462127D01*
X84708980Y-88462996D01*
X84708978Y-88462996D01*
X84685119Y-88467937D01*
X84431658Y-88520426D01*
X84160657Y-88616393D01*
X84156848Y-88618359D01*
X83935971Y-88732362D01*
X83905188Y-88748250D01*
X83901687Y-88750711D01*
X83901683Y-88750713D01*
X83801634Y-88821029D01*
X83669977Y-88913559D01*
X83654892Y-88927577D01*
X83514292Y-89058231D01*
X83459378Y-89109260D01*
X83277287Y-89331732D01*
X83127073Y-89576858D01*
X83011517Y-89840102D01*
X83010342Y-89844229D01*
X83010341Y-89844230D01*
X82986249Y-89928807D01*
X82932756Y-90116594D01*
X82892249Y-90401216D01*
X82892227Y-90405505D01*
X82892226Y-90405512D01*
X82891018Y-90636205D01*
X82890743Y-90688703D01*
X81952000Y-90688703D01*
X81952000Y-90605328D01*
X81953500Y-90585943D01*
X81955805Y-90571142D01*
X81955805Y-90571139D01*
X81957186Y-90562270D01*
X81956022Y-90553369D01*
X81956022Y-90553365D01*
X81954743Y-90543589D01*
X81953852Y-90520657D01*
X81959177Y-90419049D01*
X81968351Y-90243997D01*
X81969729Y-90230881D01*
X82017573Y-89928807D01*
X82020315Y-89915907D01*
X82049110Y-89808444D01*
X82099472Y-89620489D01*
X82103548Y-89607947D01*
X82213145Y-89322435D01*
X82218509Y-89310386D01*
X82357358Y-89037880D01*
X82363952Y-89026459D01*
X82530526Y-88769958D01*
X82538274Y-88759295D01*
X82539482Y-88757804D01*
X82730739Y-88521621D01*
X82739564Y-88511820D01*
X82955820Y-88295564D01*
X82965621Y-88286739D01*
X83108670Y-88170900D01*
X83203298Y-88094272D01*
X83213958Y-88086526D01*
X83470464Y-87919949D01*
X83481880Y-87913358D01*
X83754386Y-87774509D01*
X83766435Y-87769145D01*
X84051947Y-87659548D01*
X84064490Y-87655472D01*
X84359907Y-87576315D01*
X84372807Y-87573573D01*
X84674881Y-87525729D01*
X84687997Y-87524351D01*
X84957334Y-87510236D01*
X84983312Y-87511564D01*
X84984856Y-87511805D01*
X84984860Y-87511805D01*
X84993730Y-87513186D01*
X85002632Y-87512022D01*
X85002635Y-87512022D01*
X85025251Y-87509064D01*
X85041589Y-87508000D01*
X114950672Y-87508000D01*
X114970057Y-87509500D01*
G37*
G04 #@! TD.AperFunction*
G04 #@! TD*
G04 #@! TA.AperFunction,Conductor*
G04 #@! TO.N,VHALF*
G36*
X105908433Y-98884269D02*
G01*
X106254174Y-99243797D01*
X106257439Y-99252135D01*
X106256119Y-99257309D01*
X106223736Y-99319505D01*
X106223443Y-99320034D01*
X106188513Y-99379421D01*
X106188320Y-99379736D01*
X106155118Y-99432309D01*
X106155115Y-99432311D01*
X106155116Y-99432312D01*
X106124261Y-99481140D01*
X106096476Y-99529147D01*
X106072374Y-99579435D01*
X106052564Y-99635110D01*
X106037658Y-99699277D01*
X106028266Y-99775038D01*
X106028257Y-99775299D01*
X106025407Y-99854222D01*
X106021684Y-99862366D01*
X106013715Y-99865500D01*
X105786285Y-99865500D01*
X105778012Y-99862073D01*
X105774593Y-99854222D01*
X105771742Y-99775299D01*
X105771733Y-99775038D01*
X105762341Y-99699277D01*
X105747435Y-99635110D01*
X105727625Y-99579435D01*
X105703523Y-99529147D01*
X105675738Y-99481140D01*
X105644883Y-99432312D01*
X105611666Y-99379714D01*
X105611486Y-99379421D01*
X105576556Y-99320034D01*
X105576263Y-99319505D01*
X105543881Y-99257310D01*
X105543100Y-99248389D01*
X105545826Y-99243797D01*
X105891567Y-98884269D01*
X105899771Y-98880681D01*
X105908433Y-98884269D01*
G37*
G04 #@! TD.AperFunction*
G04 #@! TD*
G04 #@! TA.AperFunction,Conductor*
G04 #@! TO.N,VHALF*
G36*
X106021103Y-100069113D02*
G01*
X106024521Y-100077847D01*
X106021520Y-100154026D01*
X106021436Y-100155040D01*
X106012066Y-100228748D01*
X106011888Y-100229776D01*
X106002629Y-100271958D01*
X105998099Y-100292595D01*
X105997867Y-100293484D01*
X105981084Y-100348778D01*
X105980900Y-100349332D01*
X105962500Y-100400475D01*
X105944000Y-100450484D01*
X105943973Y-100450567D01*
X105927067Y-100502053D01*
X105927063Y-100502068D01*
X105926999Y-100502262D01*
X105913000Y-100558988D01*
X105903500Y-100623841D01*
X105903487Y-100624134D01*
X105900395Y-100691394D01*
X105896592Y-100699501D01*
X105891664Y-100702177D01*
X105373536Y-100837514D01*
X105364665Y-100836289D01*
X105359259Y-100829151D01*
X105358881Y-100825965D01*
X105361344Y-100700000D01*
X105368562Y-100330749D01*
X105372150Y-100322545D01*
X105376982Y-100319746D01*
X105401876Y-100312484D01*
X105426812Y-100305209D01*
X105427649Y-100304998D01*
X105444881Y-100301323D01*
X105485313Y-100292701D01*
X105485612Y-100292643D01*
X105542000Y-100282449D01*
X105595507Y-100271958D01*
X105630629Y-100262498D01*
X105644178Y-100258849D01*
X105644180Y-100258848D01*
X105644582Y-100258740D01*
X105687839Y-100240337D01*
X105723895Y-100214289D01*
X105724417Y-100213602D01*
X105724419Y-100213600D01*
X105750822Y-100178849D01*
X105751363Y-100178137D01*
X105768860Y-100129422D01*
X105773981Y-100076264D01*
X105778185Y-100068358D01*
X105785627Y-100065686D01*
X106012830Y-100065686D01*
X106021103Y-100069113D01*
G37*
G04 #@! TD.AperFunction*
G04 #@! TD*
M02*
