M48
INCH,TZ
T1C0.0157
T2C0.0394
T3C0.0492
T4C0.0630
T5C0.1260
%
G90
G05
T1
X37618Y-42244
X37756Y-39764
X38799Y-39685
X39882Y-39173
X41024Y-39173
X41102Y-42835
X41535Y-39646
X41693Y-39006
X42441Y-38031
X42992Y-42913
X43012Y-42106
X43406Y-41575
X43898Y-37992
X43976Y-38583
T2
X45236Y-37906
X45236Y-38906
X45236Y-39906
X45236Y-40906
T3
X39370Y-37402
X39370Y-41339
T4
X33169Y-39941
X34134Y-38406
X37047Y-35394
X42726Y-35423
T5
X33465Y-35652
X33465Y-43088
X45276Y-35652
X45276Y-43088
T0
M30
