G04 #@! TF.GenerationSoftware,KiCad,Pcbnew,(6.0.2)*
G04 #@! TF.CreationDate,2022-05-11T22:01:16-05:00*
G04 #@! TF.ProjectId,Receive US,52656365-6976-4652-9055-532e6b696361,rev?*
G04 #@! TF.SameCoordinates,Original*
G04 #@! TF.FileFunction,Paste,Top*
G04 #@! TF.FilePolarity,Positive*
%FSLAX46Y46*%
G04 Gerber Fmt 4.6, Leading zero omitted, Abs format (unit mm)*
G04 Created by KiCad (PCBNEW (6.0.2)) date 2022-05-11 22:01:16*
%MOMM*%
%LPD*%
G01*
G04 APERTURE LIST*
G04 Aperture macros list*
%AMRoundRect*
0 Rectangle with rounded corners*
0 $1 Rounding radius*
0 $2 $3 $4 $5 $6 $7 $8 $9 X,Y pos of 4 corners*
0 Add a 4 corners polygon primitive as box body*
4,1,4,$2,$3,$4,$5,$6,$7,$8,$9,$2,$3,0*
0 Add four circle primitives for the rounded corners*
1,1,$1+$1,$2,$3*
1,1,$1+$1,$4,$5*
1,1,$1+$1,$6,$7*
1,1,$1+$1,$8,$9*
0 Add four rect primitives between the rounded corners*
20,1,$1+$1,$2,$3,$4,$5,0*
20,1,$1+$1,$4,$5,$6,$7,0*
20,1,$1+$1,$6,$7,$8,$9,0*
20,1,$1+$1,$8,$9,$2,$3,0*%
G04 Aperture macros list end*
%ADD10R,0.279400X1.327899*%
%ADD11RoundRect,0.237500X0.237500X-0.250000X0.237500X0.250000X-0.237500X0.250000X-0.237500X-0.250000X0*%
%ADD12RoundRect,0.150000X0.587500X0.150000X-0.587500X0.150000X-0.587500X-0.150000X0.587500X-0.150000X0*%
%ADD13RoundRect,0.237500X0.300000X0.237500X-0.300000X0.237500X-0.300000X-0.237500X0.300000X-0.237500X0*%
%ADD14RoundRect,0.237500X0.237500X-0.300000X0.237500X0.300000X-0.237500X0.300000X-0.237500X-0.300000X0*%
%ADD15RoundRect,0.237500X-0.250000X-0.237500X0.250000X-0.237500X0.250000X0.237500X-0.250000X0.237500X0*%
%ADD16RoundRect,0.237500X0.250000X0.237500X-0.250000X0.237500X-0.250000X-0.237500X0.250000X-0.237500X0*%
%ADD17RoundRect,0.237500X-0.300000X-0.237500X0.300000X-0.237500X0.300000X0.237500X-0.300000X0.237500X0*%
%ADD18R,1.000000X1.000000*%
%ADD19RoundRect,0.237500X-0.237500X0.300000X-0.237500X-0.300000X0.237500X-0.300000X0.237500X0.300000X0*%
G04 APERTURE END LIST*
D10*
G04 #@! TO.C,U2*
X93989999Y-102523348D03*
X94490001Y-102523348D03*
X94990000Y-102523348D03*
X95489999Y-102523348D03*
X95990001Y-102523348D03*
X95990001Y-98096652D03*
X95489999Y-98096652D03*
X94990000Y-98096652D03*
X94490001Y-98096652D03*
X93989999Y-98096652D03*
G04 #@! TD*
D11*
G04 #@! TO.C,R5*
X91750000Y-102362500D03*
X91750000Y-100537500D03*
G04 #@! TD*
D12*
G04 #@! TO.C,Q1*
X111437500Y-100750000D03*
X111437500Y-98850000D03*
X109562500Y-99800000D03*
G04 #@! TD*
D13*
G04 #@! TO.C,C1*
X97312500Y-104500000D03*
X95587500Y-104500000D03*
G04 #@! TD*
D11*
G04 #@! TO.C,R11*
X108825000Y-96612500D03*
X108825000Y-94787500D03*
G04 #@! TD*
D14*
G04 #@! TO.C,C7*
X110500000Y-96562500D03*
X110500000Y-94837500D03*
G04 #@! TD*
D15*
G04 #@! TO.C,R13*
X110187500Y-102700000D03*
X112012500Y-102700000D03*
G04 #@! TD*
G04 #@! TO.C,R6*
X102687500Y-105900000D03*
X104512500Y-105900000D03*
G04 #@! TD*
D16*
G04 #@! TO.C,R4*
X93512500Y-104500000D03*
X91687500Y-104500000D03*
G04 #@! TD*
D10*
G04 #@! TO.C,U1*
X106000001Y-97786652D03*
X105499999Y-97786652D03*
X105000000Y-97786652D03*
X104500001Y-97786652D03*
X103999999Y-97786652D03*
X103999999Y-102213348D03*
X104500001Y-102213348D03*
X105000000Y-102213348D03*
X105499999Y-102213348D03*
X106000001Y-102213348D03*
G04 #@! TD*
D16*
G04 #@! TO.C,R12*
X105837500Y-94775000D03*
X104012500Y-94775000D03*
G04 #@! TD*
D13*
G04 #@! TO.C,C2*
X108162500Y-106950000D03*
X106437500Y-106950000D03*
G04 #@! TD*
D17*
G04 #@! TO.C,C5*
X93637500Y-96150000D03*
X95362500Y-96150000D03*
G04 #@! TD*
D13*
G04 #@! TO.C,C9*
X111962500Y-104600000D03*
X110237500Y-104600000D03*
G04 #@! TD*
D15*
G04 #@! TO.C,R8*
X91787500Y-94250000D03*
X93612500Y-94250000D03*
G04 #@! TD*
D16*
G04 #@! TO.C,R3*
X108212500Y-109000000D03*
X106387500Y-109000000D03*
G04 #@! TD*
D15*
G04 #@! TO.C,R1*
X95537500Y-106300000D03*
X97362500Y-106300000D03*
G04 #@! TD*
D11*
G04 #@! TO.C,R9*
X97700000Y-97762500D03*
X97700000Y-95937500D03*
G04 #@! TD*
D14*
G04 #@! TO.C,C3*
X97550000Y-102512500D03*
X97550000Y-100787500D03*
G04 #@! TD*
D18*
G04 #@! TO.C,D1*
X105850000Y-92700000D03*
X103350000Y-92700000D03*
G04 #@! TD*
D17*
G04 #@! TO.C,C6*
X95437500Y-94250000D03*
X97162500Y-94250000D03*
G04 #@! TD*
D13*
G04 #@! TO.C,C4*
X104412500Y-107800000D03*
X102687500Y-107800000D03*
G04 #@! TD*
D11*
G04 #@! TO.C,R7*
X91750000Y-98112500D03*
X91750000Y-96287500D03*
G04 #@! TD*
D15*
G04 #@! TO.C,R10*
X99287500Y-92700000D03*
X101112500Y-92700000D03*
G04 #@! TD*
D19*
G04 #@! TO.C,C8*
X102300000Y-97787500D03*
X102300000Y-99512500D03*
G04 #@! TD*
D15*
G04 #@! TO.C,R2*
X106437500Y-105150000D03*
X108262500Y-105150000D03*
G04 #@! TD*
M02*
