G04 #@! TF.GenerationSoftware,KiCad,Pcbnew,(6.0.2)*
G04 #@! TF.CreationDate,2022-05-11T22:03:01-05:00*
G04 #@! TF.ProjectId,Transmit US,5472616e-736d-4697-9420-55532e6b6963,rev?*
G04 #@! TF.SameCoordinates,Original*
G04 #@! TF.FileFunction,Legend,Top*
G04 #@! TF.FilePolarity,Positive*
%FSLAX46Y46*%
G04 Gerber Fmt 4.6, Leading zero omitted, Abs format (unit mm)*
G04 Created by KiCad (PCBNEW (6.0.2)) date 2022-05-11 22:03:01*
%MOMM*%
%LPD*%
G01*
G04 APERTURE LIST*
%ADD10C,0.127000*%
%ADD11C,0.150000*%
%ADD12C,0.120000*%
%ADD13C,2.000000*%
%ADD14C,2.800000*%
%ADD15C,3.200000*%
%ADD16R,1.700000X1.700000*%
%ADD17O,1.700000X1.700000*%
G04 APERTURE END LIST*
D10*
X117871218Y-85234221D02*
X117547969Y-85557470D01*
X118275279Y-85961531D02*
X117709593Y-85395845D01*
X117413282Y-85692157D02*
X117601844Y-86634966D01*
X117036158Y-86069280D02*
X117978967Y-86257842D01*
X113904761Y-88063095D02*
X113295238Y-88063095D01*
D11*
X112065476Y-91695000D02*
X111989285Y-91656904D01*
X111875000Y-91656904D01*
X111760714Y-91695000D01*
X111684523Y-91771190D01*
X111646428Y-91847380D01*
X111608333Y-91999761D01*
X111608333Y-92114047D01*
X111646428Y-92266428D01*
X111684523Y-92342619D01*
X111760714Y-92418809D01*
X111875000Y-92456904D01*
X111951190Y-92456904D01*
X112065476Y-92418809D01*
X112103571Y-92380714D01*
X112103571Y-92114047D01*
X111951190Y-92114047D01*
X112446428Y-92456904D02*
X112446428Y-91656904D01*
X112903571Y-92456904D01*
X112903571Y-91656904D01*
X113284523Y-92456904D02*
X113284523Y-91656904D01*
X113475000Y-91656904D01*
X113589285Y-91695000D01*
X113665476Y-91771190D01*
X113703571Y-91847380D01*
X113741666Y-91999761D01*
X113741666Y-92114047D01*
X113703571Y-92266428D01*
X113665476Y-92342619D01*
X113589285Y-92418809D01*
X113475000Y-92456904D01*
X113284523Y-92456904D01*
X107838095Y-68861904D02*
X107838095Y-68061904D01*
X108028571Y-68061904D01*
X108142857Y-68100000D01*
X108219047Y-68176190D01*
X108257142Y-68252380D01*
X108295238Y-68404761D01*
X108295238Y-68519047D01*
X108257142Y-68671428D01*
X108219047Y-68747619D01*
X108142857Y-68823809D01*
X108028571Y-68861904D01*
X107838095Y-68861904D01*
X108980952Y-68861904D02*
X108980952Y-68442857D01*
X108942857Y-68366666D01*
X108866666Y-68328571D01*
X108714285Y-68328571D01*
X108638095Y-68366666D01*
X108980952Y-68823809D02*
X108904761Y-68861904D01*
X108714285Y-68861904D01*
X108638095Y-68823809D01*
X108600000Y-68747619D01*
X108600000Y-68671428D01*
X108638095Y-68595238D01*
X108714285Y-68557142D01*
X108904761Y-68557142D01*
X108980952Y-68519047D01*
X109247619Y-68328571D02*
X109552380Y-68328571D01*
X109361904Y-68061904D02*
X109361904Y-68747619D01*
X109400000Y-68823809D01*
X109476190Y-68861904D01*
X109552380Y-68861904D01*
X110161904Y-68861904D02*
X110161904Y-68442857D01*
X110123809Y-68366666D01*
X110047619Y-68328571D01*
X109895238Y-68328571D01*
X109819047Y-68366666D01*
X110161904Y-68823809D02*
X110085714Y-68861904D01*
X109895238Y-68861904D01*
X109819047Y-68823809D01*
X109780952Y-68747619D01*
X109780952Y-68671428D01*
X109819047Y-68595238D01*
X109895238Y-68557142D01*
X110085714Y-68557142D01*
X110161904Y-68519047D01*
X113819047Y-68061904D02*
X114314285Y-68061904D01*
X114047619Y-68366666D01*
X114161904Y-68366666D01*
X114238095Y-68404761D01*
X114276190Y-68442857D01*
X114314285Y-68519047D01*
X114314285Y-68709523D01*
X114276190Y-68785714D01*
X114238095Y-68823809D01*
X114161904Y-68861904D01*
X113933333Y-68861904D01*
X113857142Y-68823809D01*
X113819047Y-68785714D01*
X114657142Y-68785714D02*
X114695238Y-68823809D01*
X114657142Y-68861904D01*
X114619047Y-68823809D01*
X114657142Y-68785714D01*
X114657142Y-68861904D01*
X114961904Y-68061904D02*
X115457142Y-68061904D01*
X115190476Y-68366666D01*
X115304761Y-68366666D01*
X115380952Y-68404761D01*
X115419047Y-68442857D01*
X115457142Y-68519047D01*
X115457142Y-68709523D01*
X115419047Y-68785714D01*
X115380952Y-68823809D01*
X115304761Y-68861904D01*
X115076190Y-68861904D01*
X115000000Y-68823809D01*
X114961904Y-68785714D01*
X115685714Y-68061904D02*
X115952380Y-68861904D01*
X116219047Y-68061904D01*
D10*
X107621218Y-79034221D02*
X107297969Y-79357470D01*
X108025279Y-79761531D02*
X107459593Y-79195845D01*
X107163282Y-79492157D02*
X107351844Y-80434966D01*
X106786158Y-79869280D02*
X107728967Y-80057842D01*
X117921218Y-79084221D02*
X117597969Y-79407470D01*
X118325279Y-79811531D02*
X117759593Y-79245845D01*
X117463282Y-79542157D02*
X117651844Y-80484966D01*
X117086158Y-79919280D02*
X118028967Y-80107842D01*
D11*
X111390476Y-68100000D02*
X111314285Y-68061904D01*
X111200000Y-68061904D01*
X111085714Y-68100000D01*
X111009523Y-68176190D01*
X110971428Y-68252380D01*
X110933333Y-68404761D01*
X110933333Y-68519047D01*
X110971428Y-68671428D01*
X111009523Y-68747619D01*
X111085714Y-68823809D01*
X111200000Y-68861904D01*
X111276190Y-68861904D01*
X111390476Y-68823809D01*
X111428571Y-68785714D01*
X111428571Y-68519047D01*
X111276190Y-68519047D01*
X111771428Y-68861904D02*
X111771428Y-68061904D01*
X112228571Y-68861904D01*
X112228571Y-68061904D01*
X112609523Y-68861904D02*
X112609523Y-68061904D01*
X112800000Y-68061904D01*
X112914285Y-68100000D01*
X112990476Y-68176190D01*
X113028571Y-68252380D01*
X113066666Y-68404761D01*
X113066666Y-68519047D01*
X113028571Y-68671428D01*
X112990476Y-68747619D01*
X112914285Y-68823809D01*
X112800000Y-68861904D01*
X112609523Y-68861904D01*
D10*
X113854761Y-77682142D02*
X113245238Y-77682142D01*
X113550000Y-77986904D02*
X113550000Y-77377380D01*
X107571218Y-85284221D02*
X107247969Y-85607470D01*
X107975279Y-86011531D02*
X107409593Y-85445845D01*
X107113282Y-85742157D02*
X107301844Y-86684966D01*
X106736158Y-86119280D02*
X107678967Y-86307842D01*
G04 #@! TO.C,LS1*
X108585714Y-82811904D02*
X108204761Y-82811904D01*
X108204761Y-82011904D01*
X108814285Y-82773809D02*
X108928571Y-82811904D01*
X109119047Y-82811904D01*
X109195238Y-82773809D01*
X109233333Y-82735714D01*
X109271428Y-82659523D01*
X109271428Y-82583333D01*
X109233333Y-82507142D01*
X109195238Y-82469047D01*
X109119047Y-82430952D01*
X108966666Y-82392857D01*
X108890476Y-82354761D01*
X108852380Y-82316666D01*
X108814285Y-82240476D01*
X108814285Y-82164285D01*
X108852380Y-82088095D01*
X108890476Y-82050000D01*
X108966666Y-82011904D01*
X109157142Y-82011904D01*
X109271428Y-82050000D01*
X110033333Y-82811904D02*
X109576190Y-82811904D01*
X109804761Y-82811904D02*
X109804761Y-82011904D01*
X109728571Y-82126190D01*
X109652380Y-82202380D01*
X109576190Y-82240476D01*
D12*
X120000000Y-82000000D02*
G75*
G03*
X120000000Y-82000000I-8000000J0D01*
G01*
D11*
G04 #@! TO.C,TP1*
X111025000Y-92525000D02*
G75*
G03*
X111025000Y-92525000I-1750000J0D01*
G01*
G04 #@! TD*
%LPC*%
D13*
G04 #@! TO.C,LS1*
X112000000Y-77000000D03*
X112000000Y-87000000D03*
G04 #@! TD*
D14*
G04 #@! TO.C,TP1*
X109275000Y-92525000D03*
G04 #@! TD*
D15*
G04 #@! TO.C,H2*
X120500000Y-93000000D03*
G04 #@! TD*
G04 #@! TO.C,H5*
X103500000Y-71000000D03*
G04 #@! TD*
G04 #@! TO.C,H3*
X120500000Y-71000000D03*
G04 #@! TD*
G04 #@! TO.C,H4*
X103500000Y-93000000D03*
G04 #@! TD*
D16*
G04 #@! TO.C,J1*
X114500000Y-70500000D03*
D17*
X111960000Y-70500000D03*
X109420000Y-70500000D03*
G04 #@! TD*
M02*
