G04 #@! TF.GenerationSoftware,KiCad,Pcbnew,(6.0.2)*
G04 #@! TF.CreationDate,2022-05-11T22:03:01-05:00*
G04 #@! TF.ProjectId,Transmit US,5472616e-736d-4697-9420-55532e6b6963,rev?*
G04 #@! TF.SameCoordinates,Original*
G04 #@! TF.FileFunction,Legend,Bot*
G04 #@! TF.FilePolarity,Positive*
%FSLAX46Y46*%
G04 Gerber Fmt 4.6, Leading zero omitted, Abs format (unit mm)*
G04 Created by KiCad (PCBNEW (6.0.2)) date 2022-05-11 22:03:01*
%MOMM*%
%LPD*%
G01*
G04 APERTURE LIST*
G04 Aperture macros list*
%AMRoundRect*
0 Rectangle with rounded corners*
0 $1 Rounding radius*
0 $2 $3 $4 $5 $6 $7 $8 $9 X,Y pos of 4 corners*
0 Add a 4 corners polygon primitive as box body*
4,1,4,$2,$3,$4,$5,$6,$7,$8,$9,$2,$3,0*
0 Add four circle primitives for the rounded corners*
1,1,$1+$1,$2,$3*
1,1,$1+$1,$4,$5*
1,1,$1+$1,$6,$7*
1,1,$1+$1,$8,$9*
0 Add four rect primitives between the rounded corners*
20,1,$1+$1,$2,$3,$4,$5,0*
20,1,$1+$1,$4,$5,$6,$7,0*
20,1,$1+$1,$6,$7,$8,$9,0*
20,1,$1+$1,$8,$9,$2,$3,0*%
G04 Aperture macros list end*
%ADD10C,0.150000*%
%ADD11C,0.120000*%
%ADD12C,0.010000*%
%ADD13C,2.000000*%
%ADD14C,2.800000*%
%ADD15C,3.200000*%
%ADD16RoundRect,0.237500X0.237500X-0.250000X0.237500X0.250000X-0.237500X0.250000X-0.237500X-0.250000X0*%
%ADD17RoundRect,0.237500X-0.300000X-0.237500X0.300000X-0.237500X0.300000X0.237500X-0.300000X0.237500X0*%
%ADD18RoundRect,0.237500X0.237500X-0.300000X0.237500X0.300000X-0.237500X0.300000X-0.237500X-0.300000X0*%
%ADD19RoundRect,0.100000X0.637500X0.100000X-0.637500X0.100000X-0.637500X-0.100000X0.637500X-0.100000X0*%
%ADD20RoundRect,0.237500X-0.237500X0.250000X-0.237500X-0.250000X0.237500X-0.250000X0.237500X0.250000X0*%
%ADD21R,1.700000X1.700000*%
%ADD22O,1.700000X1.700000*%
%ADD23R,0.400000X1.500000*%
G04 APERTURE END LIST*
D10*
X110161904Y-68861904D02*
X110161904Y-68061904D01*
X109971428Y-68061904D01*
X109857142Y-68100000D01*
X109780952Y-68176190D01*
X109742857Y-68252380D01*
X109704761Y-68404761D01*
X109704761Y-68519047D01*
X109742857Y-68671428D01*
X109780952Y-68747619D01*
X109857142Y-68823809D01*
X109971428Y-68861904D01*
X110161904Y-68861904D01*
X109019047Y-68861904D02*
X109019047Y-68442857D01*
X109057142Y-68366666D01*
X109133333Y-68328571D01*
X109285714Y-68328571D01*
X109361904Y-68366666D01*
X109019047Y-68823809D02*
X109095238Y-68861904D01*
X109285714Y-68861904D01*
X109361904Y-68823809D01*
X109400000Y-68747619D01*
X109400000Y-68671428D01*
X109361904Y-68595238D01*
X109285714Y-68557142D01*
X109095238Y-68557142D01*
X109019047Y-68519047D01*
X108752380Y-68328571D02*
X108447619Y-68328571D01*
X108638095Y-68061904D02*
X108638095Y-68747619D01*
X108600000Y-68823809D01*
X108523809Y-68861904D01*
X108447619Y-68861904D01*
X107838095Y-68861904D02*
X107838095Y-68442857D01*
X107876190Y-68366666D01*
X107952380Y-68328571D01*
X108104761Y-68328571D01*
X108180952Y-68366666D01*
X107838095Y-68823809D02*
X107914285Y-68861904D01*
X108104761Y-68861904D01*
X108180952Y-68823809D01*
X108219047Y-68747619D01*
X108219047Y-68671428D01*
X108180952Y-68595238D01*
X108104761Y-68557142D01*
X107914285Y-68557142D01*
X107838095Y-68519047D01*
X110459523Y-89161904D02*
X110002380Y-89161904D01*
X110230952Y-89961904D02*
X110230952Y-89161904D01*
X109811904Y-89161904D02*
X109278571Y-89961904D01*
X109278571Y-89161904D02*
X109811904Y-89961904D01*
X108478571Y-89161904D02*
X108211904Y-89961904D01*
X107945238Y-89161904D01*
X107526190Y-89161904D02*
X107450000Y-89161904D01*
X107373809Y-89200000D01*
X107335714Y-89238095D01*
X107297619Y-89314285D01*
X107259523Y-89466666D01*
X107259523Y-89657142D01*
X107297619Y-89809523D01*
X107335714Y-89885714D01*
X107373809Y-89923809D01*
X107450000Y-89961904D01*
X107526190Y-89961904D01*
X107602380Y-89923809D01*
X107640476Y-89885714D01*
X107678571Y-89809523D01*
X107716666Y-89657142D01*
X107716666Y-89466666D01*
X107678571Y-89314285D01*
X107640476Y-89238095D01*
X107602380Y-89200000D01*
X107526190Y-89161904D01*
X106916666Y-89885714D02*
X106878571Y-89923809D01*
X106916666Y-89961904D01*
X106954761Y-89923809D01*
X106916666Y-89885714D01*
X106916666Y-89961904D01*
X106116666Y-89961904D02*
X106573809Y-89961904D01*
X106345238Y-89961904D02*
X106345238Y-89161904D01*
X106421428Y-89276190D01*
X106497619Y-89352380D01*
X106573809Y-89390476D01*
X113284523Y-91695000D02*
X113360714Y-91656904D01*
X113475000Y-91656904D01*
X113589285Y-91695000D01*
X113665476Y-91771190D01*
X113703571Y-91847380D01*
X113741666Y-91999761D01*
X113741666Y-92114047D01*
X113703571Y-92266428D01*
X113665476Y-92342619D01*
X113589285Y-92418809D01*
X113475000Y-92456904D01*
X113398809Y-92456904D01*
X113284523Y-92418809D01*
X113246428Y-92380714D01*
X113246428Y-92114047D01*
X113398809Y-92114047D01*
X112903571Y-92456904D02*
X112903571Y-91656904D01*
X112446428Y-92456904D01*
X112446428Y-91656904D01*
X112065476Y-92456904D02*
X112065476Y-91656904D01*
X111875000Y-91656904D01*
X111760714Y-91695000D01*
X111684523Y-91771190D01*
X111646428Y-91847380D01*
X111608333Y-91999761D01*
X111608333Y-92114047D01*
X111646428Y-92266428D01*
X111684523Y-92342619D01*
X111760714Y-92418809D01*
X111875000Y-92456904D01*
X112065476Y-92456904D01*
X112609523Y-68100000D02*
X112685714Y-68061904D01*
X112800000Y-68061904D01*
X112914285Y-68100000D01*
X112990476Y-68176190D01*
X113028571Y-68252380D01*
X113066666Y-68404761D01*
X113066666Y-68519047D01*
X113028571Y-68671428D01*
X112990476Y-68747619D01*
X112914285Y-68823809D01*
X112800000Y-68861904D01*
X112723809Y-68861904D01*
X112609523Y-68823809D01*
X112571428Y-68785714D01*
X112571428Y-68519047D01*
X112723809Y-68519047D01*
X112228571Y-68861904D02*
X112228571Y-68061904D01*
X111771428Y-68861904D01*
X111771428Y-68061904D01*
X111390476Y-68861904D02*
X111390476Y-68061904D01*
X111200000Y-68061904D01*
X111085714Y-68100000D01*
X111009523Y-68176190D01*
X110971428Y-68252380D01*
X110933333Y-68404761D01*
X110933333Y-68519047D01*
X110971428Y-68671428D01*
X111009523Y-68747619D01*
X111085714Y-68823809D01*
X111200000Y-68861904D01*
X111390476Y-68861904D01*
X116180952Y-68061904D02*
X115685714Y-68061904D01*
X115952380Y-68366666D01*
X115838095Y-68366666D01*
X115761904Y-68404761D01*
X115723809Y-68442857D01*
X115685714Y-68519047D01*
X115685714Y-68709523D01*
X115723809Y-68785714D01*
X115761904Y-68823809D01*
X115838095Y-68861904D01*
X116066666Y-68861904D01*
X116142857Y-68823809D01*
X116180952Y-68785714D01*
X115342857Y-68785714D02*
X115304761Y-68823809D01*
X115342857Y-68861904D01*
X115380952Y-68823809D01*
X115342857Y-68785714D01*
X115342857Y-68861904D01*
X115038095Y-68061904D02*
X114542857Y-68061904D01*
X114809523Y-68366666D01*
X114695238Y-68366666D01*
X114619047Y-68404761D01*
X114580952Y-68442857D01*
X114542857Y-68519047D01*
X114542857Y-68709523D01*
X114580952Y-68785714D01*
X114619047Y-68823809D01*
X114695238Y-68861904D01*
X114923809Y-68861904D01*
X115000000Y-68823809D01*
X115038095Y-68785714D01*
X114314285Y-68061904D02*
X114047619Y-68861904D01*
X113780952Y-68061904D01*
G04 #@! TO.C,R1*
X111482380Y-77333333D02*
X111006190Y-77000000D01*
X111482380Y-76761904D02*
X110482380Y-76761904D01*
X110482380Y-77142857D01*
X110530000Y-77238095D01*
X110577619Y-77285714D01*
X110672857Y-77333333D01*
X110815714Y-77333333D01*
X110910952Y-77285714D01*
X110958571Y-77238095D01*
X111006190Y-77142857D01*
X111006190Y-76761904D01*
X111482380Y-78285714D02*
X111482380Y-77714285D01*
X111482380Y-78000000D02*
X110482380Y-78000000D01*
X110625238Y-77904761D01*
X110720476Y-77809523D01*
X110768095Y-77714285D01*
G04 #@! TO.C,R3*
X116557380Y-77383333D02*
X116081190Y-77050000D01*
X116557380Y-76811904D02*
X115557380Y-76811904D01*
X115557380Y-77192857D01*
X115605000Y-77288095D01*
X115652619Y-77335714D01*
X115747857Y-77383333D01*
X115890714Y-77383333D01*
X115985952Y-77335714D01*
X116033571Y-77288095D01*
X116081190Y-77192857D01*
X116081190Y-76811904D01*
X115557380Y-77716666D02*
X115557380Y-78335714D01*
X115938333Y-78002380D01*
X115938333Y-78145238D01*
X115985952Y-78240476D01*
X116033571Y-78288095D01*
X116128809Y-78335714D01*
X116366904Y-78335714D01*
X116462142Y-78288095D01*
X116509761Y-78240476D01*
X116557380Y-78145238D01*
X116557380Y-77859523D01*
X116509761Y-77764285D01*
X116462142Y-77716666D01*
G04 #@! TO.C,C3*
X118416666Y-84612142D02*
X118464285Y-84659761D01*
X118607142Y-84707380D01*
X118702380Y-84707380D01*
X118845238Y-84659761D01*
X118940476Y-84564523D01*
X118988095Y-84469285D01*
X119035714Y-84278809D01*
X119035714Y-84135952D01*
X118988095Y-83945476D01*
X118940476Y-83850238D01*
X118845238Y-83755000D01*
X118702380Y-83707380D01*
X118607142Y-83707380D01*
X118464285Y-83755000D01*
X118416666Y-83802619D01*
X118083333Y-83707380D02*
X117464285Y-83707380D01*
X117797619Y-84088333D01*
X117654761Y-84088333D01*
X117559523Y-84135952D01*
X117511904Y-84183571D01*
X117464285Y-84278809D01*
X117464285Y-84516904D01*
X117511904Y-84612142D01*
X117559523Y-84659761D01*
X117654761Y-84707380D01*
X117940476Y-84707380D01*
X118035714Y-84659761D01*
X118083333Y-84612142D01*
G04 #@! TO.C,C4*
X121137142Y-78858333D02*
X121184761Y-78810714D01*
X121232380Y-78667857D01*
X121232380Y-78572619D01*
X121184761Y-78429761D01*
X121089523Y-78334523D01*
X120994285Y-78286904D01*
X120803809Y-78239285D01*
X120660952Y-78239285D01*
X120470476Y-78286904D01*
X120375238Y-78334523D01*
X120280000Y-78429761D01*
X120232380Y-78572619D01*
X120232380Y-78667857D01*
X120280000Y-78810714D01*
X120327619Y-78858333D01*
X120565714Y-79715476D02*
X121232380Y-79715476D01*
X120184761Y-79477380D02*
X120899047Y-79239285D01*
X120899047Y-79858333D01*
G04 #@! TO.C,C5*
X118416666Y-86987142D02*
X118464285Y-87034761D01*
X118607142Y-87082380D01*
X118702380Y-87082380D01*
X118845238Y-87034761D01*
X118940476Y-86939523D01*
X118988095Y-86844285D01*
X119035714Y-86653809D01*
X119035714Y-86510952D01*
X118988095Y-86320476D01*
X118940476Y-86225238D01*
X118845238Y-86130000D01*
X118702380Y-86082380D01*
X118607142Y-86082380D01*
X118464285Y-86130000D01*
X118416666Y-86177619D01*
X117511904Y-86082380D02*
X117988095Y-86082380D01*
X118035714Y-86558571D01*
X117988095Y-86510952D01*
X117892857Y-86463333D01*
X117654761Y-86463333D01*
X117559523Y-86510952D01*
X117511904Y-86558571D01*
X117464285Y-86653809D01*
X117464285Y-86891904D01*
X117511904Y-86987142D01*
X117559523Y-87034761D01*
X117654761Y-87082380D01*
X117892857Y-87082380D01*
X117988095Y-87034761D01*
X118035714Y-86987142D01*
G04 #@! TO.C,C1*
X119062142Y-79733333D02*
X119109761Y-79685714D01*
X119157380Y-79542857D01*
X119157380Y-79447619D01*
X119109761Y-79304761D01*
X119014523Y-79209523D01*
X118919285Y-79161904D01*
X118728809Y-79114285D01*
X118585952Y-79114285D01*
X118395476Y-79161904D01*
X118300238Y-79209523D01*
X118205000Y-79304761D01*
X118157380Y-79447619D01*
X118157380Y-79542857D01*
X118205000Y-79685714D01*
X118252619Y-79733333D01*
X119157380Y-80685714D02*
X119157380Y-80114285D01*
X119157380Y-80400000D02*
X118157380Y-80400000D01*
X118300238Y-80304761D01*
X118395476Y-80209523D01*
X118443095Y-80114285D01*
G04 #@! TO.C,C2*
X108857142Y-78503333D02*
X108904761Y-78455714D01*
X108952380Y-78312857D01*
X108952380Y-78217619D01*
X108904761Y-78074761D01*
X108809523Y-77979523D01*
X108714285Y-77931904D01*
X108523809Y-77884285D01*
X108380952Y-77884285D01*
X108190476Y-77931904D01*
X108095238Y-77979523D01*
X108000000Y-78074761D01*
X107952380Y-78217619D01*
X107952380Y-78312857D01*
X108000000Y-78455714D01*
X108047619Y-78503333D01*
X108047619Y-78884285D02*
X108000000Y-78931904D01*
X107952380Y-79027142D01*
X107952380Y-79265238D01*
X108000000Y-79360476D01*
X108047619Y-79408095D01*
X108142857Y-79455714D01*
X108238095Y-79455714D01*
X108380952Y-79408095D01*
X108952380Y-78836666D01*
X108952380Y-79455714D01*
G04 #@! TO.C,U2*
X110099523Y-85611904D02*
X110099523Y-86259523D01*
X110061428Y-86335714D01*
X110023333Y-86373809D01*
X109947142Y-86411904D01*
X109794761Y-86411904D01*
X109718571Y-86373809D01*
X109680476Y-86335714D01*
X109642380Y-86259523D01*
X109642380Y-85611904D01*
X109299523Y-85688095D02*
X109261428Y-85650000D01*
X109185238Y-85611904D01*
X108994761Y-85611904D01*
X108918571Y-85650000D01*
X108880476Y-85688095D01*
X108842380Y-85764285D01*
X108842380Y-85840476D01*
X108880476Y-85954761D01*
X109337619Y-86411904D01*
X108842380Y-86411904D01*
G04 #@! TO.C,R2*
X113922380Y-87158333D02*
X113446190Y-86825000D01*
X113922380Y-86586904D02*
X112922380Y-86586904D01*
X112922380Y-86967857D01*
X112970000Y-87063095D01*
X113017619Y-87110714D01*
X113112857Y-87158333D01*
X113255714Y-87158333D01*
X113350952Y-87110714D01*
X113398571Y-87063095D01*
X113446190Y-86967857D01*
X113446190Y-86586904D01*
X113017619Y-87539285D02*
X112970000Y-87586904D01*
X112922380Y-87682142D01*
X112922380Y-87920238D01*
X112970000Y-88015476D01*
X113017619Y-88063095D01*
X113112857Y-88110714D01*
X113208095Y-88110714D01*
X113350952Y-88063095D01*
X113922380Y-87491666D01*
X113922380Y-88110714D01*
G04 #@! TO.C,U1*
X101886904Y-77365476D02*
X102534523Y-77365476D01*
X102610714Y-77403571D01*
X102648809Y-77441666D01*
X102686904Y-77517857D01*
X102686904Y-77670238D01*
X102648809Y-77746428D01*
X102610714Y-77784523D01*
X102534523Y-77822619D01*
X101886904Y-77822619D01*
X102686904Y-78622619D02*
X102686904Y-78165476D01*
X102686904Y-78394047D02*
X101886904Y-78394047D01*
X102001190Y-78317857D01*
X102077380Y-78241666D01*
X102115476Y-78165476D01*
D11*
G04 #@! TO.C,R1*
X109077500Y-77754724D02*
X109077500Y-77245276D01*
X110122500Y-77754724D02*
X110122500Y-77245276D01*
G04 #@! TO.C,R3*
X115197500Y-77804724D02*
X115197500Y-77295276D01*
X114152500Y-77804724D02*
X114152500Y-77295276D01*
G04 #@! TO.C,C3*
X118103733Y-83335000D02*
X118396267Y-83335000D01*
X118103733Y-82315000D02*
X118396267Y-82315000D01*
G04 #@! TO.C,C4*
X119860000Y-79171267D02*
X119860000Y-78878733D01*
X118840000Y-79171267D02*
X118840000Y-78878733D01*
G04 #@! TO.C,C5*
X118103733Y-85710000D02*
X118396267Y-85710000D01*
X118103733Y-84690000D02*
X118396267Y-84690000D01*
G04 #@! TO.C,C1*
X117785000Y-80046267D02*
X117785000Y-79753733D01*
X116765000Y-80046267D02*
X116765000Y-79753733D01*
G04 #@! TO.C,C2*
X106560000Y-78816267D02*
X106560000Y-78523733D01*
X107580000Y-78816267D02*
X107580000Y-78523733D01*
G04 #@! TO.C,U2*
X112000000Y-85235000D02*
X114200000Y-85235000D01*
X112000000Y-85235000D02*
X109800000Y-85235000D01*
X112000000Y-79765000D02*
X109800000Y-79765000D01*
X112000000Y-79765000D02*
X115600000Y-79765000D01*
G04 #@! TO.C,R2*
X115422500Y-87070276D02*
X115422500Y-87579724D01*
X114377500Y-87070276D02*
X114377500Y-87579724D01*
G04 #@! TO.C,J1*
X114500000Y-71830000D02*
X115830000Y-71830000D01*
X113230000Y-69170000D02*
X108090000Y-69170000D01*
X115830000Y-71830000D02*
X115830000Y-70500000D01*
X113230000Y-71830000D02*
X108090000Y-71830000D01*
X108090000Y-71830000D02*
X108090000Y-69170000D01*
X113230000Y-71830000D02*
X113230000Y-69170000D01*
G04 #@! TO.C,U1*
X103270000Y-79020000D02*
X103270000Y-77620000D01*
X105590000Y-77620000D02*
X105590000Y-79520000D01*
D12*
G04 #@! TO.C,Ref\u002A\u002A*
X109281131Y-86763997D02*
X109277983Y-86778543D01*
X109277983Y-86778543D02*
X109277975Y-86780104D01*
X109277975Y-86780104D02*
X109296772Y-86804127D01*
X109296772Y-86804127D02*
X109346838Y-86835340D01*
X109346838Y-86835340D02*
X109418686Y-86869481D01*
X109418686Y-86869481D02*
X109502831Y-86902290D01*
X109502831Y-86902290D02*
X109589785Y-86929506D01*
X109589785Y-86929506D02*
X109635035Y-86940476D01*
X109635035Y-86940476D02*
X109818627Y-86964637D01*
X109818627Y-86964637D02*
X110012774Y-86964715D01*
X110012774Y-86964715D02*
X110195044Y-86940735D01*
X110195044Y-86940735D02*
X110199129Y-86939855D01*
X110199129Y-86939855D02*
X110347849Y-86899048D01*
X110347849Y-86899048D02*
X110464686Y-86849067D01*
X110464686Y-86849067D02*
X110516192Y-86816201D01*
X110516192Y-86816201D02*
X110545052Y-86785044D01*
X110545052Y-86785044D02*
X110540147Y-86768937D01*
X110540147Y-86768937D02*
X110508979Y-86773491D01*
X110508979Y-86773491D02*
X110479888Y-86789062D01*
X110479888Y-86789062D02*
X110385979Y-86836140D01*
X110385979Y-86836140D02*
X110263258Y-86876592D01*
X110263258Y-86876592D02*
X110125144Y-86906727D01*
X110125144Y-86906727D02*
X109995861Y-86922177D01*
X109995861Y-86922177D02*
X109814565Y-86921015D01*
X109814565Y-86921015D02*
X109635987Y-86895202D01*
X109635987Y-86895202D02*
X109473952Y-86847293D01*
X109473952Y-86847293D02*
X109394024Y-86810934D01*
X109394024Y-86810934D02*
X109330637Y-86777930D01*
X109330637Y-86777930D02*
X109295844Y-86763038D01*
X109295844Y-86763038D02*
X109281131Y-86763997D01*
X109281131Y-86763997D02*
X109281131Y-86763997D01*
G36*
X109330637Y-86777930D02*
G01*
X109394024Y-86810934D01*
X109473952Y-86847293D01*
X109635987Y-86895202D01*
X109814565Y-86921015D01*
X109995861Y-86922177D01*
X110125144Y-86906727D01*
X110263258Y-86876592D01*
X110385979Y-86836140D01*
X110479888Y-86789062D01*
X110508979Y-86773491D01*
X110540147Y-86768937D01*
X110545052Y-86785044D01*
X110516192Y-86816201D01*
X110464686Y-86849067D01*
X110347849Y-86899048D01*
X110199129Y-86939855D01*
X110195044Y-86940735D01*
X110012774Y-86964715D01*
X109818627Y-86964637D01*
X109635035Y-86940476D01*
X109589785Y-86929506D01*
X109502831Y-86902290D01*
X109418686Y-86869481D01*
X109346838Y-86835340D01*
X109296772Y-86804127D01*
X109277975Y-86780104D01*
X109277983Y-86778543D01*
X109281131Y-86763997D01*
X109295844Y-86763038D01*
X109330637Y-86777930D01*
G37*
X109330637Y-86777930D02*
X109394024Y-86810934D01*
X109473952Y-86847293D01*
X109635987Y-86895202D01*
X109814565Y-86921015D01*
X109995861Y-86922177D01*
X110125144Y-86906727D01*
X110263258Y-86876592D01*
X110385979Y-86836140D01*
X110479888Y-86789062D01*
X110508979Y-86773491D01*
X110540147Y-86768937D01*
X110545052Y-86785044D01*
X110516192Y-86816201D01*
X110464686Y-86849067D01*
X110347849Y-86899048D01*
X110199129Y-86939855D01*
X110195044Y-86940735D01*
X110012774Y-86964715D01*
X109818627Y-86964637D01*
X109635035Y-86940476D01*
X109589785Y-86929506D01*
X109502831Y-86902290D01*
X109418686Y-86869481D01*
X109346838Y-86835340D01*
X109296772Y-86804127D01*
X109277975Y-86780104D01*
X109277983Y-86778543D01*
X109281131Y-86763997D01*
X109295844Y-86763038D01*
X109330637Y-86777930D01*
X105163687Y-87137414D02*
X105135264Y-87188979D01*
X105135264Y-87188979D02*
X105093484Y-87268878D01*
X105093484Y-87268878D02*
X105040766Y-87372168D01*
X105040766Y-87372168D02*
X104979532Y-87493905D01*
X104979532Y-87493905D02*
X104912202Y-87629146D01*
X104912202Y-87629146D02*
X104841197Y-87772948D01*
X104841197Y-87772948D02*
X104768939Y-87920366D01*
X104768939Y-87920366D02*
X104697848Y-88066458D01*
X104697848Y-88066458D02*
X104630346Y-88206281D01*
X104630346Y-88206281D02*
X104568852Y-88334889D01*
X104568852Y-88334889D02*
X104515788Y-88447341D01*
X104515788Y-88447341D02*
X104473575Y-88538693D01*
X104473575Y-88538693D02*
X104444634Y-88604000D01*
X104444634Y-88604000D02*
X104431385Y-88638320D01*
X104431385Y-88638320D02*
X104430809Y-88641476D01*
X104430809Y-88641476D02*
X104451377Y-88653536D01*
X104451377Y-88653536D02*
X104511064Y-88661255D01*
X104511064Y-88661255D02*
X104606841Y-88664266D01*
X104606841Y-88664266D02*
X104618850Y-88664294D01*
X104618850Y-88664294D02*
X104806892Y-88664294D01*
X104806892Y-88664294D02*
X104854142Y-88547878D01*
X104854142Y-88547878D02*
X104901392Y-88431461D01*
X104901392Y-88431461D02*
X105470318Y-88431461D01*
X105470318Y-88431461D02*
X105523615Y-88547878D01*
X105523615Y-88547878D02*
X105576912Y-88664294D01*
X105576912Y-88664294D02*
X105755277Y-88664294D01*
X105755277Y-88664294D02*
X105836192Y-88662150D01*
X105836192Y-88662150D02*
X105897945Y-88656433D01*
X105897945Y-88656433D02*
X105930777Y-88648213D01*
X105930777Y-88648213D02*
X105933642Y-88644720D01*
X105933642Y-88644720D02*
X105924590Y-88619428D01*
X105924590Y-88619428D02*
X105899059Y-88561928D01*
X105899059Y-88561928D02*
X105859492Y-88477138D01*
X105859492Y-88477138D02*
X105808328Y-88369974D01*
X105808328Y-88369974D02*
X105748010Y-88245354D01*
X105748010Y-88245354D02*
X105701899Y-88151003D01*
X105701899Y-88151003D02*
X105356301Y-88151003D01*
X105356301Y-88151003D02*
X105350496Y-88164788D01*
X105350496Y-88164788D02*
X105316295Y-88173146D01*
X105316295Y-88173146D02*
X105248267Y-88176969D01*
X105248267Y-88176969D02*
X105195073Y-88177461D01*
X105195073Y-88177461D02*
X105115857Y-88175747D01*
X105115857Y-88175747D02*
X105055997Y-88171188D01*
X105055997Y-88171188D02*
X105025442Y-88164659D01*
X105025442Y-88164659D02*
X105023475Y-88162383D01*
X105023475Y-88162383D02*
X105031233Y-88134095D01*
X105031233Y-88134095D02*
X105051566Y-88079902D01*
X105051566Y-88079902D02*
X105080062Y-88010025D01*
X105080062Y-88010025D02*
X105112310Y-87934686D01*
X105112310Y-87934686D02*
X105143898Y-87864106D01*
X105143898Y-87864106D02*
X105170414Y-87808508D01*
X105170414Y-87808508D02*
X105187447Y-87778111D01*
X105187447Y-87778111D02*
X105190541Y-87775294D01*
X105190541Y-87775294D02*
X105203731Y-87794092D01*
X105203731Y-87794092D02*
X105229337Y-87846529D01*
X105229337Y-87846529D02*
X105264741Y-87926672D01*
X105264741Y-87926672D02*
X105307325Y-88028586D01*
X105307325Y-88028586D02*
X105354471Y-88146336D01*
X105354471Y-88146336D02*
X105356301Y-88151003D01*
X105356301Y-88151003D02*
X105701899Y-88151003D01*
X105701899Y-88151003D02*
X105680977Y-88108195D01*
X105680977Y-88108195D02*
X105609670Y-87963414D01*
X105609670Y-87963414D02*
X105536531Y-87815928D01*
X105536531Y-87815928D02*
X105464000Y-87670655D01*
X105464000Y-87670655D02*
X105394519Y-87532511D01*
X105394519Y-87532511D02*
X105330527Y-87406413D01*
X105330527Y-87406413D02*
X105274467Y-87297279D01*
X105274467Y-87297279D02*
X105228778Y-87210026D01*
X105228778Y-87210026D02*
X105195903Y-87149570D01*
X105195903Y-87149570D02*
X105178280Y-87120830D01*
X105178280Y-87120830D02*
X105176330Y-87119128D01*
X105176330Y-87119128D02*
X105163687Y-87137414D01*
X105163687Y-87137414D02*
X105163687Y-87137414D01*
G36*
X105808328Y-88369974D02*
G01*
X105859492Y-88477138D01*
X105899059Y-88561928D01*
X105924590Y-88619428D01*
X105933642Y-88644720D01*
X105930777Y-88648213D01*
X105897945Y-88656433D01*
X105836192Y-88662150D01*
X105755277Y-88664294D01*
X105576912Y-88664294D01*
X105523615Y-88547878D01*
X105470318Y-88431461D01*
X104901392Y-88431461D01*
X104854142Y-88547878D01*
X104806892Y-88664294D01*
X104618850Y-88664294D01*
X104606841Y-88664266D01*
X104511064Y-88661255D01*
X104451377Y-88653536D01*
X104430809Y-88641476D01*
X104431385Y-88638320D01*
X104444634Y-88604000D01*
X104473575Y-88538693D01*
X104515788Y-88447341D01*
X104568852Y-88334889D01*
X104630346Y-88206281D01*
X104651539Y-88162383D01*
X105023475Y-88162383D01*
X105025442Y-88164659D01*
X105055997Y-88171188D01*
X105115857Y-88175747D01*
X105195073Y-88177461D01*
X105248267Y-88176969D01*
X105316295Y-88173146D01*
X105350496Y-88164788D01*
X105356301Y-88151003D01*
X105354471Y-88146336D01*
X105307325Y-88028586D01*
X105264741Y-87926672D01*
X105229337Y-87846529D01*
X105203731Y-87794092D01*
X105190541Y-87775294D01*
X105187447Y-87778111D01*
X105170414Y-87808508D01*
X105143898Y-87864106D01*
X105112310Y-87934686D01*
X105080062Y-88010025D01*
X105051566Y-88079902D01*
X105031233Y-88134095D01*
X105023475Y-88162383D01*
X104651539Y-88162383D01*
X104697848Y-88066458D01*
X104768939Y-87920366D01*
X104841197Y-87772948D01*
X104912202Y-87629146D01*
X104979532Y-87493905D01*
X105040766Y-87372168D01*
X105093484Y-87268878D01*
X105135264Y-87188979D01*
X105163687Y-87137414D01*
X105176330Y-87119128D01*
X105178280Y-87120830D01*
X105195903Y-87149570D01*
X105228778Y-87210026D01*
X105274467Y-87297279D01*
X105330527Y-87406413D01*
X105394519Y-87532511D01*
X105464000Y-87670655D01*
X105536531Y-87815928D01*
X105609670Y-87963414D01*
X105680977Y-88108195D01*
X105701899Y-88151003D01*
X105748010Y-88245354D01*
X105808328Y-88369974D01*
G37*
X105808328Y-88369974D02*
X105859492Y-88477138D01*
X105899059Y-88561928D01*
X105924590Y-88619428D01*
X105933642Y-88644720D01*
X105930777Y-88648213D01*
X105897945Y-88656433D01*
X105836192Y-88662150D01*
X105755277Y-88664294D01*
X105576912Y-88664294D01*
X105523615Y-88547878D01*
X105470318Y-88431461D01*
X104901392Y-88431461D01*
X104854142Y-88547878D01*
X104806892Y-88664294D01*
X104618850Y-88664294D01*
X104606841Y-88664266D01*
X104511064Y-88661255D01*
X104451377Y-88653536D01*
X104430809Y-88641476D01*
X104431385Y-88638320D01*
X104444634Y-88604000D01*
X104473575Y-88538693D01*
X104515788Y-88447341D01*
X104568852Y-88334889D01*
X104630346Y-88206281D01*
X104651539Y-88162383D01*
X105023475Y-88162383D01*
X105025442Y-88164659D01*
X105055997Y-88171188D01*
X105115857Y-88175747D01*
X105195073Y-88177461D01*
X105248267Y-88176969D01*
X105316295Y-88173146D01*
X105350496Y-88164788D01*
X105356301Y-88151003D01*
X105354471Y-88146336D01*
X105307325Y-88028586D01*
X105264741Y-87926672D01*
X105229337Y-87846529D01*
X105203731Y-87794092D01*
X105190541Y-87775294D01*
X105187447Y-87778111D01*
X105170414Y-87808508D01*
X105143898Y-87864106D01*
X105112310Y-87934686D01*
X105080062Y-88010025D01*
X105051566Y-88079902D01*
X105031233Y-88134095D01*
X105023475Y-88162383D01*
X104651539Y-88162383D01*
X104697848Y-88066458D01*
X104768939Y-87920366D01*
X104841197Y-87772948D01*
X104912202Y-87629146D01*
X104979532Y-87493905D01*
X105040766Y-87372168D01*
X105093484Y-87268878D01*
X105135264Y-87188979D01*
X105163687Y-87137414D01*
X105176330Y-87119128D01*
X105178280Y-87120830D01*
X105195903Y-87149570D01*
X105228778Y-87210026D01*
X105274467Y-87297279D01*
X105330527Y-87406413D01*
X105394519Y-87532511D01*
X105464000Y-87670655D01*
X105536531Y-87815928D01*
X105609670Y-87963414D01*
X105680977Y-88108195D01*
X105701899Y-88151003D01*
X105748010Y-88245354D01*
X105808328Y-88369974D01*
X110449542Y-87194106D02*
X110366332Y-87219325D01*
X110366332Y-87219325D02*
X110281434Y-87244119D01*
X110281434Y-87244119D02*
X110256934Y-87251035D01*
X110256934Y-87251035D02*
X110166975Y-87276074D01*
X110166975Y-87276074D02*
X110166943Y-87710893D01*
X110166943Y-87710893D02*
X110166051Y-87879237D01*
X110166051Y-87879237D02*
X110162496Y-88010769D01*
X110162496Y-88010769D02*
X110154913Y-88110990D01*
X110154913Y-88110990D02*
X110141937Y-88185399D01*
X110141937Y-88185399D02*
X110122204Y-88239497D01*
X110122204Y-88239497D02*
X110094349Y-88278786D01*
X110094349Y-88278786D02*
X110057008Y-88308766D01*
X110057008Y-88308766D02*
X110012597Y-88333102D01*
X110012597Y-88333102D02*
X109914943Y-88359920D01*
X109914943Y-88359920D02*
X109820476Y-88348648D01*
X109820476Y-88348648D02*
X109737155Y-88303263D01*
X109737155Y-88303263D02*
X109672938Y-88227738D01*
X109672938Y-88227738D02*
X109640396Y-88147217D01*
X109640396Y-88147217D02*
X109632485Y-88094346D01*
X109632485Y-88094346D02*
X109625733Y-88007835D01*
X109625733Y-88007835D02*
X109620570Y-87896369D01*
X109620570Y-87896369D02*
X109617423Y-87768636D01*
X109617423Y-87768636D02*
X109616642Y-87665261D01*
X109616642Y-87665261D02*
X109616642Y-87277640D01*
X109616642Y-87277640D02*
X109457892Y-87220545D01*
X109457892Y-87220545D02*
X109299142Y-87163449D01*
X109299142Y-87163449D02*
X109299142Y-87678607D01*
X109299142Y-87678607D02*
X109299952Y-87866828D01*
X109299952Y-87866828D02*
X109303076Y-88018441D01*
X109303076Y-88018441D02*
X109309559Y-88139153D01*
X109309559Y-88139153D02*
X109320444Y-88234671D01*
X109320444Y-88234671D02*
X109336776Y-88310702D01*
X109336776Y-88310702D02*
X109359599Y-88372952D01*
X109359599Y-88372952D02*
X109389956Y-88427127D01*
X109389956Y-88427127D02*
X109428892Y-88478936D01*
X109428892Y-88478936D02*
X109450070Y-88503657D01*
X109450070Y-88503657D02*
X109559575Y-88596755D01*
X109559575Y-88596755D02*
X109695040Y-88659613D01*
X109695040Y-88659613D02*
X109851282Y-88690670D01*
X109851282Y-88690670D02*
X110023119Y-88688362D01*
X110023119Y-88688362D02*
X110051005Y-88684891D01*
X110051005Y-88684891D02*
X110200479Y-88644383D01*
X110200479Y-88644383D02*
X110327086Y-88569103D01*
X110327086Y-88569103D02*
X110427538Y-88461687D01*
X110427538Y-88461687D02*
X110497795Y-88326813D01*
X110497795Y-88326813D02*
X110509518Y-88287717D01*
X110509518Y-88287717D02*
X110518883Y-88237244D01*
X110518883Y-88237244D02*
X110526283Y-88169899D01*
X110526283Y-88169899D02*
X110532109Y-88080187D01*
X110532109Y-88080187D02*
X110536755Y-87962613D01*
X110536755Y-87962613D02*
X110540612Y-87811682D01*
X110540612Y-87811682D02*
X110542826Y-87696297D01*
X110542826Y-87696297D02*
X110552191Y-87162217D01*
X110552191Y-87162217D02*
X110449542Y-87194106D01*
X110449542Y-87194106D02*
X110449542Y-87194106D01*
G36*
X110542826Y-87696297D02*
G01*
X110540612Y-87811682D01*
X110536755Y-87962613D01*
X110532109Y-88080187D01*
X110526283Y-88169899D01*
X110518883Y-88237244D01*
X110509518Y-88287717D01*
X110497795Y-88326813D01*
X110427538Y-88461687D01*
X110327086Y-88569103D01*
X110200479Y-88644383D01*
X110051005Y-88684891D01*
X110023119Y-88688362D01*
X109851282Y-88690670D01*
X109695040Y-88659613D01*
X109559575Y-88596755D01*
X109450070Y-88503657D01*
X109428892Y-88478936D01*
X109389956Y-88427127D01*
X109359599Y-88372952D01*
X109336776Y-88310702D01*
X109320444Y-88234671D01*
X109309559Y-88139153D01*
X109303076Y-88018441D01*
X109299952Y-87866828D01*
X109299142Y-87678607D01*
X109299142Y-87163449D01*
X109457892Y-87220545D01*
X109616642Y-87277640D01*
X109616642Y-87665261D01*
X109617423Y-87768636D01*
X109620570Y-87896369D01*
X109625733Y-88007835D01*
X109632485Y-88094346D01*
X109640396Y-88147217D01*
X109672938Y-88227738D01*
X109737155Y-88303263D01*
X109820476Y-88348648D01*
X109914943Y-88359920D01*
X110012597Y-88333102D01*
X110057008Y-88308766D01*
X110094349Y-88278786D01*
X110122204Y-88239497D01*
X110141937Y-88185399D01*
X110154913Y-88110990D01*
X110162496Y-88010769D01*
X110166051Y-87879237D01*
X110166943Y-87710893D01*
X110166975Y-87276074D01*
X110256934Y-87251035D01*
X110281434Y-87244119D01*
X110366332Y-87219325D01*
X110449542Y-87194106D01*
X110552191Y-87162217D01*
X110542826Y-87696297D01*
G37*
X110542826Y-87696297D02*
X110540612Y-87811682D01*
X110536755Y-87962613D01*
X110532109Y-88080187D01*
X110526283Y-88169899D01*
X110518883Y-88237244D01*
X110509518Y-88287717D01*
X110497795Y-88326813D01*
X110427538Y-88461687D01*
X110327086Y-88569103D01*
X110200479Y-88644383D01*
X110051005Y-88684891D01*
X110023119Y-88688362D01*
X109851282Y-88690670D01*
X109695040Y-88659613D01*
X109559575Y-88596755D01*
X109450070Y-88503657D01*
X109428892Y-88478936D01*
X109389956Y-88427127D01*
X109359599Y-88372952D01*
X109336776Y-88310702D01*
X109320444Y-88234671D01*
X109309559Y-88139153D01*
X109303076Y-88018441D01*
X109299952Y-87866828D01*
X109299142Y-87678607D01*
X109299142Y-87163449D01*
X109457892Y-87220545D01*
X109616642Y-87277640D01*
X109616642Y-87665261D01*
X109617423Y-87768636D01*
X109620570Y-87896369D01*
X109625733Y-88007835D01*
X109632485Y-88094346D01*
X109640396Y-88147217D01*
X109672938Y-88227738D01*
X109737155Y-88303263D01*
X109820476Y-88348648D01*
X109914943Y-88359920D01*
X110012597Y-88333102D01*
X110057008Y-88308766D01*
X110094349Y-88278786D01*
X110122204Y-88239497D01*
X110141937Y-88185399D01*
X110154913Y-88110990D01*
X110162496Y-88010769D01*
X110166051Y-87879237D01*
X110166943Y-87710893D01*
X110166975Y-87276074D01*
X110256934Y-87251035D01*
X110281434Y-87244119D01*
X110366332Y-87219325D01*
X110449542Y-87194106D01*
X110552191Y-87162217D01*
X110542826Y-87696297D01*
X101619298Y-87175085D02*
X101476540Y-87177740D01*
X101476540Y-87177740D02*
X101368741Y-87183105D01*
X101368741Y-87183105D02*
X101288576Y-87191853D01*
X101288576Y-87191853D02*
X101228719Y-87204656D01*
X101228719Y-87204656D02*
X101202603Y-87213363D01*
X101202603Y-87213363D02*
X101106670Y-87268568D01*
X101106670Y-87268568D02*
X101019784Y-87351475D01*
X101019784Y-87351475D02*
X100955473Y-87447955D01*
X100955473Y-87447955D02*
X100938349Y-87489423D01*
X100938349Y-87489423D02*
X100920903Y-87604317D01*
X100920903Y-87604317D02*
X100937528Y-87723719D01*
X100937528Y-87723719D02*
X100984059Y-87835759D01*
X100984059Y-87835759D02*
X101056329Y-87928571D01*
X101056329Y-87928571D02*
X101106152Y-87967510D01*
X101106152Y-87967510D02*
X101184658Y-88017117D01*
X101184658Y-88017117D02*
X100966233Y-88327118D01*
X100966233Y-88327118D02*
X100896076Y-88427453D01*
X100896076Y-88427453D02*
X100835270Y-88515873D01*
X100835270Y-88515873D02*
X100787713Y-88586592D01*
X100787713Y-88586592D02*
X100757301Y-88633823D01*
X100757301Y-88633823D02*
X100747809Y-88651473D01*
X100747809Y-88651473D02*
X100767444Y-88656989D01*
X100767444Y-88656989D02*
X100820308Y-88660247D01*
X100820308Y-88660247D02*
X100897340Y-88660880D01*
X100897340Y-88660880D02*
X100954184Y-88659769D01*
X100954184Y-88659769D02*
X101160559Y-88653711D01*
X101160559Y-88653711D02*
X101352847Y-88369129D01*
X101352847Y-88369129D02*
X101419207Y-88272585D01*
X101419207Y-88272585D02*
X101478778Y-88189033D01*
X101478778Y-88189033D02*
X101527024Y-88124591D01*
X101527024Y-88124591D02*
X101559412Y-88085380D01*
X101559412Y-88085380D02*
X101569805Y-88076323D01*
X101569805Y-88076323D02*
X101580289Y-88085704D01*
X101580289Y-88085704D02*
X101587648Y-88124447D01*
X101587648Y-88124447D02*
X101592202Y-88196305D01*
X101592202Y-88196305D02*
X101594271Y-88305028D01*
X101594271Y-88305028D02*
X101594475Y-88366197D01*
X101594475Y-88366197D02*
X101594475Y-88664294D01*
X101594475Y-88664294D02*
X101764473Y-88664294D01*
X101764473Y-88664294D02*
X101862999Y-88661361D01*
X101862999Y-88661361D02*
X101922278Y-88652296D01*
X101922278Y-88652296D02*
X101944678Y-88637696D01*
X101944678Y-88637696D02*
X101946936Y-88610876D01*
X101946936Y-88610876D02*
X101948697Y-88546827D01*
X101948697Y-88546827D02*
X101949929Y-88450653D01*
X101949929Y-88450653D02*
X101950601Y-88327454D01*
X101950601Y-88327454D02*
X101950681Y-88182335D01*
X101950681Y-88182335D02*
X101950137Y-88020397D01*
X101950137Y-88020397D02*
X101949305Y-87891571D01*
X101949305Y-87891571D02*
X101945942Y-87457794D01*
X101945942Y-87457794D02*
X101594475Y-87457794D01*
X101594475Y-87457794D02*
X101594475Y-87838794D01*
X101594475Y-87838794D02*
X101504517Y-87838715D01*
X101504517Y-87838715D02*
X101421477Y-87827091D01*
X101421477Y-87827091D02*
X101347722Y-87797880D01*
X101347722Y-87797880D02*
X101346916Y-87797391D01*
X101346916Y-87797391D02*
X101291134Y-87742310D01*
X101291134Y-87742310D02*
X101262108Y-87669575D01*
X101262108Y-87669575D02*
X101264486Y-87594275D01*
X101264486Y-87594275D02*
X101275665Y-87566075D01*
X101275665Y-87566075D02*
X101326376Y-87511799D01*
X101326376Y-87511799D02*
X101405266Y-87473752D01*
X101405266Y-87473752D02*
X101499440Y-87457924D01*
X101499440Y-87457924D02*
X101508758Y-87457794D01*
X101508758Y-87457794D02*
X101594475Y-87457794D01*
X101594475Y-87457794D02*
X101945942Y-87457794D01*
X101945942Y-87457794D02*
X101943725Y-87172044D01*
X101943725Y-87172044D02*
X101619298Y-87175085D01*
X101619298Y-87175085D02*
X101619298Y-87175085D01*
G36*
X101950137Y-88020397D02*
G01*
X101950681Y-88182335D01*
X101950601Y-88327454D01*
X101949929Y-88450653D01*
X101948697Y-88546827D01*
X101946936Y-88610876D01*
X101944678Y-88637696D01*
X101922278Y-88652296D01*
X101862999Y-88661361D01*
X101764473Y-88664294D01*
X101594475Y-88664294D01*
X101594475Y-88366197D01*
X101594271Y-88305028D01*
X101592202Y-88196305D01*
X101587648Y-88124447D01*
X101580289Y-88085704D01*
X101569805Y-88076323D01*
X101559412Y-88085380D01*
X101527024Y-88124591D01*
X101478778Y-88189033D01*
X101419207Y-88272585D01*
X101352847Y-88369129D01*
X101160559Y-88653711D01*
X100954184Y-88659769D01*
X100897340Y-88660880D01*
X100820308Y-88660247D01*
X100767444Y-88656989D01*
X100747809Y-88651473D01*
X100757301Y-88633823D01*
X100787713Y-88586592D01*
X100835270Y-88515873D01*
X100896076Y-88427453D01*
X100966233Y-88327118D01*
X101184658Y-88017117D01*
X101106152Y-87967510D01*
X101056329Y-87928571D01*
X100984059Y-87835759D01*
X100937528Y-87723719D01*
X100929989Y-87669575D01*
X101262108Y-87669575D01*
X101291134Y-87742310D01*
X101346916Y-87797391D01*
X101347722Y-87797880D01*
X101421477Y-87827091D01*
X101504517Y-87838715D01*
X101594475Y-87838794D01*
X101594475Y-87457794D01*
X101508758Y-87457794D01*
X101499440Y-87457924D01*
X101405266Y-87473752D01*
X101326376Y-87511799D01*
X101275665Y-87566075D01*
X101264486Y-87594275D01*
X101262108Y-87669575D01*
X100929989Y-87669575D01*
X100920903Y-87604317D01*
X100938349Y-87489423D01*
X100955473Y-87447955D01*
X101019784Y-87351475D01*
X101106670Y-87268568D01*
X101202603Y-87213363D01*
X101228719Y-87204656D01*
X101288576Y-87191853D01*
X101368741Y-87183105D01*
X101476540Y-87177740D01*
X101619298Y-87175085D01*
X101943725Y-87172044D01*
X101945942Y-87457794D01*
X101949305Y-87891571D01*
X101950137Y-88020397D01*
G37*
X101950137Y-88020397D02*
X101950681Y-88182335D01*
X101950601Y-88327454D01*
X101949929Y-88450653D01*
X101948697Y-88546827D01*
X101946936Y-88610876D01*
X101944678Y-88637696D01*
X101922278Y-88652296D01*
X101862999Y-88661361D01*
X101764473Y-88664294D01*
X101594475Y-88664294D01*
X101594475Y-88366197D01*
X101594271Y-88305028D01*
X101592202Y-88196305D01*
X101587648Y-88124447D01*
X101580289Y-88085704D01*
X101569805Y-88076323D01*
X101559412Y-88085380D01*
X101527024Y-88124591D01*
X101478778Y-88189033D01*
X101419207Y-88272585D01*
X101352847Y-88369129D01*
X101160559Y-88653711D01*
X100954184Y-88659769D01*
X100897340Y-88660880D01*
X100820308Y-88660247D01*
X100767444Y-88656989D01*
X100747809Y-88651473D01*
X100757301Y-88633823D01*
X100787713Y-88586592D01*
X100835270Y-88515873D01*
X100896076Y-88427453D01*
X100966233Y-88327118D01*
X101184658Y-88017117D01*
X101106152Y-87967510D01*
X101056329Y-87928571D01*
X100984059Y-87835759D01*
X100937528Y-87723719D01*
X100929989Y-87669575D01*
X101262108Y-87669575D01*
X101291134Y-87742310D01*
X101346916Y-87797391D01*
X101347722Y-87797880D01*
X101421477Y-87827091D01*
X101504517Y-87838715D01*
X101594475Y-87838794D01*
X101594475Y-87457794D01*
X101508758Y-87457794D01*
X101499440Y-87457924D01*
X101405266Y-87473752D01*
X101326376Y-87511799D01*
X101275665Y-87566075D01*
X101264486Y-87594275D01*
X101262108Y-87669575D01*
X100929989Y-87669575D01*
X100920903Y-87604317D01*
X100938349Y-87489423D01*
X100955473Y-87447955D01*
X101019784Y-87351475D01*
X101106670Y-87268568D01*
X101202603Y-87213363D01*
X101228719Y-87204656D01*
X101288576Y-87191853D01*
X101368741Y-87183105D01*
X101476540Y-87177740D01*
X101619298Y-87175085D01*
X101943725Y-87172044D01*
X101945942Y-87457794D01*
X101949305Y-87891571D01*
X101950137Y-88020397D01*
X103801514Y-87126002D02*
X103683465Y-87138020D01*
X103683465Y-87138020D02*
X103574314Y-87160688D01*
X103574314Y-87160688D02*
X103562717Y-87164039D01*
X103562717Y-87164039D02*
X103478309Y-87189328D01*
X103478309Y-87189328D02*
X103478309Y-87560561D01*
X103478309Y-87560561D02*
X103600017Y-87497974D01*
X103600017Y-87497974D02*
X103678416Y-87462121D01*
X103678416Y-87462121D02*
X103755237Y-87434162D01*
X103755237Y-87434162D02*
X103800691Y-87422721D01*
X103800691Y-87422721D02*
X103879562Y-87423543D01*
X103879562Y-87423543D02*
X103939794Y-87448697D01*
X103939794Y-87448697D02*
X103976512Y-87490555D01*
X103976512Y-87490555D02*
X103984841Y-87541492D01*
X103984841Y-87541492D02*
X103959906Y-87593879D01*
X103959906Y-87593879D02*
X103928100Y-87622048D01*
X103928100Y-87622048D02*
X103880713Y-87652130D01*
X103880713Y-87652130D02*
X103810553Y-87693681D01*
X103810553Y-87693681D02*
X103732135Y-87738122D01*
X103732135Y-87738122D02*
X103725796Y-87741625D01*
X103725796Y-87741625D02*
X103643220Y-87790525D01*
X103643220Y-87790525D02*
X103564397Y-87842840D01*
X103564397Y-87842840D02*
X103506188Y-87887367D01*
X103506188Y-87887367D02*
X103505515Y-87887956D01*
X103505515Y-87887956D02*
X103418680Y-87989468D01*
X103418680Y-87989468D02*
X103367544Y-88104671D01*
X103367544Y-88104671D02*
X103351068Y-88226226D01*
X103351068Y-88226226D02*
X103368213Y-88346790D01*
X103368213Y-88346790D02*
X103417940Y-88459024D01*
X103417940Y-88459024D02*
X103499208Y-88555587D01*
X103499208Y-88555587D02*
X103610425Y-88628877D01*
X103610425Y-88628877D02*
X103740641Y-88675525D01*
X103740641Y-88675525D02*
X103878399Y-88693120D01*
X103878399Y-88693120D02*
X104036624Y-88683293D01*
X104036624Y-88683293D02*
X104039225Y-88682944D01*
X104039225Y-88682944D02*
X104145249Y-88668288D01*
X104145249Y-88668288D02*
X104216895Y-88653674D01*
X104216895Y-88653674D02*
X104261552Y-88632252D01*
X104261552Y-88632252D02*
X104286613Y-88597174D01*
X104286613Y-88597174D02*
X104299468Y-88541592D01*
X104299468Y-88541592D02*
X104307506Y-88458656D01*
X104307506Y-88458656D02*
X104309673Y-88432325D01*
X104309673Y-88432325D02*
X104316175Y-88346054D01*
X104316175Y-88346054D02*
X104320041Y-88277472D01*
X104320041Y-88277472D02*
X104320795Y-88236207D01*
X104320795Y-88236207D02*
X104319736Y-88228666D01*
X104319736Y-88228666D02*
X104299122Y-88234088D01*
X104299122Y-88234088D02*
X104251167Y-88254430D01*
X104251167Y-88254430D02*
X104186205Y-88285302D01*
X104186205Y-88285302D02*
X104185470Y-88285666D01*
X104185470Y-88285666D02*
X104093589Y-88323465D01*
X104093589Y-88323465D02*
X103996302Y-88351564D01*
X103996302Y-88351564D02*
X103941410Y-88361041D01*
X103941410Y-88361041D02*
X103869735Y-88365739D01*
X103869735Y-88365739D02*
X103822724Y-88358778D01*
X103822724Y-88358778D02*
X103783442Y-88336335D01*
X103783442Y-88336335D02*
X103764981Y-88321207D01*
X103764981Y-88321207D02*
X103721749Y-88268918D01*
X103721749Y-88268918D02*
X103716300Y-88216443D01*
X103716300Y-88216443D02*
X103749678Y-88160954D01*
X103749678Y-88160954D02*
X103822925Y-88099625D01*
X103822925Y-88099625D02*
X103854436Y-88078636D01*
X103854436Y-88078636D02*
X103939354Y-88024401D01*
X103939354Y-88024401D02*
X104030210Y-87966447D01*
X104030210Y-87966447D02*
X104085002Y-87931542D01*
X104085002Y-87931542D02*
X104190759Y-87854051D01*
X104190759Y-87854051D02*
X104261116Y-87774820D01*
X104261116Y-87774820D02*
X104302233Y-87684032D01*
X104302233Y-87684032D02*
X104320266Y-87571874D01*
X104320266Y-87571874D02*
X104321246Y-87555011D01*
X104321246Y-87555011D02*
X104323283Y-87470317D01*
X104323283Y-87470317D02*
X104317411Y-87412776D01*
X104317411Y-87412776D02*
X104300799Y-87367514D01*
X104300799Y-87367514D02*
X104278652Y-87331298D01*
X104278652Y-87331298D02*
X104189089Y-87234982D01*
X104189089Y-87234982D02*
X104072169Y-87163804D01*
X104072169Y-87163804D02*
X103998987Y-87137840D01*
X103998987Y-87137840D02*
X103912131Y-87125616D01*
X103912131Y-87125616D02*
X103801514Y-87126002D01*
X103801514Y-87126002D02*
X103801514Y-87126002D01*
G36*
X103998987Y-87137840D02*
G01*
X104072169Y-87163804D01*
X104189089Y-87234982D01*
X104278652Y-87331298D01*
X104300799Y-87367514D01*
X104317411Y-87412776D01*
X104323283Y-87470317D01*
X104321246Y-87555011D01*
X104320266Y-87571874D01*
X104302233Y-87684032D01*
X104261116Y-87774820D01*
X104190759Y-87854051D01*
X104085002Y-87931542D01*
X104030210Y-87966447D01*
X103939354Y-88024401D01*
X103854436Y-88078636D01*
X103822925Y-88099625D01*
X103749678Y-88160954D01*
X103716300Y-88216443D01*
X103721749Y-88268918D01*
X103764981Y-88321207D01*
X103783442Y-88336335D01*
X103822724Y-88358778D01*
X103869735Y-88365739D01*
X103941410Y-88361041D01*
X103996302Y-88351564D01*
X104093589Y-88323465D01*
X104185470Y-88285666D01*
X104186205Y-88285302D01*
X104251167Y-88254430D01*
X104299122Y-88234088D01*
X104319736Y-88228666D01*
X104320795Y-88236207D01*
X104320041Y-88277472D01*
X104316175Y-88346054D01*
X104309673Y-88432325D01*
X104307506Y-88458656D01*
X104299468Y-88541592D01*
X104286613Y-88597174D01*
X104261552Y-88632252D01*
X104216895Y-88653674D01*
X104145249Y-88668288D01*
X104039225Y-88682944D01*
X104036624Y-88683293D01*
X103878399Y-88693120D01*
X103740641Y-88675525D01*
X103610425Y-88628877D01*
X103499208Y-88555587D01*
X103417940Y-88459024D01*
X103368213Y-88346790D01*
X103351068Y-88226226D01*
X103367544Y-88104671D01*
X103418680Y-87989468D01*
X103505515Y-87887956D01*
X103506188Y-87887367D01*
X103564397Y-87842840D01*
X103643220Y-87790525D01*
X103725796Y-87741625D01*
X103732135Y-87738122D01*
X103810553Y-87693681D01*
X103880713Y-87652130D01*
X103928100Y-87622048D01*
X103959906Y-87593879D01*
X103984841Y-87541492D01*
X103976512Y-87490555D01*
X103939794Y-87448697D01*
X103879562Y-87423543D01*
X103800691Y-87422721D01*
X103755237Y-87434162D01*
X103678416Y-87462121D01*
X103600017Y-87497974D01*
X103478309Y-87560561D01*
X103478309Y-87189328D01*
X103562717Y-87164039D01*
X103574314Y-87160688D01*
X103683465Y-87138020D01*
X103801514Y-87126002D01*
X103912131Y-87125616D01*
X103998987Y-87137840D01*
G37*
X103998987Y-87137840D02*
X104072169Y-87163804D01*
X104189089Y-87234982D01*
X104278652Y-87331298D01*
X104300799Y-87367514D01*
X104317411Y-87412776D01*
X104323283Y-87470317D01*
X104321246Y-87555011D01*
X104320266Y-87571874D01*
X104302233Y-87684032D01*
X104261116Y-87774820D01*
X104190759Y-87854051D01*
X104085002Y-87931542D01*
X104030210Y-87966447D01*
X103939354Y-88024401D01*
X103854436Y-88078636D01*
X103822925Y-88099625D01*
X103749678Y-88160954D01*
X103716300Y-88216443D01*
X103721749Y-88268918D01*
X103764981Y-88321207D01*
X103783442Y-88336335D01*
X103822724Y-88358778D01*
X103869735Y-88365739D01*
X103941410Y-88361041D01*
X103996302Y-88351564D01*
X104093589Y-88323465D01*
X104185470Y-88285666D01*
X104186205Y-88285302D01*
X104251167Y-88254430D01*
X104299122Y-88234088D01*
X104319736Y-88228666D01*
X104320795Y-88236207D01*
X104320041Y-88277472D01*
X104316175Y-88346054D01*
X104309673Y-88432325D01*
X104307506Y-88458656D01*
X104299468Y-88541592D01*
X104286613Y-88597174D01*
X104261552Y-88632252D01*
X104216895Y-88653674D01*
X104145249Y-88668288D01*
X104039225Y-88682944D01*
X104036624Y-88683293D01*
X103878399Y-88693120D01*
X103740641Y-88675525D01*
X103610425Y-88628877D01*
X103499208Y-88555587D01*
X103417940Y-88459024D01*
X103368213Y-88346790D01*
X103351068Y-88226226D01*
X103367544Y-88104671D01*
X103418680Y-87989468D01*
X103505515Y-87887956D01*
X103506188Y-87887367D01*
X103564397Y-87842840D01*
X103643220Y-87790525D01*
X103725796Y-87741625D01*
X103732135Y-87738122D01*
X103810553Y-87693681D01*
X103880713Y-87652130D01*
X103928100Y-87622048D01*
X103959906Y-87593879D01*
X103984841Y-87541492D01*
X103976512Y-87490555D01*
X103939794Y-87448697D01*
X103879562Y-87423543D01*
X103800691Y-87422721D01*
X103755237Y-87434162D01*
X103678416Y-87462121D01*
X103600017Y-87497974D01*
X103478309Y-87560561D01*
X103478309Y-87189328D01*
X103562717Y-87164039D01*
X103574314Y-87160688D01*
X103683465Y-87138020D01*
X103801514Y-87126002D01*
X103912131Y-87125616D01*
X103998987Y-87137840D01*
X109278574Y-86897363D02*
X109277975Y-86907104D01*
X109277975Y-86907104D02*
X109296772Y-86931127D01*
X109296772Y-86931127D02*
X109346838Y-86962340D01*
X109346838Y-86962340D02*
X109418686Y-86996481D01*
X109418686Y-86996481D02*
X109502831Y-87029290D01*
X109502831Y-87029290D02*
X109589785Y-87056506D01*
X109589785Y-87056506D02*
X109635035Y-87067476D01*
X109635035Y-87067476D02*
X109821324Y-87091816D01*
X109821324Y-87091816D02*
X110018175Y-87091323D01*
X110018175Y-87091323D02*
X110200804Y-87066513D01*
X110200804Y-87066513D02*
X110281399Y-87044468D01*
X110281399Y-87044468D02*
X110365574Y-87014188D01*
X110365574Y-87014188D02*
X110443602Y-86980142D01*
X110443602Y-86980142D02*
X110505755Y-86946793D01*
X110505755Y-86946793D02*
X110542307Y-86918610D01*
X110542307Y-86918610D02*
X110547975Y-86907104D01*
X110547975Y-86907104D02*
X110544299Y-86890267D01*
X110544299Y-86890267D02*
X110527176Y-86890811D01*
X110527176Y-86890811D02*
X110487467Y-86910785D01*
X110487467Y-86910785D02*
X110459227Y-86926987D01*
X110459227Y-86926987D02*
X110321900Y-86986752D01*
X110321900Y-86986752D02*
X110158655Y-87025689D01*
X110158655Y-87025689D02*
X109980431Y-87043798D01*
X109980431Y-87043798D02*
X109798166Y-87041080D01*
X109798166Y-87041080D02*
X109622797Y-87017534D01*
X109622797Y-87017534D02*
X109465262Y-86973161D01*
X109465262Y-86973161D02*
X109366724Y-86926987D01*
X109366724Y-86926987D02*
X109313614Y-86897427D01*
X109313614Y-86897427D02*
X109287277Y-86888235D01*
X109287277Y-86888235D02*
X109278574Y-86897363D01*
X109278574Y-86897363D02*
X109278574Y-86897363D01*
G36*
X109313614Y-86897427D02*
G01*
X109366724Y-86926987D01*
X109465262Y-86973161D01*
X109622797Y-87017534D01*
X109798166Y-87041080D01*
X109980431Y-87043798D01*
X110158655Y-87025689D01*
X110321900Y-86986752D01*
X110459227Y-86926987D01*
X110487467Y-86910785D01*
X110527176Y-86890811D01*
X110544299Y-86890267D01*
X110547975Y-86907104D01*
X110542307Y-86918610D01*
X110505755Y-86946793D01*
X110443602Y-86980142D01*
X110365574Y-87014188D01*
X110281399Y-87044468D01*
X110200804Y-87066513D01*
X110018175Y-87091323D01*
X109821324Y-87091816D01*
X109635035Y-87067476D01*
X109589785Y-87056506D01*
X109502831Y-87029290D01*
X109418686Y-86996481D01*
X109346838Y-86962340D01*
X109296772Y-86931127D01*
X109277975Y-86907104D01*
X109278574Y-86897363D01*
X109287277Y-86888235D01*
X109313614Y-86897427D01*
G37*
X109313614Y-86897427D02*
X109366724Y-86926987D01*
X109465262Y-86973161D01*
X109622797Y-87017534D01*
X109798166Y-87041080D01*
X109980431Y-87043798D01*
X110158655Y-87025689D01*
X110321900Y-86986752D01*
X110459227Y-86926987D01*
X110487467Y-86910785D01*
X110527176Y-86890811D01*
X110544299Y-86890267D01*
X110547975Y-86907104D01*
X110542307Y-86918610D01*
X110505755Y-86946793D01*
X110443602Y-86980142D01*
X110365574Y-87014188D01*
X110281399Y-87044468D01*
X110200804Y-87066513D01*
X110018175Y-87091323D01*
X109821324Y-87091816D01*
X109635035Y-87067476D01*
X109589785Y-87056506D01*
X109502831Y-87029290D01*
X109418686Y-86996481D01*
X109346838Y-86962340D01*
X109296772Y-86931127D01*
X109277975Y-86907104D01*
X109278574Y-86897363D01*
X109287277Y-86888235D01*
X109313614Y-86897427D01*
X110532100Y-87017902D02*
X110310868Y-87112190D01*
X110310868Y-87112190D02*
X110093241Y-87167008D01*
X110093241Y-87167008D02*
X109912975Y-87181892D01*
X109912975Y-87181892D02*
X109780242Y-87172533D01*
X109780242Y-87172533D02*
X109637559Y-87147096D01*
X109637559Y-87147096D02*
X109502580Y-87109539D01*
X109502580Y-87109539D02*
X109397730Y-87066327D01*
X109397730Y-87066327D02*
X109332932Y-87033344D01*
X109332932Y-87033344D02*
X109297045Y-87017676D01*
X109297045Y-87017676D02*
X109281570Y-87016823D01*
X109281570Y-87016823D02*
X109278008Y-87028283D01*
X109278008Y-87028283D02*
X109277975Y-87031097D01*
X109277975Y-87031097D02*
X109296901Y-87056236D01*
X109296901Y-87056236D02*
X109347401Y-87087882D01*
X109347401Y-87087882D02*
X109420065Y-87121956D01*
X109420065Y-87121956D02*
X109505477Y-87154379D01*
X109505477Y-87154379D02*
X109594227Y-87181070D01*
X109594227Y-87181070D02*
X109654880Y-87194444D01*
X109654880Y-87194444D02*
X109874699Y-87219383D01*
X109874699Y-87219383D02*
X110084817Y-87212131D01*
X110084817Y-87212131D02*
X110166975Y-87200781D01*
X110166975Y-87200781D02*
X110240404Y-87183552D01*
X110240404Y-87183552D02*
X110322974Y-87156406D01*
X110322974Y-87156406D02*
X110404848Y-87123654D01*
X110404848Y-87123654D02*
X110476187Y-87089608D01*
X110476187Y-87089608D02*
X110527152Y-87058579D01*
X110527152Y-87058579D02*
X110547906Y-87034880D01*
X110547906Y-87034880D02*
X110547975Y-87033809D01*
X110547975Y-87033809D02*
X110537685Y-87016585D01*
X110537685Y-87016585D02*
X110532100Y-87017902D01*
X110532100Y-87017902D02*
X110532100Y-87017902D01*
G36*
X110547975Y-87033809D02*
G01*
X110547906Y-87034880D01*
X110527152Y-87058579D01*
X110476187Y-87089608D01*
X110404848Y-87123654D01*
X110322974Y-87156406D01*
X110240404Y-87183552D01*
X110166975Y-87200781D01*
X110084817Y-87212131D01*
X109874699Y-87219383D01*
X109654880Y-87194444D01*
X109594227Y-87181070D01*
X109505477Y-87154379D01*
X109420065Y-87121956D01*
X109347401Y-87087882D01*
X109296901Y-87056236D01*
X109277975Y-87031097D01*
X109278008Y-87028283D01*
X109281570Y-87016823D01*
X109297045Y-87017676D01*
X109332932Y-87033344D01*
X109397730Y-87066327D01*
X109502580Y-87109539D01*
X109637559Y-87147096D01*
X109780242Y-87172533D01*
X109912975Y-87181892D01*
X110093241Y-87167008D01*
X110310868Y-87112190D01*
X110532100Y-87017902D01*
X110537685Y-87016585D01*
X110547975Y-87033809D01*
G37*
X110547975Y-87033809D02*
X110547906Y-87034880D01*
X110527152Y-87058579D01*
X110476187Y-87089608D01*
X110404848Y-87123654D01*
X110322974Y-87156406D01*
X110240404Y-87183552D01*
X110166975Y-87200781D01*
X110084817Y-87212131D01*
X109874699Y-87219383D01*
X109654880Y-87194444D01*
X109594227Y-87181070D01*
X109505477Y-87154379D01*
X109420065Y-87121956D01*
X109347401Y-87087882D01*
X109296901Y-87056236D01*
X109277975Y-87031097D01*
X109278008Y-87028283D01*
X109281570Y-87016823D01*
X109297045Y-87017676D01*
X109332932Y-87033344D01*
X109397730Y-87066327D01*
X109502580Y-87109539D01*
X109637559Y-87147096D01*
X109780242Y-87172533D01*
X109912975Y-87181892D01*
X110093241Y-87167008D01*
X110310868Y-87112190D01*
X110532100Y-87017902D01*
X110537685Y-87016585D01*
X110547975Y-87033809D01*
X102658100Y-87166340D02*
X102197725Y-87172044D01*
X102197725Y-87172044D02*
X102191507Y-87325503D01*
X102191507Y-87325503D02*
X102185288Y-87478961D01*
X102185288Y-87478961D02*
X102758642Y-87478961D01*
X102758642Y-87478961D02*
X102758642Y-87732961D01*
X102758642Y-87732961D02*
X102271809Y-87732961D01*
X102271809Y-87732961D02*
X102271809Y-88050461D01*
X102271809Y-88050461D02*
X102758642Y-88050461D01*
X102758642Y-88050461D02*
X102758642Y-88325628D01*
X102758642Y-88325628D02*
X102187142Y-88325628D01*
X102187142Y-88325628D02*
X102187142Y-88664294D01*
X102187142Y-88664294D02*
X103118475Y-88664294D01*
X103118475Y-88664294D02*
X103118475Y-87160635D01*
X103118475Y-87160635D02*
X102658100Y-87166340D01*
X102658100Y-87166340D02*
X102658100Y-87166340D01*
G36*
X103118475Y-88664294D02*
G01*
X102187142Y-88664294D01*
X102187142Y-88325628D01*
X102758642Y-88325628D01*
X102758642Y-88050461D01*
X102271809Y-88050461D01*
X102271809Y-87732961D01*
X102758642Y-87732961D01*
X102758642Y-87478961D01*
X102185288Y-87478961D01*
X102191507Y-87325503D01*
X102197725Y-87172044D01*
X102658100Y-87166340D01*
X103118475Y-87160635D01*
X103118475Y-88664294D01*
G37*
X103118475Y-88664294D02*
X102187142Y-88664294D01*
X102187142Y-88325628D01*
X102758642Y-88325628D01*
X102758642Y-88050461D01*
X102271809Y-88050461D01*
X102271809Y-87732961D01*
X102758642Y-87732961D01*
X102758642Y-87478961D01*
X102185288Y-87478961D01*
X102191507Y-87325503D01*
X102197725Y-87172044D01*
X102658100Y-87166340D01*
X103118475Y-87160635D01*
X103118475Y-88664294D01*
X106928475Y-87711794D02*
X106399309Y-87711794D01*
X106399309Y-87711794D02*
X106399309Y-87161461D01*
X106399309Y-87161461D02*
X106039475Y-87161461D01*
X106039475Y-87161461D02*
X106039475Y-88666006D01*
X106039475Y-88666006D02*
X106214100Y-88659859D01*
X106214100Y-88659859D02*
X106388725Y-88653711D01*
X106388725Y-88653711D02*
X106394583Y-88341503D01*
X106394583Y-88341503D02*
X106400441Y-88029294D01*
X106400441Y-88029294D02*
X106927344Y-88029294D01*
X106927344Y-88029294D02*
X106933201Y-88341503D01*
X106933201Y-88341503D02*
X106939059Y-88653711D01*
X106939059Y-88653711D02*
X107109370Y-88659789D01*
X107109370Y-88659789D02*
X107190642Y-88660892D01*
X107190642Y-88660892D02*
X107254944Y-88658414D01*
X107254944Y-88658414D02*
X107291112Y-88652887D01*
X107291112Y-88652887D02*
X107294578Y-88650969D01*
X107294578Y-88650969D02*
X107298059Y-88627032D01*
X107298059Y-88627032D02*
X107301251Y-88565694D01*
X107301251Y-88565694D02*
X107304057Y-88471886D01*
X107304057Y-88471886D02*
X107306379Y-88350539D01*
X107306379Y-88350539D02*
X107308119Y-88206586D01*
X107308119Y-88206586D02*
X107309181Y-88044959D01*
X107309181Y-88044959D02*
X107309475Y-87898766D01*
X107309475Y-87898766D02*
X107309475Y-87161461D01*
X107309475Y-87161461D02*
X106928475Y-87161461D01*
X106928475Y-87161461D02*
X106928475Y-87711794D01*
X106928475Y-87711794D02*
X106928475Y-87711794D01*
G36*
X106399309Y-87711794D02*
G01*
X106928475Y-87711794D01*
X106928475Y-87161461D01*
X107309475Y-87161461D01*
X107309475Y-87898766D01*
X107309181Y-88044959D01*
X107308119Y-88206586D01*
X107306379Y-88350539D01*
X107304057Y-88471886D01*
X107301251Y-88565694D01*
X107298059Y-88627032D01*
X107294578Y-88650969D01*
X107291112Y-88652887D01*
X107254944Y-88658414D01*
X107190642Y-88660892D01*
X107109370Y-88659789D01*
X106939059Y-88653711D01*
X106933201Y-88341503D01*
X106927344Y-88029294D01*
X106400441Y-88029294D01*
X106394583Y-88341503D01*
X106388725Y-88653711D01*
X106214100Y-88659859D01*
X106039475Y-88666006D01*
X106039475Y-87161461D01*
X106399309Y-87161461D01*
X106399309Y-87711794D01*
G37*
X106399309Y-87711794D02*
X106928475Y-87711794D01*
X106928475Y-87161461D01*
X107309475Y-87161461D01*
X107309475Y-87898766D01*
X107309181Y-88044959D01*
X107308119Y-88206586D01*
X107306379Y-88350539D01*
X107304057Y-88471886D01*
X107301251Y-88565694D01*
X107298059Y-88627032D01*
X107294578Y-88650969D01*
X107291112Y-88652887D01*
X107254944Y-88658414D01*
X107190642Y-88660892D01*
X107109370Y-88659789D01*
X106939059Y-88653711D01*
X106933201Y-88341503D01*
X106927344Y-88029294D01*
X106400441Y-88029294D01*
X106394583Y-88341503D01*
X106388725Y-88653711D01*
X106214100Y-88659859D01*
X106039475Y-88666006D01*
X106039475Y-87161461D01*
X106399309Y-87161461D01*
X106399309Y-87711794D01*
X107955758Y-86755109D02*
X107852855Y-86776396D01*
X107852855Y-86776396D02*
X107751793Y-86806426D01*
X107751793Y-86806426D02*
X107661976Y-86841419D01*
X107661976Y-86841419D02*
X107592808Y-86877590D01*
X107592808Y-86877590D02*
X107553694Y-86911159D01*
X107553694Y-86911159D02*
X107549840Y-86918365D01*
X107549840Y-86918365D02*
X107546357Y-86952694D01*
X107546357Y-86952694D02*
X107547570Y-87016130D01*
X107547570Y-87016130D02*
X107552468Y-87097556D01*
X107552468Y-87097556D02*
X107560045Y-87185854D01*
X107560045Y-87185854D02*
X107569290Y-87269907D01*
X107569290Y-87269907D02*
X107579196Y-87338596D01*
X107579196Y-87338596D02*
X107588754Y-87380805D01*
X107588754Y-87380805D02*
X107592443Y-87387984D01*
X107592443Y-87387984D02*
X107614551Y-87383326D01*
X107614551Y-87383326D02*
X107654242Y-87355364D01*
X107654242Y-87355364D02*
X107674918Y-87336921D01*
X107674918Y-87336921D02*
X107794678Y-87245001D01*
X107794678Y-87245001D02*
X107923624Y-87191573D01*
X107923624Y-87191573D02*
X108071276Y-87172795D01*
X108071276Y-87172795D02*
X108082059Y-87172681D01*
X108082059Y-87172681D02*
X108224696Y-87187401D01*
X108224696Y-87187401D02*
X108343778Y-87235007D01*
X108343778Y-87235007D02*
X108445936Y-87318698D01*
X108445936Y-87318698D02*
X108487953Y-87368726D01*
X108487953Y-87368726D02*
X108555601Y-87482014D01*
X108555601Y-87482014D02*
X108591039Y-87606438D01*
X108591039Y-87606438D02*
X108596979Y-87752250D01*
X108596979Y-87752250D02*
X108595587Y-87775294D01*
X108595587Y-87775294D02*
X108567199Y-87926349D01*
X108567199Y-87926349D02*
X108508123Y-88052087D01*
X108508123Y-88052087D02*
X108422732Y-88150916D01*
X108422732Y-88150916D02*
X108315398Y-88221242D01*
X108315398Y-88221242D02*
X108190495Y-88261474D01*
X108190495Y-88261474D02*
X108052395Y-88270018D01*
X108052395Y-88270018D02*
X107905472Y-88245281D01*
X107905472Y-88245281D02*
X107754098Y-88185671D01*
X107754098Y-88185671D02*
X107646071Y-88121135D01*
X107646071Y-88121135D02*
X107588610Y-88083834D01*
X107588610Y-88083834D02*
X107546267Y-88060504D01*
X107546267Y-88060504D02*
X107529642Y-88056072D01*
X107529642Y-88056072D02*
X107527438Y-88079472D01*
X107527438Y-88079472D02*
X107528169Y-88136307D01*
X107528169Y-88136307D02*
X107531583Y-88217801D01*
X107531583Y-88217801D02*
X107536816Y-88306072D01*
X107536816Y-88306072D02*
X107552892Y-88547169D01*
X107552892Y-88547169D02*
X107643997Y-88597366D01*
X107643997Y-88597366D02*
X107805799Y-88664212D01*
X107805799Y-88664212D02*
X107985745Y-88700139D01*
X107985745Y-88700139D02*
X108172111Y-88704228D01*
X108172111Y-88704228D02*
X108353176Y-88675562D01*
X108353176Y-88675562D02*
X108413186Y-88657601D01*
X108413186Y-88657601D02*
X108592314Y-88575703D01*
X108592314Y-88575703D02*
X108745515Y-88463643D01*
X108745515Y-88463643D02*
X108870949Y-88326069D01*
X108870949Y-88326069D02*
X108966780Y-88167628D01*
X108966780Y-88167628D02*
X109031170Y-87992968D01*
X109031170Y-87992968D02*
X109062282Y-87806737D01*
X109062282Y-87806737D02*
X109058277Y-87613583D01*
X109058277Y-87613583D02*
X109017320Y-87418153D01*
X109017320Y-87418153D02*
X108960913Y-87272173D01*
X108960913Y-87272173D02*
X108865006Y-87115403D01*
X108865006Y-87115403D02*
X108738073Y-86982009D01*
X108738073Y-86982009D02*
X108586294Y-86875171D01*
X108586294Y-86875171D02*
X108415847Y-86798067D01*
X108415847Y-86798067D02*
X108232912Y-86753874D01*
X108232912Y-86753874D02*
X108043668Y-86745773D01*
X108043668Y-86745773D02*
X107955758Y-86755109D01*
X107955758Y-86755109D02*
X107955758Y-86755109D01*
G36*
X108232912Y-86753874D02*
G01*
X108415847Y-86798067D01*
X108586294Y-86875171D01*
X108738073Y-86982009D01*
X108865006Y-87115403D01*
X108960913Y-87272173D01*
X109017320Y-87418153D01*
X109058277Y-87613583D01*
X109062282Y-87806737D01*
X109031170Y-87992968D01*
X108966780Y-88167628D01*
X108870949Y-88326069D01*
X108745515Y-88463643D01*
X108592314Y-88575703D01*
X108413186Y-88657601D01*
X108353176Y-88675562D01*
X108172111Y-88704228D01*
X107985745Y-88700139D01*
X107805799Y-88664212D01*
X107643997Y-88597366D01*
X107552892Y-88547169D01*
X107536816Y-88306072D01*
X107531583Y-88217801D01*
X107528169Y-88136307D01*
X107527438Y-88079472D01*
X107529642Y-88056072D01*
X107546267Y-88060504D01*
X107588610Y-88083834D01*
X107646071Y-88121135D01*
X107754098Y-88185671D01*
X107905472Y-88245281D01*
X108052395Y-88270018D01*
X108190495Y-88261474D01*
X108315398Y-88221242D01*
X108422732Y-88150916D01*
X108508123Y-88052087D01*
X108567199Y-87926349D01*
X108595587Y-87775294D01*
X108596979Y-87752250D01*
X108591039Y-87606438D01*
X108555601Y-87482014D01*
X108487953Y-87368726D01*
X108445936Y-87318698D01*
X108343778Y-87235007D01*
X108224696Y-87187401D01*
X108082059Y-87172681D01*
X108071276Y-87172795D01*
X107923624Y-87191573D01*
X107794678Y-87245001D01*
X107674918Y-87336921D01*
X107654242Y-87355364D01*
X107614551Y-87383326D01*
X107592443Y-87387984D01*
X107588754Y-87380805D01*
X107579196Y-87338596D01*
X107569290Y-87269907D01*
X107560045Y-87185854D01*
X107552468Y-87097556D01*
X107547570Y-87016130D01*
X107546357Y-86952694D01*
X107549840Y-86918365D01*
X107553694Y-86911159D01*
X107592808Y-86877590D01*
X107661976Y-86841419D01*
X107751793Y-86806426D01*
X107852855Y-86776396D01*
X107955758Y-86755109D01*
X108043668Y-86745773D01*
X108232912Y-86753874D01*
G37*
X108232912Y-86753874D02*
X108415847Y-86798067D01*
X108586294Y-86875171D01*
X108738073Y-86982009D01*
X108865006Y-87115403D01*
X108960913Y-87272173D01*
X109017320Y-87418153D01*
X109058277Y-87613583D01*
X109062282Y-87806737D01*
X109031170Y-87992968D01*
X108966780Y-88167628D01*
X108870949Y-88326069D01*
X108745515Y-88463643D01*
X108592314Y-88575703D01*
X108413186Y-88657601D01*
X108353176Y-88675562D01*
X108172111Y-88704228D01*
X107985745Y-88700139D01*
X107805799Y-88664212D01*
X107643997Y-88597366D01*
X107552892Y-88547169D01*
X107536816Y-88306072D01*
X107531583Y-88217801D01*
X107528169Y-88136307D01*
X107527438Y-88079472D01*
X107529642Y-88056072D01*
X107546267Y-88060504D01*
X107588610Y-88083834D01*
X107646071Y-88121135D01*
X107754098Y-88185671D01*
X107905472Y-88245281D01*
X108052395Y-88270018D01*
X108190495Y-88261474D01*
X108315398Y-88221242D01*
X108422732Y-88150916D01*
X108508123Y-88052087D01*
X108567199Y-87926349D01*
X108595587Y-87775294D01*
X108596979Y-87752250D01*
X108591039Y-87606438D01*
X108555601Y-87482014D01*
X108487953Y-87368726D01*
X108445936Y-87318698D01*
X108343778Y-87235007D01*
X108224696Y-87187401D01*
X108082059Y-87172681D01*
X108071276Y-87172795D01*
X107923624Y-87191573D01*
X107794678Y-87245001D01*
X107674918Y-87336921D01*
X107654242Y-87355364D01*
X107614551Y-87383326D01*
X107592443Y-87387984D01*
X107588754Y-87380805D01*
X107579196Y-87338596D01*
X107569290Y-87269907D01*
X107560045Y-87185854D01*
X107552468Y-87097556D01*
X107547570Y-87016130D01*
X107546357Y-86952694D01*
X107549840Y-86918365D01*
X107553694Y-86911159D01*
X107592808Y-86877590D01*
X107661976Y-86841419D01*
X107751793Y-86806426D01*
X107852855Y-86776396D01*
X107955758Y-86755109D01*
X108043668Y-86745773D01*
X108232912Y-86753874D01*
G04 #@! TD*
%LPC*%
D13*
G04 #@! TO.C,LS1*
X112000000Y-77000000D03*
X112000000Y-87000000D03*
G04 #@! TD*
D14*
G04 #@! TO.C,TP1*
X109275000Y-92525000D03*
G04 #@! TD*
D15*
G04 #@! TO.C,H2*
X120500000Y-93000000D03*
G04 #@! TD*
G04 #@! TO.C,H5*
X103500000Y-71000000D03*
G04 #@! TD*
G04 #@! TO.C,H3*
X120500000Y-71000000D03*
G04 #@! TD*
G04 #@! TO.C,H4*
X103500000Y-93000000D03*
G04 #@! TD*
D16*
G04 #@! TO.C,R1*
X109600000Y-78412500D03*
X109600000Y-76587500D03*
G04 #@! TD*
G04 #@! TO.C,R3*
X114675000Y-78462500D03*
X114675000Y-76637500D03*
G04 #@! TD*
D17*
G04 #@! TO.C,C3*
X117387500Y-82825000D03*
X119112500Y-82825000D03*
G04 #@! TD*
D18*
G04 #@! TO.C,C4*
X119350000Y-79887500D03*
X119350000Y-78162500D03*
G04 #@! TD*
D17*
G04 #@! TO.C,C5*
X117387500Y-85200000D03*
X119112500Y-85200000D03*
G04 #@! TD*
D18*
G04 #@! TO.C,C1*
X117275000Y-80762500D03*
X117275000Y-79037500D03*
G04 #@! TD*
G04 #@! TO.C,C2*
X107070000Y-79532500D03*
X107070000Y-77807500D03*
G04 #@! TD*
D19*
G04 #@! TO.C,U2*
X114862500Y-80225000D03*
X114862500Y-80875000D03*
X114862500Y-81525000D03*
X114862500Y-82175000D03*
X114862500Y-82825000D03*
X114862500Y-83475000D03*
X114862500Y-84125000D03*
X114862500Y-84775000D03*
X109137500Y-84775000D03*
X109137500Y-84125000D03*
X109137500Y-83475000D03*
X109137500Y-82825000D03*
X109137500Y-82175000D03*
X109137500Y-81525000D03*
X109137500Y-80875000D03*
X109137500Y-80225000D03*
G04 #@! TD*
D20*
G04 #@! TO.C,R2*
X114900000Y-86412500D03*
X114900000Y-88237500D03*
G04 #@! TD*
D21*
G04 #@! TO.C,J1*
X114500000Y-70500000D03*
D22*
X111960000Y-70500000D03*
X109420000Y-70500000D03*
G04 #@! TD*
D23*
G04 #@! TO.C,U1*
X105080000Y-79650000D03*
X104430000Y-79650000D03*
X103780000Y-79650000D03*
X103780000Y-76990000D03*
X105080000Y-76990000D03*
G04 #@! TD*
M02*
