G04 #@! TF.GenerationSoftware,KiCad,Pcbnew,(6.0.2)*
G04 #@! TF.CreationDate,2022-05-11T22:03:01-05:00*
G04 #@! TF.ProjectId,Transmit US,5472616e-736d-4697-9420-55532e6b6963,rev?*
G04 #@! TF.SameCoordinates,Original*
G04 #@! TF.FileFunction,Copper,L1,Top*
G04 #@! TF.FilePolarity,Positive*
%FSLAX46Y46*%
G04 Gerber Fmt 4.6, Leading zero omitted, Abs format (unit mm)*
G04 Created by KiCad (PCBNEW (6.0.2)) date 2022-05-11 22:03:01*
%MOMM*%
%LPD*%
G01*
G04 APERTURE LIST*
G04 #@! TA.AperFunction,ComponentPad*
%ADD10C,2.000000*%
G04 #@! TD*
G04 #@! TA.AperFunction,ComponentPad*
%ADD11C,2.800000*%
G04 #@! TD*
G04 #@! TA.AperFunction,ComponentPad*
%ADD12R,1.700000X1.700000*%
G04 #@! TD*
G04 #@! TA.AperFunction,ComponentPad*
%ADD13O,1.700000X1.700000*%
G04 #@! TD*
G04 #@! TA.AperFunction,ViaPad*
%ADD14C,0.762000*%
G04 #@! TD*
G04 APERTURE END LIST*
D10*
G04 #@! TO.P,LS1,1,1*
G04 #@! TO.N,/PZT+*
X112000000Y-77000000D03*
G04 #@! TO.P,LS1,2,2*
G04 #@! TO.N,/PZT-*
X112000000Y-87000000D03*
G04 #@! TD*
D11*
G04 #@! TO.P,TP1,1,1*
G04 #@! TO.N,GNDREF*
X109275000Y-92525000D03*
G04 #@! TD*
D12*
G04 #@! TO.P,J1,1,Pin_1*
G04 #@! TO.N,+3V3*
X114500000Y-70500000D03*
D13*
G04 #@! TO.P,J1,2,Pin_2*
G04 #@! TO.N,GNDREF*
X111960000Y-70500000D03*
G04 #@! TO.P,J1,3,Pin_3*
G04 #@! TO.N,Net-(J1-Pad3)*
X109420000Y-70500000D03*
G04 #@! TD*
D14*
G04 #@! TO.N,GNDREF*
X102980000Y-79680000D03*
X120800000Y-78162500D03*
X107740000Y-80930000D03*
X108430000Y-77812500D03*
X119290000Y-86540000D03*
G04 #@! TD*
G04 #@! TA.AperFunction,Conductor*
G04 #@! TO.N,GNDREF*
G36*
X120487153Y-67756421D02*
G01*
X120500000Y-67758976D01*
X120512169Y-67756556D01*
X120524582Y-67756556D01*
X120524582Y-67756652D01*
X120535527Y-67755862D01*
X120832699Y-67771436D01*
X120845815Y-67772814D01*
X121168359Y-67823900D01*
X121181259Y-67826642D01*
X121496695Y-67911162D01*
X121509231Y-67915236D01*
X121778214Y-68018488D01*
X121814098Y-68032263D01*
X121826146Y-68037627D01*
X122117120Y-68185885D01*
X122128542Y-68192480D01*
X122402417Y-68370337D01*
X122413086Y-68378089D01*
X122666867Y-68583597D01*
X122676668Y-68592422D01*
X122907578Y-68823332D01*
X122916403Y-68833133D01*
X123121911Y-69086914D01*
X123129661Y-69097581D01*
X123307520Y-69371458D01*
X123314115Y-69382880D01*
X123462373Y-69673854D01*
X123467737Y-69685902D01*
X123566514Y-69943223D01*
X123584762Y-69990761D01*
X123588838Y-70003305D01*
X123673358Y-70318741D01*
X123676100Y-70331641D01*
X123727186Y-70654185D01*
X123728564Y-70667301D01*
X123744029Y-70962383D01*
X123744138Y-70964470D01*
X123743348Y-70975418D01*
X123743444Y-70975418D01*
X123743444Y-70987831D01*
X123741024Y-71000000D01*
X123743579Y-71012844D01*
X123746000Y-71037425D01*
X123746000Y-92962575D01*
X123743579Y-92987153D01*
X123741024Y-93000000D01*
X123743444Y-93012169D01*
X123743444Y-93024582D01*
X123743348Y-93024582D01*
X123744138Y-93035527D01*
X123732321Y-93261014D01*
X123728564Y-93332698D01*
X123727186Y-93345815D01*
X123676100Y-93668359D01*
X123673358Y-93681259D01*
X123588838Y-93996695D01*
X123584764Y-94009231D01*
X123517636Y-94184107D01*
X123467737Y-94314098D01*
X123462373Y-94326146D01*
X123314115Y-94617120D01*
X123307520Y-94628542D01*
X123169993Y-94840315D01*
X123129663Y-94902417D01*
X123121911Y-94913086D01*
X122916403Y-95166867D01*
X122907578Y-95176668D01*
X122676668Y-95407578D01*
X122666867Y-95416403D01*
X122413086Y-95621911D01*
X122402417Y-95629663D01*
X122128542Y-95807520D01*
X122117120Y-95814115D01*
X121826146Y-95962373D01*
X121814097Y-95967737D01*
X121509231Y-96084764D01*
X121496695Y-96088838D01*
X121181259Y-96173358D01*
X121168359Y-96176100D01*
X120845815Y-96227186D01*
X120832699Y-96228564D01*
X120535527Y-96244138D01*
X120524582Y-96243348D01*
X120524582Y-96243444D01*
X120512169Y-96243444D01*
X120500000Y-96241024D01*
X120487153Y-96243579D01*
X120462575Y-96246000D01*
X103537425Y-96246000D01*
X103512847Y-96243579D01*
X103500000Y-96241024D01*
X103487831Y-96243444D01*
X103475418Y-96243444D01*
X103475418Y-96243348D01*
X103464473Y-96244138D01*
X103167301Y-96228564D01*
X103154185Y-96227186D01*
X102831641Y-96176100D01*
X102818741Y-96173358D01*
X102503305Y-96088838D01*
X102490769Y-96084764D01*
X102185903Y-95967737D01*
X102173854Y-95962373D01*
X101882880Y-95814115D01*
X101871458Y-95807520D01*
X101597583Y-95629663D01*
X101586914Y-95621911D01*
X101333133Y-95416403D01*
X101323332Y-95407578D01*
X101092422Y-95176668D01*
X101083597Y-95166867D01*
X100878089Y-94913086D01*
X100870337Y-94902417D01*
X100830008Y-94840315D01*
X100692480Y-94628542D01*
X100685885Y-94617120D01*
X100537627Y-94326146D01*
X100532263Y-94314098D01*
X100482364Y-94184107D01*
X100415236Y-94009231D01*
X100411162Y-93996695D01*
X100326642Y-93681259D01*
X100323900Y-93668359D01*
X100272814Y-93345815D01*
X100271436Y-93332698D01*
X100267679Y-93261014D01*
X100256211Y-93042186D01*
X101641018Y-93042186D01*
X101666579Y-93310100D01*
X101667664Y-93314534D01*
X101667665Y-93314540D01*
X101729461Y-93567080D01*
X101730547Y-93571518D01*
X101831583Y-93820963D01*
X101967569Y-94053210D01*
X102135658Y-94263395D01*
X102332327Y-94447113D01*
X102553457Y-94600516D01*
X102794416Y-94720391D01*
X102798750Y-94721812D01*
X102798753Y-94721813D01*
X103045823Y-94802807D01*
X103045829Y-94802808D01*
X103050156Y-94804227D01*
X103054647Y-94805007D01*
X103054648Y-94805007D01*
X103311538Y-94849611D01*
X103311546Y-94849612D01*
X103315319Y-94850267D01*
X103319156Y-94850458D01*
X103398777Y-94854422D01*
X103398785Y-94854422D01*
X103400348Y-94854500D01*
X103568374Y-94854500D01*
X103570642Y-94854335D01*
X103570654Y-94854335D01*
X103701457Y-94844844D01*
X103768425Y-94839985D01*
X103772880Y-94839001D01*
X103772883Y-94839001D01*
X104026770Y-94782947D01*
X104026772Y-94782946D01*
X104031226Y-94781963D01*
X104282900Y-94686613D01*
X104518172Y-94555931D01*
X104664842Y-94443996D01*
X104728491Y-94395421D01*
X104728495Y-94395417D01*
X104732116Y-94392654D01*
X104920249Y-94200203D01*
X105027242Y-94053210D01*
X105034815Y-94042806D01*
X108122361Y-94042806D01*
X108129751Y-94053108D01*
X108171630Y-94087203D01*
X108178909Y-94092318D01*
X108402756Y-94227085D01*
X108410670Y-94231118D01*
X108651286Y-94333006D01*
X108659691Y-94335883D01*
X108912257Y-94402850D01*
X108920989Y-94404516D01*
X109180474Y-94435227D01*
X109189340Y-94435645D01*
X109450561Y-94429490D01*
X109459414Y-94428653D01*
X109717162Y-94385752D01*
X109725796Y-94383679D01*
X109974930Y-94304888D01*
X109983192Y-94301617D01*
X110218731Y-94188513D01*
X110226455Y-94184107D01*
X110420268Y-94054606D01*
X110428556Y-94044688D01*
X110421299Y-94030509D01*
X109287812Y-92897022D01*
X109273868Y-92889408D01*
X109272035Y-92889539D01*
X109265420Y-92893790D01*
X108129527Y-94029683D01*
X108122361Y-94042806D01*
X105034815Y-94042806D01*
X105075942Y-93986304D01*
X105075947Y-93986297D01*
X105078630Y-93982610D01*
X105203941Y-93744433D01*
X105293557Y-93490662D01*
X105323390Y-93339299D01*
X105344720Y-93231083D01*
X105344721Y-93231077D01*
X105345601Y-93226611D01*
X105354782Y-93042186D01*
X105358755Y-92962383D01*
X105358755Y-92962377D01*
X105358982Y-92957814D01*
X105333421Y-92689900D01*
X105321676Y-92641899D01*
X105279458Y-92469367D01*
X107363245Y-92469367D01*
X107373503Y-92730459D01*
X107374478Y-92739288D01*
X107421422Y-92996332D01*
X107423631Y-93004934D01*
X107506324Y-93252796D01*
X107509728Y-93261014D01*
X107626519Y-93494750D01*
X107631043Y-93502398D01*
X107746352Y-93669235D01*
X107756673Y-93677589D01*
X107770323Y-93670467D01*
X108902978Y-92537812D01*
X108909356Y-92526132D01*
X109639408Y-92526132D01*
X109639539Y-92527965D01*
X109643790Y-92534580D01*
X110780517Y-93671307D01*
X110793917Y-93678624D01*
X110803821Y-93671637D01*
X110819686Y-93652763D01*
X110824905Y-93645580D01*
X110963171Y-93423876D01*
X110967333Y-93416017D01*
X111072988Y-93177030D01*
X111075994Y-93168680D01*
X111111669Y-93042186D01*
X118641018Y-93042186D01*
X118666579Y-93310100D01*
X118667664Y-93314534D01*
X118667665Y-93314540D01*
X118729461Y-93567080D01*
X118730547Y-93571518D01*
X118831583Y-93820963D01*
X118967569Y-94053210D01*
X119135658Y-94263395D01*
X119332327Y-94447113D01*
X119553457Y-94600516D01*
X119794416Y-94720391D01*
X119798750Y-94721812D01*
X119798753Y-94721813D01*
X120045823Y-94802807D01*
X120045829Y-94802808D01*
X120050156Y-94804227D01*
X120054647Y-94805007D01*
X120054648Y-94805007D01*
X120311538Y-94849611D01*
X120311546Y-94849612D01*
X120315319Y-94850267D01*
X120319156Y-94850458D01*
X120398777Y-94854422D01*
X120398785Y-94854422D01*
X120400348Y-94854500D01*
X120568374Y-94854500D01*
X120570642Y-94854335D01*
X120570654Y-94854335D01*
X120701457Y-94844844D01*
X120768425Y-94839985D01*
X120772880Y-94839001D01*
X120772883Y-94839001D01*
X121026770Y-94782947D01*
X121026772Y-94782946D01*
X121031226Y-94781963D01*
X121282900Y-94686613D01*
X121518172Y-94555931D01*
X121664842Y-94443996D01*
X121728491Y-94395421D01*
X121728495Y-94395417D01*
X121732116Y-94392654D01*
X121920249Y-94200203D01*
X122027242Y-94053210D01*
X122075942Y-93986304D01*
X122075947Y-93986297D01*
X122078630Y-93982610D01*
X122203941Y-93744433D01*
X122293557Y-93490662D01*
X122323390Y-93339299D01*
X122344720Y-93231083D01*
X122344721Y-93231077D01*
X122345601Y-93226611D01*
X122354782Y-93042186D01*
X122358755Y-92962383D01*
X122358755Y-92962377D01*
X122358982Y-92957814D01*
X122333421Y-92689900D01*
X122321676Y-92641899D01*
X122270539Y-92432920D01*
X122269453Y-92428482D01*
X122168417Y-92179037D01*
X122071606Y-92013696D01*
X122034741Y-91950735D01*
X122034740Y-91950734D01*
X122032431Y-91946790D01*
X121864342Y-91736605D01*
X121667673Y-91552887D01*
X121446543Y-91399484D01*
X121205584Y-91279609D01*
X121201250Y-91278188D01*
X121201247Y-91278187D01*
X120954177Y-91197193D01*
X120954171Y-91197192D01*
X120949844Y-91195773D01*
X120945352Y-91194993D01*
X120688462Y-91150389D01*
X120688454Y-91150388D01*
X120684681Y-91149733D01*
X120674718Y-91149237D01*
X120601223Y-91145578D01*
X120601215Y-91145578D01*
X120599652Y-91145500D01*
X120431626Y-91145500D01*
X120429358Y-91145665D01*
X120429346Y-91145665D01*
X120298543Y-91155156D01*
X120231575Y-91160015D01*
X120227120Y-91160999D01*
X120227117Y-91160999D01*
X119973230Y-91217053D01*
X119973228Y-91217054D01*
X119968774Y-91218037D01*
X119717100Y-91313387D01*
X119481828Y-91444069D01*
X119478196Y-91446841D01*
X119271509Y-91604579D01*
X119271505Y-91604583D01*
X119267884Y-91607346D01*
X119079751Y-91799797D01*
X119077066Y-91803486D01*
X118924058Y-92013696D01*
X118924053Y-92013703D01*
X118921370Y-92017390D01*
X118796059Y-92255567D01*
X118706443Y-92509338D01*
X118703133Y-92526132D01*
X118670855Y-92689900D01*
X118654399Y-92773389D01*
X118654172Y-92777942D01*
X118654172Y-92777945D01*
X118642969Y-93002998D01*
X118641018Y-93042186D01*
X111111669Y-93042186D01*
X111146921Y-92917192D01*
X111148722Y-92908499D01*
X111183672Y-92648292D01*
X111184200Y-92641899D01*
X111187773Y-92528222D01*
X111187646Y-92521779D01*
X111169106Y-92259923D01*
X111167853Y-92251119D01*
X111112858Y-91995677D01*
X111110379Y-91987144D01*
X111019941Y-91742002D01*
X111016286Y-91733907D01*
X110892206Y-91503947D01*
X110887447Y-91496449D01*
X110802759Y-91381790D01*
X110791631Y-91373348D01*
X110779038Y-91380172D01*
X109647022Y-92512188D01*
X109639408Y-92526132D01*
X108909356Y-92526132D01*
X108910592Y-92523868D01*
X108910461Y-92522035D01*
X108906210Y-92515420D01*
X107770819Y-91380029D01*
X107757978Y-91373017D01*
X107747289Y-91380813D01*
X107695663Y-91446299D01*
X107690658Y-91453663D01*
X107559420Y-91679605D01*
X107555516Y-91687575D01*
X107457420Y-91929763D01*
X107454676Y-91938207D01*
X107391683Y-92191800D01*
X107390156Y-92200551D01*
X107363524Y-92460483D01*
X107363245Y-92469367D01*
X105279458Y-92469367D01*
X105270539Y-92432920D01*
X105269453Y-92428482D01*
X105168417Y-92179037D01*
X105071606Y-92013696D01*
X105034741Y-91950735D01*
X105034740Y-91950734D01*
X105032431Y-91946790D01*
X104864342Y-91736605D01*
X104667673Y-91552887D01*
X104446543Y-91399484D01*
X104205584Y-91279609D01*
X104201250Y-91278188D01*
X104201247Y-91278187D01*
X103954177Y-91197193D01*
X103954171Y-91197192D01*
X103949844Y-91195773D01*
X103945352Y-91194993D01*
X103688462Y-91150389D01*
X103688454Y-91150388D01*
X103684681Y-91149733D01*
X103674718Y-91149237D01*
X103601223Y-91145578D01*
X103601215Y-91145578D01*
X103599652Y-91145500D01*
X103431626Y-91145500D01*
X103429358Y-91145665D01*
X103429346Y-91145665D01*
X103298543Y-91155156D01*
X103231575Y-91160015D01*
X103227120Y-91160999D01*
X103227117Y-91160999D01*
X102973230Y-91217053D01*
X102973228Y-91217054D01*
X102968774Y-91218037D01*
X102717100Y-91313387D01*
X102481828Y-91444069D01*
X102478196Y-91446841D01*
X102271509Y-91604579D01*
X102271505Y-91604583D01*
X102267884Y-91607346D01*
X102079751Y-91799797D01*
X102077066Y-91803486D01*
X101924058Y-92013696D01*
X101924053Y-92013703D01*
X101921370Y-92017390D01*
X101796059Y-92255567D01*
X101706443Y-92509338D01*
X101703133Y-92526132D01*
X101670855Y-92689900D01*
X101654399Y-92773389D01*
X101654172Y-92777942D01*
X101654172Y-92777945D01*
X101642969Y-93002998D01*
X101641018Y-93042186D01*
X100256211Y-93042186D01*
X100255862Y-93035527D01*
X100256652Y-93024582D01*
X100256556Y-93024582D01*
X100256556Y-93012169D01*
X100258976Y-93000000D01*
X100256421Y-92987153D01*
X100254000Y-92962575D01*
X100254000Y-91007688D01*
X108123045Y-91007688D01*
X108130025Y-91020815D01*
X109262188Y-92152978D01*
X109276132Y-92160592D01*
X109277965Y-92160461D01*
X109284580Y-92156210D01*
X110419804Y-91020986D01*
X110426658Y-91008434D01*
X110418450Y-90997363D01*
X110328762Y-90928916D01*
X110321313Y-90924023D01*
X110093353Y-90796359D01*
X110085303Y-90792571D01*
X109841617Y-90698295D01*
X109833127Y-90695683D01*
X109578578Y-90636683D01*
X109569800Y-90635293D01*
X109309478Y-90612746D01*
X109300607Y-90612606D01*
X109039696Y-90626965D01*
X109030886Y-90628079D01*
X108774607Y-90679055D01*
X108766050Y-90681396D01*
X108519496Y-90767980D01*
X108511362Y-90771500D01*
X108279477Y-90891955D01*
X108271905Y-90896594D01*
X108131447Y-90996967D01*
X108123045Y-91007688D01*
X100254000Y-91007688D01*
X100254000Y-87000000D01*
X110740708Y-87000000D01*
X110759839Y-87218674D01*
X110816653Y-87430703D01*
X110818978Y-87435688D01*
X110907095Y-87624659D01*
X110907098Y-87624664D01*
X110909421Y-87629646D01*
X111035326Y-87809457D01*
X111190543Y-87964674D01*
X111195051Y-87967831D01*
X111195054Y-87967833D01*
X111365845Y-88087422D01*
X111370354Y-88090579D01*
X111375336Y-88092902D01*
X111375341Y-88092905D01*
X111476116Y-88139896D01*
X111569297Y-88183347D01*
X111781326Y-88240161D01*
X112000000Y-88259292D01*
X112218674Y-88240161D01*
X112430703Y-88183347D01*
X112523884Y-88139896D01*
X112624659Y-88092905D01*
X112624664Y-88092902D01*
X112629646Y-88090579D01*
X112634155Y-88087422D01*
X112804946Y-87967833D01*
X112804949Y-87967831D01*
X112809457Y-87964674D01*
X112964674Y-87809457D01*
X113090579Y-87629646D01*
X113092902Y-87624664D01*
X113092905Y-87624659D01*
X113181022Y-87435688D01*
X113183347Y-87430703D01*
X113240161Y-87218674D01*
X113259292Y-87000000D01*
X113240161Y-86781326D01*
X113183347Y-86569297D01*
X113139896Y-86476116D01*
X113092905Y-86375341D01*
X113092902Y-86375336D01*
X113090579Y-86370354D01*
X112964674Y-86190543D01*
X112809457Y-86035326D01*
X112804949Y-86032169D01*
X112804946Y-86032167D01*
X112634155Y-85912578D01*
X112634153Y-85912577D01*
X112629646Y-85909421D01*
X112624664Y-85907098D01*
X112624659Y-85907095D01*
X112523884Y-85860104D01*
X112430703Y-85816653D01*
X112218674Y-85759839D01*
X112000000Y-85740708D01*
X111781326Y-85759839D01*
X111569297Y-85816653D01*
X111476116Y-85860104D01*
X111375341Y-85907095D01*
X111375336Y-85907098D01*
X111370354Y-85909421D01*
X111365847Y-85912577D01*
X111365845Y-85912578D01*
X111195054Y-86032167D01*
X111195051Y-86032169D01*
X111190543Y-86035326D01*
X111035326Y-86190543D01*
X110909421Y-86370354D01*
X110907098Y-86375336D01*
X110907095Y-86375341D01*
X110860104Y-86476116D01*
X110816653Y-86569297D01*
X110759839Y-86781326D01*
X110740708Y-87000000D01*
X100254000Y-87000000D01*
X100254000Y-77000000D01*
X110740708Y-77000000D01*
X110759839Y-77218674D01*
X110816653Y-77430703D01*
X110818978Y-77435688D01*
X110907095Y-77624659D01*
X110907098Y-77624664D01*
X110909421Y-77629646D01*
X111035326Y-77809457D01*
X111190543Y-77964674D01*
X111195051Y-77967831D01*
X111195054Y-77967833D01*
X111365845Y-78087422D01*
X111370354Y-78090579D01*
X111375336Y-78092902D01*
X111375341Y-78092905D01*
X111476116Y-78139896D01*
X111569297Y-78183347D01*
X111781326Y-78240161D01*
X112000000Y-78259292D01*
X112218674Y-78240161D01*
X112430703Y-78183347D01*
X112523884Y-78139896D01*
X112624659Y-78092905D01*
X112624664Y-78092902D01*
X112629646Y-78090579D01*
X112634155Y-78087422D01*
X112804946Y-77967833D01*
X112804949Y-77967831D01*
X112809457Y-77964674D01*
X112964674Y-77809457D01*
X113090579Y-77629646D01*
X113092902Y-77624664D01*
X113092905Y-77624659D01*
X113181022Y-77435688D01*
X113183347Y-77430703D01*
X113240161Y-77218674D01*
X113259292Y-77000000D01*
X113240161Y-76781326D01*
X113183347Y-76569297D01*
X113139896Y-76476116D01*
X113092905Y-76375341D01*
X113092902Y-76375336D01*
X113090579Y-76370354D01*
X112964674Y-76190543D01*
X112809457Y-76035326D01*
X112804949Y-76032169D01*
X112804946Y-76032167D01*
X112634155Y-75912578D01*
X112634153Y-75912577D01*
X112629646Y-75909421D01*
X112624664Y-75907098D01*
X112624659Y-75907095D01*
X112523884Y-75860104D01*
X112430703Y-75816653D01*
X112218674Y-75759839D01*
X112000000Y-75740708D01*
X111781326Y-75759839D01*
X111569297Y-75816653D01*
X111476116Y-75860104D01*
X111375341Y-75907095D01*
X111375336Y-75907098D01*
X111370354Y-75909421D01*
X111365847Y-75912577D01*
X111365845Y-75912578D01*
X111195054Y-76032167D01*
X111195051Y-76032169D01*
X111190543Y-76035326D01*
X111035326Y-76190543D01*
X110909421Y-76370354D01*
X110907098Y-76375336D01*
X110907095Y-76375341D01*
X110860104Y-76476116D01*
X110816653Y-76569297D01*
X110759839Y-76781326D01*
X110740708Y-77000000D01*
X100254000Y-77000000D01*
X100254000Y-71042186D01*
X101641018Y-71042186D01*
X101666579Y-71310100D01*
X101667664Y-71314534D01*
X101667665Y-71314540D01*
X101725933Y-71552662D01*
X101730547Y-71571518D01*
X101831583Y-71820963D01*
X101967569Y-72053210D01*
X102135658Y-72263395D01*
X102332327Y-72447113D01*
X102553457Y-72600516D01*
X102794416Y-72720391D01*
X102798750Y-72721812D01*
X102798753Y-72721813D01*
X103045823Y-72802807D01*
X103045829Y-72802808D01*
X103050156Y-72804227D01*
X103054647Y-72805007D01*
X103054648Y-72805007D01*
X103311538Y-72849611D01*
X103311546Y-72849612D01*
X103315319Y-72850267D01*
X103319156Y-72850458D01*
X103398777Y-72854422D01*
X103398785Y-72854422D01*
X103400348Y-72854500D01*
X103568374Y-72854500D01*
X103570642Y-72854335D01*
X103570654Y-72854335D01*
X103701457Y-72844844D01*
X103768425Y-72839985D01*
X103772880Y-72839001D01*
X103772883Y-72839001D01*
X104026770Y-72782947D01*
X104026772Y-72782946D01*
X104031226Y-72781963D01*
X104282900Y-72686613D01*
X104518172Y-72555931D01*
X104664842Y-72443996D01*
X104728491Y-72395421D01*
X104728495Y-72395417D01*
X104732116Y-72392654D01*
X104920249Y-72200203D01*
X105027242Y-72053210D01*
X105075942Y-71986304D01*
X105075947Y-71986297D01*
X105078630Y-71982610D01*
X105203941Y-71744433D01*
X105293557Y-71490662D01*
X105319704Y-71358002D01*
X105344720Y-71231083D01*
X105344721Y-71231077D01*
X105345601Y-71226611D01*
X105350275Y-71132718D01*
X105358755Y-70962383D01*
X105358755Y-70962377D01*
X105358982Y-70957814D01*
X105333421Y-70689900D01*
X105329414Y-70673522D01*
X105279848Y-70470964D01*
X108311148Y-70470964D01*
X108324424Y-70673522D01*
X108325845Y-70679118D01*
X108325846Y-70679123D01*
X108349787Y-70773389D01*
X108374392Y-70870269D01*
X108376809Y-70875512D01*
X108412650Y-70953258D01*
X108459377Y-71054616D01*
X108576533Y-71220389D01*
X108721938Y-71362035D01*
X108890720Y-71474812D01*
X108896023Y-71477090D01*
X108896026Y-71477092D01*
X109071921Y-71552662D01*
X109077228Y-71554942D01*
X109150244Y-71571464D01*
X109269579Y-71598467D01*
X109269584Y-71598468D01*
X109275216Y-71599742D01*
X109280987Y-71599969D01*
X109280989Y-71599969D01*
X109340756Y-71602317D01*
X109478053Y-71607712D01*
X109585348Y-71592155D01*
X109673231Y-71579413D01*
X109673236Y-71579412D01*
X109678945Y-71578584D01*
X109684409Y-71576729D01*
X109684414Y-71576728D01*
X109865693Y-71515192D01*
X109865698Y-71515190D01*
X109871165Y-71513334D01*
X109903948Y-71494975D01*
X109949138Y-71469667D01*
X110048276Y-71414147D01*
X110087969Y-71381135D01*
X110178851Y-71305548D01*
X110204345Y-71284345D01*
X110276833Y-71197188D01*
X110330453Y-71132718D01*
X110330455Y-71132715D01*
X110334147Y-71128276D01*
X110427052Y-70962383D01*
X110430510Y-70956208D01*
X110430511Y-70956206D01*
X110433334Y-70951165D01*
X110435720Y-70944135D01*
X110436170Y-70943496D01*
X110437541Y-70940416D01*
X110438146Y-70940685D01*
X110476553Y-70886059D01*
X110542305Y-70859278D01*
X110612098Y-70872295D01*
X110663773Y-70920980D01*
X110671777Y-70937229D01*
X110741770Y-71109603D01*
X110746413Y-71118794D01*
X110857694Y-71300388D01*
X110863777Y-71308699D01*
X111003213Y-71469667D01*
X111010580Y-71476883D01*
X111174434Y-71612916D01*
X111182881Y-71618831D01*
X111366756Y-71726279D01*
X111376042Y-71730729D01*
X111575001Y-71806703D01*
X111584899Y-71809579D01*
X111688250Y-71830606D01*
X111702299Y-71829410D01*
X111706000Y-71819065D01*
X111706000Y-71818517D01*
X112214000Y-71818517D01*
X112218064Y-71832359D01*
X112231478Y-71834393D01*
X112238184Y-71833534D01*
X112248262Y-71831392D01*
X112452255Y-71770191D01*
X112461842Y-71766433D01*
X112653095Y-71672739D01*
X112661945Y-71667464D01*
X112835328Y-71543792D01*
X112843200Y-71537139D01*
X112994052Y-71386812D01*
X113000730Y-71378965D01*
X113125003Y-71206020D01*
X113130310Y-71197188D01*
X113156544Y-71144109D01*
X113204658Y-71091903D01*
X113273360Y-71073996D01*
X113340836Y-71096075D01*
X113385664Y-71151129D01*
X113395501Y-71199937D01*
X113395501Y-71375066D01*
X113410266Y-71449301D01*
X113417161Y-71459620D01*
X113417162Y-71459622D01*
X113457516Y-71520015D01*
X113466516Y-71533484D01*
X113550699Y-71589734D01*
X113624933Y-71604500D01*
X114499858Y-71604500D01*
X115375066Y-71604499D01*
X115410818Y-71597388D01*
X115437126Y-71592156D01*
X115437128Y-71592155D01*
X115449301Y-71589734D01*
X115459621Y-71582839D01*
X115459622Y-71582838D01*
X115523168Y-71540377D01*
X115533484Y-71533484D01*
X115589734Y-71449301D01*
X115604500Y-71375067D01*
X115604500Y-71042186D01*
X118641018Y-71042186D01*
X118666579Y-71310100D01*
X118667664Y-71314534D01*
X118667665Y-71314540D01*
X118725933Y-71552662D01*
X118730547Y-71571518D01*
X118831583Y-71820963D01*
X118967569Y-72053210D01*
X119135658Y-72263395D01*
X119332327Y-72447113D01*
X119553457Y-72600516D01*
X119794416Y-72720391D01*
X119798750Y-72721812D01*
X119798753Y-72721813D01*
X120045823Y-72802807D01*
X120045829Y-72802808D01*
X120050156Y-72804227D01*
X120054647Y-72805007D01*
X120054648Y-72805007D01*
X120311538Y-72849611D01*
X120311546Y-72849612D01*
X120315319Y-72850267D01*
X120319156Y-72850458D01*
X120398777Y-72854422D01*
X120398785Y-72854422D01*
X120400348Y-72854500D01*
X120568374Y-72854500D01*
X120570642Y-72854335D01*
X120570654Y-72854335D01*
X120701457Y-72844844D01*
X120768425Y-72839985D01*
X120772880Y-72839001D01*
X120772883Y-72839001D01*
X121026770Y-72782947D01*
X121026772Y-72782946D01*
X121031226Y-72781963D01*
X121282900Y-72686613D01*
X121518172Y-72555931D01*
X121664842Y-72443996D01*
X121728491Y-72395421D01*
X121728495Y-72395417D01*
X121732116Y-72392654D01*
X121920249Y-72200203D01*
X122027242Y-72053210D01*
X122075942Y-71986304D01*
X122075947Y-71986297D01*
X122078630Y-71982610D01*
X122203941Y-71744433D01*
X122293557Y-71490662D01*
X122319704Y-71358002D01*
X122344720Y-71231083D01*
X122344721Y-71231077D01*
X122345601Y-71226611D01*
X122350275Y-71132718D01*
X122358755Y-70962383D01*
X122358755Y-70962377D01*
X122358982Y-70957814D01*
X122333421Y-70689900D01*
X122329414Y-70673522D01*
X122270539Y-70432920D01*
X122269453Y-70428482D01*
X122168417Y-70179037D01*
X122032431Y-69946790D01*
X121864342Y-69736605D01*
X121667673Y-69552887D01*
X121446543Y-69399484D01*
X121205584Y-69279609D01*
X121201250Y-69278188D01*
X121201247Y-69278187D01*
X120954177Y-69197193D01*
X120954171Y-69197192D01*
X120949844Y-69195773D01*
X120887735Y-69184989D01*
X120688462Y-69150389D01*
X120688454Y-69150388D01*
X120684681Y-69149733D01*
X120674718Y-69149237D01*
X120601223Y-69145578D01*
X120601215Y-69145578D01*
X120599652Y-69145500D01*
X120431626Y-69145500D01*
X120429358Y-69145665D01*
X120429346Y-69145665D01*
X120298543Y-69155156D01*
X120231575Y-69160015D01*
X120227120Y-69160999D01*
X120227117Y-69160999D01*
X119973230Y-69217053D01*
X119973228Y-69217054D01*
X119968774Y-69218037D01*
X119717100Y-69313387D01*
X119713114Y-69315601D01*
X119713112Y-69315602D01*
X119530270Y-69417162D01*
X119481828Y-69444069D01*
X119452415Y-69466516D01*
X119271509Y-69604579D01*
X119271505Y-69604583D01*
X119267884Y-69607346D01*
X119264699Y-69610604D01*
X119264698Y-69610605D01*
X119250691Y-69624934D01*
X119079751Y-69799797D01*
X119077066Y-69803486D01*
X118924058Y-70013696D01*
X118924053Y-70013703D01*
X118921370Y-70017390D01*
X118796059Y-70255567D01*
X118706443Y-70509338D01*
X118682345Y-70631600D01*
X118657246Y-70758945D01*
X118654399Y-70773389D01*
X118654172Y-70777942D01*
X118654172Y-70777945D01*
X118641873Y-71025017D01*
X118641018Y-71042186D01*
X115604500Y-71042186D01*
X115604499Y-69624934D01*
X115589734Y-69550699D01*
X115563654Y-69511667D01*
X115540377Y-69476832D01*
X115533484Y-69466516D01*
X115449301Y-69410266D01*
X115375067Y-69395500D01*
X114500142Y-69395500D01*
X113624934Y-69395501D01*
X113591836Y-69402084D01*
X113562874Y-69407844D01*
X113562872Y-69407845D01*
X113550699Y-69410266D01*
X113540379Y-69417161D01*
X113540378Y-69417162D01*
X113503429Y-69441851D01*
X113466516Y-69466516D01*
X113410266Y-69550699D01*
X113395500Y-69624933D01*
X113395500Y-69792852D01*
X113375498Y-69860973D01*
X113321842Y-69907466D01*
X113251568Y-69917570D01*
X113186988Y-69888076D01*
X113161235Y-69855868D01*
X113160912Y-69856077D01*
X113158836Y-69852868D01*
X113158453Y-69852389D01*
X113158099Y-69851729D01*
X113042426Y-69672926D01*
X113036136Y-69664757D01*
X112892806Y-69507240D01*
X112885273Y-69500215D01*
X112718139Y-69368222D01*
X112709552Y-69362517D01*
X112523117Y-69259599D01*
X112513705Y-69255369D01*
X112312959Y-69184280D01*
X112302988Y-69181646D01*
X112231837Y-69168972D01*
X112218540Y-69170432D01*
X112214000Y-69184989D01*
X112214000Y-71818517D01*
X111706000Y-71818517D01*
X111706000Y-69183102D01*
X111702082Y-69169758D01*
X111687806Y-69167771D01*
X111649324Y-69173660D01*
X111639288Y-69176051D01*
X111436868Y-69242212D01*
X111427359Y-69246209D01*
X111238463Y-69344542D01*
X111229738Y-69350036D01*
X111059433Y-69477905D01*
X111051726Y-69484748D01*
X110904590Y-69638717D01*
X110898104Y-69646727D01*
X110778098Y-69822649D01*
X110773000Y-69831623D01*
X110683338Y-70024783D01*
X110679777Y-70034464D01*
X110675291Y-70050640D01*
X110637813Y-70110939D01*
X110573684Y-70141403D01*
X110503266Y-70132360D01*
X110448915Y-70086682D01*
X110440867Y-70072698D01*
X110368331Y-69925609D01*
X110365776Y-69920428D01*
X110244320Y-69757779D01*
X110095258Y-69619987D01*
X110090375Y-69616906D01*
X110090371Y-69616903D01*
X109928464Y-69514748D01*
X109923581Y-69511667D01*
X109735039Y-69436446D01*
X109729379Y-69435320D01*
X109729375Y-69435319D01*
X109541613Y-69397971D01*
X109541610Y-69397971D01*
X109535946Y-69396844D01*
X109530171Y-69396768D01*
X109530167Y-69396768D01*
X109428793Y-69395441D01*
X109332971Y-69394187D01*
X109327274Y-69395166D01*
X109327273Y-69395166D01*
X109239397Y-69410266D01*
X109132910Y-69428564D01*
X108942463Y-69498824D01*
X108768010Y-69602612D01*
X108763670Y-69606418D01*
X108763666Y-69606421D01*
X108673036Y-69685902D01*
X108615392Y-69736455D01*
X108489720Y-69895869D01*
X108487031Y-69900980D01*
X108487029Y-69900983D01*
X108462929Y-69946790D01*
X108395203Y-70075515D01*
X108335007Y-70269378D01*
X108311148Y-70470964D01*
X105279848Y-70470964D01*
X105270539Y-70432920D01*
X105269453Y-70428482D01*
X105168417Y-70179037D01*
X105032431Y-69946790D01*
X104864342Y-69736605D01*
X104667673Y-69552887D01*
X104446543Y-69399484D01*
X104205584Y-69279609D01*
X104201250Y-69278188D01*
X104201247Y-69278187D01*
X103954177Y-69197193D01*
X103954171Y-69197192D01*
X103949844Y-69195773D01*
X103887735Y-69184989D01*
X103688462Y-69150389D01*
X103688454Y-69150388D01*
X103684681Y-69149733D01*
X103674718Y-69149237D01*
X103601223Y-69145578D01*
X103601215Y-69145578D01*
X103599652Y-69145500D01*
X103431626Y-69145500D01*
X103429358Y-69145665D01*
X103429346Y-69145665D01*
X103298543Y-69155156D01*
X103231575Y-69160015D01*
X103227120Y-69160999D01*
X103227117Y-69160999D01*
X102973230Y-69217053D01*
X102973228Y-69217054D01*
X102968774Y-69218037D01*
X102717100Y-69313387D01*
X102713114Y-69315601D01*
X102713112Y-69315602D01*
X102530270Y-69417162D01*
X102481828Y-69444069D01*
X102452415Y-69466516D01*
X102271509Y-69604579D01*
X102271505Y-69604583D01*
X102267884Y-69607346D01*
X102264699Y-69610604D01*
X102264698Y-69610605D01*
X102250691Y-69624934D01*
X102079751Y-69799797D01*
X102077066Y-69803486D01*
X101924058Y-70013696D01*
X101924053Y-70013703D01*
X101921370Y-70017390D01*
X101796059Y-70255567D01*
X101706443Y-70509338D01*
X101682345Y-70631600D01*
X101657246Y-70758945D01*
X101654399Y-70773389D01*
X101654172Y-70777942D01*
X101654172Y-70777945D01*
X101641873Y-71025017D01*
X101641018Y-71042186D01*
X100254000Y-71042186D01*
X100254000Y-71037425D01*
X100256421Y-71012844D01*
X100258976Y-71000000D01*
X100256556Y-70987831D01*
X100256556Y-70975418D01*
X100256652Y-70975418D01*
X100255862Y-70964470D01*
X100255972Y-70962383D01*
X100271436Y-70667301D01*
X100272814Y-70654185D01*
X100323900Y-70331641D01*
X100326642Y-70318741D01*
X100411162Y-70003305D01*
X100415238Y-69990761D01*
X100433487Y-69943223D01*
X100532263Y-69685902D01*
X100537627Y-69673854D01*
X100685885Y-69382880D01*
X100692480Y-69371458D01*
X100870339Y-69097581D01*
X100878089Y-69086914D01*
X101083597Y-68833133D01*
X101092422Y-68823332D01*
X101323332Y-68592422D01*
X101333133Y-68583597D01*
X101586914Y-68378089D01*
X101597583Y-68370337D01*
X101871458Y-68192480D01*
X101882880Y-68185885D01*
X102173854Y-68037627D01*
X102185902Y-68032263D01*
X102221786Y-68018488D01*
X102490769Y-67915236D01*
X102503305Y-67911162D01*
X102818741Y-67826642D01*
X102831641Y-67823900D01*
X103154185Y-67772814D01*
X103167301Y-67771436D01*
X103464473Y-67755862D01*
X103475418Y-67756652D01*
X103475418Y-67756556D01*
X103487831Y-67756556D01*
X103500000Y-67758976D01*
X103512847Y-67756421D01*
X103537425Y-67754000D01*
X120462575Y-67754000D01*
X120487153Y-67756421D01*
G37*
G04 #@! TD.AperFunction*
G04 #@! TD*
M02*
