G04 #@! TF.GenerationSoftware,KiCad,Pcbnew,(6.0.2)*
G04 #@! TF.CreationDate,2022-05-11T22:03:01-05:00*
G04 #@! TF.ProjectId,Transmit US,5472616e-736d-4697-9420-55532e6b6963,rev?*
G04 #@! TF.SameCoordinates,Original*
G04 #@! TF.FileFunction,Copper,L2,Bot*
G04 #@! TF.FilePolarity,Positive*
%FSLAX46Y46*%
G04 Gerber Fmt 4.6, Leading zero omitted, Abs format (unit mm)*
G04 Created by KiCad (PCBNEW (6.0.2)) date 2022-05-11 22:03:01*
%MOMM*%
%LPD*%
G01*
G04 APERTURE LIST*
G04 Aperture macros list*
%AMRoundRect*
0 Rectangle with rounded corners*
0 $1 Rounding radius*
0 $2 $3 $4 $5 $6 $7 $8 $9 X,Y pos of 4 corners*
0 Add a 4 corners polygon primitive as box body*
4,1,4,$2,$3,$4,$5,$6,$7,$8,$9,$2,$3,0*
0 Add four circle primitives for the rounded corners*
1,1,$1+$1,$2,$3*
1,1,$1+$1,$4,$5*
1,1,$1+$1,$6,$7*
1,1,$1+$1,$8,$9*
0 Add four rect primitives between the rounded corners*
20,1,$1+$1,$2,$3,$4,$5,0*
20,1,$1+$1,$4,$5,$6,$7,0*
20,1,$1+$1,$6,$7,$8,$9,0*
20,1,$1+$1,$8,$9,$2,$3,0*%
G04 Aperture macros list end*
G04 #@! TA.AperFunction,ComponentPad*
%ADD10C,2.000000*%
G04 #@! TD*
G04 #@! TA.AperFunction,ComponentPad*
%ADD11C,2.800000*%
G04 #@! TD*
G04 #@! TA.AperFunction,SMDPad,CuDef*
%ADD12RoundRect,0.237500X0.237500X-0.250000X0.237500X0.250000X-0.237500X0.250000X-0.237500X-0.250000X0*%
G04 #@! TD*
G04 #@! TA.AperFunction,SMDPad,CuDef*
%ADD13RoundRect,0.237500X-0.300000X-0.237500X0.300000X-0.237500X0.300000X0.237500X-0.300000X0.237500X0*%
G04 #@! TD*
G04 #@! TA.AperFunction,SMDPad,CuDef*
%ADD14RoundRect,0.237500X0.237500X-0.300000X0.237500X0.300000X-0.237500X0.300000X-0.237500X-0.300000X0*%
G04 #@! TD*
G04 #@! TA.AperFunction,SMDPad,CuDef*
%ADD15RoundRect,0.100000X0.637500X0.100000X-0.637500X0.100000X-0.637500X-0.100000X0.637500X-0.100000X0*%
G04 #@! TD*
G04 #@! TA.AperFunction,SMDPad,CuDef*
%ADD16RoundRect,0.237500X-0.237500X0.250000X-0.237500X-0.250000X0.237500X-0.250000X0.237500X0.250000X0*%
G04 #@! TD*
G04 #@! TA.AperFunction,ComponentPad*
%ADD17R,1.700000X1.700000*%
G04 #@! TD*
G04 #@! TA.AperFunction,ComponentPad*
%ADD18O,1.700000X1.700000*%
G04 #@! TD*
G04 #@! TA.AperFunction,SMDPad,CuDef*
%ADD19R,0.400000X1.500000*%
G04 #@! TD*
G04 #@! TA.AperFunction,ViaPad*
%ADD20C,0.762000*%
G04 #@! TD*
G04 #@! TA.AperFunction,Conductor*
%ADD21C,0.254000*%
G04 #@! TD*
G04 #@! TA.AperFunction,Conductor*
%ADD22C,0.203200*%
G04 #@! TD*
G04 #@! TA.AperFunction,Conductor*
%ADD23C,0.203000*%
G04 #@! TD*
G04 #@! TA.AperFunction,Conductor*
%ADD24C,0.200000*%
G04 #@! TD*
G04 APERTURE END LIST*
D10*
G04 #@! TO.P,LS1,1,1*
G04 #@! TO.N,/PZT+*
X112000000Y-77000000D03*
G04 #@! TO.P,LS1,2,2*
G04 #@! TO.N,/PZT-*
X112000000Y-87000000D03*
G04 #@! TD*
D11*
G04 #@! TO.P,TP1,1,1*
G04 #@! TO.N,GNDREF*
X109275000Y-92525000D03*
G04 #@! TD*
D12*
G04 #@! TO.P,R1,1*
G04 #@! TO.N,Net-(R1-Pad1)*
X109600000Y-78412500D03*
G04 #@! TO.P,R1,2*
G04 #@! TO.N,/PZT+*
X109600000Y-76587500D03*
G04 #@! TD*
G04 #@! TO.P,R3,1*
G04 #@! TO.N,/PZT-*
X114675000Y-78462500D03*
G04 #@! TO.P,R3,2*
G04 #@! TO.N,/PZT+*
X114675000Y-76637500D03*
G04 #@! TD*
D13*
G04 #@! TO.P,C3,1*
G04 #@! TO.N,Net-(C3-Pad1)*
X117387500Y-82825000D03*
G04 #@! TO.P,C3,2*
G04 #@! TO.N,Net-(C3-Pad2)*
X119112500Y-82825000D03*
G04 #@! TD*
D14*
G04 #@! TO.P,C4,1*
G04 #@! TO.N,Net-(C4-Pad1)*
X119350000Y-79887500D03*
G04 #@! TO.P,C4,2*
G04 #@! TO.N,GNDREF*
X119350000Y-78162500D03*
G04 #@! TD*
D13*
G04 #@! TO.P,C5,1*
G04 #@! TO.N,Net-(C5-Pad1)*
X117387500Y-85200000D03*
G04 #@! TO.P,C5,2*
G04 #@! TO.N,GNDREF*
X119112500Y-85200000D03*
G04 #@! TD*
D14*
G04 #@! TO.P,C1,1*
G04 #@! TO.N,Net-(C1-Pad1)*
X117275000Y-80762500D03*
G04 #@! TO.P,C1,2*
G04 #@! TO.N,Net-(C1-Pad2)*
X117275000Y-79037500D03*
G04 #@! TD*
G04 #@! TO.P,C2,1*
G04 #@! TO.N,+3V3*
X107070000Y-79532500D03*
G04 #@! TO.P,C2,2*
G04 #@! TO.N,GNDREF*
X107070000Y-77807500D03*
G04 #@! TD*
D15*
G04 #@! TO.P,U2,1,C1+*
G04 #@! TO.N,Net-(C1-Pad2)*
X114862500Y-80225000D03*
G04 #@! TO.P,U2,2,VS+*
G04 #@! TO.N,Net-(C4-Pad1)*
X114862500Y-80875000D03*
G04 #@! TO.P,U2,3,C1-*
G04 #@! TO.N,Net-(C1-Pad1)*
X114862500Y-81525000D03*
G04 #@! TO.P,U2,4,C2+*
G04 #@! TO.N,Net-(C3-Pad2)*
X114862500Y-82175000D03*
G04 #@! TO.P,U2,5,C2-*
G04 #@! TO.N,Net-(C3-Pad1)*
X114862500Y-82825000D03*
G04 #@! TO.P,U2,6,VS-*
G04 #@! TO.N,Net-(C5-Pad1)*
X114862500Y-83475000D03*
G04 #@! TO.P,U2,7,T2OUT*
G04 #@! TO.N,Net-(R2-Pad1)*
X114862500Y-84125000D03*
G04 #@! TO.P,U2,8,R2IN*
G04 #@! TO.N,unconnected-(U2-Pad8)*
X114862500Y-84775000D03*
G04 #@! TO.P,U2,9,R2OUT*
G04 #@! TO.N,unconnected-(U2-Pad9)*
X109137500Y-84775000D03*
G04 #@! TO.P,U2,10,T2IN*
G04 #@! TO.N,Net-(J1-Pad3)*
X109137500Y-84125000D03*
G04 #@! TO.P,U2,11,T1IN*
G04 #@! TO.N,Net-(U1-Pad4)*
X109137500Y-83475000D03*
G04 #@! TO.P,U2,12,R1OUT*
G04 #@! TO.N,unconnected-(U2-Pad12)*
X109137500Y-82825000D03*
G04 #@! TO.P,U2,13,R1IN*
G04 #@! TO.N,unconnected-(U2-Pad13)*
X109137500Y-82175000D03*
G04 #@! TO.P,U2,14,T1OUT*
G04 #@! TO.N,Net-(R1-Pad1)*
X109137500Y-81525000D03*
G04 #@! TO.P,U2,15,GND*
G04 #@! TO.N,GNDREF*
X109137500Y-80875000D03*
G04 #@! TO.P,U2,16,VCC*
G04 #@! TO.N,+3V3*
X109137500Y-80225000D03*
G04 #@! TD*
D16*
G04 #@! TO.P,R2,1*
G04 #@! TO.N,Net-(R2-Pad1)*
X114900000Y-86412500D03*
G04 #@! TO.P,R2,2*
G04 #@! TO.N,/PZT-*
X114900000Y-88237500D03*
G04 #@! TD*
D17*
G04 #@! TO.P,J1,1,Pin_1*
G04 #@! TO.N,+3V3*
X114500000Y-70500000D03*
D18*
G04 #@! TO.P,J1,2,Pin_2*
G04 #@! TO.N,GNDREF*
X111960000Y-70500000D03*
G04 #@! TO.P,J1,3,Pin_3*
G04 #@! TO.N,Net-(J1-Pad3)*
X109420000Y-70500000D03*
G04 #@! TD*
D19*
G04 #@! TO.P,U1,1,NC*
G04 #@! TO.N,unconnected-(U1-Pad1)*
X105080000Y-79650000D03*
G04 #@! TO.P,U1,2*
G04 #@! TO.N,Net-(J1-Pad3)*
X104430000Y-79650000D03*
G04 #@! TO.P,U1,3,GND*
G04 #@! TO.N,GNDREF*
X103780000Y-79650000D03*
G04 #@! TO.P,U1,4*
G04 #@! TO.N,Net-(U1-Pad4)*
X103780000Y-76990000D03*
G04 #@! TO.P,U1,5,VCC*
G04 #@! TO.N,+3V3*
X105080000Y-76990000D03*
G04 #@! TD*
D20*
G04 #@! TO.N,GNDREF*
X102980000Y-79680000D03*
X120800000Y-78162500D03*
X107740000Y-80930000D03*
X108430000Y-77812500D03*
X119290000Y-86540000D03*
G04 #@! TD*
D21*
G04 #@! TO.N,GNDREF*
X108417500Y-77825000D02*
X108430000Y-77812500D01*
D22*
X102980000Y-79680000D02*
X103750000Y-79680000D01*
D23*
X109137500Y-80875000D02*
X107795000Y-80875000D01*
X119375000Y-78150000D02*
X120787500Y-78150000D01*
X119290000Y-86540000D02*
X119287500Y-86537500D01*
D22*
X103750000Y-79680000D02*
X103780000Y-79650000D01*
D23*
X120787500Y-78150000D02*
X120800000Y-78162500D01*
X107795000Y-80875000D02*
X107740000Y-80930000D01*
D21*
X107070000Y-77825000D02*
X108417500Y-77825000D01*
D23*
X119287500Y-86537500D02*
X119287500Y-85200000D01*
G04 #@! TO.N,Net-(C1-Pad1)*
X117262500Y-80775000D02*
X116475000Y-80775000D01*
X115725000Y-81525000D02*
X114862500Y-81525000D01*
X116475000Y-80775000D02*
X115725000Y-81525000D01*
X117275000Y-80762500D02*
X117262500Y-80775000D01*
G04 #@! TO.N,Net-(C1-Pad2)*
X116412500Y-79037500D02*
X116000000Y-79450000D01*
X115597879Y-80225000D02*
X114862500Y-80225000D01*
X116000000Y-79822879D02*
X115597879Y-80225000D01*
X116000000Y-79450000D02*
X116000000Y-79822879D01*
X117275000Y-79037500D02*
X116412500Y-79037500D01*
D21*
G04 #@! TO.N,+3V3*
X107070000Y-79490000D02*
X107070000Y-79532500D01*
X108792500Y-79532500D02*
X108825000Y-79500000D01*
X107284720Y-76715280D02*
X106774720Y-76715280D01*
X107070000Y-79532500D02*
X108792500Y-79532500D01*
X108460000Y-75540000D02*
X107284720Y-76715280D01*
X105080000Y-76750000D02*
X105114720Y-76715280D01*
X110612000Y-74300000D02*
X109372000Y-75540000D01*
X109137500Y-79812500D02*
X109137500Y-80225000D01*
X105980000Y-78400000D02*
X107070000Y-79490000D01*
X109372000Y-75540000D02*
X108460000Y-75540000D01*
X105114720Y-76715280D02*
X106774720Y-76715280D01*
X114569000Y-70358000D02*
X110627000Y-74300000D01*
X105080000Y-76990000D02*
X105080000Y-76750000D01*
X108825000Y-79500000D02*
X109137500Y-79812500D01*
X105980000Y-76715280D02*
X105980000Y-78400000D01*
X106774720Y-76715280D02*
X105980000Y-76715280D01*
D23*
G04 #@! TO.N,Net-(C3-Pad1)*
X114862500Y-82825000D02*
X117387500Y-82825000D01*
G04 #@! TO.N,Net-(C3-Pad2)*
X115925001Y-82175000D02*
X114862500Y-82175000D01*
X118212500Y-81925000D02*
X116175001Y-81925000D01*
X119112500Y-82825000D02*
X118212500Y-81925000D01*
X116175001Y-81925000D02*
X115925001Y-82175000D01*
G04 #@! TO.N,Net-(C4-Pad1)*
X116506653Y-79890000D02*
X115521653Y-80875000D01*
X115521653Y-80875000D02*
X114862500Y-80875000D01*
X119350000Y-79887500D02*
X119247500Y-79890000D01*
X119247500Y-79890000D02*
X116506653Y-79890000D01*
G04 #@! TO.N,Net-(C5-Pad1)*
X117387500Y-84575000D02*
X116287500Y-83475000D01*
X116287500Y-83475000D02*
X114862500Y-83475000D01*
X117387500Y-85200000D02*
X117387500Y-84575000D01*
G04 #@! TO.N,Net-(J1-Pad3)*
X103870000Y-78410000D02*
X103641578Y-78410000D01*
X103641578Y-78410000D02*
X103180000Y-77948422D01*
X103180000Y-76031578D02*
X103601578Y-75610000D01*
D22*
X104450000Y-78784058D02*
X104450000Y-79630000D01*
D23*
X104222000Y-75610000D02*
X109474000Y-70358000D01*
D22*
X104430000Y-79650000D02*
X104430000Y-80603200D01*
D23*
X103180000Y-77948422D02*
X103180000Y-76031578D01*
D22*
X107951800Y-84125000D02*
X109137500Y-84125000D01*
X104430000Y-80603200D02*
X107951800Y-84125000D01*
X104075942Y-78410000D02*
X104450000Y-78784058D01*
X104450000Y-79630000D02*
X104430000Y-79650000D01*
X103870000Y-78410000D02*
X104075942Y-78410000D01*
D23*
X103601578Y-75610000D02*
X104222000Y-75610000D01*
G04 #@! TO.N,Net-(R1-Pad1)*
X110550000Y-81010000D02*
X110550000Y-78850000D01*
X110112500Y-78412500D02*
X109600000Y-78412500D01*
X109137500Y-81525000D02*
X110035000Y-81525000D01*
X110550000Y-78850000D02*
X110112500Y-78412500D01*
X110035000Y-81525000D02*
X110550000Y-81010000D01*
G04 #@! TO.N,Net-(R2-Pad1)*
X114862500Y-84125000D02*
X113990000Y-84125000D01*
X113990000Y-84125000D02*
X113740000Y-84375000D01*
X113740000Y-86040000D02*
X114112500Y-86412500D01*
X114112500Y-86412500D02*
X114900000Y-86412500D01*
X113740000Y-84375000D02*
X113740000Y-86040000D01*
D22*
G04 #@! TO.N,Net-(U1-Pad4)*
X105640000Y-80970000D02*
X105640000Y-78750000D01*
X104460000Y-78220000D02*
X103780000Y-77540000D01*
X103780000Y-77540000D02*
X103780000Y-76990000D01*
D23*
X108130000Y-83460000D02*
X108145000Y-83475000D01*
D22*
X105110000Y-78220000D02*
X104460000Y-78220000D01*
D23*
X108145000Y-83475000D02*
X109137500Y-83475000D01*
D22*
X105640000Y-78750000D02*
X105110000Y-78220000D01*
X108130000Y-83460000D02*
X105640000Y-80970000D01*
D24*
G04 #@! TO.N,/PZT+*
X114675000Y-76625000D02*
X112375000Y-76625000D01*
X111625000Y-76625000D02*
X112000000Y-77000000D01*
X112375000Y-76625000D02*
X112000000Y-77000000D01*
X109600000Y-76587500D02*
X111625000Y-76625000D01*
G04 #@! TO.N,/PZT-*
X114887500Y-88225000D02*
X113225000Y-88225000D01*
X114675000Y-78625000D02*
X114675000Y-78462500D01*
X113637500Y-78462500D02*
X112000000Y-80100000D01*
X114675000Y-78462500D02*
X113637500Y-78462500D01*
X112000000Y-80100000D02*
X112000000Y-87000000D01*
X114900000Y-88237500D02*
X114887500Y-88225000D01*
X113225000Y-88225000D02*
X112000000Y-87000000D01*
G04 #@! TD*
G04 #@! TA.AperFunction,Conductor*
G04 #@! TO.N,GNDREF*
G36*
X103153796Y-79341876D02*
G01*
X103210910Y-79377204D01*
X103212422Y-79378317D01*
X103248458Y-79409636D01*
X103269935Y-79428302D01*
X103270762Y-79429095D01*
X103323476Y-79484848D01*
X103323788Y-79485192D01*
X103373089Y-79541680D01*
X103420330Y-79593659D01*
X103466942Y-79635927D01*
X103514513Y-79663463D01*
X103515589Y-79663630D01*
X103563304Y-79671038D01*
X103563305Y-79671038D01*
X103564632Y-79671244D01*
X103565911Y-79670843D01*
X103565914Y-79670843D01*
X103617886Y-79654561D01*
X103617888Y-79654560D01*
X103618887Y-79654247D01*
X103642368Y-79635927D01*
X103670711Y-79613814D01*
X103679342Y-79611427D01*
X103686181Y-79614766D01*
X103813492Y-79742077D01*
X103816919Y-79750350D01*
X103813492Y-79758623D01*
X103812712Y-79759336D01*
X103760324Y-79803016D01*
X103758335Y-79804355D01*
X103699452Y-79835743D01*
X103697214Y-79836653D01*
X103640132Y-79853246D01*
X103638216Y-79853633D01*
X103582070Y-79860157D01*
X103580930Y-79860233D01*
X103525114Y-79861233D01*
X103524932Y-79861235D01*
X103508866Y-79861274D01*
X103469397Y-79861370D01*
X103444962Y-79863177D01*
X103414799Y-79865407D01*
X103414795Y-79865408D01*
X103414344Y-79865441D01*
X103413904Y-79865544D01*
X103413897Y-79865545D01*
X103383535Y-79872648D01*
X103359538Y-79878261D01*
X103304664Y-79904646D01*
X103304137Y-79905073D01*
X103304129Y-79905078D01*
X103255698Y-79944310D01*
X103247113Y-79946855D01*
X103242420Y-79945314D01*
X102802838Y-79687813D01*
X102797432Y-79680675D01*
X102798657Y-79671804D01*
X102800642Y-79669285D01*
X102816951Y-79653602D01*
X103139530Y-79343393D01*
X103147869Y-79340128D01*
X103153796Y-79341876D01*
G37*
G04 #@! TD.AperFunction*
G04 #@! TD*
G04 #@! TA.AperFunction,Conductor*
G04 #@! TO.N,GNDREF*
G36*
X120651108Y-77820409D02*
G01*
X120981908Y-78160007D01*
X120985226Y-78168325D01*
X120981357Y-78176865D01*
X120665242Y-78461580D01*
X120629084Y-78494146D01*
X120620643Y-78497136D01*
X120615478Y-78495626D01*
X120556141Y-78461935D01*
X120555555Y-78461580D01*
X120499098Y-78424977D01*
X120498765Y-78424752D01*
X120448992Y-78389769D01*
X120402962Y-78357152D01*
X120402881Y-78357099D01*
X120402866Y-78357089D01*
X120357959Y-78327823D01*
X120357760Y-78327693D01*
X120310309Y-78302071D01*
X120310012Y-78301952D01*
X120310003Y-78301948D01*
X120257887Y-78281104D01*
X120257884Y-78281103D01*
X120257534Y-78280963D01*
X120196358Y-78265046D01*
X120172131Y-78261696D01*
X120123984Y-78255037D01*
X120123975Y-78255036D01*
X120123706Y-78254999D01*
X120047730Y-78251951D01*
X120039602Y-78248195D01*
X120036500Y-78240260D01*
X120036500Y-78059755D01*
X120039927Y-78051482D01*
X120047746Y-78048064D01*
X120097739Y-78046123D01*
X120125836Y-78045033D01*
X120200321Y-78035133D01*
X120263151Y-78019551D01*
X120263458Y-78019435D01*
X120263465Y-78019433D01*
X120296881Y-78006824D01*
X120317523Y-77999035D01*
X120333041Y-77991231D01*
X120366451Y-77974430D01*
X120366461Y-77974425D01*
X120366635Y-77974337D01*
X120366809Y-77974233D01*
X120366818Y-77974228D01*
X120413587Y-77946265D01*
X120413606Y-77946253D01*
X120413685Y-77946206D01*
X120461837Y-77915415D01*
X120461950Y-77915344D01*
X120514163Y-77882788D01*
X120514598Y-77882529D01*
X120574125Y-77848896D01*
X120574770Y-77848558D01*
X120637617Y-77818048D01*
X120646556Y-77817517D01*
X120651108Y-77820409D01*
G37*
G04 #@! TD.AperFunction*
G04 #@! TD*
G04 #@! TA.AperFunction,Conductor*
G04 #@! TO.N,/PZT+*
G36*
X112132840Y-76010289D02*
G01*
X112303663Y-76031520D01*
X112305011Y-76031769D01*
X112499743Y-76079604D01*
X112501004Y-76079990D01*
X112667725Y-76141531D01*
X112668649Y-76141918D01*
X112818071Y-76212142D01*
X112818471Y-76212340D01*
X112961129Y-76286164D01*
X113036307Y-76323268D01*
X113107093Y-76358205D01*
X113107100Y-76358208D01*
X113107278Y-76358296D01*
X113267229Y-76423439D01*
X113267522Y-76423523D01*
X113267530Y-76423526D01*
X113450598Y-76476143D01*
X113451492Y-76476400D01*
X113451827Y-76476454D01*
X113451834Y-76476456D01*
X113670256Y-76511932D01*
X113670264Y-76511933D01*
X113670579Y-76511984D01*
X113923876Y-76524452D01*
X113931970Y-76528282D01*
X113935000Y-76536138D01*
X113935000Y-76714013D01*
X113931573Y-76722286D01*
X113924035Y-76725690D01*
X113728933Y-76737975D01*
X113728931Y-76737975D01*
X113728475Y-76738004D01*
X113561552Y-76775453D01*
X113493759Y-76805370D01*
X113427180Y-76834751D01*
X113427177Y-76834753D01*
X113426628Y-76834995D01*
X113426141Y-76835344D01*
X113426138Y-76835346D01*
X113317832Y-76913040D01*
X113316101Y-76914282D01*
X113222370Y-77010963D01*
X113137832Y-77122690D01*
X113081197Y-77207647D01*
X113054887Y-77247113D01*
X113054857Y-77247158D01*
X112966061Y-77381686D01*
X112965798Y-77382068D01*
X112863609Y-77524308D01*
X112863092Y-77524975D01*
X112745049Y-77666510D01*
X112737119Y-77670668D01*
X112731676Y-77669862D01*
X111999616Y-77373706D01*
X111997542Y-77372867D01*
X111997541Y-77372867D01*
X111535933Y-77186123D01*
X112005642Y-76144171D01*
X112065996Y-76010288D01*
X112072519Y-76004155D01*
X112078103Y-76003486D01*
X112132840Y-76010289D01*
G37*
G04 #@! TD.AperFunction*
G04 #@! TD*
G04 #@! TA.AperFunction,Conductor*
G04 #@! TO.N,GNDREF*
G36*
X108259028Y-77480804D02*
G01*
X108503555Y-77701041D01*
X108611357Y-77798135D01*
X108615211Y-77806218D01*
X108611908Y-77814993D01*
X108281057Y-78154643D01*
X108272830Y-78158178D01*
X108267653Y-78157046D01*
X108261491Y-78154117D01*
X108206359Y-78127907D01*
X108205914Y-78127683D01*
X108178790Y-78113265D01*
X108146959Y-78096343D01*
X108146690Y-78096195D01*
X108094338Y-78066577D01*
X108045755Y-78039259D01*
X108045654Y-78039202D01*
X107997800Y-78014656D01*
X107947790Y-77993443D01*
X107915468Y-77983260D01*
X107892922Y-77976156D01*
X107892919Y-77976155D01*
X107892639Y-77976067D01*
X107829364Y-77963032D01*
X107754979Y-77954842D01*
X107677823Y-77952364D01*
X107669666Y-77948673D01*
X107666500Y-77940670D01*
X107666500Y-77709314D01*
X107669927Y-77701041D01*
X107677808Y-77697621D01*
X107752518Y-77695116D01*
X107752522Y-77695116D01*
X107752752Y-77695108D01*
X107802519Y-77689357D01*
X107824971Y-77686762D01*
X107824973Y-77686762D01*
X107825247Y-77686730D01*
X107825514Y-77686672D01*
X107825519Y-77686671D01*
X107886528Y-77673375D01*
X107886534Y-77673373D01*
X107886843Y-77673306D01*
X107940397Y-77655279D01*
X107988765Y-77633091D01*
X108034805Y-77607184D01*
X108081372Y-77578000D01*
X108081379Y-77577996D01*
X108131217Y-77546051D01*
X108131421Y-77545923D01*
X108187318Y-77511694D01*
X108187736Y-77511450D01*
X108223248Y-77491673D01*
X108245508Y-77479277D01*
X108254403Y-77478246D01*
X108259028Y-77480804D01*
G37*
G04 #@! TD.AperFunction*
G04 #@! TD*
G04 #@! TA.AperFunction,Conductor*
G04 #@! TO.N,GNDREF*
G36*
X107863865Y-80569900D02*
G01*
X107902250Y-80583605D01*
X107932731Y-80594488D01*
X107933445Y-80594770D01*
X107963878Y-80607943D01*
X107998268Y-80622828D01*
X107998770Y-80623061D01*
X108055539Y-80651133D01*
X108055682Y-80651205D01*
X108107737Y-80678438D01*
X108158286Y-80703884D01*
X108158450Y-80703955D01*
X108158458Y-80703959D01*
X108210405Y-80726535D01*
X108210649Y-80726641D01*
X108210886Y-80726720D01*
X108210891Y-80726722D01*
X108267933Y-80745752D01*
X108267940Y-80745754D01*
X108268213Y-80745845D01*
X108268507Y-80745911D01*
X108268508Y-80745911D01*
X108334070Y-80760566D01*
X108334077Y-80760567D01*
X108334367Y-80760632D01*
X108334667Y-80760669D01*
X108334670Y-80760669D01*
X108379954Y-80766179D01*
X108412500Y-80770139D01*
X108440067Y-80771130D01*
X108494720Y-80773095D01*
X108502865Y-80776816D01*
X108506000Y-80784787D01*
X108506000Y-80965280D01*
X108502573Y-80973553D01*
X108494790Y-80976970D01*
X108454405Y-80978664D01*
X108421709Y-80980036D01*
X108351501Y-80990271D01*
X108351156Y-80990367D01*
X108351150Y-80990368D01*
X108292892Y-81006538D01*
X108292889Y-81006539D01*
X108292511Y-81006644D01*
X108241871Y-81028594D01*
X108241547Y-81028787D01*
X108241544Y-81028789D01*
X108196959Y-81055414D01*
X108196952Y-81055419D01*
X108196717Y-81055559D01*
X108196490Y-81055727D01*
X108196488Y-81055728D01*
X108154293Y-81086893D01*
X108154280Y-81086903D01*
X108154180Y-81086977D01*
X108154084Y-81087056D01*
X108154083Y-81087057D01*
X108111397Y-81122288D01*
X108065627Y-81160823D01*
X108065391Y-81161017D01*
X108013849Y-81202162D01*
X108013376Y-81202520D01*
X107959731Y-81241058D01*
X107951013Y-81243102D01*
X107946069Y-81241051D01*
X107561289Y-80964048D01*
X107556577Y-80956434D01*
X107558904Y-80947351D01*
X107850712Y-80573717D01*
X107858505Y-80569306D01*
X107863865Y-80569900D01*
G37*
G04 #@! TD.AperFunction*
G04 #@! TD*
G04 #@! TA.AperFunction,Conductor*
G04 #@! TO.N,+3V3*
G36*
X114809930Y-70222040D02*
G01*
X114818002Y-70225916D01*
X114820934Y-70234822D01*
X114719156Y-71312862D01*
X114714967Y-71320776D01*
X114709866Y-71323222D01*
X114562004Y-71353652D01*
X114560758Y-71353839D01*
X114542545Y-71355578D01*
X114420236Y-71367259D01*
X114419307Y-71367309D01*
X114321261Y-71368653D01*
X114290574Y-71369074D01*
X114290127Y-71369071D01*
X114233690Y-71367688D01*
X114170046Y-71366129D01*
X114111501Y-71365799D01*
X114055911Y-71365486D01*
X114055905Y-71365486D01*
X114055684Y-71365485D01*
X113944153Y-71374174D01*
X113832325Y-71399224D01*
X113831840Y-71399428D01*
X113717549Y-71447462D01*
X113717546Y-71447464D01*
X113717074Y-71447662D01*
X113639230Y-71498057D01*
X113595636Y-71526279D01*
X113595633Y-71526281D01*
X113595272Y-71526515D01*
X113594953Y-71526797D01*
X113594948Y-71526801D01*
X113472036Y-71635521D01*
X113463568Y-71638435D01*
X113456011Y-71635030D01*
X113291981Y-71471000D01*
X113288554Y-71462727D01*
X113291502Y-71454963D01*
X113407515Y-71324185D01*
X113407790Y-71323875D01*
X113409369Y-71321478D01*
X113492453Y-71195305D01*
X113492716Y-71194906D01*
X113546801Y-71073181D01*
X113577882Y-70955582D01*
X113593794Y-70838990D01*
X113602374Y-70720287D01*
X113611434Y-70596678D01*
X113611502Y-70596018D01*
X113628807Y-70464646D01*
X113629014Y-70463511D01*
X113662322Y-70321011D01*
X113662720Y-70319673D01*
X113693596Y-70234822D01*
X113717126Y-70170156D01*
X113723176Y-70163554D01*
X113728765Y-70162475D01*
X114809930Y-70222040D01*
G37*
G04 #@! TD.AperFunction*
G04 #@! TD*
G04 #@! TA.AperFunction,Conductor*
G04 #@! TO.N,/PZT-*
G36*
X112883695Y-86670634D02*
G01*
X112935650Y-86671650D01*
X112943854Y-86675238D01*
X112946776Y-86680530D01*
X112993832Y-86870129D01*
X112994120Y-86871796D01*
X113013991Y-87072818D01*
X113014047Y-87073848D01*
X113016108Y-87273043D01*
X113016106Y-87273424D01*
X113011719Y-87465015D01*
X113012349Y-87642919D01*
X113012381Y-87643219D01*
X113012382Y-87643229D01*
X113029410Y-87800629D01*
X113029479Y-87801264D01*
X113074589Y-87934345D01*
X113159157Y-88036463D01*
X113160292Y-88037011D01*
X113160293Y-88037012D01*
X113229165Y-88070278D01*
X113294664Y-88101915D01*
X113482244Y-88123794D01*
X113490064Y-88128155D01*
X113492588Y-88135414D01*
X113492588Y-88312780D01*
X113489161Y-88321053D01*
X113480380Y-88324469D01*
X113284086Y-88315924D01*
X113282967Y-88315821D01*
X113109833Y-88291284D01*
X113108675Y-88291060D01*
X112962167Y-88254921D01*
X112961177Y-88254629D01*
X112833070Y-88210703D01*
X112832482Y-88210482D01*
X112771891Y-88185847D01*
X112714524Y-88162522D01*
X112714442Y-88162488D01*
X112598861Y-88114461D01*
X112598841Y-88114453D01*
X112598713Y-88114400D01*
X112563294Y-88101490D01*
X112477664Y-88070278D01*
X112477655Y-88070275D01*
X112477446Y-88070199D01*
X112342610Y-88033800D01*
X112186147Y-88009100D01*
X112185842Y-88009085D01*
X112185841Y-88009085D01*
X112008578Y-88000419D01*
X112000482Y-87996592D01*
X111997829Y-87991690D01*
X111982851Y-87934345D01*
X111820696Y-87313546D01*
X111646447Y-86646447D01*
X112883695Y-86670634D01*
G37*
G04 #@! TD.AperFunction*
G04 #@! TD*
G04 #@! TA.AperFunction,Conductor*
G04 #@! TO.N,GNDREF*
G36*
X119386027Y-85779927D02*
G01*
X119389445Y-85787737D01*
X119392487Y-85864542D01*
X119402479Y-85937911D01*
X119418269Y-85999732D01*
X119439150Y-86053130D01*
X119439296Y-86053408D01*
X119440055Y-86054852D01*
X119464417Y-86101232D01*
X119493362Y-86147163D01*
X119493424Y-86147254D01*
X119525280Y-86194048D01*
X119525325Y-86194115D01*
X119559332Y-86244815D01*
X119559584Y-86245207D01*
X119595025Y-86302885D01*
X119595376Y-86303497D01*
X119627829Y-86364244D01*
X119628704Y-86373156D01*
X119625995Y-86377812D01*
X119299620Y-86721672D01*
X119291440Y-86725312D01*
X119282755Y-86721781D01*
X118951914Y-86382218D01*
X118948595Y-86373901D01*
X118949904Y-86368673D01*
X118952198Y-86364244D01*
X118981729Y-86307209D01*
X118982076Y-86306588D01*
X119016905Y-86248327D01*
X119017159Y-86247920D01*
X119050696Y-86196706D01*
X119050750Y-86196624D01*
X119082271Y-86149362D01*
X119082271Y-86149361D01*
X119082307Y-86149308D01*
X119110988Y-86103008D01*
X119111079Y-86102832D01*
X119111086Y-86102820D01*
X119135926Y-86054852D01*
X119136070Y-86054574D01*
X119156833Y-86000856D01*
X119157034Y-86000064D01*
X119172475Y-85939023D01*
X119172556Y-85938704D01*
X119182518Y-85864969D01*
X119185558Y-85787740D01*
X119189308Y-85779608D01*
X119197249Y-85776500D01*
X119377754Y-85776500D01*
X119386027Y-85779927D01*
G37*
G04 #@! TD.AperFunction*
G04 #@! TD*
G04 #@! TA.AperFunction,Conductor*
G04 #@! TO.N,/PZT-*
G36*
X112097209Y-85013427D02*
G01*
X112100618Y-85021047D01*
X112113257Y-85247011D01*
X112150692Y-85440109D01*
X112208800Y-85598963D01*
X112284076Y-85733238D01*
X112373016Y-85852602D01*
X112472114Y-85966723D01*
X112577726Y-86085111D01*
X112578011Y-86085444D01*
X112686466Y-86217533D01*
X112687036Y-86218287D01*
X112794974Y-86373804D01*
X112795607Y-86374825D01*
X112895838Y-86556564D01*
X112896833Y-86565463D01*
X112894027Y-86570322D01*
X112799151Y-86668981D01*
X112000000Y-87500000D01*
X111105973Y-86570323D01*
X111102709Y-86561985D01*
X111104162Y-86556564D01*
X111204392Y-86374825D01*
X111205025Y-86373804D01*
X111312963Y-86218287D01*
X111313533Y-86217533D01*
X111421988Y-86085444D01*
X111422273Y-86085111D01*
X111527885Y-85966723D01*
X111626983Y-85852602D01*
X111715923Y-85733238D01*
X111791199Y-85598963D01*
X111849307Y-85440109D01*
X111886742Y-85247011D01*
X111899382Y-85021047D01*
X111903266Y-85012978D01*
X111911064Y-85010000D01*
X112088936Y-85010000D01*
X112097209Y-85013427D01*
G37*
G04 #@! TD.AperFunction*
G04 #@! TD*
G04 #@! TA.AperFunction,Conductor*
G04 #@! TO.N,/PZT+*
G36*
X111943638Y-76005036D02*
G01*
X111947059Y-76009506D01*
X112461572Y-77192225D01*
X111997542Y-77372867D01*
X111259558Y-77660157D01*
X111250606Y-77659965D01*
X111246228Y-77656625D01*
X111130278Y-77513696D01*
X111129764Y-77513013D01*
X111040634Y-77385073D01*
X111029814Y-77369541D01*
X111029557Y-77369155D01*
X110942990Y-77233483D01*
X110942986Y-77233477D01*
X110862230Y-77107929D01*
X110779759Y-76994943D01*
X110687908Y-76896743D01*
X110579013Y-76815553D01*
X110445408Y-76753597D01*
X110279430Y-76713099D01*
X110084363Y-76697178D01*
X110076397Y-76693090D01*
X110073618Y-76685300D01*
X110076912Y-76507450D01*
X110080491Y-76499242D01*
X110088246Y-76495973D01*
X110340473Y-76488128D01*
X110340479Y-76488127D01*
X110340815Y-76488117D01*
X110476523Y-76468434D01*
X110559313Y-76456427D01*
X110559317Y-76456426D01*
X110559656Y-76456377D01*
X110559984Y-76456288D01*
X110559990Y-76456287D01*
X110743732Y-76406570D01*
X110743739Y-76406568D01*
X110744041Y-76406486D01*
X110904370Y-76343833D01*
X111051045Y-76273804D01*
X111194258Y-76201891D01*
X111194656Y-76201700D01*
X111323463Y-76142999D01*
X111344583Y-76133374D01*
X111345499Y-76133004D01*
X111512529Y-76073559D01*
X111513786Y-76073191D01*
X111708539Y-76027839D01*
X111709890Y-76027608D01*
X111935037Y-76002546D01*
X111943638Y-76005036D01*
G37*
G04 #@! TD.AperFunction*
G04 #@! TD*
G04 #@! TA.AperFunction,Conductor*
G04 #@! TO.N,Net-(J1-Pad3)*
G36*
X109733763Y-70226374D02*
G01*
X109741780Y-70230362D01*
X109744589Y-70239308D01*
X109627839Y-71315809D01*
X109623540Y-71323664D01*
X109618380Y-71326044D01*
X109471329Y-71353830D01*
X109467381Y-71354576D01*
X109466082Y-71354747D01*
X109322742Y-71365449D01*
X109321766Y-71365480D01*
X109190564Y-71364082D01*
X109190110Y-71364068D01*
X109067723Y-71357766D01*
X108951304Y-71353830D01*
X108951047Y-71353843D01*
X108951045Y-71353843D01*
X108838316Y-71359534D01*
X108838311Y-71359535D01*
X108837887Y-71359556D01*
X108765764Y-71373952D01*
X108724829Y-71382123D01*
X108724827Y-71382124D01*
X108724299Y-71382229D01*
X108607364Y-71429134D01*
X108606905Y-71429425D01*
X108606906Y-71429425D01*
X108484292Y-71507313D01*
X108484289Y-71507315D01*
X108483910Y-71507556D01*
X108483572Y-71507854D01*
X108359002Y-71617526D01*
X108350528Y-71620420D01*
X108342998Y-71617017D01*
X108214996Y-71489015D01*
X108211569Y-71480742D01*
X108214501Y-71472996D01*
X108309482Y-71365480D01*
X108332893Y-71338980D01*
X108418383Y-71207145D01*
X108418574Y-71206700D01*
X108418577Y-71206695D01*
X108471745Y-71083032D01*
X108471746Y-71083029D01*
X108471933Y-71082594D01*
X108501786Y-70962190D01*
X108516184Y-70842797D01*
X108523370Y-70721277D01*
X108523400Y-70721279D01*
X108523374Y-70721211D01*
X108531564Y-70594871D01*
X108531636Y-70594126D01*
X108549004Y-70459920D01*
X108549227Y-70458706D01*
X108583923Y-70313303D01*
X108584354Y-70311896D01*
X108641800Y-70159339D01*
X108647922Y-70152804D01*
X108653555Y-70151790D01*
X109733763Y-70226374D01*
G37*
G04 #@! TD.AperFunction*
G04 #@! TD*
M02*
